<svg width="20" height="21" viewBox="0 0 20 21" fill="none" xmlns="http://www.w3.org/2000/svg">
<path fill-rule="evenodd" clip-rule="evenodd" d="M0 1.571C0 0.979268 0.479694 0.499573 1.07143 0.499573H5.19231C5.21911 0.499573 5.2457 0.500557 5.27201 0.502493H14.7304C14.756 0.500639 14.7819 0.499703 14.8077 0.499703H18.9286C19.5203 0.499703 20 0.979398 20 1.57113V5.69255C20 8.34863 18.0057 10.5389 15.4327 10.8476C14.7936 12.8036 13.1274 14.2951 11.0714 14.6851V18.3568H14.8077C15.3994 18.3568 15.8791 18.8366 15.8791 19.4283C15.8791 20.02 15.3994 20.4997 14.8077 20.4997H10.0375C10.0251 20.5001 10.0126 20.5004 10 20.5004C9.98744 20.5004 9.97494 20.5001 9.96249 20.4997H5.1923C4.60057 20.4997 4.12087 20.02 4.12087 19.4283C4.12087 18.8366 4.60057 18.3568 5.1923 18.3568H8.92857V14.6851C6.87256 14.2951 5.20644 12.8036 4.56724 10.8476C1.99434 10.5389 0 8.34863 0 5.69255V1.571ZM4.12089 8.54846V2.64243H2.14286V5.69255C2.14286 6.99967 2.96527 8.11472 4.12089 8.54846ZM15.8791 2.64256V8.54846C17.0347 8.11472 17.8571 6.99967 17.8571 5.69255V2.64256H15.8791Z" fill="#418663"/>
</svg>
