<?xml version="1.0" encoding="UTF-8" standalone="no"?>
<!-- Created with Inkscape (http://www.inkscape.org/) -->

<svg
   width="0"
   height="0"
   viewBox="0 0 40 40"
   version="1.1"
   id="svg1"
   xml:space="preserve"
   xmlns:inkscape="http://www.inkscape.org/namespaces/inkscape"
   xmlns:sodipodi="http://sodipodi.sourceforge.net/DTD/sodipodi-0.dtd"
   xmlns="http://www.w3.org/2000/svg"
   xmlns:svg="http://www.w3.org/2000/svg"><sodipodi:namedview
     id="namedview1"
     pagecolor="#ffffff"
     bordercolor="#666666"
     borderopacity="1.0"
     inkscape:showpageshadow="2"
     inkscape:pageopacity="0.0"
     inkscape:pagecheckerboard="0"
     inkscape:deskcolor="#d1d1d1"
     inkscape:document-units="px" /><defs
     id="defs1" /><g
     inkscape:label="Calque 1"
     inkscape:groupmode="layer"
     id="layer1"><g
       id="g1"
       transform="matrix(3.7795276,0,0,3.7795276,4.5390668,-23.711084)"><g
         style="fill:none"
         id="g205"
         transform="matrix(1.3209911,0,0,1.3209911,-4.7839005,-4.7063479)"><path
           d="m 105.695,61.0671 c 0,0 10.853,-1.3896 11.183,-0.6239 0.53,1.2384 -7.364,9.5855 -7.364,9.5855 z"
           fill="#5c6063"
           id="path1" /><path
           d="m 66.2191,64.3568 c 0,0 5.6814,-6.74 16.2405,-9.0466 10.5592,-2.3066 23.4154,1.9473 26.2514,9.1317 3.063,7.761 1.957,16.4674 -3.195,22.7159 C 100.099,93.7277 91.7615,100.732 77.7425,99.6643 66.6162,98.8229 63.0996,94.1625 63.0996,94.1625 Z"
           fill="#fcd41e"
           id="path2" /><path
           d="m 93.6332,72.1651 c 2.7792,7.3073 3.3747,14.5484 3.2802,18.1879 -0.0851,3.6394 -0.3592,4.8778 -0.3592,4.8778 0,0 3.7248,-2.3917 6.0308,-4.6132 1.995,-1.9189 3.46,-3.9892 3.46,-3.9892 0,0 0.974,-10.5591 -2.836,-19.4261 -3.8094,-8.8671 -11.7028,-12.3836 -11.7028,-12.3836 0,0 -2.7036,-0.5767 -5.7664,-0.2175 -3.025,0.3498 -6.7401,1.6827 -6.7401,1.6827 0,0 10.1054,3.9892 14.6335,15.8812 z M 70.7377,60.3582 c 0,0 6.4754,3.4598 10.6442,13.31 4.4335,10.4646 3.545,25.911 3.545,25.911 0,0 -2.7509,0.4258 -5.7665,0.3592 -1.9473,-0.0472 -5.4166,-0.7562 -5.4166,-0.7562 0,0 0.9926,-12.4687 -2.5618,-20.7213 -1.5787,-3.6583 -5.5868,-8.2526 -5.5868,-8.2526 l 0.5767,-6.2107 z"
           fill="#414340"
           id="path3" /><path
           d="m 37.7369,84.6716 c 0,0 -4.6982,2.0419 -8.9616,2.9305 -4.2539,0.8886 -7.8083,0.9737 -9.0466,1.0682 -1.2384,0.0851 -2.836,0.6239 -2.5713,3.3748 0.2269,2.3916 3.7246,2.1458 5.8515,2.0418 3.4599,-0.1796 8.3377,-1.0682 12.601,-2.5712 4.2634,-1.5031 8.6024,-3.8191 8.6024,-3.8191 z"
           fill="#5a6066"
           id="path4" /><path
           opacity="0.7"
           d="m 62.627,61.6911 c 0,0 20.4943,-26.0812 23.2925,-29.8057 2.7981,-3.7246 6.9196,-10.3796 11.58,-10.5119 4.6605,-0.1324 8.9145,4.1215 11.0415,10.3795 2.127,6.258 2.259,12.5632 -1.068,16.7699 -4.528,5.7191 -17.035,14.5105 -26.8851,17.0345 -9.8502,2.524 -15.5693,3.1952 -15.5693,3.1952 z"
           fill="#6da3af"
           id="path5" /><path
           opacity="0.7"
           d="m 61.8235,59.8288 c 0,0 14.3687,-25.0225 17.4315,-31.0063 3.0628,-5.9933 5.8515,-11.5801 5.0574,-15.3708 C 83.6696,10.4078 77.6574,7.25994 69.4049,8.46049 61.1523,9.66103 54.0435,13.0358 53.0415,20.7023 51.9733,28.8225 52.5121,52.1056 52.5121,52.1056 l -1.2005,11.4477 10.6442,1.5976 z"
           fill="#a1c5cb"
           id="path6" /><path
           d="m 13.3194,44.8551 c 0,0 -5.52058,-3.8569 -7.51519,4.3957 -2.31602,9.5382 4.78329,7.8461 4.78329,7.8461 z"
           fill="#000000"
           id="path7" /><path
           d="m 29.2196,35.4775 c 0,0 -1.3329,-6.5888 -3.5922,-11.2492 C 23.3681,19.5679 20.3148,16.42 18.8401,15.6449 17.3087,14.8508 13.2155,14.3687 9.18845,14.2458 6.4565,14.1607 3.80017,14.1135 3.80017,16.1742 c 0,2.4011 3.06281,2.7131 5.18977,2.9305 3.06276,0.312 6.30526,0.709 7.44906,1.002 2.127,0.5294 4.8589,5.8515 5.7191,8.2526 0.8697,2.3917 2.4579,8.5835 2.4579,8.5835 z"
           fill="#848484"
           id="path8" /><path
           d="m 55.4331,55.9719 2.3917,4.1216 c 0,0 3.9892,-3.3275 4.5942,-3.2613 0.5955,0.0661 1.6637,5.5868 1.6637,5.5868 0,0 3.7246,-0.9359 4.2539,-0.5956 0.5294,0.3309 0.2647,4.3295 0.2647,4.3295 0,0 4.6604,0.2647 4.7928,0.6618 0.1323,0.397 -2.0608,4.1215 -2.0608,4.1215 0,0 3.7245,2.2593 3.6583,2.8643 -0.0661,0.5956 -3.1951,3.0628 -3.1951,3.0628 0,0 2.9304,3.3275 2.6658,4.1878 -0.2647,0.8602 -4.4619,1.0682 -4.4619,1.0682 0,0 1.002,4.3295 0.7279,4.7265 -0.2647,0.3971 -4.9251,0.3309 -4.9251,0.3309 0,0 2.2593,3.6584 1.9284,4.0554 -0.3308,0.397 -7.2127,1.815 -7.2127,1.815 0,0 -3.4598,3.8569 -5.9649,4.3673 -2.4767,0.501 -3.6111,-0.0661 -3.6111,-0.0661 L 48.0408,94.484 c 0,0 -6.4565,0.5955 -7.0521,0.1985 -0.5955,-0.3971 -0.7278,-7.9879 -0.7278,-7.9879 0,0 -4.1216,0.3119 -4.3957,-0.1985 -0.2742,-0.5105 0.5955,-4.7266 0.5955,-4.7266 L 47.2373,64.6026 Z"
           fill="#fe8d00"
           id="path9" /><path
           d="m 46.7173,89.3698 c -2.5712,-1.8245 -5.53,1.7583 -7.1182,2.9966 -2.3916,1.8623 -4.6604,5.1236 -12.4403,7.1844 -4.5753,1.2102 -4.3295,2.8642 -3.8569,4.3962 0.5861,1.928 3.3937,1.729 6.7874,0.794 3.3937,-0.936 7.3451,-3.054 8.9143,-4.188 1.9284,-1.3992 6.5226,-5.7193 7.3829,-6.5228 0.8697,-0.7941 2.3916,-3.1952 0.3308,-4.6604 z m 7.1844,2.0608 c -2.1648,-0.8792 -3.5922,0.6617 -4.7266,3.8569 -1.1343,3.1951 -3.2613,9.1125 -4.2539,11.3815 -1.002,2.259 -3.5638,6.504 -0.7278,7.922 3.0628,1.531 4.4618,-1.201 5.3221,-3.063 0.8602,-1.862 3.4598,-8.054 4.1877,-10.512 0.7279,-2.4578 1.1344,-3.7907 1.4652,-4.7265 0.3309,-0.9264 1.2006,-3.8569 -1.2667,-4.8589 z m 7.3924,-0.3309 c -3.025,0.4065 -2.4579,3.9892 -2.2593,6.5888 0.1985,2.5995 0.5955,10.9755 0.4632,12.7055 -0.1324,1.729 0,4.66 3.0628,4.594 3.0628,-0.066 2.9304,-3.46 2.9966,-4.528 0.0662,-1.068 -0.4632,-11.3157 -0.5294,-12.9133 -0.0756,-1.5881 0.1891,-6.9764 -3.7339,-6.447 z"
           fill="#848484"
           id="path10" /><path
           d="M 14.8508,41.1306 C 10.0865,46.0746 6.85349,60.6418 9.85958,69.1402 12.9224,77.7898 19.1709,83.7169 30.354,84.1801 41.537,84.6433 51.3115,77.6575 54.8375,65.6142 58.2123,54.0814 53.9206,39.8733 41.6599,35.5343 31.8854,32.0839 21.9029,33.8139 14.8508,41.1306 Z"
           fill="#febb00"
           id="path11" /><path
           d="m 42.1326,56.1043 c 0,5.0385 -3.9609,9.1223 -8.8481,9.1223 -4.8873,0 -8.8482,-3.1952 -8.8482,-9.1223 0,-5.0385 3.9609,-9.179 8.8482,-9.1223 5.4544,0.0662 8.8481,4.0838 8.8481,9.1223 z"
           fill="#000000"
           id="path12" /><path
           d="m 12.5159,70.5865 c 0.6996,-0.6995 2.3255,-3.2613 3.9893,-1.5314 1.6637,1.7299 -1.2668,3.9231 -1.7961,4.3957 -0.709,0.6239 -2.127,1.002 -2.8643,-0.0662 -0.5011,-0.7373 -0.1891,-1.9379 0.6711,-2.7981 z"
           fill="#fe8d00"
           id="path13" /><path
           d="m 25.7598,12.0527 c -0.2458,1.8434 0.6901,2.4106 3.129,3.0628 2.212,0.5861 6.7117,1.6543 7.7893,2.3917 0.8697,0.5955 2.9967,6.0594 3.5261,12.7711 0.2741,3.4788 0.1323,6.7874 0,9.3775 -0.1135,2.1554 0.3308,3.5922 2.0607,3.8569 1.5693,0.2458 2.836,-0.8224 3.0629,-3.8569 0.2646,-3.6583 0.4726,-5.6151 0,-10.3795 -0.3593,-3.6205 -0.9737,-6.6077 -2.127,-10.5119 -0.9453,-3.1951 -2.4294,-4.9061 -3.923,-5.9932 -1.8056,-1.2951 -5.7192,-2.0608 -8.9143,-2.3917 -2.6847,-0.2647 -4.339,-0.3025 -4.6037,1.6732 z"
           fill="#848484"
           id="path14" /><circle
           cx="34"
           cy="60"
           r="4"
           fill="#d9d9d9"
           id="circle14" /><circle
           cx="9.5"
           cy="46.5"
           r="1.5"
           fill="#d9d9d9"
           id="circle15" /></g></g></g></svg>
