<?xml version="1.0" encoding="UTF-8" standalone="no"?>
<!-- Created with Inkscape (http://www.inkscape.org/) -->

<svg
   width="0"
   height="0"
   viewBox="0 0 40 40"
   version="1.1"
   id="svg1"
   xml:space="preserve"
   xmlns:inkscape="http://www.inkscape.org/namespaces/inkscape"
   xmlns:sodipodi="http://sodipodi.sourceforge.net/DTD/sodipodi-0.dtd"
   xmlns="http://www.w3.org/2000/svg"
   xmlns:svg="http://www.w3.org/2000/svg"
   xmlns:rdf="http://www.w3.org/1999/02/22-rdf-syntax-ns#"
   xmlns:cc="http://creativecommons.org/ns#"
   xmlns:dc="http://purl.org/dc/elements/1.1/"><defs
     id="defs1" /><sodipodi:namedview
     id="base"
     pagecolor="#ffffff"
     bordercolor="#000000"
     borderopacity="0.3"
     inkscape:pageopacity="0.0"
     inkscape:pageshadow="2"
     inkscape:zoom="0.35"
     inkscape:cx="400"
     inkscape:cy="560"
     inkscape:document-units="px"
     inkscape:showpageshadow="2"
     inkscape:pagecheckerboard="0"
     inkscape:deskcolor="#d1d1d1" /><metadata
     id="metadata1"><rdf:RDF><cc:Work
         rdf:about=""><dc:format>image/svg+xml</dc:format><dc:type
           rdf:resource="http://purl.org/dc/dcmitype/StillImage" /></cc:Work></rdf:RDF></metadata><g
     id="g2"
     transform="matrix(0.26439654,0,0,0.26439654,-0.05335599,-0.16116251)"><g
       id="g1"
       transform="matrix(1.1965045,0,0,1.1965045,-1.4253329,-0.56577548)"><path
         fill="#e0ded5"
         d="m 67.73,87.95 c 3.32,3.83 8.58,8.67 12.67,11.72 2.71,2.01 5.63,3.71 8.51,5.44 1.18,0.7 2.37,1.4 3.47,2.23 0.4,0.3 1.44,0.95 1.32,1.55 -0.41,2.06 -4.11,1.02 -4.99,1.03 0.53,1 0.05,2.29 -1.57,2.38 -2.02,0.11 -4.59,-1.01 -6.39,-2.41 0.26,1.18 -0.77,1.53 -1.72,1.53 -1.76,0 -3.33,-1.24 -4.73,-2.24 0,0 -0.08,1.37 -2.25,1.11 -1.74,-0.21 -2.8,-1.8 -3.73,-3.1 -1.15,1.81 -3.55,1.91 -4.42,-0.54 -0.36,1.12 -2.79,2.28 -4.07,-0.76 0.1,0.24 -1.29,0.79 -1.48,0.81 -0.74,0.06 -1.38,-0.42 -1.88,-0.92 -1.87,-1.87 -2.66,-4.81 -2.94,-7.36 -0.18,-1.7 -0.21,-3.5 -0.04,-5.21 0.23,-2.37 0.85,-5.33 2.39,-7.25"
         id="path1" /><path
         fill="#6d4c41"
         d="M 13.01,54.35 C 11.52,54.54 8.36,55.16 7.39,53.58 6.6,52.3 7.98,50.2 8.2,48.86 7.22,49.3 4.93,50.71 3.86,49.86 2.64,48.88 3.65,45.49 3.82,44.27 4.69,37.69 4.1,31.64 2.59,25.2 2.09,23.09 1.28,20.45 2.1,18.32 c 0.77,-2.01 2.94,-2.61 4.91,-2.63 7.04,-0.05 13.63,5.1 18.19,9.98 4.68,5.02 10.89,13.8 14.2,19.98 2.24,-7.28 2.06,-13.92 1.61,-21.44 -0.46,-7.78 0.3,-16.41 7.96,-20.5 7.48,-3.99 17.97,-0.41 25.84,1.03 10.14,1.85 19.33,3.24 29.23,3.18 2.02,-0.01 8.13,0.23 8.65,2.98 0.44,2.35 -2.51,4.81 -5.35,5.87 0.93,-0.18 15.16,-2.84 16.7,1.57 1.47,3.38 -3.69,5.36 -7.42,6.45 2.25,0.14 9.74,0.02 9.63,3.67 -0.11,3.54 -6.72,4.4 -9.16,4.81 2.52,0.57 5.3,2.62 2.29,4.87 -2.84,2.12 -7.43,1.73 -10.78,1.74 1.52,0.93 4.77,2.54 3,4.56 -1.71,1.95 -6.26,2.1 -8.61,2.21 1.14,2.19 -0.38,4.58 -2.7,4.97 -2.7,0.46 -16.56,-1.75 -28.35,-8.34 1.62,1.01 5.08,8.67 0.74,8.25 0.31,0.92 1.98,3.01 1.53,4.41 -0.37,1.04 -1.75,1.07 -2.81,1.07 0.65,1.31 2.28,2.63 2.28,4.17 0,1.65 -2.65,1.36 -2.65,1.36 1.85,1.57 2.87,5.94 -1.12,5.27 0.08,1.21 1.61,2.66 1.45,4.79 -0.18,1.83 -3.21,1.09 -4.4,0.58 0.08,0.67 0.76,3.76 0.63,4.42 -0.45,2.37 -3.21,0.62 -3.21,0.62 0.85,4.94 2.4,7.22 3.33,9.74 0.32,0.88 0.95,2.41 0.36,3.3 -0.69,1.04 -2.4,0.47 -3.36,0.24 -0.02,1.01 0.33,2.14 -0.8,2.65 -1.07,0.49 -2.32,-0.03 -3.07,-0.82 -0.02,0.91 -0.01,1.9 -0.92,2.2 -0.82,0.27 -1.74,-0.34 -2.18,-1.17"
         id="path2" /><g
         fill="none"
         stroke="#330000"
         stroke-linecap="round"
         stroke-linejoin="round"
         stroke-miterlimit="10"
         stroke-width="1.812"
         id="g4"><path
           d="m 44.44,87.8 c -2.34,1.84 -4.09,6.63 -4.51,10.18 -0.2,1.69 -0.24,5.35 0.04,7.04 M 38.76,86.84 c 1.37,1.75 2.18,3.83 1.89,7.3"
           id="path3" /><path
           d="m 40.06,97.01 c -0.26,2.39 -1.32,4.25 -2.56,5.84 -1.11,1.43 -2.64,2.18 -4.34,2.54"
           id="path4" /></g><path
         fill="#6d4c41"
         d="m 27.09,64.9 c -1.8,-0.04 -4.06,1.34 -4.44,3.21 -0.29,1.43 0.18,3.13 0.54,4.49 0.42,1.58 1.24,3.62 2.32,4.89 2.01,2.37 3.12,7.82 3.05,9.86 -0.06,1.66 -0.17,3.48 -1.01,4.96 -0.71,1.23 -3.48,3.8 -3.16,6.49 0.14,1.18 1.05,2.04 1.86,2.84 0.53,0.52 1.06,1.05 1.6,1.57 0.26,0.26 0.58,0.61 0.76,0.93 0.08,0.23 0.97,0.85 2.03,1.11 0.65,0.16 1.8,0.12 2.5,0.12 1.32,0.19 2.77,0.3 3.99,0.9 0.83,0.41 1.59,1 2.34,1.53 0.78,0.55 1.44,1.16 2.03,1.9 0.34,0.43 0.64,0.83 1.09,1.15 1.63,1.66 3.42,3.16 5.22,4.62 0.74,0.6 1.89,1.23 2.88,0.86 1.23,-0.47 0.93,-2.11 0.79,-3.12 0.7,0.62 3.37,2.57 3.73,0.6 0.24,-1.34 -1.15,-2.46 -0.89,-3.85 1.12,0.38 2.14,0.58 1.9,-0.94 -0.24,-1.5 -0.81,-2.89 -0.93,-4.42 -0.14,-1.8 0.06,-3.65 0.23,-5.45 0.17,-1.89 0.37,-3.84 1.13,-5.6 0.56,-1.3 1.46,-2.36 2.39,-3.41"
         id="path5" /><path
         fill="#ffcc33"
         d="m 27.25,98.31 c -0.95,1 -1.68,1.8 -2.59,2.84 -0.27,0.31 -0.79,1.21 -1.27,0.99 -0.48,-0.21 -0.91,-2.02 -1.14,-2.47 -0.76,-1.46 -1.82,-2.81 -3.21,-3.71 -1.29,-0.84 -2.57,-1.31 -4.34,-1.21 -0.84,0.05 -1.79,0.21 -2.26,1.85 -0.29,1.02 0.61,1.7 1.25,1.92 1.15,0.4 2.33,0.35 3.28,1.16 2.44,2.09 3.52,6.67 2.37,9.6 -0.48,1.21 -1.64,1.84 -2.87,2.24 -0.75,0.24 -2.19,1.07 -1.98,2.82 0.21,1.74 1.66,2.52 3.25,1.91 3.34,-1.27 5.28,-2.13 6.37,-6.26 0.32,-1.22 0.07,-2.97 0.67,-3.75 0.83,-1.06 1.13,-1.46 2.86,-2.76 1.63,-1.22 3.64,-2.28 3.06,-4.06 -0.2,-0.66 -2.37,-2.17 -3.45,-1.11"
         id="path6" /><path
         fill="#330000"
         d="M 25.22,53.07 C 23.47,46.82 21.65,42.29 18.65,36.53 17.16,33.67 11.83,29 11.45,29.62 c -0.3,0.75 3.78,4.25 6.09,12.49 1.11,3.96 0.89,8.31 1.17,10.75 0.04,0.31 0.07,0.62 0.22,0.89 0.23,0.4 0.67,0.63 1.08,0.83 1,0.49 2.04,0.99 3.15,0.96 1.11,-0.03 2.29,-0.77 2.41,-1.87"
         id="path7" /><path
         fill="#e0ded5"
         d="m 42.38,65.14 c 0.65,-0.22 0.89,-0.57 0.67,-1.24 -0.32,-0.98 -1.46,-1.1 -2.34,-1.27 1.23,-0.77 0.15,-2.26 -1.07,-2.38 0.58,-0.65 0.88,-1.03 0.51,-1.83 -0.39,-0.86 -1.45,-1.06 -2.28,-1.21 -0.37,-0.07 -1.52,-0.67 -1.52,-0.67 0.89,-0.55 0.62,-1.52 -0.35,-1.88 -1.17,-0.43 -4.59,-1.23 -7.19,-1.06 -2.25,0.15 -4.54,0.23 -6.77,0.54 -1.83,0.25 -3.59,0.83 -5.32,1.46 -1.3,0.47 -2.56,1 -3.77,1.67 -0.96,0.53 -1.89,1.11 -2.82,1.69 -2.65,1.69 -2.8,3.66 -2.66,4.72 -1.1,1.13 -2.81,3.25 -3.22,5.92 -0.6,3.99 1.36,3.5 5.46,1.12 l 0.11,0.32 c 0,0 0.63,0.91 1.09,1.2 1.36,0.85 2.75,1.4 4.29,1.9 1.68,0.55 3.43,0.72 6.47,3.8 0.42,0.71 1.45,1.83 2.27,2.08 0.72,0.22 1.99,0.05 1.91,-0.45 0,0 4.11,0.84 4.08,-0.98 0.96,0.29 2.42,-0.16 2.69,-0.32 0.71,-0.42 0.43,-0.86 0.3,-1.83 0.5,0.02 2.37,0.53 3.25,-0.1 0.71,-0.5 0.11,-1.31 0.11,-1.31 0.63,-0.08 2.42,0.09 3.05,-0.69 0.4,-0.5 -0.12,-1.07 -0.41,-1.42 0.78,-0.15 1.83,-0.44 2.23,-1.2 0.34,-0.66 -0.11,-0.89 -0.79,-1.32 0.54,-0.17 1.49,-0.21 1.8,-0.76 0.32,-0.56 -0.45,-1.01 -0.79,-1.3 0.87,-0.25 2.46,-0.43 2.93,-1.32 0.63,-1.19 -1.12,-1.72 -1.92,-1.88"
         id="path8" /><path
         fill="#ffc148"
         d="m 14.76,64.49 c 0,0 -1.51,-0.58 -1.81,-1.89 -0.3,-1.31 -2.29,-2.11 -4.53,0.18 0,0 -3.57,2.82 -4.17,6.81 -0.49,3.22 0.04,5.26 1.34,7.28 0.27,0.42 0.94,0.23 0.95,-0.26 0.04,-1.87 0.63,-4.76 3.69,-6.19 4.89,-2.29 7.31,-2.26 9.36,-2.69 2.05,-0.44 1.42,-2.3 -0.08,-2.01 -0.73,0.13 -3.04,-0.35 -4.75,-1.23"
         id="path9" /><path
         fill="#ffc148"
         d="m 9.41,70.86 c 0,0 3.25,0.69 4.22,1.24 0.97,0.55 2.32,0.94 3.66,-0.99 1.35,-1.93 1.63,-2.78 1.78,-3.3 0.01,0.01 -4.82,0.36 -9.66,3.05"
         id="path10" /><path
         fill="#fe9040"
         d="m 10.85,70.13 c 1.88,-0.41 3.49,-0.45 5,-0.1 0.69,0.16 1.85,0.39 2.32,-0.25 0.45,-0.62 0.77,-1.2 0.9,-1.95 -1.08,-0.02 -3.59,0.66 -4.26,0.83 -1.01,0.25 -3.46,1.13 -3.96,1.47"
         id="path11" /><path
         fill="#333333"
         d="M 7.91,66.02 C 8.08,66.2 8.58,66 9.02,65.58 9.46,65.16 9.68,64.68 9.51,64.5 9.34,64.32 8.84,64.52 8.4,64.94 7.96,65.36 7.74,65.85 7.91,66.02"
         id="path12" /><path
         fill="#c1bfb4"
         d="m 17.82,72.8 c 2.54,0.73 3.23,1.31 5.33,2.36 1.24,0.63 3.22,2.75 5,2.33 -0.11,-0.64 -0.5,-1.15 -0.64,-1.77 0.42,-0.03 2.12,0.21 2.45,0.1 0.01,-0.5 -0.78,-1.29 -1.29,-1.35 1.11,0.03 4.31,-0.53 4.76,-0.7 -0.32,-0.68 -1.54,-1.07 -2.22,-1.25 0.97,-0.44 2.19,-0.08 3.22,-0.47 -0.15,-0.7 -1.28,-1.28 -1.89,-1.17 0.93,-0.32 2.94,-0.37 3.24,-0.9 0.1,-0.44 -2.15,-0.72 -2.8,-0.73 -1.2,-0.03 -4.19,0.04 -6.1,0.23 -1.51,0.14 -4.47,0.03 -5.98,0.07 -0.14,0.46 -0.5,1.15 -1.14,1.91 -0.41,0.5 -1.33,1.08 -1.94,1.34"
         id="path13" /><circle
         cx="17.91"
         cy="60.48"
         r="2.99"
         fill="#ffc148"
         transform="rotate(-15.237,17.91,60.49)"
         id="circle13" /><circle
         cx="17.91"
         cy="60.48"
         r="1.61"
         fill="#333333"
         transform="rotate(-15.237,17.91,60.49)"
         id="circle14" /><circle
         cx="19.129999"
         cy="61.529999"
         r="0.63"
         fill="#ffffff"
         transform="rotate(-15.237,19.13,61.536)"
         id="circle15" /><path
         fill="#e0ded5"
         d="m 14.06,61.2 c 1.89,-0.72 5.46,-3.05 6.42,-4.39 0,0 -2.14,-0.75 -4.18,0.25 -2.48,1.21 -2.24,4.14 -2.24,4.14"
         id="path15" /><path
         fill="#330000"
         d="M 66.9,85.96 C 65.68,83.19 64.78,80.2 64.4,78.21 A 52.38,52.38 0 0 1 62.44,75.27 C 59.56,70.62 57.67,67.39 56.26,63 c -0.52,-1.61 -1.33,-1.4 -1.11,0.23 0.4,2.87 2.71,9.48 3.9,12.22 1.76,4.05 4.97,8.84 7.85,10.51 m 40.43,-69.2 c -1.73,0.58 -5.98,0.35 -7.47,0.31 -6.11,-0.15 -9.37,-0.54 -15.24,-2.23 -0.69,-0.2 -0.85,0.6 0.45,1.06 10.6,3.73 20.17,2.83 22.84,2.48 1.71,-0.22 4.95,-1.5 5.5,-2.43 -0.71,-0.03 -4.51,0.54 -6.08,0.81 M 71.94,43.28 c -2.2,-0.92 -4.59,-2.06 -5.52,-2.66 -4.14,-2.67 -5.22,-3.7 -6.11,-4.43 -0.42,-0.34 -0.76,0.21 0,0.91 0.65,0.59 4.56,4.44 8.08,6.7 1.08,0.69 4.5,3.21 6.05,3.74 -0.26,-0.99 -1.35,-3.45 -2.5,-4.26 m 44.68,-18.51 c -5.37,0.58 -10.01,0.29 -14.89,-0.12 -9.04,-0.76 -13.87,-2.73 -21.16,-5.24 -0.86,-0.3 -1.15,0.48 0.46,1.11 13.08,5.19 22.7,6.43 30.95,6.43 2.2,0 10.81,-0.49 11.61,-1.33 -1.22,-0.4 -4.95,-0.9 -6.97,-0.85 m 0.47,8.49 c -2.28,0.15 -10.36,-0.32 -14.77,-1.23 -9.01,-1.86 -19.46,-5.35 -26.53,-8.42 -0.83,-0.36 -1.19,0.39 0.37,1.15 12.64,6.19 26.04,9.32 30.57,10.03 2.17,0.34 13.06,1.86 13.93,1.08 0,-0.85 -1.33,-2.24 -3.57,-2.61 m -8.49,6.6 C 104.38,39.6 96.13,36.96 94.3,36.45 86.77,34.35 77.62,30.6 70.77,27.08 c -0.81,-0.41 -1.21,0.31 0.29,1.17 12.2,7 29.79,12.8 33.19,13.32 2.17,0.33 6.84,1.84 7.76,1.12 -0.3,-0.88 -1.77,-1.99 -3.41,-2.83 m -5.61,6.78 C 97.61,46.27 92.02,44.26 90.2,43.7 82.73,41.37 72.6,35.78 65.86,32.05 c -0.79,-0.44 -1.17,0.2 0.26,1.18 9.47,6.48 17.55,10.61 25.64,12.95 2.11,0.61 10.64,3.23 11.57,2.54 0.15,-0.53 0.08,-1.35 -0.34,-2.08 m -70.62,58.75 c 0.78,0.19 0.57,-0.08 1.3,-0.43 1.77,-0.85 3.04,-1.81 4.07,-3.48 0.48,-0.78 2.92,-7.58 1.99,-11.35 -0.26,-1.05 -1.2,-2.22 -1.58,-3.29 -0.1,-0.27 0.14,-0.87 0.7,-0.54 1.22,0.72 2.48,1.81 3.1,3.02 0.11,0.21 0.31,0.16 0.4,0.09 1.14,-0.93 3.36,-1.21 4.85,-1.22 0.36,0 0.3,0.26 0.21,0.38 -0.28,0.36 -0.97,0.63 -1.32,0.87 -1.86,1.25 -3.69,3.4 -3.97,5.62 -0.1,0.8 -1.33,6.43 -1.33,10.32 0,1.94 1.41,3.46 1.73,4.25 0.57,1.42 1.51,2.27 2.08,3.7 -1.41,-1.34 -3.13,-2.3 -4.8,-3.31 -1.91,-1.16 -3.77,-2.4 -5.57,-3.73 -0.34,-0.25 -0.68,-0.5 -1.07,-0.65 -0.45,-0.17 -0.3,-0.24 -0.79,-0.25"
         id="path16" /><path
         fill="#ffcc33"
         d="m 44.01,104.32 c -0.5,1.28 -0.89,2.3 -1.33,3.6 -0.13,0.39 -0.28,1.41 -0.8,1.4 -0.53,-0.02 -1.6,-1.53 -1.98,-1.86 -1.25,-1.07 -2.74,-1.92 -4.37,-2.23 -1.51,-0.29 -2.87,-0.24 -4.48,0.51 -0.76,0.36 -1.58,0.86 -1.4,2.57 0.11,1.06 1.2,1.35 1.88,1.31 1.22,-0.06 2.29,-0.55 3.47,-0.16 3.04,1.02 5.77,4.86 5.8,8.01 0.01,1.3 -0.83,2.32 -1.82,3.15 -0.61,0.51 -1.63,1.81 -0.77,3.36 0.85,1.53 2.49,1.71 3.73,0.55 2.62,-2.43 4.09,-3.95 3.55,-8.2 -0.16,-1.25 -1.05,-2.78 -0.78,-3.73 0.37,-1.29 0.5,-1.77 1.62,-3.63 1.05,-1.74 2.51,-3.48 1.31,-4.91 -0.45,-0.54 -3.03,-1.12 -3.63,0.26"
         id="path17" /><path
         fill="#757575"
         d="m 8.37,98.89 c -0.44,-0.2 -0.08,-0.97 0.27,-1.37 1.45,-1.64 3.56,-1.87 5.24,-1.58 0.52,0.09 0.87,0.58 0.78,1.11 -0.09,0.52 -0.58,0.87 -1.11,0.78 -1.29,-0.22 -3.02,-0.38 -4.01,0.46 -0.28,0.24 -0.8,0.76 -1.17,0.6 m 4.91,16.96 c -1.21,-0.06 -1.9,-0.55 -2.66,-1.48 -0.33,-0.41 -0.48,-1 -0.3,-1.27 0.29,-0.44 0.91,0.19 1.29,0.44 1.32,0.88 2.68,0.53 4.07,-0.03 0.49,-0.2 1.05,0.04 1.25,0.52 0.2,0.49 -0.04,1.05 -0.52,1.25 -0.98,0.4 -2.08,0.62 -3.13,0.57 m 14.92,-3.78 c -0.27,0 -0.68,-0.34 -0.76,-1.4 -0.13,-1.72 1.46,-3.13 3.6,-3.62 a 0.96,0.96 0 1 1 0.43,1.87 c -1.07,0.25 -1.98,0.41 -2.77,2.19 -0.16,0.36 -0.13,0.87 -0.5,0.96 m 6.53,13.21 c -0.47,-0.24 -0.7,-0.56 -0.49,-0.88 0.13,-0.21 0.71,-0.02 1.2,0.04 0.96,0.12 2.56,-0.42 3.32,-1.25 0.35,-0.39 0.96,-0.42 1.35,-0.06 0.39,0.36 0.47,1.01 0.06,1.35 -1.88,1.56 -5.11,0.96 -5.44,0.8"
         id="path18" /></g><circle
       style="fill:#ffffff;stroke-width:0.264583"
       id="path14"
       cx="20.975492"
       cy="73.158424"
       r="1.0231947" /></g></svg>
