<?xml version="1.0" encoding="UTF-8" standalone="no"?>
<!-- Created with Inkscape (http://www.inkscape.org/) -->

<svg
   width="0"
   height="0"
   viewBox="0 0 40 40"
   version="1.1"
   id="svg1"
   xml:space="preserve"
   inkscape:export-filename="chameau.svg"
   inkscape:export-xdpi="96"
   inkscape:export-ydpi="96"
   xmlns:inkscape="http://www.inkscape.org/namespaces/inkscape"
   xmlns:sodipodi="http://sodipodi.sourceforge.net/DTD/sodipodi-0.dtd"
   xmlns="http://www.w3.org/2000/svg"
   xmlns:svg="http://www.w3.org/2000/svg"
   xmlns:rdf="http://www.w3.org/1999/02/22-rdf-syntax-ns#"
   xmlns:cc="http://creativecommons.org/ns#"
   xmlns:dc="http://purl.org/dc/elements/1.1/"><defs
     id="defs1"><clipPath
       id="clip0_337_90"><rect
         width="124"
         height="124"
         fill="#ffffff"
         id="rect8"
         x="0"
         y="0" /></clipPath></defs><sodipodi:namedview
     id="base"
     pagecolor="#ffffff"
     bordercolor="#000000"
     borderopacity="0.3"
     inkscape:pageopacity="0.0"
     inkscape:pageshadow="2"
     inkscape:zoom="0.35"
     inkscape:cx="400"
     inkscape:cy="560"
     inkscape:document-units="px"
     inkscape:showpageshadow="2"
     inkscape:pagecheckerboard="0"
     inkscape:deskcolor="#d1d1d1" /><metadata
     id="metadata1"><rdf:RDF><cc:Work
         rdf:about=""><dc:format>image/svg+xml</dc:format><dc:type
           rdf:resource="http://purl.org/dc/dcmitype/StillImage" /></cc:Work></rdf:RDF></metadata><g
     id="g2"
     transform="matrix(0.26434033,0,0,0.26434033,-0.05983314,-0.02171095)"><g
       style="fill:none"
       id="g205"
       transform="matrix(1.2371345,0,0,1.2371345,-3.268816,-3.1582336)"><g
         clip-path="url(#clip0_337_90)"
         id="g8"><path
           d="m 36.0909,77.2899 c 0,0 2.418,7.8568 -1.1608,27.5311 -0.6407,3.531 -1.5844,7.137 -2.0632,10.093 -6.0519,0 -6.3757,6.895 -5.0909,6.895 h 7.2127 c 4.6052,0 10.2334,-11.483 13.2749,-27.4209 C 51.305,78.4507 36.0909,77.2899 36.0909,77.2899 Z m 44.9224,12.7514 c 0,0 7.8258,4.2022 7.5365,14.0567 -0.1137,3.896 -0.8577,7.202 -1.2228,10.416 -6.3102,0 -6.3343,6.837 -4.495,6.837 h 6.3929 c 3.1792,0 10.3368,-10.877 11.6391,-25.0787 1.305,-14.198 -19.8507,-6.231 -19.8507,-6.231 z"
           fill="#f18f26"
           id="path1" /><path
           d="M 124,29.0952 C 124,12.1417 109.737,3.44446 93,3.44446 c -0.9135,0 -1.7896,0.36289 -2.4356,1.00885 -0.646,0.64596 -1.0088,1.52207 -1.0088,2.43559 0,0.91353 0.3628,1.78963 1.0088,2.43559 0.646,0.64596 1.5221,1.00881 2.4356,1.00881 6.2138,0 23.136,3.2172 23.136,18.7619 0,9.9235 -5.397,18.8136 -12.985,20.6047 -0.565,-0.2514 -1.189,-0.3582 -1.753,-0.6613 C 76.4632,35.5467 55.0457,52.1455 48.9524,48.0397 42.9178,43.9683 47.0959,36.828 39.2253,29.9805 38.0887,23.6392 35.5294,14.5597 33.046,14.5597 c -1.891,0 -4.3572,6.2861 -5.9933,12.5929 -2.0357,-4.7568 -4.6948,-9.4929 -6.4067,-9.4929 -2.2044,0 -4.402,7.8292 -5.4904,14.5872 C 9.36889,36.1977 5.146,41.9223 5.146,48.6597 c 0,9.3 13.95,11.563 18.6,11.749 4.65,0.186 10.4126,12.2691 12.3483,17.4702 4.278,15.0419 7.0646,29.9631 9.2931,38.5191 -5.6798,0 -6.2137,7.271 -4.6431,7.271 2.4559,0 6.727,-0.01 7.6639,0 4.7568,0.049 6.9785,-16.209 6.9785,-30.4795 0,-0.7303 -0.0379,-2.1597 -0.0379,-2.1597 0,0 6.6478,1.7394 20.7975,-0.7165 8.4183,-1.4604 17.3256,2.9244 19.7918,10.8947 1.8152,5.869 4.8189,11.384 6.4339,15.445 -5.4729,0 -5.3213,7.016 -3.7334,7.016 2.7104,0 6.2034,0.049 7.5194,0 5.056,-0.189 2.215,-26.0879 3.548,-34.7782 C 111.039,80.2005 114.07,69.6777 108.917,58.59 120.063,52.4796 124,39.6283 124,29.0952 Z"
           fill="#ffcc4e"
           id="path2" /><path
           d="m 20.646,43.6342 c 1.7121,0 3.1,-1.3879 3.1,-3.1 0,-1.7121 -1.3879,-3.1 -3.1,-3.1 -1.7121,0 -3.1,1.3879 -3.1,3.1 0,1.7121 1.3879,3.1 3.1,3.1 z"
           fill="#292f33"
           id="path3" /><circle
           cx="19.5"
           cy="40.5"
           r="1.5"
           fill="#d9d9d9"
           id="circle3" /><path
           d="m 10.2782,44.2955 c -2.33186,1.457 -2.33186,6.1208 -3.49608,6.1208 -1.16422,0 -3.49611,-2.7418 -3.49611,-6.1208 -0.00344,-3.379 9.85799,-1.7911 6.99219,0 z"
           fill="#e75a70"
           id="path4" /><path
           d="m 22.6575,49.4037 c -0.1412,0.0895 -0.31,0.124 -0.4891,0.0895 -0.062,-0.0137 -5.332,-0.8301 -8.7661,0.5029 -0.4443,0.1723 -1.1745,-0.0792 -1.4225,-0.6579 -0.248,-0.5786 0.0792,-1.2572 0.5235,-1.4294 4.96,-1.9599 9.8408,-0.806 10.106,-0.7509 0.4788,0.0999 0.6717,0.6545 0.6476,1.2813 -0.0138,0.3927 -0.3582,0.8095 -0.5994,0.9645 z m -1.6257,8.0565 c -0.084,0.0155 -0.1702,0.014 -0.2537,-0.0043 -0.0834,-0.0183 -0.1623,-0.0532 -0.232,-0.1024 -0.0517,-0.0345 -4.5846,-2.8589 -8.2736,-2.9381 -0.4753,-0.0104 -1.0505,-0.5305 -1.0505,-1.1746 0,-0.6407 0.5683,-1.1539 1.0471,-1.147 5.3458,0.0827 9.3827,3.069 9.6066,3.2274 0.403,0.2825 0.3582,0.8784 0.093,1.4605 -0.1688,0.3685 -0.651,0.6269 -0.9369,0.6785 z"
           fill="#fee7b8"
           id="path5" /><path
           d="m 27.0527,27.1457 c 0,0 1.2813,-0.1343 2.9587,0.1137 0.7475,-1.5845 2.015,-3.0553 2.015,-3.0553 0,0 0.9679,2.3009 1.3296,4.061 0.0861,0.4134 0.7509,0.403 1.1091,0.651 0,0 0.1309,-11.9281 -2.9726,-13.2128 0.0035,-0.0069 -2.6005,3.8715 -4.4398,11.4424 z M 15.1521,32.24 c 0,0 1.3227,-0.9196 3.0414,-1.9771 0.7475,-2.1493 1.9565,-4.5914 1.9565,-4.5914 0,0 1.0574,2.0735 1.1883,2.79 0.7234,-0.3927 0.7234,-0.3651 1.3881,-0.6545 0,0 -0.3926,-7.874 -3.7854,-8.7041 0,0 -2.5213,4.7258 -3.7889,13.1371 z"
           fill="#f18f26"
           id="path6" /><path
           d="m 63.55,81.4404 c -9.1243,1.9634 -8.1978,9.5825 -8.1978,9.5825 0,0 6.6478,1.7394 20.7976,-0.7165 3.6179,-0.6043 7.3334,-0.1535 10.7019,1.2986 C 81.3164,81.1098 71.9889,79.6218 63.55,81.4404 Z"
           fill="#ffdd99"
           id="path7" /><path
           d="m 50.5851,48.5977 c 1.6395,2.3284 8.2563,8.1564 9.455,7.4365 1.1642,-0.6992 2.0322,-7.0783 1.178,-9.3207 -4.5777,1.2366 -8.215,2.2665 -10.633,1.8842 z m 24.1938,9.2621 c 2.1458,0.4753 5.1907,-10.261 4.8566,-14.2015 -4.991,0.0586 -9.5755,0.8818 -13.6572,1.8497 1.1539,3.72 6.727,11.8902 8.8006,12.3518 z m 9.0485,-14.0603 c 0.1447,2.4904 3.3825,8.9659 4.4261,9.4275 1.0575,0.4719 5.8039,-4.5432 6.4274,-7.099 -3.503,-1.2385 -7.1508,-2.0211 -10.8535,-2.3285 z"
           fill="#f18f26"
           id="path8" /></g></g></g></svg>
