<?xml version="1.0" encoding="UTF-8" standalone="no"?>
<!-- Created with Inkscape (http://www.inkscape.org/) -->

<svg
   width="0"
   height="0"
   viewBox="0 0 40 40"
   version="1.1"
   id="svg1"
   xml:space="preserve"
   inkscape:export-filename="chauve_souris.svg"
   inkscape:export-xdpi="96"
   inkscape:export-ydpi="96"
   xmlns:inkscape="http://www.inkscape.org/namespaces/inkscape"
   xmlns:sodipodi="http://sodipodi.sourceforge.net/DTD/sodipodi-0.dtd"
   xmlns="http://www.w3.org/2000/svg"
   xmlns:svg="http://www.w3.org/2000/svg"
   xmlns:rdf="http://www.w3.org/1999/02/22-rdf-syntax-ns#"
   xmlns:cc="http://creativecommons.org/ns#"
   xmlns:dc="http://purl.org/dc/elements/1.1/"><defs
     id="defs1" /><sodipodi:namedview
     id="base"
     pagecolor="#ffffff"
     bordercolor="#000000"
     borderopacity="0.3"
     inkscape:pageopacity="0.0"
     inkscape:pageshadow="2"
     inkscape:zoom="0.35"
     inkscape:cx="400"
     inkscape:cy="560"
     inkscape:document-units="px"
     inkscape:showpageshadow="2"
     inkscape:pagecheckerboard="0"
     inkscape:deskcolor="#d1d1d1" /><metadata
     id="metadata1"><rdf:RDF><cc:Work
         rdf:about=""><dc:format>image/svg+xml</dc:format><dc:type
           rdf:resource="http://purl.org/dc/dcmitype/StillImage" /></cc:Work></rdf:RDF></metadata><g
     inkscape:label="Calque 1"
     id="layer1"
     transform="matrix(0.26206647,0,0,0.26206647,0.4051966,0.08078227)"><g
       id="g2"
       transform="matrix(1.2784704,0,0,1.2784704,-7.5239458,-6.2156461)"><path
         fill="#70853c"
         d="m 32.6,5.38 c -0.47,0.86 0.09,1.97 2.16,2.82 2.06,0.84 6.48,2.72 7.79,4.79 1.31,2.07 1.97,3.75 0.56,7.23 -1.41,3.48 1.97,4.04 1.97,4.04 0,0 3.47,-4.13 1.41,-10.04 C 44.43,8.31 37.29,5.87 36.26,5.49 35.23,5.1 33.16,4.35 32.6,5.38"
         id="path1" /><ellipse
         cx="36.52"
         cy="99.580002"
         fill="#70853c"
         rx="5.2399998"
         ry="5.4299998"
         transform="rotate(-40.352,36.523,99.58)"
         id="ellipse1" /><ellipse
         cx="52.009998"
         cy="109.29"
         fill="#70853c"
         rx="5.2399998"
         ry="5.4299998"
         transform="rotate(-64.247,52.009,109.292)"
         id="ellipse2" /><ellipse
         cx="72.279999"
         cy="112.95"
         fill="#70853c"
         rx="5.2399998"
         ry="5.4299998"
         transform="rotate(-80.811,72.271,112.947)"
         id="ellipse3" /><ellipse
         cx="91.279999"
         cy="116.75"
         fill="#70853c"
         rx="5.2399998"
         ry="5.4299998"
         transform="rotate(-80.811,91.275,116.748)"
         id="ellipse4" /><ellipse
         cx="23.799999"
         cy="53.009998"
         fill="#70853c"
         rx="5.1399999"
         ry="4.9299998"
         id="ellipse5" /><ellipse
         cx="24.5"
         cy="68.360001"
         fill="#70853c"
         rx="5.1399999"
         ry="4.9299998"
         transform="rotate(-4.863,24.505,68.316)"
         id="ellipse6" /><ellipse
         cx="28.16"
         cy="84.699997"
         fill="#70853c"
         rx="5.4000001"
         ry="5.52"
         transform="rotate(-19.038,28.155,84.683)"
         id="ellipse7" /><path
         fill="#b7d019"
         d="m 55.41,73.57 c 6.19,10.42 25.34,10.28 43.5,16.19 11.92,3.88 19.29,13.09 17.88,21.68 -1.41,8.59 -7.47,10.8 -12.67,10.56 -6.19,-0.28 -13.66,-5.49 -19.29,-6.76 C 79.2,113.97 56.91,111.77 51.04,109.33 44.28,106.51 35.55,100.46 30.35,91.45 25.43,82.93 24.44,67.52 24.3,60.48 24.16,53.44 24.44,46.68 23.88,44.99 23.32,43.3 13.85,43.22 11.91,34.71 9.8,25.42 16.56,15.56 26.55,13.73 c 9.99,-1.83 22.52,2.96 25.9,14.5 3.38,11.55 -1.75,37.42 2.96,45.34"
         id="path7" /><path
         fill="#70853c"
         d="m 30.72,62.26 c -0.64,1.52 1.18,2.65 3.75,2.86 3.38,0.28 8.47,-1.06 12.34,-2.53 4.04,-1.54 6.55,-3.45 6.55,-3.45 l -0.07,-4.29 c 0,0 -2.75,2.67 -9.06,4.6 -3.02,0.92 -7.32,1.88 -8.78,1.92 -1.44,0.04 -4.21,-0.33 -4.73,0.89 M 45.13,4.77 c -0.93,0.72 -0.35,1.94 0.42,3 0.89,1.22 2.96,3.94 3.05,6.52 0.06,1.55 -0.47,5.71 -1.17,6.85 -1.17,1.92 1.36,3.33 2.63,2.53 1.55,-0.97 2.2,-7.33 1.92,-10.04 C 51.51,8.94 48.84,6.73 47.9,5.79 47.14,5.05 45.97,4.12 45.13,4.77 m 52.93,84.7 c 0,0 0.19,6.79 -0.84,10.37 -1.17,4.08 -2.63,7.27 -3.38,8.78 -0.32,0.64 -0.56,1.55 0.23,2.16 0.79,0.61 2.16,0.14 2.72,-0.7 0.67,-1.01 2.96,-4.79 3.99,-9.48 1.39,-6.33 0.94,-9.9 0.94,-9.9 0,0 -1.36,-0.56 -1.88,-0.7 -0.51,-0.15 -1.78,-0.53 -1.78,-0.53 M 81.07,85.25 c 0,0 0.19,5.21 -0.99,9.62 -0.8,3 -2.86,7.13 -3.28,7.98 -0.42,0.84 -1.34,2.25 -0.47,3.33 1.25,1.56 3.26,-0.33 3.92,-1.78 0.43,-0.96 2.4,-4.19 3.59,-8.78 1.36,-5.26 0.99,-9.53 0.99,-9.53 z M 64.32,80.7 c 0,0 -0.49,6.73 -2.11,9.76 -2.53,4.74 -5.77,7.32 -6.19,7.74 -0.42,0.42 -2.02,1.82 -0.47,2.91 1.27,0.89 2.82,0 3.24,-0.38 0.42,-0.38 5.02,-3.41 7.23,-9.34 C 67.8,86.6 67.9,82 67.9,82 c 0,0 -1.45,-0.56 -1.83,-0.7 -0.39,-0.13 -1.75,-0.6 -1.75,-0.6 m -9.83,-9.25 c 0,0 -3.87,4.6 -6.55,6.48 -3.31,2.33 -7.41,3.61 -8.78,3.75 -1.36,0.14 -3.24,0.28 -3,2.06 0.23,1.78 2.81,1.69 4.18,1.69 2.11,0 7.13,-1.99 10.35,-4.34 3.07,-2.24 5.91,-5.77 5.91,-5.77 0,0 -1.2,-1.5 -1.34,-1.97 -0.14,-0.46 -0.77,-1.9 -0.77,-1.9"
         id="path8" /><circle
         cx="32.169998"
         cy="55.009998"
         r="3.0999999"
         fill="#fe6014"
         id="circle8" /><circle
         cx="32.869999"
         cy="74.93"
         r="3.0999999"
         fill="#fe6014"
         id="circle9" /><circle
         cx="46.389999"
         cy="94.739998"
         r="3.0999999"
         fill="#fe6014"
         id="circle10" /><ellipse
         cx="68.480003"
         cy="103.34"
         fill="#fe6014"
         rx="2.8800001"
         ry="2.8299999"
         id="ellipse10" /><ellipse
         cx="87.010002"
         cy="107.78"
         fill="#fe6014"
         rx="2.8499999"
         ry="2.72"
         id="ellipse11" /><ellipse
         cx="103.69"
         cy="112.98"
         fill="#fe6014"
         rx="2.8499999"
         ry="2.72"
         id="ellipse12" /><path
         fill="#2e2e27"
         d="m 109.1,96.05 c -2.22,-1.09 -3.84,2.56 -4.81,6.49 -0.97,3.93 -1.87,6.58 0.57,7.37 2.98,0.96 5.12,-3.45 5.86,-6.85 0.74,-3.4 0.41,-6.02 -1.62,-7.01 M 92.99,88.84 c -3.52,-0.99 -4.02,3.79 -4.86,7.53 -0.88,3.94 -3.1,7.42 0.07,8.38 3.94,1.2 5.98,-3.85 6.69,-7.04 0.74,-3.31 1.46,-7.93 -1.9,-8.87 m -18.16,-4.5 c -3.68,-0.99 -4.18,3.71 -5.35,7.72 -1.17,4.04 -1.65,7.47 0.56,8.26 2.63,0.94 4.83,-2.06 6.05,-6.15 1.23,-4.09 2.55,-8.82 -1.26,-9.83 m -24.96,8.35 c 2.5,2.7 6.44,-0.68 8.49,-3.57 1.97,-2.77 5.53,-7.39 2.39,-9.76 -2.67,-2.02 -6.02,2.2 -8.02,4.83 -1.78,2.35 -5.25,5.92 -2.86,8.5 M 36.26,73.66 c 0.6,2.41 6.29,3.1 10.75,0.52 3.15,-1.82 6.8,-4.65 5.96,-7.93 -0.88,-3.44 -6.29,-0.33 -9.43,0.94 -3.15,1.26 -8.31,2.34 -7.28,6.47 M 52.8,48.16 c -0.7,-2.39 -4.48,0.12 -8.66,1.48 -3.73,1.22 -8.87,0.99 -8.59,4.88 0.25,3.42 8.01,2 10.98,0.89 3.53,-1.32 7.27,-3.87 6.27,-7.25"
         id="path12" /><ellipse
         cx="31.08"
         cy="26.950001"
         fill="#2e2e27"
         rx="3.4300001"
         ry="3.1900001"
         transform="rotate(-60,31.077,26.955)"
         id="ellipse13" /></g><ellipse
       style="fill:#ffffff;fill-opacity:1"
       id="path16"
       cx="30.920031"
       cy="28.183231"
       rx="2.1545031"
       ry="2.0962732" /></g></svg>
