<?xml version="1.0" encoding="UTF-8" standalone="no"?>
<!-- Created with Inkscape (http://www.inkscape.org/) -->

<svg
   width="0"
   height="0"
   viewBox="0 0 40 40"
   version="1.1"
   id="svg1"
   xml:space="preserve"
   inkscape:export-filename="chevaux.svg"
   inkscape:export-xdpi="96"
   inkscape:export-ydpi="96"
   xmlns:inkscape="http://www.inkscape.org/namespaces/inkscape"
   xmlns:sodipodi="http://sodipodi.sourceforge.net/DTD/sodipodi-0.dtd"
   xmlns="http://www.w3.org/2000/svg"
   xmlns:svg="http://www.w3.org/2000/svg"
   xmlns:rdf="http://www.w3.org/1999/02/22-rdf-syntax-ns#"
   xmlns:cc="http://creativecommons.org/ns#"
   xmlns:dc="http://purl.org/dc/elements/1.1/"><defs
     id="defs1" /><sodipodi:namedview
     id="base"
     pagecolor="#ffffff"
     bordercolor="#000000"
     borderopacity="0.3"
     inkscape:pageopacity="0.0"
     inkscape:pageshadow="2"
     inkscape:zoom="0.35"
     inkscape:cx="400"
     inkscape:cy="560"
     inkscape:document-units="px"
     inkscape:showpageshadow="2"
     inkscape:pagecheckerboard="0"
     inkscape:deskcolor="#d1d1d1" /><metadata
     id="metadata1"><rdf:RDF><cc:Work
         rdf:about=""><dc:format>image/svg+xml</dc:format><dc:type
           rdf:resource="http://purl.org/dc/dcmitype/StillImage" /></cc:Work></rdf:RDF></metadata><g
     id="g2"
     transform="matrix(0.26147634,0,0,0.26147634,0.18479942,0.09695945)"><g
       style="fill:none"
       id="g205"
       transform="matrix(1.1164941,0,0,1.1164941,-0.85661601,-5.2093358)"><path
         d="m 116.377,53.9025 c 13.155,-2.4375 13.452,-23.6137 -0.191,-23.4525 -10.676,0.1275 -9.6,10.4813 -11.044,8.445 -2.805,-3.9562 -3.708,-14.1337 6.983,-18.3525 9.229,-3.6412 21.922,3.735 22.736,17.2163 0.521,8.6325 -4.864,24.5775 -24.199,21.9225 -27.082,-3.7163 -7.436,-3.345 5.715,-5.7788 z"
         fill="#d99e82"
         id="path1" /><path
         d="m 38.7038,82.2563 c 0,0 3.81,8.82 2.535,30.9077 -0.2288,3.964 -0.7838,8.01 -0.9075,11.332 -6.795,0 -6.195,7.74 -4.755,7.74 h 10.8825 c 2.5612,0 7.0987,-12.892 8.295,-30.783 C 55.95,83.5575 38.7038,82.2563 38.7038,82.2563 Z M 83.2913,81.015 c 0,0 2.1562,13.23 13.6912,24.049 0.9638,4.361 2.8838,15.87 3.5585,19.481 -7.0835,0 -4.8072,7.676 -2.741,7.676 h 9.923 c 3.566,0 4.095,-12.907 0.772,-28.852 C 105.176,87.4275 83.2913,81.015 83.2913,81.015 Z"
         fill="#c1694f"
         id="path2" /><path
         d="m 120.757,58.7025 c -4.698,-14.07 -27.052,-13.605 -52.4883,-10.3688 -11.4562,1.4588 -13.65,-16.6987 -13.65,-19.8225 0,-13.5975 -12.1649,-20.45622 -24.36,-15.8587 -2.9212,1.0987 -5.2575,4.9875 -6.5775,7.02 C 16.2675,31.0612 6.21375,19.7287 5.2425,30.255 4.06875,42.9862 11.6962,47.2575 24.1837,48.3337 31.2787,48.945 37.155,52.44 38.7,67.2487 c 0.5775,5.52 -1.1063,21.165 8.955,26.535 2.925,11.0963 6.885,24.8063 8.4375,31.7813 -8.445,1.785 -5.0288,8.171 -5.0288,8.171 0,0 11.8163,-0.161 14.385,-0.161 3.0525,0 0.7163,-22.41 -3.5062,-36.7013 17.865,0.1613 29.355,-5.0137 32.9963,-6.6075 3.8549,11.0998 15.5702,13.6238 18.1912,18.3448 1.624,2.925 7.043,12.686 7.504,16.86 -6.008,1.95 -4.091,6.495 -3.409,7.958 4.061,-0.162 12.075,-0.162 13.117,-0.162 4.163,0 -4.263,-25.89 -7.811,-32.673 -4.057,-7.7665 2.929,-27.8215 -1.774,-41.8915 z"
         fill="#d99e82"
         id="path3" /><path
         d="m 60.9975,91.74 c 0.165,1.3912 0.5287,3.3412 0.9487,5.1337 C 79.8112,97.035 91.3012,91.86 94.9425,90.2662 94.1362,87.3412 94.08,85.5037 94.3012,84.4987 81.5737,86.5875 77.2462,92.7675 60.9975,91.74 Z M 24.1837,48.3337 c 7.095,0.6113 9.0938,4.0088 10.6425,18.8175 0.5775,5.52 2.7713,21.2625 12.8288,26.6325 -2.7,-10.455 -7.3463,-46.455 -23.4713,-45.45 z"
         fill="#f4c7b5"
         id="path4" /><path
         d="m 11.8238,24.9938 c -10.47377,0 -7.15877,1.9725 -7.50752,6.345 -0.34875,4.3725 -0.2775,11.16 2.91,14.7337 4.22622,4.7325 14.46752,4.7475 19.55622,1.0388 5.0888,-3.7088 -1.59,-22.1175 -14.9587,-22.1175 z"
         fill="#f4c7b5"
         id="path5" /><path
         d="M 9.38624,31.2225 C 8.9775,34.08 7.53374,35.6925 6.08999,35.4712 3.24,35.0325 0.869995,31.395 0.869995,28.5112 c 0,-2.8837 2.340005,-3.6112 5.219995,-3.48 3.91121,0.18 3.75751,2.955 3.29625,6.1913 z"
         fill="#272b2b"
         id="path6" /><path
         d="m 56.8763,33.8475 c 1.305,9.4312 -4.3388,10.8675 -8.9363,10.8675 -4.5975,0 -11.4525,-4.6875 -10.305,-14.1375 0.5025,-4.1513 2.0813,-8.2238 3.0338,-11.9063 1.26,-4.8862 4.4962,-6.495 7.1025,-5.1262 6.2437,3.2775 8.2612,14.2387 9.105,20.3025 z"
         fill="#662113"
         id="path7" /><path
         d="m 30.2588,28.5113 c 1.922,0 3.48,-1.5581 3.48,-3.48 0,-1.922 -1.558,-3.48 -3.48,-3.48 -1.9219,0 -3.48,1.558 -3.48,3.48 0,1.9219 1.5581,3.48 3.48,3.48 z"
         fill="#292f33"
         id="path8" /><path
         d="m 71.3812,47.9588 c 0.2738,5.745 3.3975,11.9175 10.2488,13.7362 7.1287,1.8938 15.45,0.4763 17.5125,-9.2812 0.3412,-1.6125 0.4875,-4.59 0.2737,-5.6775 -8.0662,-0.6713 -17.7375,0 -28.035,1.2225 z"
         fill="#c1694f"
         id="path9" /><path
         d="m 11.4488,41.2163 c 1.0107,0 1.83,-0.8193 1.83,-1.83 0,-1.0107 -0.8193,-1.83 -1.83,-1.83 -1.0107,0 -1.83003,0.8193 -1.83003,1.83 0,1.0107 0.81933,1.83 1.83003,1.83 z"
         fill="#d99e82"
         id="path10" /><path
         d="m 13.8563,37.7737 c 0.5571,0 1.0087,-0.4516 1.0087,-1.0087 0,-0.5571 -0.4516,-1.0088 -1.0087,-1.0088 -0.5571,0 -1.0088,0.4517 -1.0088,1.0088 0,0.5571 0.4517,1.0087 1.0088,1.0087 z"
         fill="#d99e82"
         id="path11" /><path
         d="m 15.375,40.3949 c 0.5571,0 1.0087,-0.4516 1.0087,-1.0087 0,-0.5571 -0.4516,-1.0088 -1.0087,-1.0088 -0.5572,0 -1.0088,0.4517 -1.0088,1.0088 0,0.5571 0.4516,1.0087 1.0088,1.0087 z"
         fill="#d99e82"
         id="path12" /></g><ellipse
       style="fill:#ffffff;fill-opacity:1;stroke-width:0.264583"
       id="path205"
       cx="31.719038"
       cy="23.341629"
       rx="1.9184901"
       ry="1.9824398" /></g></svg>
