<?xml version="1.0" encoding="UTF-8" standalone="no"?>
<!-- Created with Inkscape (http://www.inkscape.org/) -->

<svg
   width="0"
   height="0"
   viewBox="0 0 40 40"
   version="1.1"
   id="svg1"
   xml:space="preserve"
   inkscape:export-filename="fourmi.svg"
   inkscape:export-xdpi="96"
   inkscape:export-ydpi="96"
   xmlns:inkscape="http://www.inkscape.org/namespaces/inkscape"
   xmlns:sodipodi="http://sodipodi.sourceforge.net/DTD/sodipodi-0.dtd"
   xmlns="http://www.w3.org/2000/svg"
   xmlns:svg="http://www.w3.org/2000/svg"
   xmlns:rdf="http://www.w3.org/1999/02/22-rdf-syntax-ns#"
   xmlns:cc="http://creativecommons.org/ns#"
   xmlns:dc="http://purl.org/dc/elements/1.1/"><defs
     id="defs1" /><sodipodi:namedview
     id="base"
     pagecolor="#ffffff"
     bordercolor="#000000"
     borderopacity="0.3"
     inkscape:pageopacity="0.0"
     inkscape:pageshadow="2"
     inkscape:zoom="0.35"
     inkscape:cx="400"
     inkscape:cy="560"
     inkscape:document-units="px"
     inkscape:showpageshadow="2"
     inkscape:pagecheckerboard="0"
     inkscape:deskcolor="#d1d1d1" /><metadata
     id="metadata1"><rdf:RDF><cc:Work
         rdf:about=""><dc:format>image/svg+xml</dc:format><dc:type
           rdf:resource="http://purl.org/dc/dcmitype/StillImage" /></cc:Work></rdf:RDF></metadata><g
     inkscape:label="Calque 1"
     id="layer1"
     transform="matrix(0.26636915,0,0,0.26636915,0.15238797,0.09519321)"><g
       id="g3"
       transform="matrix(0.98652964,0,0,0.98652964,0.94461523,0.49824485)"><g
         style="fill:none"
         id="g205"
         transform="matrix(1.2544221,0,0,1.2544221,2.2915072,-0.09772249)"><path
           d="M 74.0567,118.717 H 74.05 c -0.637,-0.113 -1.2456,-0.349 -1.7911,-0.697 -0.5455,-0.348 -1.0172,-0.799 -1.388,-1.329 -0.3709,-0.53 -0.6336,-1.128 -0.7734,-1.76 -0.1397,-0.631 -0.1535,-1.284 -0.0408,-1.921 l 1.9667,-11.147 c 0,0 2.2666,-10.5497 -3.5867,-18.163 4.1967,-3.9034 16.7467,0.2833 16.7467,0.2833 l -5.42,30.7367 c -0.2268,1.287 -0.9555,2.431 -2.0257,3.18 -1.0702,0.75 -2.3943,1.043 -3.681,0.817 z M 31.75,118.647 h -0.0066 c -0.637,-0.113 -1.2457,-0.349 -1.7912,-0.697 -0.5455,-0.348 -1.0171,-0.799 -1.388,-1.329 -0.3708,-0.53 -0.6336,-1.128 -0.7733,-1.76 -0.1397,-0.631 -0.1536,-1.284 -0.0409,-1.921 l 4.3734,-23.4167 c 0,0 1.6766,-8.0633 1.6766,-14.7967 3.8067,-1.4633 9.0767,9.19 9.0767,9.19 l -5.42,30.7364 c -0.2292,1.286 -0.9586,2.428 -2.0282,3.176 -1.0697,0.749 -2.3924,1.043 -3.6785,0.818 z m 70.923,-32.7437 c -0.861,1e-4 -1.688,-0.3385 -2.303,-0.9427 -0.6139,-0.6043 -0.966,-1.4258 -0.98,-2.2873 -0.04,-2.41 -1.0133,-14.42 -16.4166,-14.42 -0.8708,0 -1.706,-0.3459 -2.3217,-0.9617 C 80.036,66.6759 79.69,65.8408 79.69,64.97 c 0,-0.8708 0.346,-1.7059 0.9617,-2.3217 0.6157,-0.6157 1.4509,-0.9617 2.3217,-0.9617 17.8766,0 22.8596,13.1267 22.9866,20.88 0.008,0.4315 -0.07,0.8602 -0.228,1.2617 -0.159,0.4014 -0.395,0.7677 -0.695,1.0779 -0.3,0.3102 -0.658,0.5582 -1.054,0.7299 -0.396,0.1717 -0.821,0.2636 -1.253,0.2705 z"
           fill="#f4900c"
           id="path1" /><path
           d="M 50.7533,57.5067 39.22,17.5734 l 5.6233,-3.4 c 1.23,2.0333 2.0933,5.74 3.5133,12.11 1.8967,8.5266 4.4967,20.2 8.8567,26.2533 0.509,0.7073 0.7163,1.5878 0.5763,2.4479 -0.14,0.8601 -0.6159,1.6294 -1.323,2.1387 -0.5833,0.42 -5.7133,0.3834 -5.7133,0.3834 z M 25.3833,9.03335 v -6.57 C 25.4161,1.8322 25.69,1.23773 26.1484,0.802599 c 0.4583,-0.43513 1.0662,-0.677721 1.6982,-0.677721 0.632,0 1.2399,0.242591 1.6983,0.677721 C 30.0033,1.23773 30.2771,1.8322 30.31,2.46335 v 6.57 z m 7.7733,0 v -6.57 C 33.1895,1.8322 33.4633,1.23773 33.9217,0.802599 34.3801,0.367469 34.988,0.124878 35.62,0.124878 c 0.632,0 1.2399,0.242591 1.6982,0.677721 0.4584,0.435131 0.7323,1.029601 0.7651,1.660751 v 6.57 z"
           fill="#754c29"
           id="path2" /><path
           d="m 102.673,95.7567 c 3.629,0 6.57,-3.6772 6.57,-8.2133 0,-4.5361 -2.941,-8.2133 -6.57,-8.2133 -3.6282,0 -6.5697,3.6772 -6.5697,8.2133 0,4.5361 2.9415,8.2133 6.5697,8.2133 z"
           fill="#754c29"
           id="path3" /><path
           d="m 96.45,113.647 c 0,0 -2.1566,-8.384 -3.3266,-13.847 C 92.0167,94.6367 89.7067,86.53 89.22,72.3834 89.1867,71.9 89.09,70.6767 88.76,69.7867 c -0.4067,-1.1 -1.89,-3.11 -2.5533,-4.01 C 83.6167,62.27 79.5,60.14 74.4533,59.62 70.1767,59.18 65.8767,59.0034 61.6067,58.49 59.64,58.2534 57.94,57.97 56.8667,57.5834 51.4133,55.62 50.3267,49.2434 48.82,44.3667 46.1533,35.7334 43.7933,26.95 42.2833,18.0334 l -0.09,-0.55 v -1.35 c 5.2234,-2.38 9.3,-9.6267 6.57,-12.35337 -4.72,-2.36 -9.4233,0.36667 -11.71,3.30667 -0.0666,-0.00334 -0.13,-0.02 -0.1966,-0.02 h -8.66 c -2.1834,0 -4.3467,0.53333 -6.24,1.7 -1.9467,1.19667 -3.2867,3.0233 -5.4434,3.9667 -2.62,1.1466 -5.7366,0.31 -8.05662,2.1333 -3.96333,3.11 -2.08333,8.4167 2.84662,8.5933 0.67,1.9234 2.4834,3.31 4.6334,3.31 h 7.02 c 0.1833,0.0367 0.36,0.07 0.5766,0.0967 2.0134,0.2367 3.6267,1.75 4.9234,4.05 3.49,6.1867 4.1466,14.1467 4.7166,21.08 0.4056,4.8334 0.5813,9.6833 0.5267,14.5333 -0.9767,5.22 -0.4,11.2567 -0.4,11.2567 0.1467,1.3967 0.62,2.59 1.3133,3.65 L 34.58,81.4734 c 6.6333,9.3666 8.1633,19.8996 8.1633,19.8996 l 2.6134,13.977 c 0.2267,1.287 0.9555,2.432 2.0261,3.181 1.0705,0.75 2.395,1.044 3.6822,0.817 1.2872,-0.226 2.4316,-0.955 3.1814,-2.026 0.7498,-1.07 1.0437,-2.395 0.8169,-3.682 L 50.8567,89.7767 c 6.59,1.78 15.3633,3.1067 21.4966,2.84 0,0.02 -0.0099,0.0467 -0.0066,0.0667 7.9033,-0.4867 10.8666,5.7666 11.5133,8.5866 0.6467,2.82 2.8933,14.093 2.8933,14.093 0.0928,0.655 0.3163,1.285 0.6575,1.851 0.3411,0.567 0.7928,1.059 1.3282,1.447 0.5353,0.388 1.1433,0.665 1.7878,0.813 0.6445,0.148 1.3122,0.165 1.9634,0.05 0.6512,-0.115 1.2725,-0.361 1.8269,-0.721 0.5544,-0.361 1.0305,-0.829 1.4001,-1.378 0.3695,-0.548 0.6248,-1.165 0.7507,-1.814 0.1259,-0.65 0.1198,-1.317 -0.0179,-1.964 z"
           fill="#ffcc4d"
           id="path4" /><path
           d="M 39.9167,73.6666 C 36.6334,76.95 36.05,81.6933 38.6134,84.26 41.18,86.8266 45.9234,86.2433 49.2067,82.9566 52.49,79.67 53.0734,74.93 50.51,72.3633 47.9434,69.7966 43.2,70.38 39.9167,73.6666 Z M 43.5434,53.05 c 0.0021,2.1151 0.6848,4.1735 1.9472,5.8707 1.2624,1.6971 3.0374,2.943 5.0626,3.5534 2.0252,0.6104 4.1931,0.5529 6.1831,-0.164 1.9899,-0.7169 3.6964,-2.0551 4.8671,-3.8168 -1.9667,-0.2367 -3.6667,-0.52 -4.74,-0.9067 -5.2134,-1.8766 -6.24,-7.4566 -7.51,-11.47 -0.19,-0.5966 -0.36,-1.1633 -0.54,-1.7433 -1.5853,0.8293 -2.914,2.0757 -3.8427,3.6048 -0.9288,1.5291 -1.4223,3.2828 -1.4273,5.0719 z M 40.2567,38.27 c 0,-2.1783 -0.8653,-4.2674 -2.4056,-5.8077 -1.5403,-1.5403 -3.6294,-2.4057 -5.8077,-2.4057 -1.2934,0 -2.5,0.3267 -3.59,0.8567 2.1166,3.7533 3.3833,9.6167 4.14,15.51 2.0735,-0.1328 4.019,-1.0491 5.442,-2.5631 1.423,-1.514 2.2171,-3.5124 2.2213,-5.5902 z M 36.6134,24.6733 c 0,3.7267 3.02,6.7433 6.7433,6.7433 0.6067,0 1.1833,-0.1066 1.7433,-0.2566 -1.109,-4.3366 -2.0509,-8.7143 -2.8233,-13.1234 -1.5781,0.254 -3.0144,1.0612 -4.0519,2.2771 -1.0376,1.2158 -1.6088,2.7612 -1.6114,4.3596 z m 29.9233,41.52 c 0,2.6133 1.0381,5.1195 2.886,6.9674 1.8478,1.8478 4.3541,2.8859 6.9673,2.8859 2.6133,0 5.1195,-1.0381 6.9674,-2.8859 1.8478,-1.8479 2.886,-4.3541 2.886,-6.9674 C 86.2434,66.05 86.2067,65.92 86.2,65.78 83.61,62.2733 79.4934,60.1433 74.4467,59.6233 72.7831,59.4596 71.1174,59.3174 69.45,59.1966 c -0.9237,0.916 -1.6567,2.0059 -2.1568,3.2069 -0.5,1.2009 -0.7571,2.4889 -0.7565,3.7898 z M 38.66,8.70997 c 1.6834,-1.61 4.39,-3.63 5.9267,-2.85333 C 46.1234,6.6333 45.4467,10.1 40.7,13.0266 41.0767,11.5633 42.5367,8.97664 38.66,8.70997 Z"
           fill="#f4900c"
           id="path5" /><path
           d="m 29.24,16.9166 c 1.8133,0 3.2833,-1.47 3.2833,-3.2833 0,-1.8133 -1.47,-3.2833 -3.2833,-3.2833 -1.8133,0 -3.2833,1.47 -3.2833,3.2833 0,1.8133 1.47,3.2833 3.2833,3.2833 z"
           fill="#292f33"
           id="path6" /><path
           d="m 70.1567,111.817 c 0,0 -3.8066,4.503 -3.2833,5.936 0.5233,1.434 9.1367,1.637 10.83,0.074 1.6933,-1.564 -6.5033,-6.14 -7.5467,-6.01 z m -42.0766,0 c 0,0 -3.8067,4.503 -3.2834,5.936 0.52,1.434 9.1367,1.637 10.83,0.074 1.6934,-1.564 -6.5033,-6.14 -7.5466,-6.01 z m 15.1566,7.4 c 0.4534,1.303 9.22,1.096 10.6834,-1.537 1.4633,-2.633 -8.9267,-4.39 -8.9267,-4.39 0,0 -2.3433,4.243 -1.7567,5.927 z m 41.3467,0 c 0.4533,1.303 9.22,1.096 10.6833,-1.537 1.4634,-2.633 -8.9266,-4.39 -8.9266,-4.39 0,0 -2.3434,4.243 -1.7567,5.927 z"
           fill="#754c29"
           id="path7" /><circle
           cx="29"
           cy="14"
           r="2"
           fill="#d9d9d9"
           id="circle7" /></g></g></g></svg>
