<?xml version="1.0" encoding="UTF-8" standalone="no"?>
<!-- Created with Inkscape (http://www.inkscape.org/) -->

<svg
   width="0"
   height="0"
   viewBox="0 0 40 40"
   version="1.1"
   id="svg1"
   xml:space="preserve"
   inkscape:export-filename="koala.svg"
   inkscape:export-xdpi="96"
   inkscape:export-ydpi="96"
   xmlns:inkscape="http://www.inkscape.org/namespaces/inkscape"
   xmlns:sodipodi="http://sodipodi.sourceforge.net/DTD/sodipodi-0.dtd"
   xmlns="http://www.w3.org/2000/svg"
   xmlns:svg="http://www.w3.org/2000/svg"
   xmlns:rdf="http://www.w3.org/1999/02/22-rdf-syntax-ns#"
   xmlns:cc="http://creativecommons.org/ns#"
   xmlns:dc="http://purl.org/dc/elements/1.1/"><defs
     id="defs1" /><sodipodi:namedview
     id="base"
     pagecolor="#ffffff"
     bordercolor="#000000"
     borderopacity="0.3"
     inkscape:pageopacity="0.0"
     inkscape:pageshadow="2"
     inkscape:zoom="0.35"
     inkscape:cx="400"
     inkscape:cy="560"
     inkscape:document-units="px"
     inkscape:showpageshadow="2"
     inkscape:pagecheckerboard="0"
     inkscape:deskcolor="#d1d1d1" /><metadata
     id="metadata1"><rdf:RDF><cc:Work
         rdf:about=""><dc:format>image/svg+xml</dc:format><dc:type
           rdf:resource="http://purl.org/dc/dcmitype/StillImage" /></cc:Work></rdf:RDF></metadata><g
     inkscape:label="Calque 1"
     id="layer1"
     transform="matrix(0.26636915,0,0,0.26636915,0.15238797,0.09519321)"><g
       id="g3"
       transform="matrix(0.97376983,0,0,0.97376983,1.2099155,0.76895544)"><g
         style="fill:none"
         id="g205"
         transform="matrix(1.1466557,0,0,1.1466557,-6.4674339,-4.6177004)"><path
           d="m 102.637,88.7796 c 0,0 5.699,-5.6984 11.704,-4.0031 6.004,1.6953 9.854,4.7688 10.314,11.0906 0.459,6.3219 -1.05,11.0469 -5.852,14.1639 -6.158,4.003 -13.551,1.389 -13.551,1.389 z"
           fill="#ecf0f2"
           id="path1" /><path
           d="m 65.8328,46.5937 c 0,0 4.4625,-9.7015 4.1562,-22.7937 C 69.6828,10.7078 66.7515,3.78435 60.189,4.03592 53.0031,4.32029 50.7718,15.9031 50.9031,25.4953 51.0562,37.1984 55.3218,46.025 55.3218,46.025 Z M 51.0562,85.0281 40.0749,85.9469 c 0,0 0.361,1.1265 0.2516,2.1546 -0.0984,1.0282 -0.3609,3.5875 -0.3609,3.5875 l 13.8578,10.883 26.3812,-14.6783 -7.0875,-4.8234 z"
           fill="#a8a8a8"
           id="path2" /><path
           d="m 21.2844,71.039 c -0.2766,-3e-4 -0.5428,-0.1053 -0.7451,-0.294 -0.2022,-0.1887 -0.3254,-0.447 -0.3448,-0.7229 -0.0194,-0.276 0.0664,-0.549 0.2402,-0.7641 0.1738,-0.2152 0.4227,-0.3565 0.6966,-0.3955 0.1203,-0.0219 2.964,-0.4156 6.0703,-0.525 3.4343,-0.1094 4.3531,-0.1422 7.3281,0.4265 0.5906,0.1094 0.9844,0.6891 0.8641,1.2797 -0.1204,0.5907 -0.6891,0.9735 -1.2797,0.8641 -2.7235,-0.525 -3.511,-0.5031 -6.836,-0.3938 -2.9859,0.0985 -5.8078,0.5032 -5.8406,0.5032 -0.0547,0.0109 -0.0984,0.0218 -0.1531,0.0218 z m -1.1266,7.5907 c -0.4922,0 -0.9406,-0.3391 -1.0609,-0.8313 -0.1422,-0.5906 0.2187,-1.1812 0.8094,-1.3234 0.1531,-0.0438 3.85,-0.9406 6.1249,-1.3453 2.2641,-0.4157 6.3547,-0.9078 6.5297,-0.9297 0.1426,-0.0199 0.2878,-0.0108 0.4268,0.0266 0.139,0.0375 0.269,0.1026 0.3823,0.1914 0.1133,0.0888 0.2076,0.1995 0.2772,0.3255 0.0695,0.1261 0.113,0.2648 0.1278,0.408 0.0188,0.1425 0.0089,0.2872 -0.029,0.4258 -0.0378,0.1386 -0.103,0.2682 -0.1916,0.3813 -0.0886,0.113 -0.1989,0.2073 -0.3245,0.2772 -0.1255,0.0699 -0.2637,0.114 -0.4065,0.1298 -0.0437,0 -4.2,0.5141 -6.3984,0.9188 -2.1984,0.4046 -5.9609,1.3125 -5.9937,1.3234 -0.1094,0.0109 -0.186,0.0219 -0.2735,0.0219 z"
           fill="#8e9395"
           id="path3" /><path
           d="M 88.5171,94.8828 49.8203,119.219 c 0,0 -8.0063,9.034 -6.2125,10.937 0.9515,1.007 4.6922,1.903 7.9515,1.182 4.6703,-1.029 8.7282,-10.938 8.7282,-10.938 0,0 -2.0563,14.066 1.1265,14.678 3.1828,0.613 7.7985,-0.153 9.8547,-3.948 2.0563,-3.796 2.7672,-8.422 4.6156,-10.369 1.8485,-1.947 3.4891,-3.391 3.4891,-3.391 0,0 1.0281,1.236 1.6406,2.057 0.6125,0.82 1.75,1.946 1.75,1.946 0,0 -4.8015,2.975 -6.464,5.338 -1.6954,2.417 -1.3454,5.272 1.1265,6.267 3.5875,1.433 19.0969,-4.823 19.0969,-4.823 L 93.439,93.7672 Z"
           fill="#a8a8a8"
           id="path4" /><path
           d="m 82.5672,71.6844 c 0,0 0.514,-3.6968 -0.2079,-7.0875 -0.7218,-3.3906 -2.7671,-7.2843 -2.7671,-7.2843 0,0 7.6015,-2.8766 13.0375,-7.7985 C 98.6672,44.0454 107.614,33.8079 108.434,25.386 109.255,16.9641 104.223,9.3735 90.9781,17.3797 77.7328,25.386 68.0968,45.2048 68.0968,45.2048 c 0,0 -10.4671,-4.4188 -18.9875,0.2078 -8.5203,4.6265 -13.0375,16.5265 -13.4531,17.3468 -0.4156,0.8204 -5.6875,3.2157 -6.3656,10.4672 -0.6672,7.186 3.3469,11.2438 9.3406,12.8297 4.1781,1.1047 8.0063,0.2078 8.0063,0.2078 0,0 3.1828,3.5875 11.3968,3.4891 8.2141,-0.0985 14.9844,-4.4188 14.9844,-4.4188 0,0 -1.5422,5.8516 -8.9359,9.0344 -5.5453,2.3844 -12.3156,2.0563 -17.2485,-0.0984 -4.9328,-2.1547 -6.6718,-4.6156 -6.6718,-4.6156 0,0 -1.75,8.0062 0,12.8292 1.75,4.824 5.1297,11.496 4.9218,16.527 -0.2078,5.031 -3.4343,8.728 -1.8484,10.773 0.8859,1.149 4.5391,2.111 7.3938,-0.918 4.8234,-5.13 4.6375,-10.938 6.3656,-11.189 3.5875,-0.514 1.8484,9.953 1.75,12.107 -0.0985,2.155 -0.4047,4.879 1.9469,5.239 5.0312,0.766 5.8515,-1.126 8.0062,-6.157 2.1547,-5.032 1.9031,-7.646 4.1016,-10.675 1.7937,-2.461 4.8234,-4.102 4.8234,-4.102 0,0 -0.5688,-6.825 1.6953,-10.423 2.2531,-3.588 6.7266,-6.4206 10.0078,-5.1847 3.2813,1.2359 -3.9484,2.0997 -6.3109,7.2407 -1.7281,3.762 -1.3891,7.645 1.0828,10.314 2.4609,2.669 5.4359,4.922 5.4359,4.922 0,0 -11.7687,4.244 -12.8296,8.575 -0.7657,3.128 0.514,4.572 7.7,3.85 7.1859,-0.722 16.3183,-3.183 19.9173,-7.7 3.587,-4.517 8.181,-19.327 4.364,-30.1329 C 105.602,86.8219 103.403,82.9719 95.4953,77.3282 87.5984,71.6844 82.5672,71.6844 82.5672,71.6844 Z"
           fill="#dfdfdf"
           id="path5" /><path
           d="m 76.4094,48.0813 c -1.925,-1.9907 1.4328,-9.0344 9.0344,-17.1391 7.6015,-8.1047 12.8296,-10.675 15.4002,-8.8266 2.57,1.8485 -1.1268,9.7563 -8.4221,17.4563 -6.0375,6.3656 -12.8297,11.7906 -16.0125,8.5094 z"
           fill="#ffb0b1"
           id="path6" /><path
           d="m 52.1281,47.6656 c 2.8437,0.6125 0.3828,4.7688 -2.0016,8.7719 -2.3843,4.0031 -4.1562,6.0813 -3.6203,8.0063 0.536,1.925 4.6922,5.6218 4.4625,10.0078 -0.2297,4.3859 -3.9265,9.3953 -10.85,8.8484 -6.9234,-0.5469 -9.7015,-5.8515 -8.5422,-11.6265 0.9188,-4.5719 5.6219,-6.6938 6.8469,-8.936 1.2359,-2.2312 3.2703,-5.9828 5.3922,-9.089 3.0078,-4.3641 5.4578,-6.5954 8.3125,-5.9829 z"
           fill="#ffffff"
           id="path7" /><path
           d="m 65.8882,64.703 c 0.2804,-2.8556 -1.1883,-5.337 -3.2804,-5.5424 -2.0921,-0.2054 -4.0153,1.943 -4.2956,4.7986 -0.2804,2.8555 1.1883,5.3369 3.2804,5.5423 2.0921,0.2054 4.0153,-1.943 4.2956,-4.7985 z"
           fill="#2f3030"
           id="path8" /><circle
           cx="61.5"
           cy="65.5"
           r="2.5"
           fill="#d9d9d9"
           id="circle8" /><path
           d="m 37.8656,69.1688 c 0,0 3.4343,-2.8219 4.7687,-1.4329 1.3344,1.3891 -4.0578,4.725 -4.0578,4.725 0,0 -0.5141,2.5157 1.0281,2.7672 1.5422,0.2516 1.75,-3.0297 3.4344,-2.1547 1.6953,0.875 0.1531,5.2391 -2.8219,5.2829 -1.7718,0.0328 -2.8218,-1.2797 -2.8218,-1.2797 0,0 -0.4704,0.9734 -2.0563,0.8203 -2.6141,-0.2516 -3.85,-5.5563 -1.9031,-5.4907 1.5422,0.0547 0.6125,2.5157 2.0562,2.5157 1.6407,0 0.9735,-2.9203 0.9735,-2.9203 0,0 -3.5875,-3.7516 -2.0016,-5.086 1.6078,-1.3343 3.4016,2.2532 3.4016,2.2532 z"
           fill="#2f3030"
           id="path9" /><path
           d="m 61.8297,75.7531 c -0.1312,0 -0.2515,-0.0218 -0.3828,-0.0656 -0.0437,-0.0109 -3.9594,-1.4656 -6.475,-2.0125 l -5.95,-1.2797 c -0.5906,-0.1312 -0.9625,-0.7109 -0.8422,-1.3015 0.1203,-0.5907 0.711,-0.9625 1.3016,-0.8422 l 5.95,1.2797 c 2.6687,0.5797 6.6062,2.0343 6.7703,2.1 0.5688,0.2078 0.8531,0.8422 0.6453,1.4109 -0.0748,0.2094 -0.213,0.3903 -0.3952,0.5177 -0.1823,0.1273 -0.3996,0.1949 -0.622,0.1932 z m -1.2359,7.2954 c -0.1969,0 -0.3938,-0.0547 -0.5797,-0.1641 -0.0328,-0.0219 -3.4016,-2.1109 -6.5187,-3.8172 -1.9446,-1.063 -3.9455,-2.0196 -5.9938,-2.8656 -0.2683,-0.1088 -0.4824,-0.3197 -0.5953,-0.5864 -0.1128,-0.2666 -0.115,-0.5672 -0.0063,-0.8355 0.1088,-0.2683 0.3197,-0.4824 0.5864,-0.5953 0.2667,-0.1128 0.5672,-0.115 0.8355,-0.0063 0.1203,0.0438 3.0188,1.225 6.2235,2.986 3.1718,1.739 6.5843,3.8609 6.6171,3.8828 0.5141,0.3172 0.6672,0.9953 0.3501,1.5094 -0.186,0.3062 -0.5469,0.4922 -0.9188,0.4922 z"
           fill="#8e9395"
           id="path10" /></g></g></g></svg>
