<?xml version="1.0" encoding="UTF-8" standalone="no"?>
<!-- Created with Inkscape (http://www.inkscape.org/) -->

<svg
   width="0"
   height="0"
   viewBox="0 0 40 40"
   version="1.1"
   id="svg1"
   xml:space="preserve"
   inkscape:export-filename="loutre.svg"
   inkscape:export-xdpi="96"
   inkscape:export-ydpi="96"
   xmlns:inkscape="http://www.inkscape.org/namespaces/inkscape"
   xmlns:sodipodi="http://sodipodi.sourceforge.net/DTD/sodipodi-0.dtd"
   xmlns="http://www.w3.org/2000/svg"
   xmlns:svg="http://www.w3.org/2000/svg"
   xmlns:rdf="http://www.w3.org/1999/02/22-rdf-syntax-ns#"
   xmlns:cc="http://creativecommons.org/ns#"
   xmlns:dc="http://purl.org/dc/elements/1.1/"><defs
     id="defs1" /><sodipodi:namedview
     id="base"
     pagecolor="#ffffff"
     bordercolor="#000000"
     borderopacity="0.3"
     inkscape:pageopacity="0.0"
     inkscape:pageshadow="2"
     inkscape:zoom="0.35"
     inkscape:cx="400"
     inkscape:cy="560"
     inkscape:document-units="px"
     inkscape:showpageshadow="2"
     inkscape:pagecheckerboard="0"
     inkscape:deskcolor="#d1d1d1" /><metadata
     id="metadata1"><rdf:RDF><cc:Work
         rdf:about=""><dc:format>image/svg+xml</dc:format><dc:type
           rdf:resource="http://purl.org/dc/dcmitype/StillImage" /></cc:Work></rdf:RDF></metadata><g
     id="g3"
     transform="matrix(0.26309756,0,0,0.26309756,0.04199979,-0.20213343)"><g
       id="g216"
       transform="matrix(1.2271949,0,0,1.2271949,-3.5550692,-5.3865152)"><path
         fill="#9b6a57"
         d="m 116.51,48.97 c 3.78,5.6 4.32,10.42 5.2,17.19 0.8,6.16 1.6,10.68 2.97,15.43 -3.76,-1.43 -9.14,-5.45 -9.39,-14.36"
         id="path1" /><path
         fill="url(#notoMammoth0)"
         d="m 88.86,62.11 c -6.94,-2.38 -11.06,3.03 -11.19,5.83 -0.42,8.84 -1.75,31.81 -0.21,34.8 1.29,2.51 4.02,3.05 8.81,3.05 2.16,0 6.51,-0.27 8.13,-2.49 1.26,-1.73 -0.01,-5 -0.31,-8.13 C 93.67,90.74 93.9,84.18 94.75,78.65 95.78,72.02 95.8,64.48 88.86,62.11"
         id="path2"
         style="fill:#9b6a57;fill-opacity:1" /><path
         fill="#9e9e9e"
         d="m 82.05,101.41 c -1.24,-0.12 -2.11,2.05 -2.51,3.38 1.18,0.6 2.75,0.86 4.77,0.95 -0.17,-1.96 -0.44,-4.15 -2.26,-4.33 m 5.76,0.57 c -1.26,0.21 -1.84,2.24 -2.07,3.81 0.18,0 0.35,0.01 0.54,0.01 1.13,0 2.85,-0.08 4.47,-0.46 -0.79,-2.25 -1.68,-3.57 -2.94,-3.36"
         id="path3" /><path
         fill="#f7cc93"
         d="m 19.68,87.56 c 0,0 8.93,1.4 14.6,-9.58 2.71,-5.25 1.84,-10.2 1.84,-10.2 l -5.78,-6.01 z"
         id="path4" /><path
         fill="url(#notoMammoth1)"
         d="M 55.25,72.46 C 55.2,72.23 54.28,61.93 45.43,62.1 c -8.85,0.18 -11.16,3.67 -11.65,6.74 -0.91,5.74 0.52,14.38 0.96,18.24 0.53,4.66 1.59,9.34 0.99,14.04 -0.3,2.33 -0.82,4.64 -1.4,6.92 -1.07,4.22 -0.84,6.24 1.62,7.76 2.27,1.41 5.29,1.73 7.89,1.73 4.41,0 10.81,-1.14 10.64,-6.7 -0.05,-1.62 -0.52,-3.2 -0.81,-4.8 -1.09,-5.96 -0.35,-14.81 1.31,-21.39 0.7,-2.81 1.17,-8.02 0.27,-12.18"
         id="path5"
         style="fill:#9b6a57;fill-opacity:1" /><path
         fill="#c6c6c6"
         d="m 35.08,111.99 c -0.29,-0.06 -0.7,-0.12 -1.28,0.56 -0.01,0.01 -0.01,0.02 -0.02,0.03 0.17,1.4 0.83,2.39 2.16,3.22 0.17,0.1 0.34,0.19 0.51,0.28 0.01,-1.48 -0.25,-3.87 -1.37,-4.09 m 5.65,1 c -1.66,0 -2.78,2.3 -3.23,3.56 1.8,0.69 3.84,0.93 5.73,0.96 -0.18,-2.31 -1.03,-4.52 -2.5,-4.52 m 6.48,0.72 c -1.44,0.2 -2,2.52 -2.25,3.79 1.75,-0.08 3.67,-0.36 5.33,-1 -0.68,-1.74 -1.94,-2.95 -3.08,-2.79"
         id="path6" /><path
         fill="#f7cc93"
         d="M 20.6,87.46 C 18.34,87.7 6.22,87.41 3.73,76.85 2.42,71.3 4.6,62.95 5.42,61.39 c 0.96,-1.84 2.5,-0.72 2.33,1.18 -0.14,1.54 -0.65,9.95 1.77,12.66 5.09,5.71 10.47,2.25 10.47,2.25 z"
         id="path7" /><path
         fill="url(#notoMammoth2)"
         d="m 113.74,45.09 c -3.55,-3.87 -8.33,-6.19 -13.21,-7.92 -4.6,-1.63 -10.19,-2.5 -12.87,-5.98 -2.91,-3.78 -6,-5.12 -6,-5.12 1.73,-0.47 6.09,0.22 6.09,0.22 0,0 -5.58,-7.7 -15.94,-5.64 1.21,-1.59 4.43,-3.18 4.43,-3.18 0,0 -13.37,-6.09 -22.58,9.03 -0.38,0.62 -20.17,39.16 -20.17,39.16 1.91,5.76 8.26,13.58 15.78,17.34 2.13,1.06 7.99,2.79 7.99,2.79 0,0 2.72,6.77 2.38,14.71 -0.23,5.29 -1.63,10.19 -1.88,15.84 -0.12,2.74 0.71,4.59 3.19,5.66 2.59,1.11 5.26,1.6 8.08,1.6 2.99,0 7.84,-0.63 10.06,-3.24 2.42,-2.86 0.45,-9.44 0.05,-13.14 -0.4,-3.75 -0.6,-16.8 2.7,-21.85 0,0 2.41,-0.02 4.4,-0.28 9.77,-1.26 13.95,-2.16 13.95,-2.16 1.6,3.56 -0.25,14.38 -0.55,16.48 -0.49,3.43 -1.22,6.73 0.19,8.6 2.04,2.7 6.65,3.29 9.65,3.29 2.69,0 6.58,-0.33 8.7,-2.28 2.19,-2.03 1.04,-6.77 0.59,-9.36 -1.4,-8.06 -3.34,-14.87 -2.09,-23.06 0.57,-3.75 1.75,-9.43 1.75,-14.47 0.02,-0.03 2.37,-9.33 -4.69,-17.04"
         id="path8"
         style="fill:#ab7b6a;fill-opacity:1" /><path
         fill="url(#notoMammoth3)"
         d="m 86.19,39.56 c 2.98,15.81 -8.03,22.7 -8.03,22.7 -0.35,-6.28 -2.72,-8.86 -2.72,-8.86 0,0 1.53,10.53 -8.63,19.21 0,0 2.09,-7.88 0.51,-11.7 -1.72,5.53 -6.13,8.31 -8.07,11.53 -4.08,6.78 -2,13.36 -2,13.36 0,0 -3.48,-0.23 -11.92,-4.07 -8.94,-4.07 -13.07,-11.36 -13.12,-19.52 0,0 -7.46,-32 19.19,-38.73 29.3,-7.38 34.79,16.08 34.79,16.08"
         id="path11" /><path
         fill="#c6c6c6"
         d="m 61.7,118.28 c -1.07,-0.1 -2.3,1.03 -2.72,2.37 0.44,0.53 1.08,0.96 1.98,1.35 0.9,0.39 1.82,0.7 2.74,0.94 -0.02,-1.3 -0.34,-4.51 -2,-4.66 m 6.35,0.43 c -2.11,0.22 -2.77,3.46 -2.94,4.54 1.29,0.24 2.6,0.35 3.94,0.35 0.71,0 1.54,-0.03 2.41,-0.11 -0.4,-2.66 -1.73,-4.96 -3.41,-4.78 m 6.97,-0.01 c -1.22,0.4 -1.83,3.12 -1.94,4.58 1.98,-0.33 3.98,-0.97 5.33,-2.18 -0.9,-1.36 -2.13,-2.82 -3.39,-2.4 m 27.66,-12.76 c -1.01,-0.09 -2.25,1.11 -2.65,2.37 0.42,0.5 1.09,1.07 1.94,1.43 0.9,0.39 1.61,0.75 2.66,0.99 -0.03,-1.22 -0.39,-4.65 -1.95,-4.79 m 5.97,0.4 c -1.99,0.2 -2.67,3.58 -2.83,4.6 1.21,0.22 2.41,0.34 3.68,0.34 0.67,0 1.61,-0.03 2.43,-0.1 -0.37,-2.5 -1.7,-5 -3.28,-4.84 m 6.56,-0.01 c -1.15,0.38 -1.73,3.33 -1.83,4.71 1.86,-0.31 3.97,-1.08 5.06,-2.31 -0.84,-1.28 -2.04,-2.79 -3.23,-2.4"
         id="path12" /><path
         fill="#9b6a57"
         d="m 24.72,87.63 c 2.21,-5.95 4.5,-10.46 8.15,-15.6 3.87,-5.46 8.04,-9.25 9.27,-9.63 1.25,-0.38 3.4,-1.7 4.74,-2.21 3.56,-1.35 6.2,-3.61 6.11,-5.71 -0.16,-3.86 7.85,-16.72 1.16,-26.69 -2.18,-3.25 -5.75,-5.59 -9.3,-7.24 -3.72,-1.73 -7.28,-3.7 -11.42,-4.32 -3.96,-0.6 -1.79,3.11 -5,5.52 -7.6,5.7 -7.69,12.94 -8.9,15.34 -1.21,2.4 -2.96,3.5 -2.85,6.46 0.11,2.66 0.89,3.24 1.04,5.85 0.15,2.61 -1.33,11.71 -2.47,15.06 -2.12,6.22 -3.37,12.78 -3.62,19.39 -0.34,8.95 2.78,18.77 10.48,23.35 1.93,1.15 4.32,1.92 6.4,1.08 2.08,-0.84 3.21,-3.9 1.58,-5.44 -0.94,-0.89 -2.37,-0.97 -3.53,-1.53 -1.91,-0.92 -2.98,-3.08 -3.16,-5.19 -0.25,-2.64 0.4,-6.01 1.32,-8.49"
         id="path13" /><ellipse
         cx="38.299999"
         cy="44.240002"
         fill="#212121"
         rx="2.4400001"
         ry="3"
         transform="rotate(-6.148,38.294,44.228)"
         id="ellipse13" /><path
         fill="#fadcb2"
         d="M 37.22,90.57 C 14.87,91.29 10.99,62.08 10.77,61.14 c -0.35,-1.45 1.32,-2.15 2.2,-0.51 0.77,1.45 12.44,25.77 24.03,20.12 4.79,-2.34 5.14,-18.41 2.82,-21.91 -1.23,-1.85 8.53,-2.45 8.53,-2.45 2.42,5.26 4.4,23.43 -4.25,31.1 -2,1.79 -4.27,2.92 -6.88,3.08"
         id="path14" /><path
         fill="#9b6a57"
         d="m 39.59,56.98 c -1.18,1.55 -0.61,4.89 0,6.33 1.13,2.67 3.98,5.06 3.98,5.06 l 0.84,-2.98 2.43,2.98 1.74,-3.26 c 0,0 0.71,2.18 2.14,3.43 0,0 1.73,-4.54 3.12,-6.99 1.75,-3.09 3.62,-2.83 3.91,-7.04 M 37.85,9.88 c -7.48,2.4 -11.39,1.03 -11.39,1.03 0,0 0.26,4.94 3.72,5.01 -4.07,0.6 -6.32,2.47 -8.81,6.66 0,0 7.56,-0.05 8.37,0.42 0,0 0.95,6.28 21.13,11.14 2.93,0.71 11.81,-1.23 11.77,-3.98 -0.03,-2.17 -0.49,-3.75 -1.67,-5.91 0,0 2.4,0.63 3.73,-1.09 C 63.2,22.15 61.59,19.58 60.64,18.05 58.04,13.9 54.68,10.71 50.73,9.42 46.25,7.96 42.3,8.45 37.85,9.88"
         id="path15" /><path
         fill="#6a463e"
         d="m 31.93,18.96 c -0.72,0.75 -1.36,1.54 -1.84,2.41 -0.5,0.85 -0.85,1.77 -1.1,2.7 -0.26,0.93 -0.38,1.88 -0.41,2.84 -0.05,0.93 0.01,1.95 0.17,2.76 L 26.77,28.9 30.2,25.91 31.89,24.4 c 0.55,-0.5 1.13,-1 1.61,-1.48 l 2.17,-2.15 0.3,3.06 0.37,3.7 c 0.12,1.23 0.21,2.47 0.31,3.71 l -1.98,-1.26 c 0.77,-0.27 1.51,-0.57 2.25,-0.9 0.73,-0.33 1.44,-0.72 2.11,-1.15 0.66,-0.45 1.32,-0.9 1.91,-1.43 0.58,-0.51 1.16,-1.15 1.54,-1.68 l 1.11,-1.5 0.57,1.51 c 0.21,0.55 0.52,1.16 0.86,1.71 0.33,0.57 0.7,1.11 1.13,1.61 0.85,1 1.91,1.85 3.25,2.29 -1.41,0.01 -2.84,-0.61 -4,-1.5 A 12.1,12.1 0 0 1 43.79,27.43 C 43.31,26.86 42.88,26.3 42.48,25.6 h 1.67 c -0.43,1.01 -0.96,1.73 -1.58,2.47 -0.61,0.72 -1.29,1.39 -2.03,1.96 -0.74,0.57 -1.53,1.09 -2.34,1.55 -0.81,0.47 -1.67,0.82 -2.53,1.17 l -1.8,0.73 -0.18,-1.99 C 33.58,30.25 33.45,29.02 33.35,27.78 L 33.06,24.07 35.55,25 c -0.61,0.58 -1.19,1.08 -1.79,1.57 l -1.8,1.44 c -1.21,0.94 -2.4,1.89 -3.65,2.8 l -1.82,1.33 -0.15,-2.09 c -0.09,-1.23 0.01,-2.27 0.19,-3.38 0.21,-1.09 0.54,-2.15 1.01,-3.14 0.48,-0.99 1.1,-1.91 1.84,-2.69 0.75,-0.78 1.62,-1.42 2.55,-1.88"
         id="path16" /><path
         fill="#9b6a57"
         d="m 56.66,30.16 c 2.86,-1.55 7.62,-1.52 10.36,-0.27 10.15,4.64 6.62,18.18 6.62,18.18 -1.25,-1.59 -3.58,-4.33 -3.58,-4.33 0.28,5.86 -4,10.65 -4,10.65 C 65.88,53.62 64.95,51.5 64.66,50.95 62.06,54.86 59.4,61.6 59.4,61.6 56.84,60.58 53.67,57.66 52.8,55.83 52.31,54.8 48,47.57 51.78,36.06 c 0.97,-2.97 1.96,-4.32 4.88,-5.9"
         id="path17" /><path
         fill="#6a463e"
         d="m 58.56,28.68 c -3.37,1.01 -5.46,2.97 -6.43,4.09 -0.41,0.47 -0.82,1.52 0.41,0.46 1.21,-1.05 9.89,-6.5 16.68,-0.03 4.52,4.3 3.36,12.14 3.36,12.14 -1.98,-2.95 -3.8,-3.51 -3.8,-3.51 0,0 1.47,7.23 -2.28,10.48 0,0 -1.06,-2.92 -2.14,-3.22 0,0 -0.65,2.96 -2.31,4.9 -1.52,1.78 -2.45,4.08 -3.03,6.17 C 52.29,57.79 51.63,50.1 51.62,50.03 L 51.45,48.1 c -0.4,0.29 -1.44,4.2 0.89,8.28 2.76,4.84 7.45,6.25 8.41,5.89 0,0 -0.6,-3.16 2.38,-6.72 0.93,-1.11 1.67,-2.47 1.67,-2.47 0.44,0.68 0.74,2.73 0.74,2.73 0,0 5.27,-2.65 5.31,-9.37 1.12,0.67 2.65,3.28 2.65,3.28 0,0 4.4,-7.04 -1.07,-16.33 -3.54,-6.02 -10.79,-5.64 -13.87,-4.71"
         id="path18" /><path
         fill="#85574a"
         d="m 91.47,79.35 c 0,0 1.47,-5.29 -0.74,-8.56 -2,3.3 -4.19,10.65 -4.19,10.65 0,0 -1.86,-2.23 -0.74,-6.98 -3.8,6.47 -3.98,10.91 -3.98,10.91 0,0 2.72,-0.12 4.4,-0.28 3.77,-0.35 13.95,-2.16 13.95,-2.16 0,0 0.63,-5.09 4.81,-10.6 -3.13,1.34 -3.6,2.27 -5.33,5.21 2.09,-7.53 -0.98,-12.7 -0.98,-12.7 -0.52,12.77 -7.2,14.51 -7.2,14.51"
         id="path19" /><path
         fill="#bd816a"
         d="m 112.31,44.63 c -2.16,-3.26 -4.73,-4.47 -6.48,-5.35 -1.79,-0.9 -3.66,-1.61 -5.53,-2.33 -7.32,-2.79 -11.13,-4.26 -11.37,-4.44 0.4,0.3 3.12,5.93 4.14,12.25 0,0 1.52,-6.41 1.58,-8.16 1.4,4.33 5.16,6.49 7.67,13.47 1.63,-4.37 -0.33,-7.81 -0.14,-10.05 3.53,3.72 4.74,9.3 5.3,14.37 1.74,-2.51 2.28,-6.61 2.42,-9.35 2.93,4.26 4,9.07 4,9.07 0,0 1.55,-4.74 -1.59,-9.48"
         id="path20" /></g><ellipse
       style="fill:#ffffff;fill-opacity:1;stroke-width:0.293981"
       id="path216"
       cx="43.646599"
       cy="50.447121"
       rx="1.4848306"
       ry="1.6704345" /></g></svg>
