<?xml version="1.0" encoding="UTF-8" standalone="no"?>
<!-- Created with Inkscape (http://www.inkscape.org/) -->

<svg
   width="0"
   height="0"
   viewBox="0 0 40 40"
   version="1.1"
   id="svg1"
   xml:space="preserve"
   inkscape:export-filename="manchot.svg"
   inkscape:export-xdpi="96"
   inkscape:export-ydpi="96"
   xmlns:inkscape="http://www.inkscape.org/namespaces/inkscape"
   xmlns:sodipodi="http://sodipodi.sourceforge.net/DTD/sodipodi-0.dtd"
   xmlns="http://www.w3.org/2000/svg"
   xmlns:svg="http://www.w3.org/2000/svg"
   xmlns:rdf="http://www.w3.org/1999/02/22-rdf-syntax-ns#"
   xmlns:cc="http://creativecommons.org/ns#"
   xmlns:dc="http://purl.org/dc/elements/1.1/"><defs
     id="defs1" /><sodipodi:namedview
     id="base"
     pagecolor="#ffffff"
     bordercolor="#000000"
     borderopacity="0.3"
     inkscape:pageopacity="0.0"
     inkscape:pageshadow="2"
     inkscape:zoom="0.35"
     inkscape:cx="400"
     inkscape:cy="560"
     inkscape:document-units="px"
     inkscape:showpageshadow="2"
     inkscape:pagecheckerboard="0"
     inkscape:deskcolor="#d1d1d1" /><metadata
     id="metadata1"><rdf:RDF><cc:Work
         rdf:about=""><dc:format>image/svg+xml</dc:format><dc:type
           rdf:resource="http://purl.org/dc/dcmitype/StillImage" /></cc:Work></rdf:RDF></metadata><g
     id="g216"
     transform="matrix(0.32803344,0,0,0.32803344,-3.0102876,-0.94050584)"><path
       fill="#eb2a00"
       d="m 64.24,86.95 c -3.23,0 -6.21,-1.16 -8.09,-4.59 -2.17,-3.97 -1.51,-8.39 1.91,-12.78 2.44,-3.12 4.89,-4.62 5.02,-4.7 0.68,-0.45 1.6,-0.27 2.05,0.41 0.45,0.68 0.27,1.6 -0.41,2.06 -0.1,0.07 -9.83,6.54 -5.97,13.59 2.69,4.91 8.77,3.36 17.07,-0.47 3.79,-1.75 6.93,-1.89 9.69,-2.02 2.35,-0.11 4.38,-0.2 6.58,-1.2 4.92,-2.24 5.78,-6.63 6.69,-11.28 0.48,-2.44 0.97,-4.95 2.08,-7.17 2.28,-4.56 5.85,-7.11 6.5,-7.51 0.76,-0.47 1.59,-1.03 2.12,-0.39 0.52,0.63 -0.23,1.45 -0.86,1.97 -0.04,0.03 -3.07,2.29 -5.25,6.81 -0.9,1.87 -1.22,4.52 -1.68,6.87 -0.97,4.94 -2.06,10.53 -8.37,13.41 -2.72,1.24 -5.24,1.35 -7.67,1.47 -2.61,0.12 -5.32,0.24 -8.58,1.75 -3.13,1.41 -8.23,3.77 -12.83,3.77 m 16.63,36.56 c -0.94,-0.47 -9.7,-5.01 -18.01,-8.12 -1.53,-0.57 -3.12,-1.1 -4.81,-1.66 C 51.29,111.49 42.87,108.71 33.29,100.84 20.49,90.33 18.97,80.45 19.2,75.5 c 0.19,-3.98 1.74,-6.99 3.38,-10.18 0.69,-1.34 1.4,-2.72 2.02,-4.21 1.8,-4.31 1.13,-11.01 1.12,-11.08 -0.08,-0.81 0.51,-1.54 1.32,-1.63 0.82,-0.08 1.54,0.51 1.63,1.32 0.03,0.3 0.75,7.52 -1.34,12.53 -0.67,1.6 -1.41,3.04 -2.12,4.43 -1.55,3.02 -2.9,5.63 -3.05,8.96 -0.16,3.54 0.77,12.86 13.01,22.91 9.16,7.52 16.95,10.1 23.82,12.37 1.72,0.57 3.34,1.11 4.92,1.7 8.55,3.21 16.26,7.93 17.37,8.53 1.12,0.61 2.61,2.02 2.19,2.73 -0.28,0.46 -1.66,0.1 -2.6,-0.37"
       id="path1" /><path
       fill="#eb2a00"
       d="m 60.72,99.12 c -1.32,0 -2.66,-0.11 -4.03,-0.35 C 43.57,96.49 35.59,86.7 37.28,74.97 39.05,62.73 47.5,53.42 47.86,53.03 c 0.55,-0.6 1.49,-0.64 2.09,-0.09 0.6,0.55 0.64,1.49 0.09,2.09 -0.08,0.09 -8.2,9.05 -9.83,20.35 -1.7,11.8 7.3,18.77 16.98,20.46 8.75,1.52 16.58,-2.96 22.3,-6.24 1.27,-0.73 2.46,-1.41 3.52,-1.94 2.6,-1.3 4.99,-1.63 7.29,-1.94 3.06,-0.42 6.28,-0.59 9.94,-3.16 4.53,-3.19 6.37,-8.2 6.39,-8.26 0.26,-0.88 0.75,-2.01 1.53,-1.76 0.78,0.25 0.6,2.04 0.35,2.82 -0.36,1.09 -1.53,5.63 -6.9,9.41 -4.25,2.99 -7.79,3.47 -10.91,3.9 -2.16,0.3 -4.21,0.58 -6.37,1.66 -0.98,0.49 -2.15,1.16 -3.38,1.86 -4.95,2.84 -12.1,6.93 -20.23,6.93"
       id="path2" /><path
       fill="url(#notoJellyfish0)"
       d="m 31.36,51.11 c 0.04,1.61 0.89,5.84 -0.89,10.98 -2.99,8.67 -15.23,11.34 -10.68,25.22 2.48,7.57 7.5,7.7 7.8,8.71 0.3,1.01 -1.4,15.76 16.51,19.91 16.83,3.9 24.84,-10.62 29.76,-11.87 5.07,-1.29 4.83,3.83 5.91,8.78 0.91,4.15 3.36,7.08 7.3,8.71 4.15,1.72 6.59,-0.71 6.59,-0.71 0,0 3.92,2.98 9.42,1.62 10.23,-2.53 9.02,-13.27 8.31,-13.37 -0.71,-0.1 -4.94,6.66 -11.96,3.95 -6.18,-2.38 -5.78,-9.02 -4.36,-13.07 1.42,-4.05 1.01,-8.11 -1.01,-10.23 -2.03,-2.13 -5.78,-0.81 -5.78,-0.81 0,0 -0.1,-6.99 -4.56,-9.63 -4.46,-2.63 -10.31,1.26 -13.76,4.57 -4.86,4.66 -10.25,3.74 -14.1,-0.92 -3.47,-4.2 -4.1,-9.76 -0.42,-14.49 3.52,-4.52 6.3,-4.66 6.3,-4.66 0,0 -3.04,-1.32 -5.17,-1.62 C 54.44,61.88 47.5,64.5 42.59,61.47 35.26,56.95 34.77,52.01 31.36,51.11"
       opacity="0.7"
       id="path4"
       style="fill:#f5a6f8;fill-opacity:0.769231" /><path
       fill="url(#notoJellyfish1)"
       d="m 31.36,51.11 c 0.04,1.61 0.89,5.84 -0.89,10.98 -2.99,8.67 -15.23,11.34 -10.68,25.22 2.48,7.57 7.5,7.7 7.8,8.71 0.3,1.01 -1.4,15.76 16.51,19.91 16.83,3.9 24.84,-10.62 29.76,-11.87 5.07,-1.29 4.83,3.83 5.91,8.78 0.91,4.15 3.36,7.08 7.3,8.71 4.15,1.72 6.59,-0.71 6.59,-0.71 0,0 3.92,2.98 9.42,1.62 10.23,-2.53 9.02,-13.27 8.31,-13.37 -0.71,-0.1 -4.94,6.66 -11.96,3.95 -6.18,-2.38 -5.78,-9.02 -4.36,-13.07 1.42,-4.05 1.01,-8.11 -1.01,-10.23 -2.03,-2.13 -5.78,-0.81 -5.78,-0.81 0,0 -0.1,-6.99 -4.56,-9.63 -4.46,-2.63 -10.31,1.26 -13.76,4.57 -4.86,4.66 -10.25,3.74 -14.1,-0.92 -3.47,-4.2 -4.1,-9.76 -0.42,-14.49 3.52,-4.52 6.3,-4.66 6.3,-4.66 0,0 -3.04,-1.32 -5.17,-1.62 C 54.44,61.88 47.5,64.5 42.59,61.47 35.26,56.95 34.77,52.01 31.36,51.11"
       id="path7" /><path
       fill="url(#notoJellyfish2)"
       d="M 17.57,43.34 C 16.85,41.75 15.63,34.39 20.49,23.55 25.35,12.71 43.25,-4.44 70.6,8.32 96.7,20.5 89.55,49.52 84.57,57.93 79.91,65.79 75.75,67.77 71.68,68.16 68.99,68.41 61.65,62.69 58.51,62.49 55.37,62.29 46.76,63.71 42.6,61.48 38.45,59.25 32.97,51.75 31.15,51.04 29.33,50.33 20.41,49.62 17.57,43.34"
       id="path14"
       style="fill:#ff8f42;fill-opacity:1" /><path
       fill="#f5eceb"
       d="m 40.9,68.71 c -1.22,-0.07 -2.14,0.75 -2.21,2.07 -0.07,1.32 0.82,2.1 1.96,2.17 1.14,0.07 2.07,-0.61 2.17,-1.99 0.1,-1.36 -0.75,-2.18 -1.92,-2.25 m -3.82,14.46 c -1.39,0.07 -2.05,0.99 -2.03,2.36 0.02,1.37 1.08,2.03 2.34,1.99 1.26,-0.04 1.96,-0.95 1.96,-2.25 0,-1.3 -0.97,-2.16 -2.27,-2.1 M 26.12,73.09 c -1.36,0.13 -2,1.14 -1.91,2.13 0.1,0.99 0.54,1.91 1.91,1.88 1.14,-0.03 1.93,-0.63 2,-1.94 0.07,-1.18 -0.69,-2.19 -2,-2.07 m 28.9,14.07 c -1.27,0.01 -1.85,1.06 -1.77,1.97 0.09,0.91 0.63,1.81 1.77,1.82 1.06,0.01 1.79,-0.67 1.85,-1.88 0.06,-1.09 -0.57,-1.92 -1.85,-1.91 M 39.38,99.43 c -1.25,-0.07 -2.17,0.72 -2.24,2.04 -0.07,1.32 0.82,2.13 1.98,2.2 1.16,0.07 2.11,-0.61 2.22,-1.99 0.11,-1.36 -0.76,-2.18 -1.96,-2.25 m 13.5,7.71 c -1.08,-0.07 -1.89,0.66 -1.95,1.82 -0.06,1.16 0.72,1.86 1.73,1.92 1.01,0.06 1.82,-0.53 1.92,-1.76 0.09,-1.19 -0.66,-1.92 -1.7,-1.98 M 69.36,93.57 c -1.14,0.31 -1.47,1.71 -1.11,2.64 0.36,0.93 1.14,1.7 2.34,1.42 1.09,-0.25 1.6,-1.22 1.31,-2.5 -0.25,-1.16 -1.31,-1.9 -2.54,-1.56 m 9.86,-8.39 c -1.23,0.01 -1.8,0.98 -1.71,1.82 0.09,0.84 0.61,1.67 1.71,1.68 1.03,0.01 1.74,-0.62 1.8,-1.74 0.06,-1 -0.55,-1.77 -1.8,-1.76"
       id="path15"
       style="fill:#808080" /><path
       fill="url(#notoJellyfish3)"
       d="m 29.42,48.91 c -1.11,-0.1 -5.18,-1.61 -5.79,-7.89 -0.61,-6.28 3.31,-9.79 8.63,-11.8 3.95,-1.49 6.93,-3.53 10.49,-6.27 3.28,-2.52 9.84,-6.6 19.19,-2.42 10.71,4.79 10.01,12.97 10.44,16.62 0.61,5.17 1.88,7.22 3.91,11.42 2.06,4.27 0.78,10.55 -2.53,13.6 -3.95,3.65 -10.9,2.33 -12.02,1.62 -1.11,-0.71 -3.45,-1.42 -5.17,-1.62 -1.72,-0.2 -11.35,1.11 -13.98,-0.71 -2.63,-1.82 -8.21,-7.9 -9.32,-8.71 -1.11,-0.8 -3.85,-3.84 -3.85,-3.84"
       id="path19"
       style="fill:#ffb480;fill-opacity:1" /><path
       fill="#eb2a00"
       d="m 33.2,49.79 c -4.37,-2.58 -7.01,-1.63 -10.19,-3.57 -4.62,-2.82 -3.94,-5.8 -5.17,-5.34 -1.12,0.43 -0.5,6.67 4.96,9.5 5.46,2.83 6.68,1.03 9.76,3.73 3.08,2.7 3.31,6.67 10.34,9.18 6.23,2.23 10.54,-0.32 14.42,0.53 5.12,1.12 3.31,3.63 9.18,4.85 4.57,0.96 8.47,-0.79 8.22,-1.55 -0.25,-0.75 -3.57,0.37 -7.37,-1.39 -2.69,-1.25 -5.03,-4.19 -8.21,-5.02 -6.35,-1.65 -9.95,1.7 -16.17,-1.44 -6.23,-3.12 -4.87,-6.59 -9.77,-9.48"
       id="path20"
       style="fill:#ff0000" /><path
       fill="#fffefe"
       d="m 48.14,9.02 c 0.25,1.89 2.29,1.83 3.39,1.77 1.3,-0.07 3.46,-0.65 3.2,-2.71 -0.19,-1.5 -1.5,-2.03 -3.44,-1.88 -1.8,0.13 -3.37,1.1 -3.15,2.82 m -16,4.7 c 6.31,-5.19 9.82,-5.35 11.01,-5.22 1.1,0.12 2.32,0.89 2.02,2.35 -0.3,1.46 -1.78,1.84 -2.88,2.26 -1.1,0.42 -2.97,0.89 -7.12,4.19 -3.18,2.52 -6.09,6.86 -7.48,7.96 -0.75,0.59 -3,0.42 -2.58,-2.17 0.42,-2.59 3.2,-6.22 7.03,-9.37"
       id="path21" /><path
       fill="#eb2a00"
       d="m 48.79,121.64 c -5.86,0 -16.27,-1.52 -22.59,-12.08 -7.66,-12.8 -2.47,-21.64 2.35,-30.03 1.88,-3.27 3.65,-6.36 4.73,-9.71 2.85,-8.92 1.7,-14.02 1.69,-14.07 -0.19,-0.79 0.3,-1.59 1.09,-1.79 0.79,-0.19 1.82,1.13 1.92,1.94 0.13,1.04 1.26,5.02 -1.88,14.83 -1.17,3.65 -3.1,7.02 -4.98,10.28 -4.59,8 -8.93,15.56 -2.17,26.86 8.15,13.63 21.63,11.11 22.6,11.06 0.82,-0.04 2.73,-0.22 2.9,0.59 0.17,0.8 -0.89,1.49 -1.69,1.66 -0.05,0 -1.28,0.46 -3.97,0.46"
       id="path22" /><path
       fill="#eb2a00"
       d="m 74.08,110.08 c -4.1,0 -8.66,-0.82 -13.8,-2.82 C 47.83,102.42 41.85,89.41 42.55,79.63 43.35,68.47 49.77,61.86 50.04,61.58 a 1.485,1.485 0 1 1 2.11,2.09 c -0.1,0.1 -5.93,6.19 -6.65,16.18 -0.5,6.96 3.54,19.44 16.03,24.3 16.95,6.59 26.62,-0.26 35.3,-6.63 3.31,-2.43 6.44,-4.73 9.63,-5.89 8.83,-3.21 13.25,1.15 13.47,1.34 0.62,0.54 1.48,1.51 0.94,2.13 -0.54,0.62 -1.37,-0.21 -2.25,-0.67 -1.49,-0.77 -4.36,-2.81 -11.48,-0.22 -2.79,1.01 -5.43,3.39 -8.57,5.69 -6.36,4.68 -13.86,10.18 -24.49,10.18"
       id="path23" /></g></svg>
