<?xml version="1.0" encoding="UTF-8" standalone="no"?>
<!-- Created with Inkscape (http://www.inkscape.org/) -->

<svg
   width="0"
   height="0"
   viewBox="0 0 40 40"
   version="1.1"
   id="svg1"
   xml:space="preserve"
   inkscape:export-filename="moustique.svg"
   inkscape:export-xdpi="96"
   inkscape:export-ydpi="96"
   xmlns:inkscape="http://www.inkscape.org/namespaces/inkscape"
   xmlns:sodipodi="http://sodipodi.sourceforge.net/DTD/sodipodi-0.dtd"
   xmlns="http://www.w3.org/2000/svg"
   xmlns:svg="http://www.w3.org/2000/svg"
   xmlns:rdf="http://www.w3.org/1999/02/22-rdf-syntax-ns#"
   xmlns:cc="http://creativecommons.org/ns#"
   xmlns:dc="http://purl.org/dc/elements/1.1/"><defs
     id="defs1" /><sodipodi:namedview
     id="base"
     pagecolor="#ffffff"
     bordercolor="#000000"
     borderopacity="0.3"
     inkscape:pageopacity="0.0"
     inkscape:pageshadow="2"
     inkscape:zoom="0.35"
     inkscape:cx="400"
     inkscape:cy="560"
     inkscape:document-units="px"
     inkscape:showpageshadow="2"
     inkscape:pagecheckerboard="0"
     inkscape:deskcolor="#d1d1d1" /><metadata
     id="metadata1"><rdf:RDF><cc:Work
         rdf:about=""><dc:format>image/svg+xml</dc:format><dc:type
           rdf:resource="http://purl.org/dc/dcmitype/StillImage" /></cc:Work></rdf:RDF></metadata><g
     id="g3"
     transform="matrix(0.26680753,0,0,0.26680753,0.0142327,-0.83873591)"><g
       style="fill:none"
       id="g205"
       transform="matrix(0.97344027,0,0,0.97344027,-2.7221084,-0.38902663)"><path
         d="m 31.8124,20.6039 0.5478,-0.425 0.5211,-0.4171 c 0.2065,-0.1631 0.4402,-0.3462 0.6818,-0.5268 0.433,-0.2996 0.9223,-0.6512 1.5009,-0.9994 1.3731,-0.8502 2.8258,-1.5645 4.3376,-2.1325 1.9367,-0.732 3.9596,-1.2118 6.0188,-1.4275 0.5585,-0.0698 1.1319,-0.0911 1.7123,-0.1243 0.581,-0.0076 1.1718,-0.0247 1.7681,0.0082 l 0.4488,0.0195 0.2255,0.011 c -0.0823,-0.0021 0.8254,0.0222 0.4494,0.0131 l 0.0183,0.0027 0.0365,0.0055 0.0735,0.0113 0.5926,0.0908 0.6017,0.0923 0.3422,0.0536 0.5472,0.0951 c 0.7264,0.1328 1.4778,0.2834 2.1892,0.4604 0.6179,0.1925 1.2392,0.3961 1.8601,0.6094 0.3132,0.0978 0.6143,0.2373 0.919,0.3683 l 0.9122,0.4053 c 0.6152,0.2574 1.1938,0.6051 1.7815,0.936 2.3342,1.3537 4.4725,3.1462 6.226,5.2738 1.7562,2.124 3.1264,4.5828 3.9954,7.1824 0.8811,2.5962 1.2208,5.3366 1.0874,7.9401 l -0.0162,0.4879 -0.0021,0.0606 -0.0091,0.33 -0.0034,0.0219 -0.0134,0.0877 -0.0268,0.1755 -0.1073,0.6993 -0.0533,0.3483 -0.0268,0.1739 -0.0143,0.0908 -0.0247,0.1344 c -0.1311,0.708 -0.2799,1.4125 -0.4464,2.113 -0.0853,0.3346 -0.1913,0.6076 -0.2879,0.9107 -0.2063,0.5887 -0.3775,1.1789 -0.6462,1.7294 l -0.3757,0.8273 c -0.1283,0.272 -0.2432,0.5472 -0.3988,0.8019 -0.2886,0.5101 -0.5838,1.0164 -0.8855,1.5189 -0.3265,0.4668 -0.658,0.9302 -0.9945,1.3899 -0.1578,0.231 -0.3488,0.4361 -0.5277,0.646 l -0.5411,0.6179 c -0.3467,0.4168 -0.7419,0.7791 -1.1237,1.1383 -0.3818,0.3595 -0.7514,0.7148 -1.1602,1.0149 -0.4004,0.3087 -0.7849,0.6182 -1.1801,0.8967 l -1.2011,0.7608 c -0.3833,0.2572 -0.8022,0.4418 -1.1922,0.646 l -0.5838,0.2912 -0.2864,0.1408 -0.2937,0.1176 c -0.7828,0.301 -1.5061,0.6112 -2.2294,0.7855 l -1.0314,0.2815 c -0.3333,0.0811 -0.6636,0.1259 -0.975,0.1841 l -0.8967,0.1505 c -0.2843,0.049 -0.563,0.0518 -0.8223,0.0761 -0.5214,0.0342 -0.983,0.0756 -1.3845,0.082 l -1.0195,-0.0295 -0.8425,-0.0323 c -1.8964,-0.0726 -3.3747,-1.6688 -3.3022,-3.5652 0.0625,-1.6307 1.2517,-2.9524 2.7894,-3.2443 l 0.5128,-0.0969 0.5353,-0.1018 0.6353,-0.113 c 0.2465,-0.0585 0.5238,-0.1545 0.8333,-0.2395 0.1533,-0.05 0.3197,-0.0774 0.4836,-0.1493 l 0.5131,-0.2121 c 0.1761,-0.0761 0.3644,-0.1355 0.5487,-0.2279 l 0.5625,-0.3016 c 0.3964,-0.1779 0.7675,-0.472 1.1724,-0.7267 l 0.1514,-0.099 0.1423,-0.1194 0.2889,-0.2389 c 0.1907,-0.1652 0.4046,-0.302 0.5798,-0.5021 0.184,-0.1871 0.3717,-0.3733 0.5634,-0.5588 0.1794,-0.2008 0.3446,-0.422 0.5231,-0.6298 0.1874,-0.1996 0.3339,-0.443 0.4909,-0.677 0.1569,-0.2337 0.3272,-0.4586 0.4494,-0.7234 l 0.2047,-0.3796 c 0.0674,-0.1271 0.1472,-0.2462 0.1941,-0.387 0.1088,-0.2714 0.2215,-0.5399 0.3391,-0.8056 0.0829,-0.2839 0.1658,-0.5667 0.2563,-0.8449 0.0539,-0.1355 0.0685,-0.2873 0.0984,-0.432 l 0.0862,-0.4348 c 0.0801,-0.2818 0.0719,-0.5899 0.1094,-0.8814 0.0094,-0.1411 0.0426,-0.3069 0.0372,-0.4251 -0.0122,-0.1097 -0.0211,-0.2166 -0.0256,-0.3217 -0.0046,-0.1037 -0.0051,-0.2074 -0.0016,-0.3111 l 0.0016,-0.0384 -0.004,-0.0838 -0.0091,-0.1758 -0.018,-0.3519 -0.0363,-0.7066 -0.0091,-0.177 -0.0046,-0.0887 -0.0012,-0.0222 c -0.0155,0.5941 -0.0061,0.1569 -0.0104,0.2858 l -0.0067,-0.0274 -0.0521,-0.2191 c -0.2175,-1.1697 -0.6386,-2.2638 -1.2553,-3.2069 -0.5896,-0.9178 -1.3461,-1.717 -2.2303,-2.3561 -0.802,-0.58 -1.7034,-1.0082 -2.6596,-1.2635 -0.2264,-0.0506 -0.433,-0.135 -0.6627,-0.1454 -0.1092,-0.0139 -0.2181,-0.03 -0.3266,-0.0481 -0.1073,-0.0162 -0.209,-0.046 -0.3206,-0.0381 -0.2096,-0.0017 -0.4191,-0.0119 -0.6279,-0.0305 -0.1222,0.0342 -0.1993,0.0698 -0.2876,0.0747 l -0.9382,0.0463 -0.5987,0.0308 -0.074,0.0039 -0.0372,0.0019 -0.0186,9e-4 c -0.3882,-0.0092 0.5073,0.0134 0.4129,0.0122 l -0.0686,0.0182 -0.1353,0.0345 c -0.1803,0.0347 -0.3488,0.1026 -0.5149,0.145 -0.1615,0.0679 -0.3217,0.1082 -0.4692,0.1816 -0.5291,0.219 -1.0249,0.5109 -1.4732,0.8671 -0.332,0.2602 -0.6364,0.5537 -0.9085,0.876 -0.1161,0.1249 -0.2002,0.2578 -0.284,0.3562 -0.0067,0.0305 0,0.0466 -0.0028,0.0643 l -0.0018,0.0219 c -0.0027,0.0085 0.011,-0.0018 -0.0417,0.0582 l -0.4507,0.5268 c -3.5081,4.102 -9.6771,4.5831 -13.7791,1.0753 -4.1021,-3.5082 -4.5832,-9.6772 -1.0753,-13.7792 0.4278,-0.4994 0.9381,-0.9769 1.4366,-1.3687 z"
         fill="#e89e34"
         id="path1" /><path
         d="m 41.0938,51.4389 c -7.0124,7.0124 -4.368,21.9765 -9.5949,28.8834 -5.2269,6.907 -18.2938,4.6203 -18.2938,4.6203 0,0 -10.12685,-2.5853 -10.12685,-14.8495 0,-12.2643 6.74304,-27.1334 22.48195,-38.809 15.739,-11.6756 15.5336,20.1548 15.5336,20.1548 z"
         fill="#e9eae5"
         id="path2" /><path
         d="m 22.4631,45.4302 c -2.5588,-0.1365 -4.744,1.8269 -4.8808,4.3859 l -0.4278,8.0121 c -0.1365,2.5588 1.8269,4.744 4.386,4.8808 2.5587,0.1365 4.744,-1.8269 4.8808,-4.386 l 0.4278,-8.012 c 0.1365,-2.5591 -1.8273,-4.7443 -4.386,-4.8808 z"
         fill="#2b3b47"
         id="path3" /><path
         d="m 118.369,38.2376 c -20.908,0 -17.424,3.8248 -35.7179,3.8248 -15.0805,0 -18.3236,-5.1971 -30.3521,-7.0234 -2.4768,-5.8213 -7.264,-12.4041 -16.2554,-12.4041 -9.1473,0 -12.632,4.7915 -17.5619,14.678 l 0.004,6e-4 c 2.1209,-2.0792 4.4725,-4.0986 7.0752,-6.0294 9.2899,-6.8918 13.0235,1.3741 14.5247,9.3051 0.0262,0.138 0.0515,0.2761 0.0765,0.4138 l 0.0152,0.0841 c 0.9485,5.3253 0.9171,10.3517 0.9171,10.3517 -7.0123,7.0124 -4.368,21.9765 -9.5949,28.8835 -3.3878,4.4771 -10.069,5.091 -14.3511,4.9691 l 14.4279,2.0673 c 1.1027,0.1582 2.1175,0.6904 2.8745,1.5077 0.757,0.8172 1.2102,1.8698 1.2836,2.9813 0.7422,11.2523 4.6291,18.0403 8.023,21.8933 3.0761,3.492 5.1642,7.742 6.1663,12.286 2.3525,10.667 6.5925,15.433 13.9976,15.433 5.2269,0 8.7116,-12.542 8.7116,-17.334 0,-4.791 13.5032,-5.984 23.5216,-5.984 10.0185,0 13.7215,2.174 13.7215,7.291 0,5.118 -1.089,16.027 9.365,16.027 7.382,0 12.374,-11.627 14.671,-18.46 0.928,-2.759 2.623,-5.205 4.909,-7.008 4.787,-3.775 13.063,-13.463 15.036,-36.1051 2.707,-31.0544 -14.58,-41.6493 -35.488,-41.6493 z"
         fill="#cececa"
         id="path4"
         style="fill:#999999" /><path
         d="m 33.5583,26.1139 0.556,-0.4162 0.5622,-0.4461 c 0.2242,-0.1755 0.4783,-0.3729 0.7404,-0.5664 0.4628,-0.3169 0.9872,-0.6874 1.6054,-1.0548 1.4675,-0.8959 3.019,-1.6463 4.6324,-2.2407 2.0644,-0.7648 4.2185,-1.2607 6.4094,-1.4756 0.5939,-0.0695 1.203,-0.0893 1.819,-0.1194 0.6167,-0.0046 1.2438,-0.0174 1.8757,0.0213 l 1.3665,0.0749 0.592,0.1015 1.5387,0.2657 c 0.7812,0.1444 1.5908,0.3111 2.3528,0.5064 0.6538,0.2075 1.3104,0.4275 1.9658,0.6593 0.3306,0.107 0.6487,0.256 0.9705,0.3967 l 0.9625,0.436 c 0.6483,0.2788 1.2586,0.649 1.8778,1.004 2.4582,1.4497 4.7013,3.3607 6.5325,5.6184 1.8342,2.2544 3.2555,4.8552 4.1468,7.5971 0.904,2.7382 1.2367,5.6203 1.0731,8.3469 l -0.0223,0.511 -0.003,0.0637 -0.011,0.3829 -0.0036,0.022 -0.015,0.0877 -0.0298,0.1752 -0.1195,0.6987 -0.1319,0.7556 c -0.1421,0.751 -0.3044,1.4981 -0.4869,2.2404 l -0.0338,0.1368 -0.039,0.1176 -0.0783,0.2337 -0.1585,0.4643 c -0.2209,0.614 -0.4073,1.2285 -0.6922,1.8023 l -0.4004,0.861 c -0.1368,0.2831 -0.2602,0.5685 -0.4247,0.8339 -0.3058,0.53 -0.6189,1.0556 -0.9394,1.5768 -0.3446,0.4842 -0.6949,0.9643 -1.0508,1.4402 -0.1673,0.2389 -0.3678,0.4513 -0.5564,0.6685 l -0.57,0.6383 c -0.3663,0.43 -0.7807,0.8038 -1.1816,1.174 -0.401,0.3702 -0.7901,0.7352 -1.2179,1.0439 -0.4192,0.3172 -0.8229,0.6346 -1.2364,0.9195 -0.4266,0.27 -0.8458,0.5293 -1.2559,0.7782 -0.4013,0.262 -0.8376,0.4506 -1.2447,0.6584 l -0.6093,0.2959 -0.2989,0.1426 -0.3062,0.1191 c -0.8154,0.3053 -1.5689,0.6164 -2.3202,0.7904 l -1.0716,0.28 c -0.3461,0.0801 -0.6886,0.1234 -1.0116,0.18 l -0.9296,0.1454 c -0.2946,0.0472 -0.5829,0.0475 -0.8516,0.07 -0.5396,0.0296 -1.017,0.0665 -1.432,0.0686 l -1.0527,-0.0417 -0.869,-0.0439 c -2.2187,-0.1118 -3.9268,-2.0012 -3.815,-4.2199 0.0933,-1.8471 1.4177,-3.34 3.1389,-3.7239 l 0.6761,-0.1496 0.5091,-0.1134 0.6024,-0.1252 c 0.2334,-0.0631 0.4945,-0.1636 0.7861,-0.2532 0.1441,-0.0524 0.3007,-0.082 0.4543,-0.1554 l 0.4802,-0.2172 c 0.1645,-0.0777 0.3406,-0.1387 0.5122,-0.2319 l 0.5222,-0.3035 c 0.3684,-0.1782 0.709,-0.471 1.0816,-0.7215 l 0.1393,-0.0972 0.1298,-0.1176 0.2635,-0.2346 c 0.1734,-0.1618 0.3699,-0.2943 0.5271,-0.4896 0.1669,-0.1829 0.3364,-0.3634 0.5086,-0.5414 0.1608,-0.1941 0.3071,-0.4077 0.4668,-0.607 0.1684,-0.191 0.2955,-0.4247 0.4332,-0.6477 0.1377,-0.2231 0.2889,-0.436 0.3912,-0.6874 l 0.1758,-0.3589 c 0.0576,-0.1201 0.128,-0.2319 0.1655,-0.3648 0.0899,-0.2559 0.1837,-0.5076 0.283,-0.7553 0.0646,-0.266 0.1292,-0.5292 0.2024,-0.787 0.045,-0.1255 0.0511,-0.2663 0.0725,-0.4 l 0.0615,-0.401 c 0.064,-0.259 0.0405,-0.5427 0.0634,-0.8086 l 0.0125,-0.2008 0.0073,-0.0997 0.0036,-0.0493 -0.0079,-0.0335 C 61.3094,47.132 61.2935,47.0454 61.2815,46.9582 61.27,46.8766 61.2634,46.7944 61.2617,46.712 l -0.0424,-0.6414 -0.0484,-0.7072 -0.0122,-0.1773 -0.0061,-0.0887 -0.0015,-0.0222 c -0.0183,0.6977 -0.0073,0.1865 -0.0122,0.3388 l -0.0076,-0.0247 -0.0579,-0.1959 c -0.2477,-1.0463 -0.6758,-1.999 -1.2699,-2.7998 -0.586,-0.8028 -1.3075,-1.4615 -2.0789,-1.9414 -0.7712,-0.4817 -1.5862,-0.7806 -2.3531,-0.919 -0.1953,-0.0265 -0.3702,-0.0883 -0.5668,-0.0774 -0.0922,-0.0035 -0.1843,-0.0092 -0.2763,-0.0173 -0.0902,-0.0064 -0.1749,-0.0265 -0.269,-0.0098 -0.1832,0.0159 -0.3562,0.0226 -0.522,0.0195 -0.0713,0.0524 -0.0908,0.1039 -0.124,0.1207 -0.0063,0.0044 -0.0131,0.0079 -0.0204,0.0103 l -0.2617,0.0186 -0.6085,0.0418 -0.5993,0.0411 -0.0743,0.0052 -0.0372,0.0024 -0.0186,0.0012 c -0.454,-0.0109 0.5966,0.0162 0.4869,0.0144 l -0.0552,0.0207 -0.1084,0.039 c -0.1448,0.0405 -0.277,0.1127 -0.4074,0.1584 -0.1255,0.071 -0.2505,0.1128 -0.3623,0.1868 -0.3996,0.2176 -0.7644,0.4937 -1.0825,0.819 -0.2317,0.233 -0.4374,0.4905 -0.6137,0.7678 -0.0761,0.1057 -0.1255,0.2197 -0.1794,0.3007 0.0134,0.0174 0.0408,0.0195 0.0557,0.0244 l 0.0235,0.0034 c 0.0049,0.0027 0.0289,-0.0159 -0.0262,0.0478 l -0.4424,0.5356 c -4.035,4.8869 -11.2674,5.5773 -16.1542,1.5427 -4.8869,-4.0347 -5.5773,-11.2674 -1.5427,-16.1543 0.5811,-0.7044 1.277,-1.3543 1.9732,-1.882 z"
         fill="#ffb941"
         id="path5" /><circle
         cx="21.5"
         cy="50.5"
         r="2.5"
         fill="#d9d9d9"
         id="circle5" /></g></g></svg>
