<?xml version="1.0" encoding="UTF-8" standalone="no"?>
<!-- Created with Inkscape (http://www.inkscape.org/) -->

<svg
   width="0"
   height="0"
   viewBox="0 0 40 40"
   version="1.1"
   id="svg1"
   xml:space="preserve"
   inkscape:export-filename="mouton.svg"
   inkscape:export-xdpi="96"
   inkscape:export-ydpi="96"
   xmlns:inkscape="http://www.inkscape.org/namespaces/inkscape"
   xmlns:sodipodi="http://sodipodi.sourceforge.net/DTD/sodipodi-0.dtd"
   xmlns="http://www.w3.org/2000/svg"
   xmlns:svg="http://www.w3.org/2000/svg"
   xmlns:rdf="http://www.w3.org/1999/02/22-rdf-syntax-ns#"
   xmlns:cc="http://creativecommons.org/ns#"
   xmlns:dc="http://purl.org/dc/elements/1.1/"><defs
     id="defs1" /><sodipodi:namedview
     id="base"
     pagecolor="#ffffff"
     bordercolor="#000000"
     borderopacity="0.3"
     inkscape:pageopacity="0.0"
     inkscape:pageshadow="2"
     inkscape:zoom="0.35"
     inkscape:cx="400"
     inkscape:cy="560"
     inkscape:document-units="px"
     inkscape:showpageshadow="2"
     inkscape:pagecheckerboard="0"
     inkscape:deskcolor="#d1d1d1" /><metadata
     id="metadata1"><rdf:RDF><cc:Work
         rdf:about=""><dc:format>image/svg+xml</dc:format><dc:type
           rdf:resource="http://purl.org/dc/dcmitype/StillImage" /></cc:Work></rdf:RDF></metadata><g
     id="g3"
     transform="matrix(0.26211298,0,0,0.26211298,0.06249901,0.13975229)"><g
       style="fill:none"
       id="g204"
       transform="matrix(1.3387635,0,0,1.3387635,-7.0288927,-15.388505)"><path
         d="m 43.1772,90.9075 c 0,0 2.5866,6.9557 1.0947,9.4065 -1.5016,2.451 -7.4981,1.976 -9.3388,3.139 -1.3175,0.833 -1.2981,3.139 -0.4746,4.088 0.8137,0.959 12.6809,0.136 15.0059,-4.359 2.325,-4.4954 -0.8331,-13.0979 -0.8331,-13.0979 z m 18.9488,-0.8234 -5.0472,1.0947 c 0,0 2.1797,9.1352 0.4068,12.1382 -1.7728,3.003 -8.1278,6.21 -9.2709,8.729 -1.0269,2.247 1.5016,4.088 5.4541,1.637 3.9525,-2.451 8.4281,-6.113 9.2709,-7.915 2.0538,-4.359 -0.8137,-15.6839 -0.8137,-15.6839 z"
         fill="#f97d23"
         id="path1" /><path
         d="M 27.6287,21.2157 C 16.895,23.6278 8.53468,32.676 11.6734,46.4419 c 1.86,8.1666 3.0032,11.0437 3.6813,14.725 1.4337,7.7403 1.0462,11.1406 4.3206,18.2319 3.4778,7.5465 16.275,17.234 32.2303,14.909 15.9553,-2.325 22.3685,-4.5046 22.3685,-4.5046 l 5.7253,-5.0472 5.454,-1.366 0.8138,-3.9525 c 0,0 4.0784,-0.184 4.9115,-1.5015 1.3175,-2.0925 0.5425,-3.8169 -1.7728,-4.6403 -2.3153,-0.8138 -3.6812,-1.5016 -3.6812,-1.5016 0,0 22.5043,-14.8703 25.2263,-16.4978 2.722,-1.6275 6.956,-4.4369 7.159,-5.4541 0.513,-2.5865 -6.481,-8.3215 -15.616,-11.0437 C 93.3584,36.0666 85.5116,35.3207 84.2231,36.3475 82.5084,37.6941 74.9522,51.896 69.905,51.2178 63.3562,50.3266 58.8612,44.1944 57.6309,40.7166 56.2359,36.7738 47.8562,16.6722 27.6287,21.2157 Z"
         fill="#36b4e1"
         id="path2" /><path
         d="m 13.8531,42.4894 c -1.6372,-0.2712 -5.82218,4.185 -6.63593,5.27 -0.81375,1.085 -2.10219,2.6447 -1.63719,3.8169 0.72656,1.8212 4.45622,1.9181 6.63592,2.0925 2.2766,0.184 6.636,0.5425 7.3625,-0.8138 C 20.305,51.4891 18.7647,48.0403 17.4859,45.9478 16.304,44.0007 15.5581,42.78 13.8531,42.4894 Z"
         fill="#f97d23"
         id="path3" /><path
         d="m 31.6885,46.4407 c 2.1353,-0.2577 3.6398,-2.344 3.3604,-4.6599 -0.2795,-2.3159 -2.237,-3.9844 -4.3723,-3.7268 -2.1353,0.2576 -3.6398,2.3439 -3.3604,4.6598 0.2794,2.316 2.237,3.9845 4.3723,3.7269 z"
         fill="#2a2d2f"
         id="path4" /><circle
         cx="30.5"
         cy="42.5"
         r="1.5"
         fill="#d9d9d9"
         id="circle4" /><path
         d="m 43.991,71.4065 c -1.8891,0.6878 0.5909,7.3625 3.1387,10.3657 2.6834,3.1581 9.1741,10.2493 19.0941,11.1793 6.7328,0.6394 9.7262,-1.269 11.315,-3.0031 1.1818,-1.2884 2.4509,-2.7803 3.3228,-3.4584 1.269,-0.9978 2.5478,-0.1357 4.7275,-1.7244 1.5694,-1.1431 1.9084,-3.0419 2.7319,-3.7297 0.8137,-0.6781 2.199,-0.5231 2.9062,-1.1819 1.2691,-1.1818 1.0947,-4.6403 0.1841,-4.8147 -0.9107,-0.1743 -0.9978,2.451 -1.9085,2.8191 -0.9106,0.3681 -2.1215,0.1356 -3.8168,1.0947 -1.4532,0.8137 -0.9979,2.4509 -1.9957,3.1775 -0.9978,0.7266 -2.819,-0.2713 -5.27,1.0947 -1.3272,0.7362 -2.4509,4.2722 -6.2775,5.0956 C 67.396,89.3381 60.2756,85.8797 56.8656,83.4093 48.951,77.6743 47.2169,70.2247 43.991,71.4065 Z"
         fill="#026aa8"
         id="path5" /></g></g></svg>
