<?xml version="1.0" encoding="UTF-8" standalone="no"?>
<!-- Created with Inkscape (http://www.inkscape.org/) -->

<svg
   width="0"
   height="0"
   viewBox="0 0 40 40"
   version="1.1"
   id="svg1"
   xml:space="preserve"
   inkscape:export-filename="phoque.svg"
   inkscape:export-xdpi="96"
   inkscape:export-ydpi="96"
   xmlns:inkscape="http://www.inkscape.org/namespaces/inkscape"
   xmlns:sodipodi="http://sodipodi.sourceforge.net/DTD/sodipodi-0.dtd"
   xmlns="http://www.w3.org/2000/svg"
   xmlns:svg="http://www.w3.org/2000/svg"
   xmlns:rdf="http://www.w3.org/1999/02/22-rdf-syntax-ns#"
   xmlns:cc="http://creativecommons.org/ns#"
   xmlns:dc="http://purl.org/dc/elements/1.1/"><defs
     id="defs1" /><sodipodi:namedview
     id="base"
     pagecolor="#ffffff"
     bordercolor="#000000"
     borderopacity="0.3"
     inkscape:pageopacity="0.0"
     inkscape:pageshadow="2"
     inkscape:zoom="0.35"
     inkscape:cx="400"
     inkscape:cy="560"
     inkscape:document-units="px"
     inkscape:showpageshadow="2"
     inkscape:pagecheckerboard="0"
     inkscape:deskcolor="#d1d1d1" /><metadata
     id="metadata1"><rdf:RDF><cc:Work
         rdf:about=""><dc:format>image/svg+xml</dc:format><dc:type
           rdf:resource="http://purl.org/dc/dcmitype/StillImage" /></cc:Work></rdf:RDF></metadata><g
     id="g4"
     transform="matrix(0.26158539,0,0,0.26158539,0.26548819,0.22779355)"><g
       id="g202"
       transform="matrix(1.2688257,0,0,1.2688257,-6.6322534,-12.65175)"><path
         fill="#a92813"
         d="m 88.07,41.61 c 0,0 31.49,-5.44 33.32,-3.05 1.83,2.39 2.29,9.59 1.31,13.66 -0.99,4.08 -4.65,10.37 -15.35,13.33 -8.99,2.48 -12.01,2.49 -16.66,5.26 -3.71,2.21 -9.1,18.11 -9.95,20.37 -0.85,2.26 -7.04,11.12 -19.99,9.29 C 48.1,98.67 40.34,86.8 43.02,75.12 45.7,63.44 88.07,41.61 88.07,41.61"
         id="path1" /><path
         fill="#ffa8a8"
         d="m 65.12,70.75 c 0,0 -17.6,0.42 -23.09,-5.35 C 36.54,59.63 30.77,46.82 29.22,36.54 27.67,26.26 22.6,20.21 20.21,18.66 c -2.39,-1.55 -4.86,-1.97 -5.14,-0.42 -0.28,1.55 4.07,6.73 4.86,9.15 1.97,6.05 0.88,20.13 2.53,26.61 1.69,6.63 3.03,8.9 6.76,13.23 2.78,3.23 7.18,6.34 7.18,6.34 0,0 -17.03,4.08 -21.82,-0.99 -4.79,-5.07 -4.22,-9.29 -3.8,-11.4 0.42,-2.11 3.8,-7.88 2.82,-8.45 -0.99,-0.56 -7.18,4.22 -8.02,10.56 -0.84,6.34 1.25,11.62 4.79,15.49 4.61,5.03 13.34,5.88 18.41,5.46 5.07,-0.42 10.17,-2.08 10.17,-2.08 0,0 -0.14,20.69 -10,20.55 -7.46,-0.11 -8.31,-2.53 -9.01,-3.8 -0.7,-1.27 -1.43,-2.32 -1.06,1.72 0.25,2.67 3.38,10.91 13.2,8.8 8.32,-1.79 13.47,-9.44 15.17,-11.79 1.87,-2.57 6.19,-8.45 6.19,-8.45 0,0 -1.67,11.43 -1.31,19.52 0.15,3.38 1.03,11.31 7.23,13.98 6.19,2.67 14.11,-0.67 15.52,-6.02 1.41,-5.35 -1.44,-8.34 -1.87,-8.76 -0.43,-0.42 -2.39,6.05 -2.39,6.05 0,0 -5.07,3.38 -7.04,0.99 -1.97,-2.39 0.42,-20.98 0.7,-24.92 0.28,-3.94 4.36,-0.14 5.77,1.83 1.41,1.97 3.7,6.86 7.18,10.28 5.74,5.65 11.97,8.1 20.82,7.42 9.22,-0.71 14.98,-4.33 18.07,-8.97 3.1,-4.65 3.77,-9.26 2.78,-10.1 -0.99,-0.84 -7.74,7.29 -9.15,8.41 -1.41,1.13 -15.49,0 -17.46,0 -1.97,0 -2.39,-3.52 -2.39,-3.52 0,0 8.02,-2.11 10.84,-4.22 2.82,-2.11 10.56,-6.55 11.12,-19.15 0.43,-9.72 0,-35.81 0.99,-40.03 0.99,-4.22 4.74,-7.79 3.89,-9.2 -0.85,-1.41 -4.6,0.94 -5.16,1.36 -0.56,0.42 -6.48,3.24 -6.62,8.31 -0.14,5.07 -1.83,41.25 -4.65,44.2 -2.82,2.96 -11.97,8.87 -17.03,8.17 C 78.21,84.13 65.12,70.75 65.12,70.75"
         id="path2" /><path
         fill="#ff615e"
         d="m 118.48,90.32 c -1.69,-0.14 -3.1,2.11 -4.79,3.38 -1.69,1.27 -5.07,4.5 -13.94,4.22 -8.87,-0.28 -14.78,-10 -14.78,-10 0,0 2.82,0.28 6.05,-0.56 3.24,-0.84 8.38,-3.59 11.61,-9.43 3.85,-6.94 2.99,-24.07 3.03,-31.68 0.05,-10.51 3.47,-16.1 4.79,-17.88 2.25,-3.05 5.82,-4.79 5.96,-5.77 0.14,-0.99 -4.46,-0.42 -7.09,1.13 -2.92,1.72 -4.36,3.66 -4.36,3.66 0,0 -6.76,-0.7 -10.42,-0.7 -3.66,0 -10.69,0.54 -16.82,1.97 -7.53,1.76 -13.16,6.05 -14.71,6.34 0,0 -5,-4.97 -13.23,0.7 -8.59,5.91 -2.39,18.44 -2.39,18.44 0,0 -0.42,1.81 -2.67,2.39 -3.24,0.84 -8.09,-2.32 -9.85,-7.95 -1.48,-4.75 -1.13,-11.33 -2.53,-18.93 -1.41,-7.6 -5.49,-10.98 -9.15,-12.67 -3.66,-1.69 -8.31,-0.14 -7.6,0.84 0.7,0.99 6.05,2.82 9.29,8.73 3.24,5.91 1.69,19.71 5.21,29.56 3.52,9.85 10,13.09 10,13.09 0,0 -3.66,1.69 -5.63,2.11 -1.97,0.42 -7.32,1.41 -12.25,0.39 -5.13,-1.06 -8.59,-4.82 -9.15,-8.97 -0.48,-3.53 1.83,-9.71 0.56,-10 -1.27,-0.29 -5.81,6.19 -5.95,11.54 -0.14,5.35 3.98,11.54 10.17,14.5 6.19,2.96 19.15,0.28 19.15,0.28 0,0 -1.06,1.62 -1.2,4.72 -0.14,3.1 -1.97,10.03 -5.28,12.04 -2.27,1.38 -4.29,1.83 -5,0 -0.7,-1.83 2.89,-2.53 2.75,-4.36 -0.14,-1.83 -3.1,-2.29 -5.91,-0.56 -1.9,1.16 -5.07,5.35 -3.1,9.85 1.97,4.5 6.86,6.09 12.25,4.65 8.04,-2.15 17.32,-17.03 20.27,-19.57 2.96,-2.53 4.93,-1.83 4.93,-1.83 0,0 -1.41,13.09 -1.13,21.96 0.28,8.87 5.95,14.66 12.25,13.66 7.04,-1.13 7.46,-6.9 6.34,-10 -0.99,-2.71 -4.72,-3.73 -5.77,-2.96 -1.37,1.01 -0.46,2.67 0.07,3.13 1.27,1.09 0.21,3.63 -1.76,3.06 -1.97,-0.56 -0.14,-7.18 0.7,-10.42 0.84,-3.24 2.82,-10.84 5.07,-11.4 2.25,-0.56 4.54,3.39 6.62,5.77 3.56,4.08 9.36,7.25 17.63,7.39 10.93,0.19 17.7,-6.55 19.25,-8.24 1.52,-1.68 4.19,-5.48 2.51,-5.62 M 93.13,60.9 c 3.24,-2.25 6.01,-3.28 6.01,-3.28 0,0 0.09,11.54 -4.32,17.5 -3.65,4.93 -7.18,3.8 -7.18,3.8 0,0 3.63,-1.98 3.94,-5.77 0.42,-5.21 -5.07,-6.19 -5.07,-6.19 0,0 3.8,-4.1 6.62,-6.06"
         id="path3" /><path
         fill="#ff615e"
         d="m 112.09,53.93 c 0,0 11.59,-3.45 10.46,-11.9 -1.13,-8.45 -9.67,-10.32 -9.67,-10.32 0,0 -1.22,4.41 -1.03,10.18 0.09,2.53 0.24,12.04 0.24,12.04"
         id="path4" /><path
         fill="#a52914"
         d="m 87.53,75.6 c -1.29,2.06 -3.49,2.49 -5.09,1.49 -1.6,-1 -1.85,-3.01 -0.56,-5.07 1.29,-2.06 3.93,-2.99 5.54,-1.99 1.61,1 1.4,3.51 0.11,5.57 M 65.33,63.5 c 1.8,-0.11 1.2,-1.9 0.84,-4.29 -0.35,-2.39 -1.65,-8.68 2.04,-12.46 3.1,-3.17 6.96,-3.13 9.85,-1.27 2.18,1.41 3.17,1.97 4.01,0.92 0.56,-0.7 -0.28,-2.04 -1.69,-3.24 -1.79,-1.52 -7.95,-4.65 -13.73,0.14 -5.46,4.53 -4.58,13.3 -3.87,16.33 0.72,3.03 1.42,3.94 2.55,3.87 M 47.66,35.13 c -3.66,3.8 -4.41,6.84 -4.01,11.97 0.35,4.58 1.97,8.09 3.73,7.39 1.47,-0.59 0.84,-3.31 0.35,-4.72 -0.49,-1.41 -1.34,-8.17 2.25,-11.83 3.59,-3.66 7.67,-3.17 9.5,-2.75 1.83,0.42 2.6,0.84 3.52,-0.21 0.92,-1.05 -0.99,-2.75 -2.82,-3.17 -1.83,-0.42 -7.68,-1.7 -12.52,3.32"
         id="path5" /><path
         fill="#2c2b2d"
         d="m 82.01,57.66 c 0,2.92 -2.19,5.85 -5.07,5.7 -2.82,-0.14 -4.15,-2.86 -4.15,-5.77 0,-2.91 1.69,-5.28 4.65,-5.49 3.37,-0.24 4.57,2.64 4.57,5.56"
         id="path6" /><ellipse
         cx="108.76"
         cy="47.48"
         fill="#fcd4b0"
         rx="2.21"
         ry="2.1099999"
         transform="rotate(-80.881,108.76,47.472)"
         id="ellipse6" /><ellipse
         cx="110.68"
         cy="33.5"
         fill="#fcd4b0"
         rx="2.1600001"
         ry="1.88"
         transform="rotate(-69.403,110.681,33.493)"
         id="ellipse7" /><ellipse
         cx="108.76"
         cy="63.150002"
         fill="#fcd4b0"
         rx="2.5799999"
         ry="2.6700001"
         id="ellipse8" /><ellipse
         cx="106.32"
         cy="78.940002"
         fill="#fcd4b0"
         rx="2.78"
         ry="2.6199999"
         transform="rotate(-66.078,106.312,78.94)"
         id="ellipse9" /><ellipse
         cx="110.01"
         cy="103.45"
         fill="#fcd4b0"
         rx="2.1099999"
         ry="1.89"
         transform="rotate(-23.045,110.015,103.459)"
         id="ellipse10" /><ellipse
         cx="97.580002"
         cy="106.7"
         fill="#fcd4b0"
         rx="2.3900001"
         ry="2.25"
         id="ellipse11" /><ellipse
         cx="84.739998"
         cy="104.25"
         fill="#fcd4b0"
         rx="2.3"
         ry="2.3900001"
         id="ellipse12" /><ellipse
         cx="60.900002"
         cy="120.82"
         fill="#fcd4b0"
         rx="2.49"
         ry="2.4400001"
         id="ellipse13" /><ellipse
         cx="53.580002"
         cy="106.77"
         fill="#fcd4b0"
         rx="1.74"
         ry="2.3299999"
         transform="rotate(-3.887,53.552,106.772)"
         id="ellipse14" /><ellipse
         cx="40.619999"
         cy="102.57"
         fill="#fcd4b0"
         rx="2.5799999"
         ry="2.3"
         transform="rotate(-42.739,40.62,102.56)"
         id="ellipse15" /><ellipse
         cx="28.33"
         cy="108.25"
         fill="#fcd4b0"
         rx="2.5799999"
         ry="2.3499999"
         id="ellipse16" /><ellipse
         cx="25.700001"
         cy="82.440002"
         fill="#fcd4b0"
         rx="2.3"
         ry="2.0599999"
         id="ellipse17" /><ellipse
         cx="13.92"
         cy="79.050003"
         fill="#fcd4b0"
         rx="2.1600001"
         ry="2.25"
         transform="rotate(-60,13.92,79.05)"
         id="ellipse18" /><ellipse
         cx="6.9000001"
         cy="70.330002"
         fill="#fcd4b0"
         rx="1.86"
         ry="2.1600001"
         transform="rotate(-21.009,6.902,70.33)"
         id="ellipse19" /><ellipse
         cx="25.200001"
         cy="51.490002"
         fill="#fcd4b0"
         rx="2.21"
         ry="2.3"
         id="ellipse20" /><ellipse
         cx="23.969999"
         cy="38.32"
         fill="#fcd4b0"
         rx="2.1600001"
         ry="2.25"
         id="ellipse21" /><ellipse
         cx="22.17"
         cy="26.6"
         fill="#fcd4b0"
         rx="1.92"
         ry="2.1099999"
         transform="rotate(-21.199,22.17,26.605)"
         id="ellipse22" /></g><ellipse
       style="fill:#ffffff;fill-opacity:1;stroke-width:0.459658"
       id="path199"
       cx="90.256378"
       cy="59.213917"
       rx="2.9224312"
       ry="3.207269" /><ellipse
       style="fill:#ffffff;fill-opacity:1;stroke-width:0.481566"
       id="path201"
       cx="22.990702"
       cy="112.542"
       rx="2.6343985"
       ry="1.0285231"
       transform="matrix(0.68814022,-0.72557772,0.69762327,0.71646478,0,0)" /><ellipse
       style="fill:#ffffff;fill-opacity:1;stroke-width:0.402945"
       id="path202"
       cx="90.617531"
       cy="65.932663"
       rx="0.67843437"
       ry="0.73400384" /></g></svg>
