<?xml version="1.0" encoding="UTF-8" standalone="no"?>
<!-- Created with Inkscape (http://www.inkscape.org/) -->

<svg
   width="0"
   height="0"
   viewBox="0 0 40 40"
   version="1.1"
   id="svg1"
   xml:space="preserve"
   inkscape:export-filename="poisson.svg"
   inkscape:export-xdpi="96"
   inkscape:export-ydpi="96"
   xmlns:inkscape="http://www.inkscape.org/namespaces/inkscape"
   xmlns:sodipodi="http://sodipodi.sourceforge.net/DTD/sodipodi-0.dtd"
   xmlns="http://www.w3.org/2000/svg"
   xmlns:svg="http://www.w3.org/2000/svg"
   xmlns:rdf="http://www.w3.org/1999/02/22-rdf-syntax-ns#"
   xmlns:cc="http://creativecommons.org/ns#"
   xmlns:dc="http://purl.org/dc/elements/1.1/"><defs
     id="defs1" /><sodipodi:namedview
     id="base"
     pagecolor="#ffffff"
     bordercolor="#000000"
     borderopacity="0.3"
     inkscape:pageopacity="0.0"
     inkscape:pageshadow="2"
     inkscape:zoom="0.35"
     inkscape:cx="400"
     inkscape:cy="560"
     inkscape:document-units="px"
     inkscape:showpageshadow="2"
     inkscape:pagecheckerboard="0"
     inkscape:deskcolor="#d1d1d1" /><metadata
     id="metadata1"><rdf:RDF><cc:Work
         rdf:about=""><dc:format>image/svg+xml</dc:format><dc:type
           rdf:resource="http://purl.org/dc/dcmitype/StillImage" /></cc:Work></rdf:RDF></metadata><g
     id="g4"
     transform="matrix(0.26589059,0,0,0.26589059,-0.06366246,-0.05685814)"><g
       id="g202"
       transform="matrix(1.254996,0,0,1.254996,-4.4760503,-5.6605415)"><path
         fill="#9a9a9a"
         d="m 30.77,22.75 c -15.51,7.17 -26.7,18.4 -26.61,21.12 0.05,1.41 0.77,3.94 2.82,6.1 1.21,1.28 4.43,3.61 6.69,3.75 2.25,0.14 18.51,-10.7 18.51,-10.7 l 16.19,-2.25 9.85,23.51 c 0,0 3.24,4.65 7.74,8.45 4.5,3.8 8.87,5.07 9.85,4.22 0.98,-0.85 -1.9,-6.55 -2.11,-8.02 -0.28,-1.96 -1.13,-6.76 3.66,-6.05 4.79,0.71 13.66,4.22 13.66,9.43 0,5.21 -3.52,10.98 -13.51,10.98 -9.99,0 -24.07,-3.24 -30.55,-2.96 -6.48,0.28 -12.25,0.84 -18.16,3.24 -4.38,1.77 -9.29,5.07 -9.15,5.49 0.14,0.42 5.63,2.25 12.11,3.1 6.48,0.85 19.01,0.7 21.12,3.8 2.11,3.1 2.67,7.56 1.97,14.17 -0.7,6.61 -0.42,12.01 -0.28,12.01 0.14,0 5.67,-3.16 8.45,-8.02 4.5,-7.88 4.5,-17.46 6.19,-19.43 1.69,-1.97 8.69,-2.51 14.36,-3.24 5.82,-0.75 38.86,-2.11 38.86,-35.05 0,-26.47 -25.2,-32.38 -25.76,-32.94 -0.56,-0.56 -1.48,-4.7 0.42,-8.45 1.5,-2.96 4.04,-7.46 3.24,-8.59 -0.99,-1.4 -10.14,0.14 -16.89,3.66 -6.75,3.52 -11,8.02 -11,8.02 0,0 -25.97,-2.61 -41.67,4.65"
         id="path1" /><path
         fill="#e0e0e0"
         d="m 34.71,36.82 c 5.13,-2.27 13.53,-4.11 19.85,-4.5 11.33,-0.7 20.98,0.63 20.98,0.63 0,0 4.12,8.59 7.46,12.88 5.84,7.5 14.25,13.3 15.38,11.68 0.94,-1.35 0.18,-8.45 -1.3,-12.81 -0.73,-2.15 -3.1,-7.88 -3.1,-7.88 0,0 10.28,0.84 16.19,9.29 5.91,8.45 8.3,26.33 -4.65,33.93 -11.26,6.62 -17.6,5.63 -17.6,5.63 0,0 6.75,-7.46 5.68,-12.72 -1.13,-5.54 -3.57,-7.04 -7.79,-7.84 -2.67,-0.5 -25.58,0 -31.63,-0.14 -6.05,-0.14 -15.16,-0.56 -21.45,-2.49 -3.01,-0.92 -5.16,-2.35 -5.16,-2.35 l 0.14,-5.07 c 0,0 -5.16,1.03 -8.12,0.75 -2.96,-0.28 -7.13,-1.97 -7.41,-2.39 -0.28,-0.42 3.33,-3.58 6.34,-5.91 3.76,-2.9 10.14,-8.01 16.19,-10.69"
         id="path2" /><path
         fill="#ff2b25"
         d="m 47.52,43.91 c 0,1.43 -1.69,1.36 -3.14,1.36 -1.44,0 -2.39,0.09 -3.05,0.56 -0.66,0.47 -0.18,3.74 -6.19,9.2 -3.57,3.24 -6.95,5.4 -7.51,5.21 -0.56,-0.19 -1.64,-2.96 -1.88,-3.99 -2.39,0.7 -7.77,-0.37 -6.95,-0.56 2.77,-0.66 6.91,-2.56 9.67,-4.65 1.92,-1.45 5.61,-4.35 6.76,-5.12 0.99,-0.66 3.85,-2.77 5.12,-2.91 2.05,-0.22 7.17,-0.65 7.17,0.9"
         id="path3" /><path
         fill="#2f2f2f"
         d="m 39.64,36.07 c 0,2.33 -2.16,4.32 -4.83,4.04 -2.29,-0.24 -4.18,-1.89 -4.18,-4.22 0,-2.33 1.82,-4.43 4.13,-4.5 3.72,-0.13 4.88,2.35 4.88,4.68"
         id="path4" /><path
         fill="#fffefd"
         d="m 29.5,53.76 c 0.89,-0.75 -0.89,-2.82 -0.89,-2.82 l -2.16,1.43 c 0,0.01 1.84,2.42 3.05,1.39 m 5.16,-3.8 c 0.89,-0.75 -0.94,-3 -0.94,-3 l -2.3,1.78 c 0.01,0 2.03,2.25 3.24,1.22 m 2.35,-1.26 c -0.76,0.89 1.41,2.91 1.41,2.91 0,0 1.8,-2.38 1.6,-2.53 -0.19,-0.15 -1.98,-1.59 -3.01,-0.38 m -3.89,3.89 c -0.76,0.89 0.99,3.19 1.29,3.1 0.3,-0.09 1.99,-1.88 1.99,-1.88 0,0 -2.26,-2.43 -3.28,-1.22"
         id="path5" /><path
         fill="#606568"
         d="m 65.17,25.42 c -1.13,0.75 -0.38,2.35 0.28,3.66 0.66,1.31 1.08,2.51 1.15,4.29 0.06,1.6 -0.35,4.48 -0.54,5.47 -0.17,0.91 -0.78,2.9 0.56,3.24 1.69,0.42 2.16,-0.89 2.53,-2.16 0.49,-1.65 0.74,-5.01 0.66,-6.71 -0.19,-3.64 -1.41,-5.82 -1.97,-6.66 -0.56,-0.84 -1.57,-1.87 -2.67,-1.13 m 8.21,2.25 c -0.75,0.6 0,2.39 0.33,3.19 0.33,0.8 0.49,1.92 0.49,3.07 0,0.8 -0.16,2.65 -0.26,3.68 -0.14,1.54 -0.06,2.46 1.08,2.67 1.78,0.33 1.85,-2.06 2.02,-3.05 0.13,-0.79 0.25,-3.39 0.15,-4.61 C 77.1,31.4 76.52,29.63 75.82,28.55 75.25,27.7 74.32,26.92 73.38,27.67 M 57.66,24.72 c -1.54,0.79 0.14,3.43 0.56,4.32 0.42,0.89 1.03,2.86 0.99,4.93 -0.05,2.06 -0.21,4.18 -0.56,5.33 -0.31,1 -1.22,2.7 -0.52,3.4 1.03,1.03 2.69,-0.04 3.26,-1.71 0.84,-2.46 1.06,-4.48 0.96,-7.67 -0.12,-4.29 -2.39,-9.78 -4.69,-8.6"
         id="path6" /><path
         fill="#fffefd"
         d="m 28.89,56.3 c -0.76,0.89 0.89,2.96 0.89,2.96 l 2.3,-1.6 c 0,0 -2.16,-2.57 -3.19,-1.36 m 9.95,-10 c 0.87,-0.78 -0.61,-2.44 -0.61,-2.44 0,0 -2.11,1.27 -2.02,1.41 0.21,0.3 1.69,1.88 2.63,1.03"
         id="path7" /></g><ellipse
       style="fill:#ffffff;fill-opacity:1;stroke-width:0.404607"
       id="path199"
       cx="38.718857"
       cy="37.644371"
       rx="2.7417867"
       ry="2.6487741" /><ellipse
       style="fill:#ffffff;fill-opacity:1;stroke-width:0.424539"
       id="path201"
       cx="-2.3047354"
       cy="59.62883"
       rx="2.3204868"
       ry="0.90748447"
       transform="matrix(0.73294046,-0.68029279,0.74179721,0.67062426,0,0)" /><ellipse
       style="fill:#ffffff;fill-opacity:1;stroke-width:0.354688"
       id="path202"
       cx="39.05769"
       cy="43.193153"
       rx="0.63649821"
       ry="0.60618877" /></g></svg>
