<?xml version="1.0" encoding="UTF-8" standalone="no"?>
<!-- Created with Inkscape (http://www.inkscape.org/) -->

<svg
   width="0"
   height="0"
   viewBox="0 0 40 40"
   version="1.1"
   id="svg1"
   xml:space="preserve"
   inkscape:export-filename="requin.svg"
   inkscape:export-xdpi="96"
   inkscape:export-ydpi="96"
   xmlns:inkscape="http://www.inkscape.org/namespaces/inkscape"
   xmlns:sodipodi="http://sodipodi.sourceforge.net/DTD/sodipodi-0.dtd"
   xmlns="http://www.w3.org/2000/svg"
   xmlns:svg="http://www.w3.org/2000/svg"
   xmlns:rdf="http://www.w3.org/1999/02/22-rdf-syntax-ns#"
   xmlns:cc="http://creativecommons.org/ns#"
   xmlns:dc="http://purl.org/dc/elements/1.1/"><defs
     id="defs1" /><sodipodi:namedview
     id="base"
     pagecolor="#ffffff"
     bordercolor="#000000"
     borderopacity="0.3"
     inkscape:pageopacity="0.0"
     inkscape:pageshadow="2"
     inkscape:zoom="0.35"
     inkscape:cx="400"
     inkscape:cy="560"
     inkscape:document-units="px"
     inkscape:showpageshadow="2"
     inkscape:pagecheckerboard="0"
     inkscape:deskcolor="#d1d1d1" /><metadata
     id="metadata1"><rdf:RDF><cc:Work
         rdf:about=""><dc:format>image/svg+xml</dc:format><dc:type
           rdf:resource="http://purl.org/dc/dcmitype/StillImage" /></cc:Work></rdf:RDF></metadata><g
     id="g4"
     transform="matrix(0.26301522,0,0,0.26301522,-0.02177351,-0.10168784)"><g
       id="g202"
       transform="matrix(1.2454047,0,0,1.2454047,-4.3376789,-15.018807)"><path
         fill="#40727b"
         d="m 34.38,77.93 -5.82,15.2 c 0,0 0.28,1.13 2.82,0.84 2.54,-0.29 5.82,-2.72 5.82,-2.72 0,0 3.08,-0.08 4.6,-0.38 3.1,-0.6 5.4,-1.4 5.4,-1.4 0,0 -0.14,2.15 0.42,3.55 0.56,1.4 2.91,4.04 2.91,7.51 0,3.47 -3.43,9.55 -2.49,11.61 0.94,2.06 3.05,5.28 7.65,5 4.6,-0.28 10.61,-2.53 10.61,-2.53 0,0 0.94,-10.61 0.56,-13.61 -0.38,-3 -3.19,-6.66 -3.66,-7.98 -0.47,-1.31 -0.47,-7.23 -0.47,-7.23 l 3.28,1.31 c 0,0 19.05,2.72 21.02,2.72 1.97,0 4.6,0.19 4.6,0.19 0,0 0.84,2.44 0.84,4.69 0,2.25 -0.84,4.41 -2.06,5.44 -1.22,1.03 -2.34,4.06 -1.5,5.35 0.82,1.27 3.1,3.1 8.82,3.1 5.72,0 10.23,-1.97 10.23,-1.97 l -1.69,-8.63 c 0,0 -1.88,-1.69 -2.16,-3.19 -0.28,-1.5 2.35,-9.67 2.35,-9.67 l 15.58,-21.68 -0.38,-4.97 -56.96,-7.2 z"
         id="path1" /><path
         fill="#6da3af"
         d="m 60.94,36.82 c 0,0 1.97,-8.17 -1.41,-9.01 -3.38,-0.84 -5.51,3.25 -6.29,6.1 -0.59,2.15 -0.38,4.79 -0.38,4.79 0,0 -2.06,-1 -4.22,-0.93 -1.97,0.06 -4.04,0.93 -4.04,0.93 0,0 -0.09,-4.32 -1.5,-6.85 -1.41,-2.53 -3.85,-4.69 -5.82,-4.13 -1.97,0.56 -2.64,4.73 -1.69,7.6 1.15,3.47 4.22,5.73 4.22,5.73 0,0 -3.75,4.04 -4.69,5.54 -0.94,1.5 -7.41,11.45 -7.41,11.45 0,0 -4.79,7.6 -6.76,9.2 -1.97,1.6 -9.2,9.48 -9.95,12.11 -0.75,2.63 -1.31,6.48 -0.56,9.1 0.54,1.88 1.69,4.13 3.57,5.07 1.88,0.94 2.72,0.19 3.85,0.66 1.13,0.47 3.1,1.78 5.73,1.88 2.63,0.09 5.1,-1.5 5.42,-2.03 0.32,-0.53 0.77,-1.9 1.44,-2.6 0.67,-0.7 3.98,-3.8 4.43,-4.26 0.45,-0.46 1.38,-0.8 1.83,-0.25 0.55,0.68 -1.09,2.08 -1.58,2.46 -0.49,0.38 -3.91,2.82 -3.41,2.89 0.49,0.07 4.16,-1.48 4.92,-2.56 0.3,-0.42 3.21,0.02 6.87,-0.86 3.66,-0.88 8.62,-3.73 9.78,-5.1 1.16,-1.37 4.08,-4.68 5.14,-6.58 1.06,-1.9 2.82,-4.93 3.41,-7.92 0.59,-2.99 0.81,-4.79 0.92,-5.21 0.11,-0.42 0.28,-1.13 1.02,-0.99 0.74,0.14 0.84,0.53 0.74,1.44 -0.1,0.91 -0.5,3.37 -0.81,4.93 -0.33,1.65 -0.63,3.03 -1.65,5.14 -1.02,2.11 -2.04,3.41 -2.04,3.41 0,0 2.32,0.11 5.14,-1.79 2.82,-1.9 4.15,-3.48 5.17,-5.14 1.02,-1.65 2.01,-4.26 2.15,-5 0.14,-0.74 0.39,-1.16 1.02,-1.09 0.63,0.07 0.74,1.06 0.53,1.76 -0.21,0.7 -1.18,3.67 -2.24,5.4 -1.06,1.72 -3.71,4.53 -5.78,5.76 -2.08,1.23 -3.5,1.64 -4.38,1.82 -0.88,0.18 -2.52,0.4 -2.52,0.4 0,0 -3.06,2.85 -2.82,4.33 0.24,1.48 1.87,2.11 3.98,2.25 2.11,0.14 4.68,0.32 5.84,0.92 1.16,0.6 2.15,1.41 2.18,3.24 0.03,1.83 0.14,3.13 -0.56,5.6 -0.7,2.46 -1.44,4.36 -1.79,5.88 -0.35,1.51 -0.35,2.43 -0.35,2.43 0,0 -1.76,1.27 -3.1,4.61 -1.34,3.34 -1.62,6.26 -1.23,6.83 0.39,0.56 2.57,3.1 8.8,3.31 6.23,0.21 9.1,-0.4 10.72,-0.96 1.51,-0.53 2.21,-1.89 2.4,-2.31 0.67,-1.44 -0.04,-4.54 -0.04,-5.98 0,-1.44 0.11,-3.59 0.21,-4.12 0.11,-0.53 2.42,-2.82 3.31,-5.03 1.62,-4.05 0.14,-11.97 0.42,-12.46 0.28,-0.49 5.74,0.77 9.54,-1.51 3.8,-2.29 7.6,-8.45 9.43,-11.97 1.83,-3.52 3.94,-7.25 5.67,-9.68 1.72,-2.43 4.68,-5.81 6.41,-5.81 1.72,0 3.45,1.02 2.99,1.94 -0.46,0.92 -2.36,-0.42 -3.73,0.35 -1.37,0.77 -3.84,3.52 -4.89,5.42 -1.05,1.9 -3.55,6.19 -4.12,7.36 -0.56,1.16 -2.53,5.56 -2.53,5.56 0,0 -0.46,3.38 0.32,6.62 0.22,0.9 0.63,2.6 0.46,5 -0.18,2.39 -1.58,6.19 -2.36,7.81 -0.77,1.62 -1.69,4.4 -1.48,6.83 0.21,2.43 1.16,3.8 3.38,4.79 2.22,0.99 9.29,1.15 11.68,0.84 2.22,-0.28 4.14,-1.01 5,-2.46 1.1,-1.88 0.98,-4.9 0.7,-6.05 -0.56,-2.32 -1.3,-2.29 -1.41,-3.8 -0.11,-1.51 0.63,-14.29 0.67,-17.98 0.04,-3.7 0.97,-11.18 0.93,-17.8 -0.04,-6.62 -1.88,-16.51 -6.57,-22.52 -2.56,-3.28 -6.57,-5.4 -9.6,-7.58 -2.81,-2.03 -4.36,-3.38 -6.69,-3.45 -2.32,-0.07 -7.53,1.34 -11.05,3.59 -3.52,2.25 -5.7,2.96 -7.04,3.03 -1.34,0.07 -6.83,-3.8 -10.7,-4.22 -3.87,-0.48 -11.15,3.88 -11.15,3.88"
         id="path2" /><path
         fill="#40727b"
         d="m 76.71,79.76 c -6.01,-0.14 -8.96,2.67 -10.18,3.99 -1.22,1.31 -1.03,1.92 -0.56,2.39 0.47,0.47 1.08,-0.14 1.88,-0.75 0.8,-0.61 4.13,-3.61 8.82,-3.19 4.69,0.42 7.65,2.58 8.68,3.33 1.03,0.75 2.25,2.35 3,1.55 0.75,-0.8 0.05,-1.69 -1.13,-2.86 -1.18,-1.17 -5.82,-4.35 -10.51,-4.46"
         id="path3" /><ellipse
         cx="43.68"
         cy="69.599998"
         fill="#352a2d"
         rx="4.1399999"
         ry="3.3"
         transform="rotate(-74.144,43.683,69.605)"
         id="ellipse3" /><path
         fill="#45494f"
         d="m 25.42,89.43 c 1.09,-0.04 1.74,-3.28 2.96,-3.89 1.22,-0.61 1.31,0.23 1.97,-0.52 0.31,-0.35 0.7,-3.8 -2.58,-3.85 -3.28,-0.05 -3.92,4.2 -3.85,5.16 0.09,1.31 0.33,3.14 1.5,3.1"
         id="path4" /><path
         fill="url(#notoRhinoceros0)"
         d="m 21.57,48.6 c -0.45,-0.15 -2.11,3.43 -1.97,8.35 0.16,5.45 1.88,9.81 3.28,10.04 1.4,0.23 3.61,-0.23 5.54,-1.74 1.92,-1.5 3.24,-3.89 3.24,-4.69 0,-0.8 -3.52,-2.11 -5.4,-4.65 -2.2,-2.96 -3.98,-7.07 -4.69,-7.31"
         id="path7"
         style="fill:#cccccc" /><path
         fill="url(#notoRhinoceros1)"
         d="m 7.73,43.21 c -1.36,-0.14 -3.72,7.68 -3.47,14.03 0.26,6.55 1.88,11.92 2.82,14.78 0.6,1.82 3.14,7.32 4.08,7.46 1.59,0.24 4.74,-0.05 7.51,-2.77 3.29,-3.23 2.72,-8.12 1.69,-8.96 C 18.55,66.27 15.62,64.23 13.79,60.43 11.96,56.63 10.19,49.95 9.66,47.9 9.18,46.07 8.63,43.3 7.73,43.21"
         id="path12"
         style="fill:#cccccc"
         inkscape:label="path12" /><path
         fill="#a6cdd1"
         d="m 75.54,113.5 c -3.43,-0.05 -4.04,3.24 -4.32,3.24 -0.28,0 -0.33,-3.24 -3.47,-3.66 -3.14,-0.42 -4.88,4.5 -4.88,4.5 0,0 1.24,1.57 7.67,1.99 6,0.39 9.13,-0.77 9.13,-0.77 0,0 0.28,-5.24 -4.13,-5.3 m 45.87,-2.44 c 0,0 -0.73,-4.93 -4.11,-5.11 -3.38,-0.18 -4.04,2.53 -4.22,2.49 -0.19,-0.05 0.14,-3.85 -4.13,-3.94 -3.14,-0.07 -5.49,4.55 -5.49,4.55 0,0 1.17,1.95 3.19,2.67 2.45,0.88 4.6,0.9 7.84,0.94 4.5,0.04 6.92,-1.6 6.92,-1.6"
         id="path13" /></g><ellipse
       style="fill:#ffffff;fill-opacity:1;stroke-width:0.301821"
       id="path199"
       cx="48.941875"
       cy="73.054985"
       rx="2.0452626"
       ry="1.9758791" /></g></svg>
