<?xml version="1.0" encoding="UTF-8" standalone="no"?>
<!-- Created with Inkscape (http://www.inkscape.org/) -->

<svg
   width="0"
   height="0"
   viewBox="0 0 40 40"
   version="1.1"
   id="svg1"
   xml:space="preserve"
   inkscape:export-filename="rhinoceros.svg"
   inkscape:export-xdpi="96"
   inkscape:export-ydpi="96"
   xmlns:inkscape="http://www.inkscape.org/namespaces/inkscape"
   xmlns:sodipodi="http://sodipodi.sourceforge.net/DTD/sodipodi-0.dtd"
   xmlns="http://www.w3.org/2000/svg"
   xmlns:svg="http://www.w3.org/2000/svg"
   xmlns:rdf="http://www.w3.org/1999/02/22-rdf-syntax-ns#"
   xmlns:cc="http://creativecommons.org/ns#"
   xmlns:dc="http://purl.org/dc/elements/1.1/"><defs
     id="defs1" /><sodipodi:namedview
     id="base"
     pagecolor="#ffffff"
     bordercolor="#000000"
     borderopacity="0.3"
     inkscape:pageopacity="0.0"
     inkscape:pageshadow="2"
     inkscape:zoom="0.35"
     inkscape:cx="400"
     inkscape:cy="560"
     inkscape:document-units="px"
     inkscape:showpageshadow="2"
     inkscape:pagecheckerboard="0"
     inkscape:deskcolor="#d1d1d1" /><metadata
     id="metadata1"><rdf:RDF><cc:Work
         rdf:about=""><dc:format>image/svg+xml</dc:format><dc:type
           rdf:resource="http://purl.org/dc/dcmitype/StillImage" /></cc:Work></rdf:RDF></metadata><g
     id="g4"
     transform="matrix(0.26205806,0,0,0.26205806,0.13806391,0.07853325)"><g
       id="g202"
       transform="matrix(1.2410269,0,0,1.2410269,-3.8653084,-4.3366629)"><path
         fill="#728037"
         d="m 60.63,29.75 -17.8,12.96 -11.68,9.81 c 0,0 -5.23,3.56 -6.61,3.9 -1.35,0.34 -4.65,-9.95 -7.27,-10.59 -6.13,-1.5 -12.74,-3.36 -12.59,0.74 0.07,2.05 7.27,2.23 8.62,3.21 1.36,0.98 4.09,11.73 8.27,13.78 4.18,2.05 16.54,-4.99 16.54,-4.99 l 0.38,2.33 c 0,0 -10.36,5.51 -11.14,8.47 -0.77,2.96 0.07,19.06 1.18,20.71 0.77,1.15 0.65,1.66 0.38,2.41 -0.27,0.74 -0.03,4.18 0.59,6.9 0.82,3.62 2.74,6.26 3.93,5.89 3.67,-1.15 -0.47,-9.68 0.94,-13.25 0.77,-1.95 0.14,-6.92 -0.14,-10.58 -0.28,-3.66 -0.92,-5.1 -0.39,-6.88 0.52,-1.78 5.25,-5.03 8.14,-6.16 2.89,-1.13 4.17,5.86 4.17,5.86 0,0 -3.43,-1.49 -6.07,2.56 -1.22,1.87 0.05,5.43 3.78,11.45 3.74,6.03 11.39,14.85 11.73,16.3 0.34,1.45 -0.6,3.69 -0.11,4.99 0.42,1.13 6.76,16.17 10.36,14.79 4.2,-1.62 -4.71,-12.82 -4.26,-16.62 0.2,-1.73 1.35,-3.35 0.68,-5.45 C 61.28,99.16 48.7,80.04 48.7,80.04 L 86.6,57.12 c 0,0 11.84,17.56 14.97,19.21 3.14,1.65 11.61,6.19 13.55,7.15 1.94,0.96 7.38,3.4 7.99,1.99 0.99,-2.29 -2.39,-5.2 -6.14,-7.55 -3.75,-2.36 -9.4,-5.71 -9.79,-7.01 -0.9,-2.97 -2.67,-9 -4.7,-12.45 C 100.45,55.01 91.5,45.66 91.5,45.66 l -6.68,-7.31 c 0,0 5.19,2.67 7.26,2.89 2.07,0.22 6.68,0.26 8.45,0.34 1.76,0.08 4.55,1.1 5.43,-0.05 1.26,-1.66 -4.42,-4.68 -7.36,-4.72 -2.94,-0.04 -6.25,-0.57 -7.14,-0.68 -0.88,-0.11 -15.61,-12.4 -19.67,-8.54 -1.43,1.36 -0.34,6.76 -0.34,6.76 l -1.39,-2 c 0,0 0.34,-12.04 -1.98,-15.33 C 65.76,13.73 55.22,13.37 53.84,11.52 52.43,9.66 55,3.62 50.99,4.13 c -2.33,0.3 -2.72,10.07 -1.2,11.63 1.52,1.56 9.73,2.29 11.95,5.88 0.16,4.47 -1.11,8.11 -1.11,8.11"
         id="path1" /><path
         fill="#728037"
         d="M 36.34,41.48 51.75,25.23 c 0,0 0.53,-2.28 -2.79,-3.2 -2.04,-0.56 -4.84,0.06 -4.84,0.06 0,0 -3.7,-1.88 -5.91,-2.1 -2.21,-0.21 -5.04,0.62 -5.04,0.62 0,0 -3.3,-2.96 -5.48,-2.59 -2.18,0.37 -1.49,2.55 -2.34,3.24 -0.86,0.69 -2.27,0.23 -3,2.16 -0.73,1.93 3.02,6.42 3.02,6.42 0,0 -1.3,6.79 0.92,10.71 2.15,3.81 4.39,6.41 4.39,6.41 z"
         id="path2" /><ellipse
         cx="39.07"
         cy="24.950001"
         fill="#2f2f2f"
         rx="2.54"
         ry="2.73"
         transform="rotate(-73.466,39.073,24.948)"
         id="ellipse2" /><ellipse
         cx="31.690001"
         cy="32.119999"
         fill="#2f2f2f"
         rx="2.8099999"
         ry="2.9100001"
         transform="rotate(-70.987,31.693,32.117)"
         id="ellipse3" /><path
         fill="#4e5725"
         d="m 26.61,7 c -1.16,1.44 -0.25,2.93 3.31,5.46 3.27,2.33 4.57,2.99 4.57,2.99 0,0 0.14,2.29 0.43,3.41 0.68,2.62 2.37,2.92 4.39,2.85 3.06,-0.11 0.51,-2.71 -0.02,-4.58 -0.43,-1.53 -0.22,-3.62 -1.15,-4.42 -1.74,-1.48 -2.61,-2.38 -2.61,-2.38 0,0 2.92,-5.04 0.32,-6.25 C 33.74,3.1 31.8,7.71 31.8,7.71 31.8,7.71 27.79,5.54 26.61,7 M 7.53,25.35 c -0.43,1.84 3.12,2.8 3.5,3.33 0,0 -3.63,2.92 -2.45,4.74 1.51,2.33 5.54,-1.54 5.8,-1.59 0.27,-0.05 1.59,3.33 3.18,3.71 1.59,0.38 5.07,-3.2 6.89,-2.12 0.99,0.59 0.96,1.14 2.49,0.9 1.53,-0.24 1.17,-4.22 -1.96,-5.54 -3.02,-1.27 -6.29,1.4 -6.29,1.4 0,0 -0.71,-2.12 -2.93,-4.01 -2.04,-1.73 -7.51,-3.93 -8.23,-0.82"
         id="path3" /><path
         fill="#02ab47"
         d="m 66.87,29.68 c 0,0 -0.42,-5.82 -5.75,-7.09 -5.33,-1.27 -11.41,-0.9 -19.25,5.45 -6.99,5.66 -17.2,15.26 -12.19,24.25 1.84,3.3 4.77,3.64 4.77,3.64 0,0 -1.71,3.87 1.14,9.65 2.44,4.96 11.34,21.83 31.38,28.35 20.9,6.8 31.94,-6.67 33.81,-11.53 0.64,-1.65 5.48,-12.18 -1.28,-28.75 C 92.76,37.12 79.93,32.03 73.76,29.88 c -4.43,-1.56 -6.89,-0.2 -6.89,-0.2"
         id="path4" /><path
         fill="#79dc8a"
         d="m 42.59,31.07 c -3.98,3.63 -12.36,13.3 -7.67,15.55 3.95,1.89 5.37,-5.99 12.01,-11.7 6.64,-5.71 12.92,-5.16 11.81,-8.83 -1.11,-3.68 -9.34,-1.25 -16.15,4.98 m 1.37,30.62 c -3.16,1.82 1.29,6.59 3.9,9.45 3.24,3.54 7.02,7.65 8.84,6.28 3.05,-2.31 -2.17,-5.89 -4.73,-8.73 -1.91,-2.12 -5.92,-8.2 -8.01,-7 m 8.22,-5.08 c -2.61,1.9 1.17,5.55 4.87,9.57 4.27,4.63 6.39,7.24 8.44,5.82 2.77,-1.92 -3.22,-6.56 -5.76,-9.31 -2.54,-2.74 -5.35,-7.68 -7.55,-6.08 m 8.23,-4.38 c -2,1.39 1.51,5.24 3.92,7.81 2.92,3.1 5.87,6.28 7.7,4.78 2.09,-1.71 -2.47,-6.06 -4.38,-8.05 -2.33,-2.43 -4.77,-6.25 -7.24,-4.54 M 71.59,41.14 c 2.11,-2.37 6.91,2.07 9.11,4.03 2.6,2.31 6.15,5.94 3.93,8.12 -1.64,1.61 -5.11,-2.5 -7.35,-4.55 -3.49,-3.2 -7.59,-5.46 -5.69,-7.6 m 4.44,-5.73 c -1.24,2.79 4.21,5.02 7.14,7.1 3.61,2.57 6.6,7.09 8.57,5.7 2.79,-1.96 -2.62,-6.63 -6.06,-9.16 -3.11,-2.29 -8.67,-5.86 -9.65,-3.64"
         id="path5" /><path
         fill="#4e5725"
         d="m 68.35,28.4 c -2.31,-1.01 -2.51,1.63 -3.5,3.36 -1.47,2.57 -4.89,8.19 -8.73,11.58 -4.55,4.02 -11.13,7.37 -17.59,9.87 -2.67,1.04 -6.36,1.23 -5.58,3.81 0.43,1.43 2.22,1.19 7.19,-0.54 4.88,-1.7 12.25,-5.32 14.69,-7.05 3.04,-2.16 5.85,-4.76 8.24,-7.57 2.35,-2.77 4.9,-7.26 5.8,-10.3 0.47,-1.7 0.77,-2.59 -0.52,-3.16"
         id="path6" /><path
         fill="#4e5725"
         d="m 102.51,74.74 c 0,0 -5.65,10.16 -6.29,9.57 -0.48,-0.45 -3.76,-8 -6.56,-12.84 C 86.64,66.26 83.57,61.42 80.52,57.44 77.35,53.31 70.02,46.01 66.14,43.58 63.05,41.65 61.09,40.44 61.09,40.44 l -2.45,3.39 c 0,0 3.89,2.52 5.39,3.77 2.53,2.1 8.82,8.17 11.71,11.49 3.47,3.98 8.72,13.11 9.84,15.39 3.44,6.96 5.88,12.67 5.7,13.99 -0.17,1.33 -4.21,3.67 -6.72,4.61 -1.32,0.5 -8.17,2.13 -8.17,2.13 0,0 -1.32,0.64 1.42,0.74 5.95,0.23 11.19,0.47 18.05,-4.83 6.67,-5.12 8.12,-18.21 6.65,-16.38"
         id="path7" /></g><ellipse
       style="fill:#ffffff;fill-opacity:1;stroke-width:0.264583"
       id="path202"
       cx="43.455696"
       cy="25.820189"
       rx="1.5826735"
       ry="1.4922351" /><ellipse
       style="fill:#ffffff;fill-opacity:1;stroke-width:0.264583"
       id="path202-4"
       cx="34.151573"
       cy="34.4958"
       rx="1.5826735"
       ry="1.4922351" /></g></svg>
