<?xml version="1.0" encoding="UTF-8" standalone="no"?>
<!-- Created with Inkscape (http://www.inkscape.org/) -->

<svg
   width="0"
   height="0"
   viewBox="0 0 40 40"
   version="1.1"
   id="svg1"
   xml:space="preserve"
   inkscape:export-filename="serpent.svg"
   inkscape:export-xdpi="96"
   inkscape:export-ydpi="96"
   xmlns:inkscape="http://www.inkscape.org/namespaces/inkscape"
   xmlns:sodipodi="http://sodipodi.sourceforge.net/DTD/sodipodi-0.dtd"
   xmlns="http://www.w3.org/2000/svg"
   xmlns:svg="http://www.w3.org/2000/svg"
   xmlns:rdf="http://www.w3.org/1999/02/22-rdf-syntax-ns#"
   xmlns:cc="http://creativecommons.org/ns#"
   xmlns:dc="http://purl.org/dc/elements/1.1/"><defs
     id="defs1" /><sodipodi:namedview
     id="base"
     pagecolor="#ffffff"
     bordercolor="#000000"
     borderopacity="0.3"
     inkscape:pageopacity="0.0"
     inkscape:pageshadow="2"
     inkscape:zoom="0.35"
     inkscape:cx="400"
     inkscape:cy="560"
     inkscape:document-units="px"
     inkscape:showpageshadow="2"
     inkscape:pagecheckerboard="0"
     inkscape:deskcolor="#d1d1d1" /><metadata
     id="metadata1"><rdf:RDF><cc:Work
         rdf:about=""><dc:format>image/svg+xml</dc:format><dc:type
           rdf:resource="http://purl.org/dc/dcmitype/StillImage" /></cc:Work></rdf:RDF></metadata><g
     id="g4"
     transform="matrix(0.26458488,0,0,0.26458488,-0.07313194,0.05336198)"><g
       id="g216"
       transform="matrix(1.2526211,0,0,1.2526211,-4.9277211,-5.7487092)"><path
         fill="#845a54"
         d="M 71.45,84.59 62.06,67.6 38.88,76.47 c 0,0 -1.13,1.45 -0.89,3.99 0.1,1.13 0.61,4.32 0.61,4.32 l -4.32,0.66 c 0,0 -6.19,5.16 -4.22,13.23 1.5,6.13 3.1,9.39 3.1,9.39 l -0.84,6.01 c 0,0 13.8,6 27.22,5.63 17.18,-0.47 23.65,-9.57 23.65,-9.57 L 78.5,88.92 Z"
         id="path1" /><path
         fill="#b5885e"
         d="m 31.66,86.57 c -1.99,1.87 -2.32,4.83 -2.16,5.87 0.38,2.44 4.13,9.15 8.26,8.87 4.13,-0.28 2.16,-8.54 0.84,-11.54 -1.32,-3 -3.75,-6.21 -6.94,-3.2 m -11.17,32.37 c -0.14,2.05 2.16,1.97 6.48,1.97 4.32,0 14.73,-0.75 14.73,-0.75 l -0.84,-5.73 c 0,0 -2.61,0.18 -6.19,-1.78 -1.45,-0.8 -1.92,-1.83 -1.92,-1.83 0,0 -11.98,4 -12.26,8.12"
         id="path2" /><path
         fill="#ffcd88"
         d="m 51.61,80.46 c 0,0 -4.6,-0.18 -8.03,3.81 -2.18,2.53 -6.66,14.69 -3.38,16.38 3.28,1.69 5.53,-4.27 6.76,-7.04 1.13,-2.53 3.19,-5.44 4.97,-6.38 1.78,-0.94 3.28,-1.97 3.28,-1.97 z m -7.65,32.85 c 0,0 -1.6,0 -3.19,0.56 -1.6,0.56 -10.51,4.88 -10.42,7.23 0.09,2.35 5.54,2.35 12.29,2.25 6.76,-0.09 8.54,-1.41 9.1,-1.97 0.56,-0.56 2.72,-3.47 1.97,-3.85 -0.74,-0.37 -9.75,-4.22 -9.75,-4.22"
         id="path3" /><path
         fill="#b5885d"
         d="m 69.01,70.23 c 0,0 5.26,-4.6 7.32,-9.01 2.06,-4.41 1.97,-8.63 1.97,-8.63 0,0 9.97,-2.63 7.46,-14.96 C 83.64,27.19 75.2,29.41 75.2,29.41 c 0,0 -5.73,-11.92 -21.12,-15.2 -15.39,-3.28 -28.87,4.32 -34.54,12.01 -6.57,8.92 -5.44,20.37 -5.44,20.37 0,0 -5.07,-0.47 -7.41,4.04 -2.43,4.67 -1.6,12.29 2.91,15.77 4.5,3.47 11.54,2.53 11.54,2.53 0,0 4.88,5.26 10.51,7.6 5.78,2.41 11.26,2.72 17.93,2.06 6.67,-0.66 12.01,-4.13 12.01,-4.13 0,0 -0.28,1.88 0.94,4.32 0.76,1.51 3.38,4.41 3.38,4.41 0,0 -4.27,-2.25 -7.7,-2.86 -3.72,-0.66 -6.1,-0.42 -7.51,0.42 -1.07,0.64 0.31,5.73 1.88,6.01 1.6,0.28 4.22,-0.47 8.82,1.31 4.6,1.78 10.51,6.01 12.01,6.95 1.5,0.94 4.55,2.53 4.79,4.6 0.18,1.59 -2.39,3.66 -6.9,-0.94 -4.32,-4.41 -8.49,-8.63 -13.19,-9.2 -4.69,-0.56 -7.6,0.66 -9.76,5.35 -2.77,6.03 -5.07,13.33 -5.54,15.2 -0.47,1.88 -1.78,2.91 -0.75,4.69 0.72,1.24 8.67,5.87 10.51,5.73 2.35,-0.19 4.22,-4.97 4.79,-5.82 0.56,-0.84 1.78,-2.63 1.78,-2.63 0,0 4.13,9.76 12.86,8.92 8.73,-0.84 9.95,-6.29 9.95,-6.29 0,0 6.79,0.34 13.98,-1.71 9.64,-2.75 16.23,-11.56 18.3,-25.69 1.5,-10.23 -0.38,-25.15 -5.16,-37.64 -1.76,-4.58 -3.83,-10.01 -5.16,-13.8 -3.41,-9.66 -4.6,-16.64 0.94,-18.68 2.82,-1.04 4.63,0.19 5.45,1.8 1.12,2.21 1.31,4.95 4.87,6.36 2.54,1 5.73,0.19 7.13,-2.16 1.76,-2.94 1.14,-7.24 -2.63,-12.11 C 113.19,2.65 102.4,3.44 96.49,7.9 90.17,12.66 87.48,19 90.58,30.89 c 2.91,11.17 9.31,25.39 10.7,32.29 1.88,9.29 3.58,32.13 -7.98,36.79 -5.35,2.16 -9.29,1.31 -9.29,1.31 0,0 -0.94,-10.68 -4.32,-18.4 C 75.84,74.07 69.01,70.23 69.01,70.23"
         id="path4" /><path
         fill="#ffcf8c"
         d="m 71.36,35.28 c -0.16,0.2 0.91,3.13 1.31,6.19 0.45,3.39 0.59,6.67 0.88,6.77 0.56,0.19 8.88,-1.89 7.85,-9.59 -1.03,-7.7 -9.66,-3.84 -10.04,-3.37 m -56.78,16 c -0.74,-0.56 -5.55,0.79 -4.97,6.29 0.75,7.13 7.79,7.13 8.45,6.66 0.34,-0.24 -1,-3.49 -1.88,-6.66 -0.85,-3.05 -1.23,-6.02 -1.6,-6.29 M 41.23,36.35 c -4.5,1.5 -10.79,-5.73 -16.24,0 -6.67,7.01 1.26,13.31 1.88,18.21 0.38,3 -1.31,5.26 0.38,10.32 1.41,4.22 9.24,10.5 23.48,7.61 13.33,-2.71 16.46,-11.15 16.11,-16.46 -0.39,-5.92 -3.17,-6.26 -3.73,-9.26 -0.56,-3 2.59,-14.82 -6.57,-17.27 -9.49,-2.53 -10.46,5.24 -15.31,6.85"
         id="path5" /><path
         fill="#000504"
         d="m 56.88,43.58 c 0.56,3.38 0.21,5.63 -2.18,6.19 -2.86,0.67 -4.72,-1.27 -5.28,-4.72 -0.69,-4.21 0.16,-6.19 2.35,-6.6 2.7,-0.5 4.41,0.88 5.11,5.13 m -19,3.31 c 0.64,3.22 0.75,6.1 -1.83,6.76 -2.47,0.63 -4.52,-0.95 -5.42,-4.43 -1.06,-4.08 -0.71,-6.44 1.62,-7.11 2.4,-0.7 4.64,-0.22 5.63,4.78 m 3.38,5.64 c 0.06,1.62 2.81,3.58 4.42,3.33 1.74,-0.28 3.38,-3.72 2.81,-4.74 -0.74,-1.32 -7.28,-0.07 -7.23,1.41"
         id="path6" /><path
         fill="#ff6b19"
         d="m 34.68,62.87 c 0.28,2.25 5.07,5.65 13.8,3.94 9.01,-1.76 10.35,-7.25 10.21,-8.59 -0.14,-1.34 -4.72,-2.04 -12.53,-0.7 -6.13,1.05 -11.71,3.55 -11.48,5.35"
         id="path7"
         style="fill:#b5885d;fill-opacity:1" /></g><ellipse
       style="fill:#ffffff;fill-opacity:1;stroke-width:0.264583"
       id="path216"
       cx="38.55357"
       cy="57.783108"
       rx="2.6458333"
       ry="2.5985863" /><ellipse
       style="fill:#ffffff;fill-opacity:1;stroke-width:0.264583"
       id="path216-6"
       cx="62.127396"
       cy="53.015804"
       rx="2.6458333"
       ry="2.5985863" /></g></svg>
