<?xml version="1.0" encoding="UTF-8" standalone="no"?>
<!-- Created with Inkscape (http://www.inkscape.org/) -->

<svg
   width="0"
   height="0"
   viewBox="0 0 40 40"
   version="1.1"
   id="svg1"
   xml:space="preserve"
   inkscape:export-filename="tortue.svg"
   inkscape:export-xdpi="96"
   inkscape:export-ydpi="96"
   xmlns:inkscape="http://www.inkscape.org/namespaces/inkscape"
   xmlns:sodipodi="http://sodipodi.sourceforge.net/DTD/sodipodi-0.dtd"
   xmlns="http://www.w3.org/2000/svg"
   xmlns:svg="http://www.w3.org/2000/svg"
   xmlns:rdf="http://www.w3.org/1999/02/22-rdf-syntax-ns#"
   xmlns:cc="http://creativecommons.org/ns#"
   xmlns:dc="http://purl.org/dc/elements/1.1/"><defs
     id="defs1" /><sodipodi:namedview
     id="base"
     pagecolor="#ffffff"
     bordercolor="#000000"
     borderopacity="0.3"
     inkscape:pageopacity="0.0"
     inkscape:pageshadow="2"
     inkscape:zoom="0.35"
     inkscape:cx="400"
     inkscape:cy="560"
     inkscape:document-units="px"
     inkscape:showpageshadow="2"
     inkscape:pagecheckerboard="0"
     inkscape:deskcolor="#d1d1d1" /><metadata
     id="metadata1"><rdf:RDF><cc:Work
         rdf:about=""><dc:format>image/svg+xml</dc:format><dc:type
           rdf:resource="http://purl.org/dc/dcmitype/StillImage" /></cc:Work></rdf:RDF></metadata><g
     id="g4"
     transform="matrix(0.26391934,0,0,0.26391934,-0.15676167,0.11472177)"><g
       style="fill:none"
       id="g205"
       transform="matrix(1.0873037,0,0,1.0873037,-4.1767032,-9.8417025)"><path
         d="m 35.5786,28.7109 c -0.3216,-0.1607 1.9408,-2.9859 2.7447,-4.364 0.8039,-1.3782 1.4585,-3.5602 3.1582,-3.3994 1.6997,0.1608 1.8605,3.1582 1.7801,4.4444 -0.1608,2.584 -1.6193,5.5011 -1.6193,5.5011 z"
         fill="#ffbd16"
         id="path1" /><path
         d="m 103.566,84.8925 -48.1309,8.8659 c 0,0 0.5168,3.1008 1.4011,6.5806 0.8843,3.48 4.2032,13.414 4.0424,17.537 -0.1607,4.122 -3.3189,12.449 -2.182,14.229 1.137,1.78 5.2599,1.699 7.6831,1.137 2.4232,-0.563 4.9612,-2.32 5.2828,-3.365 0.3215,-1.045 -0.4364,-10.371 -0.356,-12.553 0.0804,-2.182 0.5627,-6.385 1.3781,-9.624 0.8039,-3.238 1.2977,-9.1296 1.2977,-9.1296 L 85.7079,92.587 c 0,0 8.1654,6.2245 10.4278,9.544 2.2624,3.318 3.9623,10.427 3.8813,13.333 -0.08,2.905 -1.9979,11.243 -0.7576,12.748 1.5386,1.86 5.2366,2.101 7.6486,1.883 2.963,-0.264 5.547,-1.883 5.547,-1.883 V 93.3794 Z"
         fill="#adadb8"
         id="path2" /><path
         d="m 134.448,93.701 c -1.941,-0.0804 -3.71,6.891 -3.159,9.945 0.804,4.445 4.043,5.984 5.088,7.442 1.057,1.459 1.665,3.262 2.906,3.802 1.297,0.562 2.802,-5.651 2.664,-10.428 -0.149,-5.9146 -4.881,-10.6461 -7.499,-10.761 z"
         fill="#4d4d4d"
         id="path3" /><path
         d="m 96.7789,94.0226 -6.2246,5.8226 c 0,0 2.8596,3.2158 5.168,4.8468 2.7448,1.94 5.3407,2.262 5.3407,2.262 0,0 -0.563,4.605 2.182,5.007 2.561,0.379 2.342,-4.685 2.744,-4.766 0.402,-0.08 1.218,3.721 3.4,3.641 2.182,-0.081 6.224,-8.568 6.224,-8.568 l -5.018,-12.6899 z"
         fill="#fea8a7"
         id="path4" /><path
         d="m 50.7264,33.3966 c 0.1608,-0.4019 -1.6193,-1.9408 -3.319,-3.0663 -1.6996,-1.137 -5.0071,-1.5389 -5.0071,-1.5389 l -14.7919,7.1892 -8.9693,8.6822 c 0,0 -3.7669,2.6414 -5.3862,3.7669 -1.6193,1.1369 -4.28365,2.94 -5.66178,3.8243 -1.37812,0.8843 -2.50359,1.3781 -2.74476,2.4232 -0.24118,1.045 4.98421,9.509 4.98421,9.509 l 2.74473,2.0213 6.5461,-0.5628 c 0,0 8.7282,4.0425 12.7707,5.5011 4.0425,1.4585 13.2529,4.4444 13.2529,4.4444 0,0 1.6997,4.6052 2.8252,7.1892 1.1369,2.584 3.4223,6.1671 3.4223,6.1671 l 23.7382,11.4495 c 0,0 2.2625,8.97 2.6644,11.313 0.402,2.342 0.8843,8.888 0.7235,12.047 -0.1608,3.158 -0.8269,8.349 -0.7235,9.704 0.1034,1.504 1.47,3.388 3.4798,3.721 3.3189,0.54 7.2811,-0.643 8.9693,-2.986 1.6882,-2.343 -0.402,-8.809 -0.6432,-11.484 -0.2411,-2.665 -1.3896,-8.763 -0.5627,-10.75 1.3781,-3.319 2.7448,-7.522 2.9859,-8.969 0.2412,-1.459 0.8039,-3.8014 0.8039,-3.8014 0,0 4.3641,0.0804 7.9239,-0.402 3.561,-0.4823 7.109,-1.2173 7.109,-1.2173 0,0 1.137,4.7657 1.298,7.6827 0.161,2.906 0.723,8.648 0.643,13.173 -0.08,4.525 -1.619,10.026 -1.137,11.151 0.482,1.137 1.459,3.124 5.983,2.504 4.789,-0.655 5.926,-3.158 6.409,-4.284 0.482,-1.125 1.102,-11.151 1.757,-13.747 0.643,-2.584 2.745,-12.77 3.882,-16.25 1.137,-3.4798 5.34,-16.4916 5.34,-16.4916 0,0 0,5.4207 0.321,7.6027 0.322,2.182 0.965,6.8676 2.263,6.7069 1.298,-0.1608 0.884,-4.0425 0.964,-6.6265 0.081,-2.584 -0.08,-6.2246 0.885,-9.2909 0.964,-3.0663 1.872,-7.9242 1.941,-8.4869 0.597,-4.5823 -0.081,-9.9455 -0.161,-10.8298 -0.081,-0.8843 -6.546,-5.0876 -6.546,-5.0876 0,0 0.161,-3.3649 -0.241,-3.8587 -0.402,-0.4824 -6.305,-4.9613 -8.143,-5.3403 -3.066,-0.6316 -6.167,0.4594 -6.167,0.4594 L 100.029,59.2594 68.8258,46.4888 c 0,0 -3.0663,-0.0804 -4.0425,-0.0804 -0.9647,0 -5.5814,-1.9408 -5.5814,-1.9408 l -5.3402,-4.9268 z"
         fill="#dfdfdf"
         id="path5" /><path
         d="m 123.044,69.8595 c -0.666,-6.0293 1.86,-11.6452 3.399,-14.0684 1.539,-2.4232 3.262,-4.6626 3.686,-5.3058 0.402,-0.5972 8.304,6.4083 8.085,9.7043 -0.034,0.5743 -1.079,7.4419 -2.159,10.6116 -0.872,2.584 -3.043,8.9693 -3.766,9.2105 -0.724,0.2411 -8.43,-2.8826 -9.245,-10.1522 z m -0.242,7.9931 c -2.159,-0.0574 -3.801,2.1016 -5.742,4.2837 -1.941,2.182 -3.479,3.8817 -3.158,6.0637 0.322,2.1821 2.745,5.7422 7.189,5.2599 4.445,-0.4824 5.662,-5.0072 5.742,-7.7635 0.092,-2.7447 -0.792,-7.7634 -4.031,-7.8438 z M 93.9767,46.1098 c -11.071,0.1608 -24.1172,0.1033 -25.4953,0.4364 -0.8039,0.1837 2.0212,9.888 6.7872,14.9067 4.766,5.0187 19.6039,22.8999 30.5604,18.1913 7.522,-3.2386 6.063,-13.8272 7.281,-19.3168 1.217,-5.501 6.741,-14.0913 6.741,-14.0913 0,0 -16.905,-0.2526 -25.8743,-0.1263 z M 69.2853,29.1933 c 0.9647,1.3207 -4.2033,8.8085 -5.903,10.7494 -1.6997,1.9408 -5.0876,4.2033 -5.0876,4.2033 0,0 2.8596,1.0795 3.342,1.4814 0.4823,0.402 4.387,7.5683 4.4215,9.5895 0.0574,3.5027 -7.4419,12.4491 -10.9102,12.3687 -3.4798,-0.0804 -11.8863,-5.6618 -13.0118,-7.1892 -1.1369,-1.539 -2.584,-14.9527 -0.8843,-19.3168 1.6997,-4.364 5.0072,-7.7634 5.9834,-7.9242 0.9761,-0.1608 2.182,0.1608 2.182,0.1608 0,0 3.8817,-2.8252 9.7043,-3.8817 5.8226,-1.0566 9.5205,-1.1255 10.1637,-0.2412 z"
         fill="#4d4d4d"
         id="path6" /><path
         d="m 51.6682,42.2854 c -0.5627,-0.6431 0.8154,-5.2713 4.6052,-8.0046 4.0425,-2.9055 8.3262,-2.8251 9.0497,-2.2624 0.8039,0.6201 -1.6652,5.1909 -4.766,7.5223 -3.8817,2.9055 -8.3262,3.3993 -8.8889,2.7447 z"
         fill="#ffd1b3"
         id="path7" /><path
         d="m 18.8458,51.427 c 0,0 4.8464,-9.7043 8.6478,-12.449 3.8013,-2.7448 7.729,-3.7669 11.0709,-4.9268 5.0876,-1.7801 7.0284,-5.5814 7.0284,-5.5814 0,0 -6.7872,-1.539 -12.449,0.1607 -4.1688,1.2518 -8.4066,3.9621 -10.1867,6.1442 -1.78,2.182 -2.94,6.1097 -4.2032,8.1654 -1.539,2.5036 -5.2254,5.2598 -5.2254,5.2598 0,0 1.2632,0.2641 2.7447,1.2403 0.6317,0.402 2.5725,1.9868 2.5725,1.9868 z"
         fill="#4d4d4d"
         id="path8" /><path
         d="m 43.1009,30.3303 c 0.1837,0.6546 0.7005,2.0901 1.8604,2.9055 1.3667,0.9762 3.4913,1.2518 4.8465,0.7235 2.5035,-0.9647 3.3649,-6.5461 3.5601,-8.2458 0.3216,-2.9055 -0.1608,-5.3402 -1.6997,-5.0875 -1.0451,0.1607 -4.1229,4.008 -5.0072,4.6856 -1.3781,1.0566 -4.2147,2.6644 -3.5601,5.0187 z"
         fill="#ffbd16"
         id="path9" /><path
         d="m 30.4336,43.5831 c 0.5972,-0.2641 1.4585,-2.159 3.1812,-1.9982 1.7226,0.1607 3.0778,2.182 2.538,4.4674 -0.5398,2.2624 -1.9523,2.9515 -3.5027,2.6414 -1.3437,-0.2642 -1.9983,-1.7801 -2.2624,-1.9983 -0.2642,-0.2182 -2.963,-0.4823 -2.9056,-1.6193 0.0459,-1.114 2.9515,-1.493 2.9515,-1.493 z"
         fill="#1b1b1b"
         id="path10" /><path
         d="m 8.39505,63.8416 c -0.48235,0.5972 0.49382,2.5036 2.58395,3.2386 2.561,0.8843 4.2837,0.8384 6.1671,0.356 1.516,-0.3904 2.94,-1.3207 2.94,-1.3207 0,0 3.0319,-1.1599 1.6997,-2.7218 -1.8375,-2.159 -4.1229,1.2633 -4.1229,1.2633 0,0 -1.5389,0.9417 -4.3411,0.5627 -2.182,-0.2986 -3.6405,-2.2394 -3.6405,-2.2394 z"
         fill="#4d4d4d"
         id="path11" /><path
         d="m 14.9067,57.6516 c 0.2182,-1.114 0.5627,-1.9064 -2.4232,-2.8022 -3.06632,-0.9187 -5.98335,-1.4011 -7.22366,-0.8039 -0.63165,0.2986 -1.4011,3.5602 0.32156,6.8447 0.97617,1.8605 2.85961,5.0646 3.76687,4.6856 0.90723,-0.379 2.56103,-3.1582 3.06633,-3.8243 0.7235,-0.9187 2.1246,-2.2165 2.4921,-4.0999 z"
         fill="#fca4a7"
         id="path12" /><path
         d="M 13.0232,57.1118 C 12.9773,58.6737 10.6,60.293 7.79784,59.4776 4.99565,58.6622 4.51331,56.618 4.67409,55.4351 c 0.16078,-1.1829 2.31984,-0.0574 3.72094,0.2182 1.40109,0.2756 4.68567,-0.2182 4.62817,1.4585 z"
         fill="#ffd3af"
         id="path13" /><path
         d="m 80.6088,79.8509 c -2.5266,0.5742 -4.9613,4.9038 -4.6857,8.5099 0.2412,3.1812 2.8826,7.0973 7.1089,7.5452 4.0425,0.4364 7.0054,-3.2845 6.9021,-6.6265 C 89.8537,86.7989 87.1089,85.4667 85.57,83.6177 83.0894,80.6548 82.274,79.4719 80.6088,79.8509 Z M 52.3687,79.2077 c -1.2977,0.5398 -1.7227,2.7448 -1.9409,4.1 -0.2182,1.3551 0,3.9391 0.6432,5.2828 0.6431,1.3436 4.2607,7.1662 5.2828,7.9816 1.0221,0.8039 5.6618,2.8022 10.8872,3.5599 5.2253,0.758 7.9816,0.483 7.9816,0.483 0,0 -1.4585,-2.9634 -2.584,-5.7081 C 71.5017,92.1621 69.8938,87.465 67.7348,84.9384 65.5757,82.4119 54.7115,78.2316 52.3687,79.2077 Z"
         fill="#4d4d4d"
         id="path14" /></g><ellipse
       style="fill:#ffffff;fill-opacity:1;stroke-width:0.264583"
       id="path205"
       cx="31.517815"
       cy="40.629494"
       rx="1.4470158"
       ry="1.379187" /></g></svg>
