<svg width="39" height="38" viewBox="0 0 39 38" fill="none" xmlns="http://www.w3.org/2000/svg">
<path fill-rule="evenodd" clip-rule="evenodd" d="M27.1638 6.08784V3.3645H24.7888V10.5687H23.2055V6.08784H15.3363V3.3645H12.9613V10.5687H11.378V6.08784H5.69385V14.2103H33.6397V6.08784H27.1638Z" fill="white"/>
<path fill-rule="evenodd" clip-rule="evenodd" d="M14.3547 25.6262V28.0012H11.9797L11.9638 25.6262H14.3547ZM14.3547 19.942V22.317H11.9797L11.9638 19.942H14.3547ZM20.8622 25.6262V28.0012H18.4872L18.4713 25.6262H20.8622ZM20.8622 19.942V22.317H18.4872L18.4713 19.942H20.8622ZM27.3697 25.6262V28.0012H24.9947L24.9788 25.6262H27.3697ZM27.3697 19.942V22.317H24.9947L24.9788 19.942H27.3697ZM5.69385 34.6353H33.6397V16.5853H5.69385V34.6353Z" fill="white"/>
</svg>
