<svg width="22" height="17" viewBox="0 0 22 17" fill="none" xmlns="http://www.w3.org/2000/svg">
<path fill-rule="evenodd" clip-rule="evenodd" d="M11.0032 4.71851C10.5942 3.94551 8.43115 0.0855103 6.04015 0.0855103C3.64915 0.0855103 1.48515 3.94551 1.07615 4.71851C0.818151 5.20651 1.00415 5.81151 1.49215 6.07051C1.97815 6.32551 2.58515 6.14251 2.84415 5.65451C3.43415 4.54251 4.29815 3.35751 5.04015 2.67151V13.7045C5.04015 14.2575 5.48715 14.7045 6.04015 14.7045C6.59315 14.7045 7.04015 14.2575 7.04015 13.7045V2.67151C7.78215 3.35851 8.64615 4.54251 9.23515 5.65451C9.41515 5.99251 9.76215 6.18651 10.1202 6.18651C10.2782 6.18651 10.4392 6.14851 10.5872 6.07051C11.0752 5.81151 11.2612 5.20651 11.0032 4.71851Z" fill="#418663"/>
<path opacity="0.4" fill-rule="evenodd" clip-rule="evenodd" d="M20.5078 10.9325C20.0238 10.6735 19.4148 10.8595 19.1558 11.3465C18.5678 12.4565 17.7078 13.6385 16.9698 14.3255V3.29547C16.9698 2.74347 16.5228 2.29547 15.9698 2.29547C15.4168 2.29547 14.9698 2.74347 14.9698 3.29547V14.3295C14.2278 13.6435 13.3638 12.4595 12.7738 11.3465C12.5148 10.8595 11.9048 10.6725 11.4218 10.9325C10.9338 11.1905 10.7478 11.7945 11.0058 12.2835C11.4148 13.0565 13.5778 16.9145 15.9698 16.9145C18.3518 16.9145 20.5148 13.0565 20.9238 12.2835C21.1818 11.7945 20.9958 11.1905 20.5078 10.9325Z" fill="black"/>
</svg>
