<?xml version="1.0" encoding="UTF-8" standalone="no"?>
<!-- Created with Inkscape (http://www.inkscape.org/) -->

<svg
   width="0"
   height="0"
   viewBox="0 0 40 40"
   version="1.1"
   id="svg1"
   xml:space="preserve"
   inkscape:export-filename="flammant_rose.svg"
   inkscape:export-xdpi="96"
   inkscape:export-ydpi="96"
   xmlns:inkscape="http://www.inkscape.org/namespaces/inkscape"
   xmlns:sodipodi="http://sodipodi.sourceforge.net/DTD/sodipodi-0.dtd"
   xmlns="http://www.w3.org/2000/svg"
   xmlns:svg="http://www.w3.org/2000/svg"
   xmlns:rdf="http://www.w3.org/1999/02/22-rdf-syntax-ns#"
   xmlns:cc="http://creativecommons.org/ns#"
   xmlns:dc="http://purl.org/dc/elements/1.1/"><defs
     id="defs1" /><sodipodi:namedview
     id="base"
     pagecolor="#ffffff"
     bordercolor="#000000"
     borderopacity="0.3"
     inkscape:pageopacity="0.0"
     inkscape:pageshadow="2"
     inkscape:zoom="0.35"
     inkscape:cx="400"
     inkscape:cy="560"
     inkscape:document-units="px"
     inkscape:showpageshadow="2"
     inkscape:pagecheckerboard="0"
     inkscape:deskcolor="#d1d1d1" /><metadata
     id="metadata1"><rdf:RDF><cc:Work
         rdf:about=""><dc:format>image/svg+xml</dc:format><dc:type
           rdf:resource="http://purl.org/dc/dcmitype/StillImage" /></cc:Work></rdf:RDF></metadata><g
     inkscape:label="Calque 1"
     id="layer1"
     transform="matrix(0.26636915,0,0,0.26636915,0.15238797,0.09519321)"><g
       style="fill:none"
       id="g204"
       transform="matrix(1.0872628,0,0,1.0872628,-5.8671107,-9.4476113)"><path
         d="m 35.4734,87.8167 c 0,0 -4.2773,3.9579 -5.6689,7.9273 -1.3915,3.958 -3.7412,13.596 -4.7107,14.452 -0.9696,0.855 -4.1747,2.349 -5.3496,2.886 -1.1748,0.536 -3.7412,1.072 -3.7412,2.885 0,1.814 2.3497,1.825 6.4217,1.175 4.072,-0.65 5.5662,-0.855 6.3191,-1.825 0.7528,-0.969 4.9275,-16.1625 5.5662,-17.1321 0.6388,-0.9581 1.825,-3.6386 5.4636,-6.4217 3.6386,-2.7831 7.8133,-6.205 7.8133,-6.205 l -6.8552,-4.2773 z"
         fill="#868686"
         id="path1" /><path
         d="m 14.3262,51.2597 c 0,0 -1.2318,-2.8858 -4.71073,-1.9847 -3.05688,0.7985 -4.71078,5.4066 -3.85531,7.551 0.85546,2.1443 3.26218,3.1025 3.26218,3.1025 z"
         fill="#151413"
         id="path2" /><path
         d="m 17.1094,18.2842 c -0.8555,0.0913 -2.2471,5.7259 -6.3191,4.9275 -3.01124,-0.5931 -2.42952,-4.8134 1.3916,-6.9008 3.4218,-1.8706 5.6233,-1.1292 7.7106,-0.3764 3.0797,1.1064 6.1594,4.4941 7.6536,8.452 1.4942,3.958 3.2736,8.9311 4.015,14.7711 0.7528,5.9427 0.3194,6.1594 0.3194,6.1594 l -2.8858,0.2167 c 0,0 0.5361,-1.4942 -0.5361,-7.9729 -0.6045,-3.6614 -2.0874,-8.2696 -3.4219,-11.6686 -1.5056,-3.7983 -4.6081,-7.973 -7.9273,-7.608 z m 24.3523,3.9694 c -0.787,-0.1369 -2.7831,2.6234 -5.589,1.0037 -2.4866,-1.4372 -1.3118,-5.1328 2.3839,-5.4978 2.3611,-0.2395 5.3381,1.46 6.7981,2.9428 2.247,2.3041 3.9123,6.1024 4.6537,9.9577 0.7757,3.9808 0.6844,7.7106 -0.9581,13.1172 -1.768,5.7829 -3.8553,8.1897 -3.8553,8.1897 l -2.247,-2.3041 c 0,0 1.5512,-2.1444 3.2165,-6.7411 1.2091,-3.3534 1.9277,-7.0605 1.1293,-11.4062 C 46.2409,27.489 43.7087,22.63 41.4617,22.2536 Z"
         fill="#5d6265"
         id="path3" /><path
         d="M 17.3831,46.7086 C 11.5203,49.4461 3.92375,58.3315 5.28109,68.5515 c 1.07219,8.03 6.95781,16.3794 18.30701,18.9458 11.3492,2.5664 18.3071,-1.0722 18.3071,-1.0722 l 5.6689,-0.8554 4.9275,6.8551 14.6684,0.1027 9.6383,-3.958 c 0,0 6.7183,9.5584 8.9311,12.9235 2.2128,3.376 9.5584,9.319 9.5584,9.319 0,0 1.9847,1.482 4.0264,2.623 1.9278,1.072 11.1898,5.566 19.6188,5.966 14.737,0.707 19.174,-3.399 20.109,-4.574 0.456,-0.582 0.947,-2.875 1.141,-4.095 0.148,-0.958 1.722,-10.026 0.536,-17.1323 -0.958,-5.783 -4.072,-16.06 -15.741,-26.3371 C 113.31,56.9856 97.4664,54.4192 87.5088,60.2022 78.1214,65.6543 74.882,73.5817 74.882,73.5817 c 0,0 -2.9998,-7.9388 -11.1325,-8.9881 -6.6384,-0.8555 -9.5242,2.5664 -9.5242,2.5664 0,0 0.6388,-14.4518 -13.9156,-20.9875 -10.642,-4.7564 -19.7214,-0.9582 -22.9266,0.5361 z"
         fill="#5d6265"
         id="path4" /><path
         d="m 59.6661,67.0459 c -3.2052,0.8669 -4.4941,4.3915 -3.3192,6.5358 1.1748,2.1444 3.399,3.0227 5.8856,2.3497 3.2166,-0.8555 4.4941,-3.7412 3.7413,-5.8856 -0.7415,-2.133 -3.5246,-3.7413 -6.3077,-2.9999 z m 27.6145,5.0416 c 1.4942,2.9999 5.9427,3.0797 10.0603,0.5361 4.4941,-2.7831 4.7111,-6.7411 3.1021,-8.6687 -2.2124,-2.6577 -6.7407,-2.2471 -9.5238,-0.4335 -2.7831,1.8136 -5.589,4.6538 -3.6386,8.5661 z"
         fill="#afafae"
         id="path5" /><path
         d="m 22.7327,56.6092 c -1.6996,2.8743 -2.1558,7.9045 2.1443,9.7979 4.9275,2.1672 7.973,-1.3687 9.1022,-4.1747 1.0722,-2.6804 1.2433,-7.2315 -2.5664,-8.7828 -3.9922,-1.6197 -6.992,0.3194 -8.6801,3.1596 z"
         fill="#0a0a0a"
         id="path6" /><path
         d="m 9.6725,70.7416 c 0.14829,1.5056 0,2.4637 -0.85546,3.0454 -1.06079,0.73 -1.90485,0.365 -1.90485,0.365 0,0 -1.44859,-1.4029 -1.79078,-4.2203 -0.19391,-1.5626 0.05703,-3.8553 0.05703,-3.8553 0,0 4.22031,1.9391 4.49406,4.6652 z"
         fill="#44484e"
         id="path7" /><path
         d="m 50.678,78.1328 c 0.7186,0.2395 -0.4791,7.4711 0.1597,8.5889 0.6387,1.1292 5.3837,4.1747 11.8853,3.3763 6.5015,-0.7985 9.3987,-4.8591 10.4367,-7.1403 0.6615,-1.4372 1.2889,-3.7755 1.768,-3.8554 0.479,-0.0798 3.8553,5.3039 6.1821,8.1897 2.3269,2.8858 3.7755,5.2241 8.4293,9.798 4.6537,4.574 10.6759,8.11 10.6759,8.11 0,0 -1.2544,1.585 -2.2695,2.84 l -2.4068,2.943 c 0,0 -7.3228,-5.544 -10.9728,-10.232 -3.5587,-4.5735 -7.3,-9.1246 -7.8703,-8.0638 -0.2851,0.5247 2.1558,3.8781 3.171,5.7373 1.4485,2.6465 3.0112,5.2245 3.6157,6.6275 0.5818,1.357 3.0683,7.722 4.3002,11.885 0.7984,2.726 1.3117,5.988 1.5284,6.182 0.6046,0.525 4.4143,4.255 5.3838,5.133 0.9581,0.878 2.7261,2.806 1.4486,4.175 -1.2889,1.368 -4.0949,-0.685 -4.7336,-1.164 -0.6388,-0.479 -6.821,-4.54 -7.551,-5.418 -0.7186,-0.878 -1.7793,-5.885 -2.247,-7.79 -0.5247,-2.133 -3.6158,-9.479 -4.0948,-10.916 -0.4791,-1.449 -3.3763,-6.479 -4.1747,-7.5853 -1.2433,-1.7223 -2.1672,-4.015 -4.0949,-3.456 -0.9581,0.2851 -1.8021,0.4448 -2.612,0.7984 -0.1597,1.0494 -0.2851,15.2159 -0.5247,16.5049 -0.2395,1.289 -0.9581,11.726 -0.8783,12.684 0.0799,0.958 4.6538,6.98 5.2241,7.71 0.5589,0.719 0.7186,2.168 -0.2395,2.966 -0.9582,0.798 -3.6158,0.319 -4.3344,-0.24 -0.7186,-0.558 -5.4636,-5.304 -5.8628,-6.661 -0.3992,-1.369 -0.3194,-14.052 -0.3194,-16.14 0,-2.087 0.4791,-16.0597 0.1597,-16.6984 -0.4791,-0.0799 -1.3231,0 -4.0492,-0.5589 -1.5627,-0.3194 -2.8516,-1.0836 -3.3307,-1.1293 -0.2395,0.4449 -4.4142,10.4366 -5.224,13.4136 -0.7984,2.966 -4.1747,17.828 -4.5739,18.547 -0.3992,0.718 -3.6158,3.65 -7.1403,4.813 -1.8478,0.605 -7.4711,2.008 -8.5889,0.559 -1.1293,-1.449 3.1367,-4.334 5.3837,-5.543 2.247,-1.209 4.8933,-2.806 5.2241,-3.137 0.3194,-0.319 2.8059,-14.691 3.1367,-16.379 0.3308,-1.689 5.7031,-14.4522 5.6233,-15.0111 -2.4866,-2.1671 -4.5739,-6.0225 -4.5739,-6.0225 0,0 3.0911,-1.209 5.3381,-3.2964 1.768,-1.7109 3.593,-5.1442 3.593,-5.1442 z"
         fill="#4d4d4d"
         id="path8" /><path
         d="m 103.854,107.493 c 0,0 -1.54,2.075 -2.521,3.296 -1.255,1.551 -2.3838,2.487 -2.3838,2.487 0,0 5.4298,2.657 8.6798,3.821 5.042,1.79 8.133,1.984 8.133,1.984 0,0 1.54,-1.825 2.509,-3 1.289,-1.551 2.35,-3.216 2.35,-3.216 0,0 -5.475,-0.662 -9.319,-1.985 -5.155,-1.756 -7.448,-3.387 -7.448,-3.387 z m 21.523,6.045 c 0,0 -1.448,2.144 -2.463,3.593 -0.799,1.14 -1.985,2.304 -1.985,2.304 0,0 7.768,0.239 11.92,-1.084 2.281,-0.73 5.075,-1.962 6.091,-3.296 0.741,-0.958 1.334,-4.973 1.334,-4.973 0,0 -2.486,2.726 -7.494,3.262 -3.73,0.411 -7.403,0.194 -7.403,0.194 z"
         fill="#4d4d4d"
         id="path9" /><path
         d="m 120.633,112.865 c 0,0 0.513,0.068 2.201,0.331 2.315,0.353 2.589,0.296 2.589,0.296 0,0 5.167,-8.714 7.631,-16.094 2.544,-7.6422 2.806,-17.0181 2.806,-17.0181 0,0 -1.369,-2.2471 -1.905,-3.0455 -0.536,-0.7984 -1.871,-2.5208 -1.871,-2.5208 0,0 -0.866,13.197 -3.536,21.4666 -3.182,9.8778 -7.915,16.5848 -7.915,16.5848 z m -20.418,-7.677 c 0,0 7.825,-11.2575 10.517,-19.1849 1.209,-3.5587 2.931,-10.7218 3.376,-13.7673 0.901,-6.262 0.32,-11.7598 0.32,-11.7598 0,0 1.174,0.422 2.612,1.209 0.878,0.4791 1.927,1.2091 1.927,1.2091 0,0 0.753,4.3458 -0.445,10.9158 -0.924,5.0986 -2.235,10.1629 -3.889,14.8509 -2.532,7.1403 -10.745,18.8662 -10.745,18.8662 z"
         fill="#838383"
         id="path10" /><circle
         cx="28.5"
         cy="63.5"
         r="2.5"
         fill="#d9d9d9"
         id="circle10" /><circle
         cx="10"
         cy="51"
         r="1"
         fill="#d9d9d9"
         id="circle11" /></g></g></svg>
