<?xml version="1.0" encoding="UTF-8" standalone="no"?>
<!-- Created with Inkscape (http://www.inkscape.org/) -->

<svg
   width="0"
   height="0"
   viewBox="0 0 40 40"
   version="1.1"
   id="svg1"
   xml:space="preserve"
   inkscape:export-filename="cerf.svg"
   inkscape:export-xdpi="96"
   inkscape:export-ydpi="96"
   xmlns:inkscape="http://www.inkscape.org/namespaces/inkscape"
   xmlns:sodipodi="http://sodipodi.sourceforge.net/DTD/sodipodi-0.dtd"
   xmlns="http://www.w3.org/2000/svg"
   xmlns:svg="http://www.w3.org/2000/svg"
   xmlns:rdf="http://www.w3.org/1999/02/22-rdf-syntax-ns#"
   xmlns:cc="http://creativecommons.org/ns#"
   xmlns:dc="http://purl.org/dc/elements/1.1/"><defs
     id="defs1" /><sodipodi:namedview
     id="base"
     pagecolor="#ffffff"
     bordercolor="#000000"
     borderopacity="0.3"
     inkscape:pageopacity="0.0"
     inkscape:pageshadow="2"
     inkscape:zoom="0.35"
     inkscape:cx="400"
     inkscape:cy="560"
     inkscape:document-units="px"
     inkscape:showpageshadow="2"
     inkscape:pagecheckerboard="0"
     inkscape:deskcolor="#d1d1d1" /><metadata
     id="metadata1"><rdf:RDF><cc:Work
         rdf:about=""><dc:format>image/svg+xml</dc:format><dc:type
           rdf:resource="http://purl.org/dc/dcmitype/StillImage" /></cc:Work></rdf:RDF></metadata><g
     id="g16"
     transform="matrix(0.32587346,0,0,0.32587346,-1.0607115,-1.2520782)"><path
       fill="#df9047"
       d="m 63.29,84.78 -10.04,1.03 c 0,0 1.13,13.98 0.94,15.02 -0.19,1.03 -2.72,9.76 -3,10.32 -0.28,0.56 -4.21,3.91 -3.47,6.01 0.59,1.67 3.19,2.16 5.91,2.25 2.63,0.09 5.44,-0.84 5.91,-1.78 0.47,-0.94 0.69,-3.55 0.69,-3.55 0,0 3.72,-8.74 4,-12.21 0.28,-3.48 -0.94,-17.09 -0.94,-17.09 m 24.87,2.82 c 0,0 2.06,11.45 1.78,12.86 -0.28,1.41 -2.53,9.1 -2.53,9.1 0,0 -2.98,2.85 -2.12,5.36 0.65,1.89 4.11,1.78 6.26,1.83 2.96,0.07 4.72,-0.92 5.46,-2.29 0.61,-1.12 0.26,-3.5 0.26,-3.5 0,0 2.53,-9.48 2.63,-11.45 0.09,-1.97 -2.82,-17.46 -2.82,-17.46 z"
       id="path1-2" /><path
       fill="#d27856"
       d="m 43.12,31.86 c 0,0 9.09,2.52 9.75,3.46 0.66,0.94 1.13,8.73 -0.94,10.98 -2.06,2.25 -5.29,2.45 -5.29,2.45 l -10.66,8.81 16.99,19.52 16.14,9.76 c 0,0 -2.07,10.56 -14.08,11.07 -8.82,0.38 -12.39,-4.04 -12.39,-4.04 0,0 -9.29,0.28 -13.61,-4.13 -4.93,-5.04 -4.79,-12.11 -4.79,-12.11 0,0 -5.89,-2.05 -7.32,-8.07 -2.82,-11.83 4.88,-17.64 4.97,-18.11 0.09,-0.47 -2.16,-3.19 -2.16,-7.41 0,-3.52 0.56,-6.95 0.56,-6.95 z"
       id="path2-0" /><path
       fill="#e09147"
       d="m 18.1,36.4 -6.69,6.12 c 0,0 2.5,0.53 5.56,-0.18 0.87,-0.2 2.25,-0.95 2.25,-0.95 0,0 2.75,1.9 4.5,2.82 1.75,0.92 4.22,1.97 4.22,1.97 0,0 -0.49,6.34 -0.42,7.6 0.07,1.26 9.15,6.26 9.15,6.26 l 6.69,-1.76 5.03,-7.92 c 0,0 -0.04,-5.88 0.81,-7.43 0.84,-1.55 3.94,-5.56 4.86,-9.78 0.92,-4.22 0.49,-6.55 0.49,-6.55 0,0 4.05,-2.64 4.47,-5.31 0.42,-2.67 -0.35,-3.94 -0.35,-3.94 l -15.24,7.71 z"
       id="path3-0" /><path
       fill="#f6b03e"
       d="m 35.34,15.14 c 0,0 -11.47,3.45 -12.95,4.29 -1.48,0.84 -2.46,1.55 -4.29,1.62 -1.83,0.07 -9.64,0.77 -12.18,6.9 -2.54,6.13 -2.07,12.57 2.18,14.29 4.86,1.97 11.12,-2.46 11.12,-2.46 0,0 8.45,4.43 13.51,5.56 5.07,1.13 7.77,0.9 8.87,0.7 1.97,-0.35 6.98,-4.26 8.45,-8.59 1.62,-4.79 1.69,-12.67 1.69,-12.67 0,0 10.03,-3.98 6.12,-9.15 -3,-3.98 -15.27,4.22 -15.27,4.22 z"
       id="path4-6" /><path
       fill="#f6b03e"
       d="m 37.67,54.91 c 5,0.07 10.77,-6.05 10.77,-6.05 0,0 -0.07,6.69 1.76,8.94 2.39,2.94 7.39,1.13 7.39,1.13 0,0 -0.14,-4.58 2.18,-7.95 2.32,-3.38 4.15,-4.15 4.15,-4.15 0,0 -0.56,-10.63 0.28,-13.16 0.84,-2.53 13.16,-10.56 13.16,-10.56 l 11.68,5.14 9.78,-5.84 c 0,0 8.17,5.49 8.94,8.8 0.77,3.31 0.7,5.35 1.2,8.87 0.23,1.62 0.35,6.34 0.35,6.34 0,0 5.49,3.31 7.53,8.73 2.04,5.42 3.01,12.83 3.31,15.91 0.35,3.59 0.99,8.87 1.69,10.28 0.7,1.41 3.1,4.08 1.62,5.14 -1.48,1.06 -4.43,-1.83 -5.7,-4.22 -1.27,-2.39 -3.73,-10.21 -3.73,-10.21 0,0 0.42,5.07 -0.63,9.36 -0.45,1.84 -1.48,5.63 -1.48,5.63 0,0 3.03,10.63 2.96,12.81 -0.07,2.18 -2.96,12.74 -2.96,12.74 0,0 0.7,3.66 -0.99,5.56 -1.18,1.32 -2.75,1.69 -7.25,1.83 -2.89,0.09 -5.72,-0.56 -5.56,-3.1 0.18,-2.78 3.94,-6.41 4.15,-6.48 0.21,-0.07 2.39,-9.08 2.39,-10.35 0,-1.27 -4.5,-13.66 -4.5,-13.66 0,0 -4.15,2.67 -10.49,3.1 -6.34,0.42 -10.35,0.42 -10.35,0.42 0,0 0.63,9.5 0.42,12.18 -0.21,2.67 -1.76,6.55 -2.18,9.43 -0.42,2.89 -0.52,9.01 -3.48,9.5 -2.11,0.35 -9.85,0.95 -11.54,-0.99 -1.99,-2.28 3.17,-6.58 3.17,-6.58 0,0 1.44,-5 2.08,-7.18 0.58,-2.01 0.84,-3.98 0.99,-5.46 0.15,-1.48 -1.69,-12.6 -1.69,-12.6 0,0 -4.01,0.14 -11.4,0 C 48.3,88.07 38.44,85.39 32.18,74.62 25.92,63.85 27.6,52.24 27.6,52.24 c 0,0 3.45,2.58 10.07,2.67"
       id="path5-4" /><path
       fill="#b78958"
       d="m 8.1,37.2 0.09,-3.75 c 0,0 6.66,-0.66 5.68,-3.43 -0.81,-2.27 -6.48,0.42 -6.48,0.42 0,0 -0.47,-4.46 -1.97,-2.67 -1.5,1.78 0.42,4.04 0.42,4.04 l -0.09,4.32 c 0,0 -0.89,-2.25 -1.74,-1.08 -0.85,1.17 0.33,3.24 2.21,4.6 1.62,1.18 3.38,1.88 5.73,1.55 2.5,-0.35 4.73,-2.72 3.19,-3.71 C 13.6,36.5 13.12,38.8 10.59,38.38 7.92,37.93 8.1,37.2 8.1,37.2"
       id="path6-9" /><path
       fill="#34302f"
       d="m 41.52,26.03 c 0.78,0.9 -1.98,4.46 -5.77,3.24 -3.39,-1.09 -4.74,-3 -4.32,-3.99 0.42,-0.99 4.79,0.09 5.73,0.19 0.93,0.09 3.75,-0.14 4.36,0.56"
       id="path7-2" /><path
       fill="#34302f"
       d="m 32.63,27.07 c 0,0 -0.67,0.6 -1.48,0.74 -0.81,0.14 -2.22,0.21 -2.11,1.13 0.11,0.92 1.44,1.34 3.41,0.39 1.39,-0.67 2.25,-1.65 2.25,-1.65 l 0.49,0.46 c 0,0 -1.11,1.42 -1.69,1.72 -0.95,0.49 -2.39,0.58 -1.97,1.76 0.49,1.37 2.53,0.21 3.52,-0.56 1.24,-0.97 1.72,-2.29 1.72,-2.29 l 0.84,0.11 c 0,0 -0.39,1.09 -0.77,1.62 -0.39,0.53 -2.18,1.65 -0.92,2.75 1.13,0.97 2.5,-1.06 3.06,-2.22 0.56,-1.16 0.77,-3.17 0.77,-3.17 z"
       id="path8" /><path
       fill="#d27856"
       d="M 51.53,15.28 C 51.49,15.17 47.38,6.32 34,7.11 23.18,7.76 18.9,13.03 21.34,18.56 c 2.1,4.75 6.93,2.92 6.93,2.92 0,0 -0.83,4.36 4.65,5.6 6.41,1.44 11.33,-6.56 13.01,-7.24 3.14,-1.28 5.6,-4.56 5.6,-4.56"
       id="path9" /><path
       fill="#df9047"
       d="M 75.61,12.12 C 65.12,12.47 63.85,34.64 63.99,35.2 c 0.08,0.31 1.18,-0.75 2.25,-1.97 0.87,-0.99 1.56,-2.22 2.89,-1.9 2.96,0.7 1.75,6.77 5.35,7.46 3.31,0.63 2.82,-6.26 5.35,-6.12 3.8,0.21 1.69,10.7 7.39,10.42 4.51,-0.22 1.48,-9.57 4.93,-10.42 3.37,-0.82 4.68,6.86 7.53,5.91 3.8,-1.27 0.28,-8.31 2.89,-9.36 2.6,-1.06 3.45,6.12 5.63,5 0.62,-0.32 -2.11,-22.11 -12.39,-21.82 -7.46,0.21 -9.71,12.1 -9.71,12.1 0,0 -2.46,-12.65 -10.49,-12.38"
       id="path10" /></g></svg>
