<?xml version="1.0" encoding="UTF-8" standalone="no"?>
<!-- Created with Inkscape (http://www.inkscape.org/) -->

<svg
   width="0"
   height="0"
   viewBox="0 0 40 40"
   version="1.1"
   id="svg1"
   xml:space="preserve"
   inkscape:export-filename="crabe.svg"
   inkscape:export-xdpi="96"
   inkscape:export-ydpi="96"
   xmlns:inkscape="http://www.inkscape.org/namespaces/inkscape"
   xmlns:sodipodi="http://sodipodi.sourceforge.net/DTD/sodipodi-0.dtd"
   xmlns="http://www.w3.org/2000/svg"
   xmlns:svg="http://www.w3.org/2000/svg"
   xmlns:rdf="http://www.w3.org/1999/02/22-rdf-syntax-ns#"
   xmlns:cc="http://creativecommons.org/ns#"
   xmlns:dc="http://purl.org/dc/elements/1.1/"><defs
     id="defs1" /><sodipodi:namedview
     id="base"
     pagecolor="#ffffff"
     bordercolor="#000000"
     borderopacity="0.3"
     inkscape:pageopacity="0.0"
     inkscape:pageshadow="2"
     inkscape:zoom="0.35"
     inkscape:cx="400"
     inkscape:cy="560"
     inkscape:document-units="px"
     inkscape:showpageshadow="2"
     inkscape:pagecheckerboard="0"
     inkscape:deskcolor="#d1d1d1" /><metadata
     id="metadata1"><rdf:RDF><cc:Work
         rdf:about=""><dc:format>image/svg+xml</dc:format><dc:type
           rdf:resource="http://purl.org/dc/dcmitype/StillImage" /></cc:Work></rdf:RDF></metadata><g
     inkscape:label="Calque 1"
     id="layer1"
     transform="matrix(0.26636915,0,0,0.26636915,0.15238797,0.09519321)"><g
       id="g2"
       transform="matrix(0.98084383,0,0,0.98084383,2.9152941,-0.32303914)"><g
         style="fill:none"
         id="g205"
         transform="matrix(0.90914147,0,0,0.90914147,-5.1167601,-4.4810687)"><path
           d="M 80.8945,18.8616 54.6764,33.6577 39.3687,48.4538 26.8819,50.8737 c 0,0 4.8675,5.4483 19.0275,0.8297 C 59.9311,47.1263 67.8408,28.32 83.1347,29.9932 97.834,31.5973 95.0545,45.9094 95.0545,45.9094 L 115.161,23.0238 Z M 76.428,58.4653 c 0,0 -4.66,1.369 -7.3289,8.6149 -2.0742,5.6281 -0.719,11.0902 -0.1244,13.2336 0.5808,2.1433 2.0604,5.0611 2.1572,6.2226 0.0968,1.1616 -3.3326,3.4432 -3.1667,5.6004 0.0968,1.2722 2.4476,3.1528 5.3515,3.4985 5.6419,0.6776 6.9141,-0.7743 6.9141,-0.7743 l 7.5916,-26.1352 z m 2.7657,45.5087 c 0,0 -9.7765,-5.6422 -19.8019,-5.0614 -10.0254,0.5808 -12.8463,5.2544 -14.0217,9.2514 -0.7744,2.655 -2.5721,7.232 -3.9964,9.541 -1.3136,2.143 -4.0931,3.969 -5.8354,4.356 -2.5029,0.553 -5.6004,1.604 -4.6048,5.448 0.8159,3.153 3.1113,5.13 5.9323,6.983 2.7794,1.812 6.0567,3.9 6.0567,3.9 l 35.9116,-23.798 z m 34.3073,18.004 -8.172,10.8 c 0,0 3.208,6.43 11.187,8.269 7.979,1.853 12.113,2.337 13.192,4.909 1.452,3.512 -0.194,8.172 -0.775,9.154 -0.58,0.968 -3.623,4.149 -1.41,6.333 2.683,2.628 9.929,1.065 12.459,0.194 2.531,-0.871 5.711,-1.535 6.831,-5.227 0.761,-2.531 2.296,-11.643 2.074,-17.299 -0.249,-6.568 -1.465,-10.952 -3.498,-12.805 -2.047,-1.853 -15.432,-4.328 -15.432,-4.328 0,0 2.309,-5.365 4.964,-12.362 1.314,-3.457 2.088,-7.15 2.724,-7.398 1.01,-0.388 2.683,2.336 3.07,3.401 0.387,1.065 0.194,11.713 1.646,13.303 1.23,1.355 5.296,2.24 9.015,-0.249 3.264,-2.185 6.707,-6.236 6.527,-10.413 -0.249,-5.406 -5.213,-9.3474 -5.406,-11.4908 -0.194,-2.1433 0.774,-7.5501 0,-11.7262 -0.775,-4.1899 -20.784,-16.5938 -20.784,-16.5938 z"
           fill="#5a6415"
           id="path1" /><path
           d="m 77.4928,140.66 -46.1444,12.459 -6.2227,1.466 0.1936,6.319 11.7816,7.785 27.2552,-8.075 17.4234,-9.334 -4.8675,-11.298"
           fill="#f26a35"
           id="path2" /><path
           d="m 26.9787,162.66 c 0,0 0.3872,-5.738 2.9177,-5.254 2.0604,0.401 3.0145,7.204 3.0145,7.204 l 3.4985,2.918 3.4986,-3.305 c 0,0 1.7561,-6.817 3.8027,-7.011 2.337,-0.221 3.8995,6.126 3.8995,6.126 l -11.1869,6.126 z m 27.6424,-14.602 c 0,0 2.4199,4.812 5.2547,4.577 3.4017,-0.291 3.9963,-8.56 3.9963,-8.56 z"
           fill="#fffdfd"
           id="path3" /><path
           d="m 48.5782,127.717 c -0.4425,2.668 -5.9461,5.987 -8.2416,7.494 -2.8486,1.881 -6.1673,4.384 -8.3107,4.481 -2.1433,0.097 -5.3238,0.318 -8.366,0.525 -2.9177,0.194 -4.9919,0.816 -6.3609,3.637 -1.0095,2.088 -1.2307,6.942 1.1062,9.279 2.337,2.337 7.4949,4.383 14.4089,3.498 6.9141,-0.871 9.0575,-2.046 11.2976,-3.014 2.2402,-0.968 12.6528,-5.158 17.5202,-6.43 4.8675,-1.273 14.0218,-3.9 15.5705,-2.531 1.5626,1.369 -4.6739,5.545 -9.5414,7.398 -4.8675,1.853 -19.3179,10.122 -25.0427,11.685 -4.0793,1.106 -12.7496,0.498 -14.8653,-1.466 -1.604,-1.48 -2.1433,-2.503 -2.1848,-3.844 -0.0553,-1.341 -1.5349,-1.825 -2.8763,-0.443 -1.6593,1.701 0.1522,6.223 3.4986,8.961 3.3325,2.696 8.9468,4.273 17.2575,3.692 11.2975,-0.774 21.641,-8.076 24.0747,-8.172 2.4338,-0.097 10.3711,1.175 17.9074,-1.812 7.7438,-3.07 11.5465,-8.891 11.5465,-8.891 0,0 6.7484,-3.25 11.0344,-6.168 4.287,-2.917 7.011,-4.936 7.011,-4.936 0,0 -3.761,-2.213 -3.858,-7.592 -0.055,-3.208 1.065,-7.592 3.9,-7.108 2.821,0.484 -2.047,7.592 3.208,10.123 5.255,2.53 14.312,5.351 19.18,2.53 4.867,-2.821 9.887,-10.108 8.241,-12.542 -1.659,-2.434 -5.573,-3.333 -9.348,-4.093 -3.54,-0.705 -8.048,-0.982 -8.048,-0.982 0,0 4.771,-11.975 5.352,-18.682 0.304,-3.4982 0.166,-6.8308 -0.291,-9.6379 -0.58,-3.5953 -1.507,-8.0618 -1.465,-11.3944 0.055,-3.5953 0.387,-8.5596 2.24,-8.1724 1.853,0.3872 1.009,5.4483 1.369,10.219 0.387,5.3515 2.724,12.9431 8.767,12.5559 6.029,-0.3872 9.251,-4.5771 8.366,-12.5559 -0.871,-7.9788 -1.798,-13.0399 -5.117,-17.133 -3.304,-4.0932 -6.955,-4.909 -6.955,-4.909 0,0 -0.484,-15.128 -4.964,-24.4758 C 130.69,26.5362 119.682,12.5698 102.757,7.70229 85.8312,2.83479 73.2891,7.55018 64.5497,12.8602 52.533,20.1614 47.2784,39.9633 39.8803,43.5724 c -7.398,3.6092 -13.3856,3.4571 -13.4824,5.5036 -0.0968,2.0466 0.6776,2.7242 5.4483,2.6274 4.7707,-0.0968 9.6658,-0.8712 15.9576,-5.3515 7.4396,-5.31 17.6171,-17.617 25.3055,-20.438 7.6884,-2.8209 15.9576,-1.9497 19.8572,2.2402 3.8995,4.1899 5.0611,8.8915 4.1346,12.6527 -1.5349,6.2503 -6.0844,10.219 -6.0844,10.219 0,0 -14.5057,3.8995 -18.6818,10.3158 -4.1761,6.4162 -2.973,9.2925 0.1936,11.8783 5.0749,4.1347 11.8784,2.0466 11.8784,2.0466 0,0 -3.3603,12.3623 -4.1346,16.1513 -0.7744,3.8027 -3.2635,16.2622 -4.0379,18.1982 -0.7743,1.949 -1.7561,6.222 -4.3835,6.125 -2.6273,-0.096 -7.3012,-4.964 -15.28,-1.853 -7.2322,2.821 -7.3981,10.33 -7.9927,13.829 z"
           fill="#70853c"
           id="path4" /><path
           d="m 72.086,143.384 c -2.973,0.83 -3.1666,8.131 -3.1666,8.131 0,0 1.8115,-0.705 3.7474,-1.798 1.8944,-1.065 2.7518,-1.977 2.7518,-1.977 0,0 -1.4934,-4.868 -3.3326,-4.356 z"
           fill="#fffdfd"
           id="path5" /><path
           d="m 134.492,156.839 c -2.046,-0.153 -2.917,1.811 -3.374,3.816 -0.249,1.065 -0.345,2.088 -0.345,2.088 0,0 1.161,0.249 2.53,0.152 1.369,-0.096 2.627,-0.29 2.627,-0.29 0,0 1.397,-5.559 -1.438,-5.766 z m 3.264,5.379 c 0,0 -0.291,-2.365 0.733,-4.301 1.023,-1.95 3.844,-1.936 3.996,0.733 0.069,1.341 -0.097,2.213 -0.097,2.213 0,0 -0.968,0.484 -1.922,0.76 -1.12,0.304 -2.71,0.595 -2.71,0.595 z"
           fill="#70853c"
           id="path6" /><path
           d="m 145.818,114.677 c -2.379,0.013 -2.517,4.909 -2.517,4.909 0,0 0.843,0.691 2.364,0.732 1.356,0.042 2.434,-0.248 2.434,-0.248 0,0 0.36,-5.407 -2.281,-5.393 z m 4.342,4.687 c 0,0 -2.254,-5.42 0.691,-6.167 2.019,-0.512 2.724,3.678 2.724,3.678 0,0 -0.636,0.802 -1.466,1.369 -0.885,0.595 -1.949,1.12 -1.949,1.12 z"
           fill="#71873b"
           id="path7" /><path
           d="m 68.6843,93.5473 c 0,0 1.8806,-4.4526 3.7751,-3.4847 1.9912,1.0233 -0.5393,5.2824 -0.5393,5.2824 0,0 -1.0648,-0.3457 -1.9498,-0.8297 -0.6084,-0.3319 -1.286,-0.968 -1.286,-0.968 z m 7.5363,-2.2816 c 2.0881,0.0968 1.369,4.5079 1.369,4.5079 0,0 -0.8988,0.0968 -1.853,0.0692 -0.885,-0.0277 -1.9221,-0.1245 -1.9221,-0.1245 0,0 0.5531,-4.5356 2.4061,-4.4526 z m -45.453,35.0403 c 0,0 5.0196,-1.314 6.029,0.927 1.0233,2.24 -4.1069,3.747 -4.1069,3.747 0,0 -1.051,-1.327 -1.3828,-2.24 -0.7053,-1.881 -0.5393,-2.434 -0.5393,-2.434 z m 3.6091,6.347 c -0.0553,-0.152 3.1113,-3.166 4.909,-1.853 1.7977,1.314 -1.1201,4.481 -1.1201,4.481 0,0 -1.2169,-0.664 -1.9912,-1.217 -0.9403,-0.664 -1.7977,-1.411 -1.7977,-1.411 z"
           fill="#70853c"
           id="path8" /><path
           d="m 85.4993,131.381 c 0.1936,2.268 -0.4563,4.937 -3.8995,5.78 -3.1252,0.775 -6.2918,-1.231 -6.361,-4.605 -0.0691,-3.249 2.4753,-5.586 5.2547,-5.586 2.7795,0 4.7707,1.632 5.0058,4.411 z m -48.1772,17.423 c -0.1244,1.618 -1.5211,2.061 -2.5305,1.95 -1.4243,-0.166 -2.3646,-1.562 -1.9636,-2.89 0.3733,-1.286 1.6732,-1.88 2.7794,-1.535 1.0924,0.332 1.8253,1.093 1.7147,2.475 z M 26.066,145.665 c 0.5808,1.3 -0.5254,2.586 -1.369,2.918 -1.1339,0.457 -2.6411,-0.055 -3.0145,-1.396 -0.3595,-1.286 0.4287,-2.476 1.5488,-2.766 1.12,-0.29 2.2678,-0.028 2.8347,1.244 z"
           fill="#2e2c33"
           id="path9" /><circle
           cx="79.5"
           cy="132.5"
           r="2.5"
           fill="#d9d9d9"
           id="circle9" /><path
           d="m 82.3327,106.919 c -0.9404,3.125 0.1106,5.047 0.5669,6.057 0.9127,2.005 2.3508,1.936 3.5262,1.023 1.1615,-0.913 -0.5255,-4.148 0.0691,-5.642 0.8435,-2.143 3.8304,-2.212 3.5677,-4.798 -0.1936,-1.936 -2.7795,-2.351 -4.6048,-0.775 -1.3413,1.121 -2.5029,2.019 -3.1251,4.135 z m 6.2088,-19.1519 c -1.3137,3.2496 -0.484,5.8631 -0.0968,6.8173 0.6361,1.5626 3.5538,2.0465 3.8442,-0.5393 0.1936,-1.7424 -0.6361,-2.8763 0.1521,-4.8675 0.7606,-1.9498 2.337,-1.4658 3.8027,-2.7795 0.7744,-0.7052 0.8712,-3.3049 -1.9912,-3.2634 -1.5211,0.0276 -4.1623,0.7882 -5.711,4.6324 z m 24.1855,7.2874 c -0.581,2.9731 -0.097,4.8675 0.484,5.8905 0.581,1.024 3.014,1.743 3.692,-0.484 0.387,-1.2719 -0.539,-2.2813 0.152,-4.9087 0.346,-1.3413 1.272,-1.9912 2.143,-2.9177 1.369,-1.4658 -0.456,-3.8166 -2.682,-2.9177 -1.549,0.6222 -3.07,1.7147 -3.789,5.3376 z m -8.809,18.3085 c -1.217,2.185 -0.995,4.646 -0.774,6.084 0.442,2.973 3.402,2.918 3.747,1.217 0.346,-1.701 -0.055,-3.803 0.54,-5.213 0.594,-1.41 2.433,-1.742 3.595,-2.337 1.604,-0.83 1.162,-4.231 -1.853,-3.595 -3.014,0.636 -4.287,2.102 -5.255,3.844 z M 118.23,72.9157 c -0.732,2.4752 -0.525,4.1623 -0.345,5.0611 0.442,2.088 3.36,2.1848 3.65,0.3457 0.291,-1.853 0.194,-2.8762 0.54,-4.0378 0.567,-1.9221 1.051,-2.254 1.894,-3.1666 1.507,-1.6041 -0.346,-4.1347 -2.627,-2.7795 -1.314,0.7882 -2.558,2.6965 -3.112,4.5771 z M 94.612,65.8772 c -1.2583,2.4337 -0.9541,5.0611 -0.7605,6.3471 0.2074,1.2722 0.8573,2.4614 2.2678,2.3508 1.4105,-0.0968 1.9221,-1.1754 1.77,-2.3508 -0.083,-0.6084 -0.401,-2.6135 0.2489,-3.9963 0.6499,-1.3828 1.9498,-2.2125 2.9728,-2.6135 2.531,-0.968 1.037,-4.6186 -1.8666,-3.6368 -2.1157,0.7329 -3.6229,1.9497 -4.6324,3.8995 z m 9.362,-18.9445 c -1.826,1.9636 -1.922,4.342 -1.798,6.029 0.249,3.3603 3.36,2.821 3.747,0.9265 0.263,-1.2722 0.54,-3.0145 0.927,-3.8995 0.774,-1.7562 2.088,-2.821 1.065,-3.8996 -0.927,-0.9541 -2.724,-0.4701 -3.941,0.8436 z m 17.423,4.4941 c -0.166,2.9177 0.318,4.107 1.051,5.4483 1.051,1.9221 3.747,1.4381 3.9,-0.8297 0.11,-1.6456 -0.664,-1.2584 -0.498,-4.4527 0.11,-2.0189 1.203,-3.9548 -0.277,-4.6739 -1.466,-0.719 -3.899,-0.3318 -4.176,4.508 z m -4.536,-22.4569 c 0.83,1.4105 1.895,2.6274 2.282,4.5771 0.539,2.6827 4.052,2.0466 4.093,-0.3872 0.056,-3.2634 -0.968,-4.7153 -2.143,-6.1811 -1.134,-1.4105 -2.973,-1.4658 -3.748,-0.9265 -0.774,0.5393 -1.189,1.7147 -0.484,2.9177 z m -13.371,1.1892 c -0.885,0.7468 -1.203,2.2402 -0.318,3.3465 1.161,1.4381 1.811,2.6135 1.742,3.8165 -0.111,1.9221 1.618,2.6274 2.724,1.8253 1.48,-1.0786 1.991,-3.0975 0.581,-6.2641 -1.328,-2.9592 -3.72,-3.5953 -4.729,-2.7242 z M 99.6869,13.1644 c -0.4286,1.3551 1.0091,1.8529 2.4481,2.1019 1.438,0.2489 3.097,1.3275 3.581,2.3922 0.678,1.4935 2.807,2.3093 3.263,-0.0276 0.401,-2.0051 -2.157,-4.0793 -3.733,-4.992 -1.286,-0.7605 -4.812,-1.8253 -5.5591,0.5255 z m -3.1666,5.9322 c -2.1848,-1.2307 -5.9737,-1.12 -6.4301,0.968 -0.484,2.2817 1.6041,2.2125 2.5306,2.2817 1.2169,0.0968 2.3784,0.4425 3.1113,1.3136 0.7329,0.8712 1.2722,1.853 2.7795,1.4105 1.5074,-0.4287 1.8114,-3.8442 -1.9913,-5.9738 z m -7.4948,-7.2044 c 0.6361,-0.802 0.4425,-3.16665 -3.8443,-3.36024 -3.5814,-0.16594 -4.5079,1.54874 -3.941,2.62734 0.7329,1.4105 2.5168,0.4287 3.9964,0.5808 1.7976,0.1936 3.0145,1.1201 3.7889,0.1521 z m -9.0021,4.2314 c -2.4753,-0.2904 -5.2271,1.203 -4.6739,3.3602 0.4425,1.7009 2.4752,-0.1382 4.0931,-0.0968 1.9497,0.0554 3.6644,1.2446 4.2314,0.0968 0.8297,-1.6593 -0.2489,-2.9592 -3.6506,-3.3602 z m -8.7947,-2.9177 c -0.0415,1.6593 -1.5903,1.1754 -3.4985,1.8944 -1.1616,0.4425 -2.254,2.5306 -3.3465,1.6179 -1.4657,-1.2307 -0.1244,-3.1943 2.0743,-4.3282 1.5902,-0.8435 4.826,-0.9403 4.7707,0.8159 z m -6.7067,7.3565 c -3.2496,1.5903 -4.0931,5.5451 -2.4752,6.2503 1.9636,0.8574 1.9221,-2.0742 3.6091,-3.1528 1.3414,-0.8435 4.4665,-0.401 4.4389,-2.3093 -0.0277,-1.9082 -3.6092,-1.7423 -5.5728,-0.7882 z m -6.0567,10.6892 c 0.3595,-1.2584 -2.1433,-2.9731 -5.1164,-0.968 -2.973,2.0051 -3.1805,4.9366 -1.2722,5.3515 1.369,0.2904 1.4658,-1.7838 2.6274,-2.6827 1.6593,-1.2583 3.2772,0.0139 3.7612,-1.7008 z"
           fill="#97a927"
           id="path10" /></g></g></g></svg>
