<?xml version="1.0" encoding="UTF-8" standalone="no"?>
<!-- Created with Inkscape (http://www.inkscape.org/) -->

<svg
   width="0"
   height="0"
   viewBox="0 0 40 40"
   version="1.1"
   id="svg1"
   xml:space="preserve"
   inkscape:export-filename="crocodile.svg"
   inkscape:export-xdpi="96"
   inkscape:export-ydpi="96"
   xmlns:inkscape="http://www.inkscape.org/namespaces/inkscape"
   xmlns:sodipodi="http://sodipodi.sourceforge.net/DTD/sodipodi-0.dtd"
   xmlns="http://www.w3.org/2000/svg"
   xmlns:svg="http://www.w3.org/2000/svg"
   xmlns:rdf="http://www.w3.org/1999/02/22-rdf-syntax-ns#"
   xmlns:cc="http://creativecommons.org/ns#"
   xmlns:dc="http://purl.org/dc/elements/1.1/"><defs
     id="defs1" /><sodipodi:namedview
     id="base"
     pagecolor="#ffffff"
     bordercolor="#000000"
     borderopacity="0.3"
     inkscape:pageopacity="0.0"
     inkscape:pageshadow="2"
     inkscape:zoom="0.35"
     inkscape:cx="400"
     inkscape:cy="560"
     inkscape:document-units="px"
     inkscape:showpageshadow="2"
     inkscape:pagecheckerboard="0"
     inkscape:deskcolor="#d1d1d1" /><metadata
     id="metadata1"><rdf:RDF><cc:Work
         rdf:about=""><dc:format>image/svg+xml</dc:format><dc:type
           rdf:resource="http://purl.org/dc/dcmitype/StillImage" /></cc:Work></rdf:RDF></metadata><g
     inkscape:label="Calque 1"
     id="layer1"
     transform="matrix(0.26636915,0,0,0.26636915,0.15238797,0.09519321)"><g
       id="g2"
       transform="matrix(0.98323609,0,0,0.98323609,0.25104728,2.4719214)"><g
         style="fill:none"
         id="g205"
         transform="matrix(0.94602176,0,0,0.94602176,-3.7397164,-5.3630146)"><path
           d="m 49.9931,97.8469 c 0.1838,1.6669 -1.2994,9.9751 -2.0344,12.7441 -0.735,2.77 -1.8506,8.505 -0.735,10.527 1.1025,2.034 9.0563,10.066 12.0094,12.836 2.9531,2.769 10.3425,8.413 13.3088,8.78 2.9531,0.368 7.9406,-6.838 7.2056,-10.906 -0.735,-4.069 -8.3213,-12.929 -8.3213,-12.929 l 3.7013,-6.654 12.7444,1.299 c 0,0 -0.3675,11.459 -0.3675,16.446 0,4.988 -2.4413,14.175 0.3675,16.078 3.1368,2.126 12.7441,1.575 14.9621,-0.827 2.218,-2.402 0.184,-11.733 1.483,-16.353 1.3,-4.62 4.804,-12.745 4.804,-12.745 l 10.526,-48.2211 -5.906,-18.2962 c 0,0 -0.184,-2.4019 -0.551,-4.4363 -0.368,-2.0344 -3.137,-6.8381 -3.701,-7.9406 -0.565,-1.1025 -44.9009,-7.0219 -44.9009,-7.0219 l -15.7106,-2.9531 -0.0656,-5.1713 -25.62,2.9532 -8.9907,15.1462 -3.4387,27.72 c 0,0 -3.57001,9.975 -2.70376,12.1931 0.86625,2.2182 3.45186,8.2557 7.27126,9.4894 3.8194,1.2338 11.5762,2.7038 11.5762,2.7038 l 8.9907,4.8037 c 0,0 5.5256,-2.7169 9.3581,-1.9687 5.04,0.9843 4.7381,2.7037 4.7381,2.7037 z"
           fill="#878787"
           id="path1" /><path
           d="M 21.9712,13.965 C 18.0862,15.0675 10.2637,23.3231 9.04311,28.6256 7.82249,33.9281 10.8281,45.4125 10.29,48.8775 9.60749,53.2481 7.06124,64.3387 6.82499,70.3762 6.58874,76.4137 11.3794,80.7187 11.3794,80.7187 l 4.7381,-0.9844 c 0,0 -0.735,-20.7506 0.1181,-23.7168 0.8663,-2.9532 2.9006,-4.62 2.9006,-4.62 0,0 -0.9187,-10.5919 3.5044,-16.5113 4.4231,-5.9194 11.7075,-9.4237 16.6294,-9.9225 4.9219,-0.4987 9.5419,0.6169 9.5419,0.6169 0,0 1.05,-8.0719 -3.8194,-11.2744 C 39.4669,10.6837 24.7406,13.1775 21.9712,13.965 Z M 71.61,85.7718 c 0,0 3.3206,4.5544 8.1244,4.1869 4.8037,-0.3675 11.5762,-5.3025 15.0281,-8.3737 3.4519,-3.0713 12.1935,-11.4582 14.5295,-14.91 2.336,-3.4519 3.701,-6.6807 4.187,-10.5919 0.525,-4.1606 0.249,-6.4706 0.249,-6.4706 0,0 4.62,1.2075 9.24,5.9062 3.426,3.4913 7.271,7.3631 9.608,17.4563 2.336,10.0931 2.953,15.855 3.451,16.8393 0.499,0.9844 2.927,4.0294 4.594,5.8801 2.231,2.4674 4.436,3.7012 5.014,3.6093 1.601,-0.3675 3.386,-0.3675 5.696,0.1838 2.31,0.5515 5.421,3.9895 7.114,5.8145 2.218,2.402 4.528,4.252 4.528,4.712 0,0.945 -7.101,1.588 -14.136,-1.103 -4.344,-1.667 -6.103,-6.011 -6.103,-6.011 0,0 -3.609,-2.494 -5.814,-4.4363 -1.181,-1.0369 -2.953,-2.7693 -2.953,-2.7693 0,0 -0.879,3.7143 -1.851,6.9296 -1.102,3.702 -2.218,8.125 -1.85,12.653 0.367,4.528 2.401,9.975 4.436,14.227 2.034,4.253 4.069,9.7 1.667,13.585 -2.402,3.885 -10.618,10.172 -14.963,7.022 -2.677,-1.943 -4.344,-9.424 -5.355,-13.585 -1.01,-4.16 -4.62,-13.02 -5.079,-14.044 -0.46,-1.01 -2.953,-4.711 -2.953,-4.711 0,0 -7.573,0.459 -15.0546,0.367 -7.4813,-0.092 -11.8257,-0.827 -11.8257,-0.827 0,0 -5.6306,10.435 -7.7568,16.446 -2.1263,6.011 -3.5044,14.962 -4.8957,17.456 -1.3912,2.494 -3.7931,6.812 -12.9281,5.906 -7.4812,-0.735 -9.0562,-5.447 -9.0562,-5.447 0,0 -1.0107,-4.62 1.7587,-13.492 2.7694,-8.873 6.0113,-17.548 8.1244,-24.478 0.735,-2.415 1.575,-6.471 1.575,-6.471 0,0 -5.355,-6.011 -5.8144,-6.654 -0.4594,-0.6433 -2.1262,-2.2183 -2.1262,-2.2183 l -0.2363,-1.2994 c 0,0 4.6988,0.2232 10.2113,-1.4831 C 68.3812,93.0431 71.61,85.7718 71.61,85.7718 Z"
           fill="#bebebe"
           id="path2" /><path
           d="m 62.7375,26.2762 c 0,0 4.4363,-7.8881 8.2556,-8.3737 3.8194,-0.4856 16.2357,-1.8375 22.6669,0.4988 3.2288,1.1681 11.117,9.0168 13.519,13.0199 2.323,3.8719 5.328,9.0169 4.462,15.5532 -0.853,6.5231 -2.703,6.5231 -2.703,8.1244 0,1.6012 0.616,5.4206 -1.851,8.2556 -2.468,2.835 -5.171,0.2493 -6.773,2.2181 -1.6009,1.9687 -1.1152,6.9037 -3.3202,9.24 -2.2182,2.3363 -6.9038,2.1 -8.7413,3.57 -1.8506,1.4831 -2.3362,6.5231 -7.0219,7.5206 C 76.545,86.8875 74.7075,82.2019 73.3425,73.71 71.9906,65.205 71.3081,51.24 69.1556,51.2925 c -2.205,0.0525 -1.4043,4.2656 -1.1418,9.9356 0.2756,5.9719 2.3756,18.4013 -1.6932,23.7038 -4.0687,5.3025 -8.3737,7.5206 -12.81,7.7569 -4.4362,0.2493 -8.6493,-2.8613 -10.6181,-2.4938 -1.9687,0.3675 -0.8269,2.7562 -3.9112,5.5781 -3.2025,2.9269 -5.67,5.7879 -6.6544,8.2559 -0.9844,2.467 -3.7013,7.52 -3.57,12.81 0.1312,5.289 1.785,7.481 3.885,6.995 2.1,-0.498 0.8794,-6.286 2.7694,-7.481 1.7587,-1.102 6.5231,1.483 6.405,8.623 -0.1182,7.14 -7.0482,13.178 -16.5638,10.041 -10.0669,-3.321 -11.3662,-18.205 -9.1481,-25.961 2.2181,-7.757 3.2025,-13.9785 3.3206,-18.2966 0.1181,-4.305 -1.7587,-6.8119 -1.3912,-9.8832 0.3675,-3.0843 0,-3.8193 0.1181,-9.3581 0.1181,-5.5387 -0.4988,-13.4269 0.6169,-15.3956 1.1025,-1.9688 2.9531,-4.0688 2.9531,-4.0688 0,0 -1.1944,-8.7806 1.3519,-13.5449 3.9375,-7.3894 11.5762,-10.9594 20.3306,-11.8257 8.7412,-0.8925 19.3331,-0.4069 19.3331,-0.4069 z"
           fill="#bebebe"
           id="path3" /><path
           d="m 52.9987,70.3106 c 2.4211,0 4.3838,-2.0038 4.3838,-4.4756 0,-2.4718 -1.9627,-4.4756 -4.3838,-4.4756 -2.421,0 -4.3837,2.0038 -4.3837,4.4756 0,2.4718 1.9627,4.4756 4.3837,4.4756 z"
           fill="#010101"
           id="path4" /><path
           d="m 52.9987,70.3106 c 2.4211,0 4.3838,-2.0038 4.3838,-4.4756 0,-2.4718 -1.9627,-4.4756 -4.3838,-4.4756 -2.421,0 -4.3837,2.0038 -4.3837,4.4756 0,2.4718 1.9627,4.4756 4.3837,4.4756 z"
           fill="#010101"
           id="path5" /><circle
           cx="53.5"
           cy="65.5"
           r="2.5"
           fill="#d9d9d9"
           id="circle5" /><path
           d="m 45.1237,87.57 c 0.5513,-2.52 3.99,-6.1031 6.5888,-5.2369 1.6668,0.5513 2.7693,4.5544 2.2181,7.14 C 53.3793,92.0587 51.03,93.975 47.8931,92.9775 44.7562,91.9931 44.7825,89.1581 45.1237,87.57 Z M 4.97433,74.2613 c -1.01062,2.2443 2.03438,5.355 4.06875,7.0218 2.03442,1.6669 6.47062,4.8038 7.75692,5.5388 1.2862,0.735 2.5856,1.05 2.5856,1.05 0,0 -1.1681,-4.5544 -1.1681,-5.9063 0,-1.3518 0.0656,-4.1212 0.0656,-4.1212 0,0 -3.885,-2.1 -6.1031,-2.835 C 9.96183,74.2613 5.82746,72.345 4.97433,74.2613 Z"
           fill="#fae9ae"
           id="path6" /></g></g></g></svg>
