<?xml version="1.0" encoding="UTF-8" standalone="no"?>
<!-- Created with Inkscape (http://www.inkscape.org/) -->

<svg
   width="0"
   height="0"
   viewBox="0 0 40 40"
   version="1.1"
   id="svg1"
   xml:space="preserve"
   inkscape:export-filename="pieuvre.svg"
   inkscape:export-xdpi="96"
   inkscape:export-ydpi="96"
   xmlns:inkscape="http://www.inkscape.org/namespaces/inkscape"
   xmlns:sodipodi="http://sodipodi.sourceforge.net/DTD/sodipodi-0.dtd"
   xmlns:xlink="http://www.w3.org/1999/xlink"
   xmlns="http://www.w3.org/2000/svg"
   xmlns:svg="http://www.w3.org/2000/svg"
   xmlns:rdf="http://www.w3.org/1999/02/22-rdf-syntax-ns#"
   xmlns:cc="http://creativecommons.org/ns#"
   xmlns:dc="http://purl.org/dc/elements/1.1/"><defs
     id="defs1"><linearGradient
       id="linearGradient17"
       inkscape:collect="always"><stop
         style="stop-color:#9bc2cb;stop-opacity:1;"
         offset="0"
         id="stop17-2" /><stop
         style="stop-color:#b3b3b3;stop-opacity:0;"
         offset="1"
         id="stop18-3" /></linearGradient><linearGradient
       inkscape:collect="always"
       xlink:href="#linearGradient17"
       id="linearGradient18"
       x1="51.110477"
       y1="78.625465"
       x2="141.81078"
       y2="76.662682"
       gradientUnits="userSpaceOnUse" /></defs><sodipodi:namedview
     id="base"
     pagecolor="#ffffff"
     bordercolor="#000000"
     borderopacity="0.3"
     inkscape:pageopacity="0.0"
     inkscape:pageshadow="2"
     inkscape:zoom="0.35"
     inkscape:cx="400"
     inkscape:cy="560"
     inkscape:document-units="px"
     inkscape:showpageshadow="2"
     inkscape:pagecheckerboard="0"
     inkscape:deskcolor="#d1d1d1" /><metadata
     id="metadata1"><rdf:RDF><cc:Work
         rdf:about=""><dc:format>image/svg+xml</dc:format><dc:type
           rdf:resource="http://purl.org/dc/dcmitype/StillImage" /></cc:Work></rdf:RDF></metadata><g
     id="g4"
     transform="matrix(0.26463301,0,0,0.26463301,-0.00802748,-0.19730396)"><g
       id="g17"
       transform="matrix(1.2565109,0,0,1.2565109,-6.0283205,-10.334265)"><path
         fill="url(#notoFish0)"
         d="M 102.92,75.96 98.84,69.84 82.1,49.39 c 0,0 -15.07,-6.58 -25.28,-6.23 C 49.78,43.4 36.15,40.94 21.19,53.26 9.98,62.49 7.63,73.16 7.63,73.16 l 11.09,6.16 -8.45,5.63 c 0,0 9.72,17.82 36.62,21.3 31.89,4.13 43.57,-12.49 50.68,-21.78 0.74,-0.97 5.35,-8.51 5.35,-8.51"
         id="path5"
         style="fill:url(#linearGradient18)" /><path
         fill="#1b65a6"
         d="m 57.66,27.63 c -0.84,0.47 -6.55,5.19 -9.22,8.56 -2.36,2.98 -4.86,7.32 -4.86,7.32 0,0 12.67,-0.4 21.87,2.7 9.2,3.1 19.58,9.88 27.59,19.33 6.15,7.25 7.77,10.14 7.84,11.47 0.07,1.34 -5.07,7.81 -10.65,13.4 -3.57,3.57 -7.09,6.95 -16.38,12.29 -4.37,2.51 -7.81,3.38 -7.81,3.38 0,0 10.16,1.77 15.13,1.83 5.54,0.07 8.78,-0.33 9.15,-1.64 0.38,-1.31 -5.82,-6.01 -5.82,-6.01 0,0 6.62,-5.35 11.31,-10.86 1.86,-2.19 6.71,-8.38 6.71,-8.38 0,0 5.18,5.39 8.14,7.88 3.1,2.6 10.42,8.17 11.57,7.7 1.32,-0.54 -1.5,-8.92 -3.38,-12.29 -1.88,-3.38 -6.76,-7.98 -6.76,-7.98 0,0 6.17,-4.74 8.42,-10.09 2.25,-5.35 3.97,-12.34 2.56,-13 -1.41,-0.66 -10.68,8.87 -12.55,10.75 -1.88,1.88 -7.02,8.09 -7.02,8.09 0,0 -4.36,-4.58 -5.39,-5.8 -1.03,-1.22 -4.32,-5.35 -4.32,-5.35 0,0 -7.03,-14.3 -19.62,-24.31 -8.72,-6.93 -16.51,-8.99 -16.51,-8.99"
         id="path6" /><path
         fill="#1b65a6"
         d="m 48.93,77.79 c 0,1.69 -0.77,7.34 4.22,11.05 5.81,4.31 14.55,5.04 17.83,4.86 5.04,-0.28 7.23,-1.6 7.23,-1.6 0,0 -5.16,-6.48 -14.27,-10.89 C 54.83,76.8 48.93,77.79 48.93,77.79 m -43.64,-5 c -0.86,1.66 0.28,2.42 3.1,3.73 2.82,1.31 7.13,2.91 7.13,2.91 0,0 -2.72,1.13 -4.13,2.06 -1.41,0.94 -3.95,1.89 -3.28,3.57 0.49,1.24 1.69,1.13 3.94,-0.09 2.25,-1.22 7.23,-4.32 7.32,-5.54 0.09,-1.22 -3.21,-3.24 -5.77,-4.6 -3.1,-1.64 -7.33,-3.94 -8.31,-2.04"
         id="path7" /><path
         fill="#262d33"
         d="m 35.6,69.01 c 0,1.94 -1.23,3.59 -3.66,3.75 C 29.12,72.95 28,70.9 28,68.96 c 0,-1.94 1.83,-3.47 3.61,-3.64 2.33,-0.2 3.99,1.75 3.99,3.69"
         id="path8" /><path
         fill="#e0ecf3"
         d="m 46.3,70.89 c -0.95,0.13 -1.31,1.31 -1.22,3.19 0.09,1.88 0.56,3.38 0.28,4.41 -0.28,1.03 -4.22,6.48 -4.97,7.51 -0.75,1.03 -1.69,2.53 -0.66,3.38 1.03,0.85 2.35,-0.28 3.1,-1.03 0.75,-0.75 5.82,-7.41 6.01,-8.92 0.19,-1.5 -0.47,-5.16 -0.56,-5.91 -0.1,-0.75 -0.57,-2.82 -1.98,-2.63 m 4.88,0 c -0.09,1.6 1.78,1.69 3.94,1.69 1.97,0 13.38,0.52 19.57,0.84 6.62,0.35 15.58,1.95 19.54,2.63 2.35,0.4 4.6,0.94 4.6,-0.66 0,-1.52 -2.46,-1.76 -4.88,-2.25 -2.04,-0.42 -8.56,-2.18 -19.19,-2.84 -7.97,-0.49 -18.7,-0.82 -19.92,-0.73 -1.22,0.1 -3.57,-0.2 -3.66,1.32"
         id="path9" /></g><ellipse
       style="fill:#ffffff;stroke-width:0.264583"
       id="path2"
       cx="32.505951"
       cy="78.052086"
       rx="1.8898809"
       ry="2.0788691" /></g></svg>
