<?xml version="1.0" encoding="UTF-8" standalone="no"?>
<!-- Created with Inkscape (http://www.inkscape.org/) -->

<svg
   width="0"
   height="0"
   viewBox="0 0 40 40"
   version="1.1"
   id="svg1"
   xml:space="preserve"
   inkscape:export-filename="meduse.svg"
   inkscape:export-xdpi="96"
   inkscape:export-ydpi="96"
   xmlns:inkscape="http://www.inkscape.org/namespaces/inkscape"
   xmlns:sodipodi="http://sodipodi.sourceforge.net/DTD/sodipodi-0.dtd"
   xmlns="http://www.w3.org/2000/svg"
   xmlns:svg="http://www.w3.org/2000/svg"
   xmlns:rdf="http://www.w3.org/1999/02/22-rdf-syntax-ns#"
   xmlns:cc="http://creativecommons.org/ns#"
   xmlns:dc="http://purl.org/dc/elements/1.1/"><defs
     id="defs1"><radialGradient
       id="f1376id0"
       cx="0"
       cy="0"
       r="1"
       gradientTransform="matrix(-2.9062131,6.1875061,-6.4062583,-3.0089589,21.457654,22.999787)"
       gradientUnits="userSpaceOnUse"><stop
         offset=".869"
         stop-color="#773A5E"
         stop-opacity="0"
         id="stop54" /><stop
         offset="1"
         stop-color="#773A5E"
         id="stop55" /></radialGradient><radialGradient
       id="f1376id1"
       cx="0"
       cy="0"
       r="1"
       gradientTransform="matrix(3.6875,2.5,-1.77734,2.62159,15.573,19.406)"
       gradientUnits="userSpaceOnUse"><stop
         stop-color="#552A25"
         id="stop56" /><stop
         offset="1"
         stop-color="#552A25"
         stop-opacity="0"
         id="stop57" /></radialGradient><radialGradient
       id="f1376id2"
       cx="0"
       cy="0"
       r="1"
       gradientTransform="matrix(-0.26562592,0.11719376,-0.10658565,-0.24158208,21.651013,29.398035)"
       gradientUnits="userSpaceOnUse"><stop
         stop-color="#917567"
         id="stop58" /><stop
         offset="1"
         stop-color="#917567"
         stop-opacity="0"
         id="stop59" /></radialGradient><radialGradient
       id="f1376id3"
       cx="0"
       cy="0"
       r="1"
       gradientTransform="matrix(0,-10.0156,3.05672,0,13.51,28.578)"
       gradientUnits="userSpaceOnUse"><stop
         stop-color="#6D4A39"
         id="stop60" /><stop
         offset="1"
         stop-color="#552A25"
         id="stop61" /></radialGradient><radialGradient
       id="f1376id4"
       cx="0"
       cy="0"
       r="1"
       gradientTransform="matrix(0,-0.89844,1.41785,0,13.581,29.344)"
       gradientUnits="userSpaceOnUse"><stop
         stop-color="#6F4937"
         id="stop62" /><stop
         offset=".661"
         stop-color="#734E3D"
         stop-opacity="0"
         id="stop63" /></radialGradient><radialGradient
       id="f1376id5"
       cx="0"
       cy="0"
       r="1"
       gradientTransform="matrix(-0.01561168,2.2031247,-1.5662807,-0.01109891,11.870227,19.453589)"
       gradientUnits="userSpaceOnUse"><stop
         stop-color="#552A25"
         id="stop64" /><stop
         offset="1"
         stop-color="#552A25"
         stop-opacity="0"
         id="stop65" /></radialGradient><radialGradient
       id="f1376id6"
       cx="0"
       cy="0"
       r="1"
       gradientTransform="matrix(2.8906,6.85938,-9.1061,3.8374,6.058,22.297)"
       gradientUnits="userSpaceOnUse"><stop
         offset=".869"
         stop-color="#773A5E"
         stop-opacity="0"
         id="stop66" /><stop
         offset="1"
         stop-color="#773A5E"
         id="stop67" /></radialGradient><radialGradient
       id="f1376id7"
       cx="0"
       cy="0"
       r="1"
       gradientTransform="matrix(-0.4843771,1.1406227,-1.5392944,-0.6536771,7.4162711,20.938115)"
       gradientUnits="userSpaceOnUse"><stop
         stop-color="#663A47"
         id="stop68" /><stop
         offset="1"
         stop-color="#663A47"
         stop-opacity="0"
         id="stop69" /></radialGradient><radialGradient
       id="f1376id8"
       cx="0"
       cy="0"
       r="1"
       gradientTransform="matrix(2.28125,-1.78125,2.53785,3.25023,17.855,14.625)"
       gradientUnits="userSpaceOnUse"><stop
         stop-color="#965C4F"
         id="stop70" /><stop
         offset="1"
         stop-color="#965C4F"
         stop-opacity="0"
         id="stop71" /></radialGradient><radialGradient
       id="f1376id9"
       cx="0"
       cy="0"
       r="1"
       gradientTransform="matrix(-1.08103,2.2134,-2.62326,-1.2812,8.4,18.7)"
       gradientUnits="userSpaceOnUse"><stop
         stop-color="#7A4552"
         stop-opacity="0"
         id="stop72" /><stop
         offset="1"
         stop-color="#7A4552"
         id="stop73" /></radialGradient><radialGradient
       id="f1376ida"
       cx="0"
       cy="0"
       r="1"
       gradientTransform="matrix(0.472,-2.1025,2.50731,0.56289,7.669,20.833)"
       gradientUnits="userSpaceOnUse"><stop
         stop-color="#79376F"
         id="stop74" /><stop
         offset="1"
         stop-color="#79376F"
         stop-opacity="0"
         id="stop75" /></radialGradient><radialGradient
       id="f1376idb"
       cx="0"
       cy="0"
       r="1"
       gradientTransform="matrix(-1.38558,0.97615,-0.97172,-1.37929,9.846,17.89)"
       gradientUnits="userSpaceOnUse"><stop
         stop-color="#652A26"
         id="stop76" /><stop
         offset="1"
         stop-color="#652A26"
         stop-opacity="0"
         id="stop77" /></radialGradient><radialGradient
       id="f1376idc"
       cx="0"
       cy="0"
       r="1"
       gradientTransform="matrix(0.96875,-0.2774,0.61035,2.13146,5.683,19.219)"
       gradientUnits="userSpaceOnUse"><stop
         stop-color="#765855"
         id="stop78" /><stop
         offset="1"
         stop-color="#765855"
         stop-opacity="0"
         id="stop79" /></radialGradient><radialGradient
       id="f1376idd"
       cx="0"
       cy="0"
       r="1"
       gradientTransform="matrix(0.47656,0.21576,-0.07572,0.16724,7.667,20.806)"
       gradientUnits="userSpaceOnUse"><stop
         stop-color="#7E4580"
         id="stop80" /><stop
         offset="1"
         stop-color="#7E4580"
         stop-opacity="0"
         id="stop81" /></radialGradient><radialGradient
       id="f1376ide"
       cx="0"
       cy="0"
       r="1"
       gradientTransform="matrix(1.6875,1.84937,-1.82757,1.66761,7.8,18.61)"
       gradientUnits="userSpaceOnUse"><stop
         offset=".854"
         stop-color="#7E4580"
         stop-opacity="0"
         id="stop82" /><stop
         offset=".975"
         stop-color="#7E4580"
         id="stop83" /></radialGradient><radialGradient
       id="f1376idf"
       cx="0"
       cy="0"
       r="1"
       gradientTransform="matrix(1.90626,8.5625,-11.87956,2.64473,12.573,13.594)"
       gradientUnits="userSpaceOnUse"><stop
         stop-color="#9F655F"
         id="stop84" /><stop
         offset=".843"
         stop-color="#84494D"
         id="stop85" /></radialGradient><radialGradient
       id="f1376idg"
       cx="0"
       cy="0"
       r="1"
       gradientTransform="matrix(0,-5.25,4.28796,0,13.323,19.719)"
       gradientUnits="userSpaceOnUse"><stop
         stop-color="#723162"
         id="stop86" /><stop
         offset="1"
         stop-color="#723162"
         stop-opacity="0"
         id="stop87" /></radialGradient><radialGradient
       id="f1376idh"
       cx="0"
       cy="0"
       r="1"
       gradientTransform="matrix(3.5312469,0.96875638,-2.3895481,8.7102231,8.385677,14.218774)"
       gradientUnits="userSpaceOnUse"><stop
         stop-color="#84625C"
         id="stop88" /><stop
         offset="1"
         stop-color="#84625C"
         stop-opacity="0"
         id="stop89" /></radialGradient><radialGradient
       id="f1376idi"
       cx="0"
       cy="0"
       r="1"
       gradientTransform="matrix(1.875,-1.34375,1.60428,2.23853,8.573,18.25)"
       gradientUnits="userSpaceOnUse"><stop
         stop-color="#532327"
         id="stop90" /><stop
         offset="1"
         stop-color="#532327"
         stop-opacity="0"
         id="stop91" /></radialGradient><radialGradient
       id="f1376idj"
       cx="0"
       cy="0"
       r="1"
       gradientTransform="matrix(8.28125,-5.5625,4.26995,6.35694,10.042,17.969)"
       gradientUnits="userSpaceOnUse"><stop
         offset=".841"
         stop-color="#B48E85"
         stop-opacity="0"
         id="stop92" /><stop
         offset=".933"
         stop-color="#B48E85"
         id="stop93" /></radialGradient><radialGradient
       id="f1376idk"
       cx="0"
       cy="0"
       r="1"
       gradientTransform="matrix(-1.71875,-1.34375,2.35157,-3.00781,18.01,18.75)"
       gradientUnits="userSpaceOnUse"><stop
         stop-color="#713544"
         id="stop94" /><stop
         offset="1"
         stop-color="#713544"
         stop-opacity="0"
         id="stop95" /></radialGradient><radialGradient
       id="f1376idl"
       cx="0"
       cy="0"
       r="1"
       gradientTransform="matrix(-0.40625,0.5625,-0.5015,-0.3622,7.67,19.299)"
       gradientUnits="userSpaceOnUse"><stop
         offset=".006"
         stop-color="#433437"
         id="stop96" /><stop
         offset="1"
         stop-color="#3B2838"
         id="stop97" /></radialGradient><radialGradient
       id="f1376idm"
       cx="0"
       cy="0"
       r="1"
       gradientTransform="matrix(-0.22817687,0.20598562,-0.1812124,-0.20073478,7.7077818,19.333547)"
       gradientUnits="userSpaceOnUse"><stop
         stop-color="#5C5051"
         id="stop98" /><stop
         offset="1"
         stop-color="#5C5051"
         stop-opacity="0"
         id="stop99" /></radialGradient><radialGradient
       id="f1376idn"
       cx="0"
       cy="0"
       r="1"
       gradientTransform="matrix(9.92352,-8.64041,3.20382,3.6796,20.245,10.81)"
       gradientUnits="userSpaceOnUse"><stop
         offset=".907"
         stop-color="#F6EEFF"
         stop-opacity="0"
         id="stop100" /><stop
         offset="1"
         stop-color="#F6EEFF"
         id="stop101" /></radialGradient><radialGradient
       id="f1376ido"
       cx="0"
       cy="0"
       r="1"
       gradientTransform="matrix(-1.2012,0.819,-0.88426,-1.29691,29.609,2.838)"
       gradientUnits="userSpaceOnUse"><stop
         stop-color="#F6EEFF"
         id="stop102" /><stop
         offset="1"
         stop-color="#F6EEFF"
         stop-opacity="0"
         id="stop103" /></radialGradient><radialGradient
       id="f1376idp"
       cx="0"
       cy="0"
       r="1"
       gradientTransform="matrix(-0.45311881,-8.4375018,6.2746984,-0.33696987,19.698389,10.280912)"
       gradientUnits="userSpaceOnUse"><stop
         offset=".936"
         stop-color="#F6EEFF"
         stop-opacity="0"
         id="stop104" /><stop
         offset="1"
         stop-color="#F6EEFF"
         id="stop105" /></radialGradient><radialGradient
       id="f1376idq"
       cx="0"
       cy="0"
       r="1"
       gradientTransform="matrix(-1.5156224,0.57812351,-0.75773619,-1.9864993,21.308309,2.6720066)"
       gradientUnits="userSpaceOnUse"><stop
         stop-color="#F6EEFF"
         id="stop106" /><stop
         offset="1"
         stop-color="#F6EEFF"
         stop-opacity="0"
         id="stop107" /></radialGradient><radialGradient
       id="f1376idr"
       cx="0"
       cy="0"
       r="1"
       gradientTransform="matrix(0,-0.56179,5.14974,0,13.51,29.96)"
       gradientUnits="userSpaceOnUse"><stop
         stop-color="#7D3C62"
         id="stop108" /><stop
         offset="1"
         stop-color="#7D3C62"
         stop-opacity="0"
         id="stop109" /></radialGradient><radialGradient
       id="f1376ids"
       cx="0"
       cy="0"
       r="1"
       gradientTransform="matrix(-0.3124985,0.25000946,-0.25000946,-0.3124985,13.721952,29.390439)"
       gradientUnits="userSpaceOnUse"><stop
         stop-color="#987C6F"
         id="stop110" /><stop
         offset=".712"
         stop-color="#987C6F"
         stop-opacity="0"
         id="stop111" /></radialGradient><linearGradient
       id="f1376idt"
       x1="15.467"
       x2="24.225"
       y1="20.159"
       y2="34.202999"
       gradientUnits="userSpaceOnUse"><stop
         stop-color="#7B5B59"
         id="stop112" /><stop
         offset="1"
         stop-color="#7B5B59"
         stop-opacity=".56"
         id="stop113" /></linearGradient><linearGradient
       id="f1376idu"
       x1="12.62"
       x2="12.683"
       y1="29.656"
       y2="27.344"
       gradientUnits="userSpaceOnUse"><stop
         stop-color="#988075"
         id="stop114" /><stop
         offset=".451"
         stop-color="#988075"
         stop-opacity="0"
         id="stop115" /></linearGradient><linearGradient
       id="f1376idv"
       x1="6.0419998"
       x2="5.3309999"
       y1="23.992001"
       y2="23.617001"
       gradientUnits="userSpaceOnUse"><stop
         offset=".421"
         stop-color="#7E535A"
         id="stop116" /><stop
         offset="1"
         stop-color="#7E535A"
         stop-opacity="0"
         id="stop117" /></linearGradient><linearGradient
       id="f1376idw"
       x1="2.4790001"
       x2="2.675"
       y1="30.007999"
       y2="29.358999"
       gradientUnits="userSpaceOnUse"><stop
         stop-color="#773B5F"
         id="stop118" /><stop
         offset="1"
         stop-color="#773B5F"
         stop-opacity="0"
         id="stop119" /></linearGradient><linearGradient
       id="f1376idx"
       x1="21.537001"
       x2="24.792"
       y1="26.906"
       y2="23.625"
       gradientUnits="userSpaceOnUse"><stop
         stop-color="#621F47"
         id="stop120" /><stop
         offset="1"
         stop-color="#621F47"
         stop-opacity="0"
         id="stop121" /></linearGradient><linearGradient
       id="f1376idy"
       x1="25.73"
       x2="23.355"
       y1="31.281"
       y2="20.469"
       gradientUnits="userSpaceOnUse"><stop
         stop-color="#733169"
         id="stop122" /><stop
         offset="1"
         stop-color="#733169"
         stop-opacity="0"
         id="stop123" /></linearGradient><linearGradient
       id="f1376idz"
       x1="28.542"
       x2="26.792"
       y1="28"
       y2="27.531"
       gradientUnits="userSpaceOnUse"><stop
         stop-color="#7A4B54"
         id="stop124" /><stop
         offset="1"
         stop-color="#7A4B54"
         stop-opacity="0"
         id="stop125" /></linearGradient><linearGradient
       id="f1376id10"
       x1="24.580999"
       x2="23.964001"
       y1="20.242001"
       y2="20.594"
       gradientUnits="userSpaceOnUse"><stop
         stop-color="#A37A6F"
         id="stop126" /><stop
         offset="1"
         stop-color="#A37A6F"
         stop-opacity="0"
         id="stop127" /></linearGradient><linearGradient
       id="f1376id11"
       x1="7.4229999"
       x2="7.079"
       y1="19.065001"
       y2="18.847"
       gradientUnits="userSpaceOnUse"><stop
         stop-color="#5C5051"
         stop-opacity="0"
         id="stop128" /><stop
         offset="1"
         stop-color="#5C5051"
         id="stop129" /></linearGradient><linearGradient
       id="f1376id12"
       x1="23.028999"
       x2="23.903"
       y1="7.9910002"
       y2="9.4980001"
       gradientUnits="userSpaceOnUse"><stop
         stop-color="#E7D9F7"
         id="stop130" /><stop
         offset="1"
         stop-color="#D9C3EE"
         id="stop131" /></linearGradient><linearGradient
       id="f1376id13"
       x1="22.264999"
       x2="22.620001"
       y1="6.1409998"
       y2="6.5359998"
       gradientUnits="userSpaceOnUse"><stop
         stop-color="#F6EEFF"
         id="stop132" /><stop
         offset="1"
         stop-color="#F6EEFF"
         stop-opacity="0"
         id="stop133" /></linearGradient><linearGradient
       id="f1376id14"
       x1="17.448"
       x2="18.823"
       y1="7.4380002"
       y2="8.2810001"
       gradientUnits="userSpaceOnUse"><stop
         stop-color="#E7D9F7"
         id="stop134" /><stop
         offset="1"
         stop-color="#D9C3EE"
         id="stop135" /></linearGradient><linearGradient
       id="f1376id15"
       x1="16.761"
       x2="17.400999"
       y1="5.375"
       y2="5.6409998"
       gradientUnits="userSpaceOnUse"><stop
         stop-color="#F6EEFF"
         id="stop136" /><stop
         offset="1"
         stop-color="#F6EEFF"
         stop-opacity="0"
         id="stop137" /></linearGradient><linearGradient
       id="f1376id16"
       x1="17.542"
       x2="16.948"
       y1="10.906"
       y2="5.4380002"
       gradientUnits="userSpaceOnUse"><stop
         stop-color="#CFC5D5"
         id="stop138" /><stop
         offset="1"
         stop-color="#CFC5D5"
         stop-opacity="0"
         id="stop139" /></linearGradient><linearGradient
       id="f1376id17"
       x1="22.886"
       x2="22.886"
       y1="14.031"
       y2="27.719"
       gradientUnits="userSpaceOnUse"><stop
         stop-color="#B0807A"
         id="stop140" /><stop
         offset="1"
         stop-color="#B0807A"
         stop-opacity="0"
         id="stop141" /></linearGradient><linearGradient
       id="f1376id18"
       x1="7.0890002"
       x2="2.9330001"
       y1="21.438"
       y2="29.563"
       gradientUnits="userSpaceOnUse"><stop
         stop-color="#8A555E"
         id="stop142" /><stop
         offset="1"
         stop-color="#8A555E"
         stop-opacity="0"
         id="stop143" /></linearGradient><linearGradient
       id="f1376id19"
       x1="11.835"
       x2="3.0780001"
       y1="20.488001"
       y2="34.530998"
       gradientUnits="userSpaceOnUse"><stop
         stop-color="#7B5B59"
         id="stop144" /><stop
         offset="1"
         stop-color="#7B5B59"
         stop-opacity="0"
         id="stop145" /></linearGradient><linearGradient
       id="f1376id1a"
       x1="14.664"
       x2="9.8870001"
       y1="20.403"
       y2="21.846001"
       gradientUnits="userSpaceOnUse"><stop
         stop-color="#7B5B59"
         id="stop146" /><stop
         offset="1"
         stop-color="#7B5B59"
         stop-opacity="0"
         id="stop147" /></linearGradient><filter
       id="f1376id1b"
       width="6.6160002"
       height="11.037"
       x="15.336"
       y="18.591"
       color-interpolation-filters="sRGB"
       filterUnits="userSpaceOnUse"><feFlood
         flood-opacity="0"
         result="BackgroundImageFix"
         id="feFlood147" /><feBlend
         in="SourceGraphic"
         in2="BackgroundImageFix"
         result="shape"
         id="feBlend147"
         mode="normal" /><feGaussianBlur
         result="effect1_foregroundBlur_28327_6798"
         stdDeviation=".1"
         id="feGaussianBlur147" /></filter><filter
       id="f1376id1c"
       width="7.875"
       height="7.875"
       x="11.323"
       y="10.125"
       color-interpolation-filters="sRGB"
       filterUnits="userSpaceOnUse"><feFlood
         flood-opacity="0"
         result="BackgroundImageFix"
         id="feFlood148" /><feBlend
         in="SourceGraphic"
         in2="BackgroundImageFix"
         result="shape"
         id="feBlend148"
         mode="normal" /><feGaussianBlur
         result="effect1_foregroundBlur_28327_6798"
         stdDeviation="1"
         id="feGaussianBlur148" /></filter><filter
       id="f1376id1d"
       width="2.572"
       height="2.352"
       x="14.714"
       y="11.75"
       color-interpolation-filters="sRGB"
       filterUnits="userSpaceOnUse"><feFlood
         flood-opacity="0"
         result="BackgroundImageFix"
         id="feFlood149" /><feBlend
         in="SourceGraphic"
         in2="BackgroundImageFix"
         result="shape"
         id="feBlend149"
         mode="normal" /><feGaussianBlur
         result="effect1_foregroundBlur_28327_6798"
         stdDeviation=".125"
         id="feGaussianBlur149" /></filter><filter
       id="f1376id1e"
       width="14.95"
       height="12.062"
       x="15.074"
       y="1.985"
       color-interpolation-filters="sRGB"
       filterUnits="userSpaceOnUse"><feFlood
         flood-opacity="0"
         result="BackgroundImageFix"
         id="feFlood150" /><feBlend
         in="SourceGraphic"
         in2="BackgroundImageFix"
         result="shape"
         id="feBlend150"
         mode="normal" /><feColorMatrix
         in="SourceAlpha"
         result="hardAlpha"
         values="0 0 0 0 0 0 0 0 0 0 0 0 0 0 0 0 0 0 127 0"
         id="feColorMatrix150" /><feOffset
         dy=".05"
         id="feOffset150" /><feGaussianBlur
         stdDeviation=".125"
         id="feGaussianBlur150" /><feComposite
         in2="hardAlpha"
         k2="-1"
         k3="1"
         operator="arithmetic"
         id="feComposite150"
         k1="0"
         k4="0" /><feColorMatrix
         values="0 0 0 0 0.85941 0 0 0 0 0.835486 0 0 0 0 0.883333 0 0 0 1 0"
         id="feColorMatrix151" /><feBlend
         in2="shape"
         result="effect1_innerShadow_28327_6798"
         id="feBlend151"
         mode="normal" /></filter><filter
       id="f1376id1f"
       width="6.2680001"
       height="9.8000002"
       x="14.741"
       y="1.985"
       color-interpolation-filters="sRGB"
       filterUnits="userSpaceOnUse"><feFlood
         flood-opacity="0"
         result="BackgroundImageFix"
         id="feFlood151" /><feBlend
         in="SourceGraphic"
         in2="BackgroundImageFix"
         result="shape"
         id="feBlend152"
         mode="normal" /><feColorMatrix
         in="SourceAlpha"
         result="hardAlpha"
         values="0 0 0 0 0 0 0 0 0 0 0 0 0 0 0 0 0 0 127 0"
         id="feColorMatrix152" /><feOffset
         dy=".05"
         id="feOffset152" /><feGaussianBlur
         stdDeviation=".125"
         id="feGaussianBlur152" /><feComposite
         in2="hardAlpha"
         k2="-1"
         k3="1"
         operator="arithmetic"
         id="feComposite152"
         k1="0"
         k4="0" /><feColorMatrix
         values="0 0 0 0 0.85941 0 0 0 0 0.835486 0 0 0 0 0.883333 0 0 0 1 0"
         id="feColorMatrix153" /><feBlend
         in2="shape"
         result="effect1_innerShadow_28327_6798"
         id="feBlend153"
         mode="normal" /></filter><filter
       id="f1376id1g"
       width="10.851"
       height="15.547"
       x="17.735001"
       y="13.372"
       color-interpolation-filters="sRGB"
       filterUnits="userSpaceOnUse"><feFlood
         flood-opacity="0"
         result="BackgroundImageFix"
         id="feFlood153" /><feBlend
         in="SourceGraphic"
         in2="BackgroundImageFix"
         result="shape"
         id="feBlend154"
         mode="normal" /><feGaussianBlur
         result="effect1_foregroundBlur_28327_6798"
         stdDeviation=".6"
         id="feGaussianBlur154" /></filter><filter
       id="f1376id1h"
       width="3.4059999"
       height="3.4059999"
       x="6.8800001"
       y="17.052"
       color-interpolation-filters="sRGB"
       filterUnits="userSpaceOnUse"><feFlood
         flood-opacity="0"
         result="BackgroundImageFix"
         id="feFlood154" /><feBlend
         in="SourceGraphic"
         in2="BackgroundImageFix"
         result="shape"
         id="feBlend155"
         mode="normal" /><feGaussianBlur
         result="effect1_foregroundBlur_28327_6798"
         stdDeviation=".5"
         id="feGaussianBlur155" /></filter><filter
       id="f1376id1i"
       width="5.631"
       height="9.6859999"
       x="1.9220001"
       y="20.267"
       color-interpolation-filters="sRGB"
       filterUnits="userSpaceOnUse"><feFlood
         flood-opacity="0"
         result="BackgroundImageFix"
         id="feFlood155" /><feBlend
         in="SourceGraphic"
         in2="BackgroundImageFix"
         result="shape"
         id="feBlend156"
         mode="normal" /><feGaussianBlur
         result="effect1_foregroundBlur_28327_6798"
         stdDeviation=".25"
         id="feGaussianBlur156" /></filter><filter
       id="f1376id1j"
       width="6.5999999"
       height="9.5369997"
       x="5.3670001"
       y="20.261999"
       color-interpolation-filters="sRGB"
       filterUnits="userSpaceOnUse"><feFlood
         flood-opacity="0"
         result="BackgroundImageFix"
         id="feFlood156" /><feBlend
         in="SourceGraphic"
         in2="BackgroundImageFix"
         result="shape"
         id="feBlend157"
         mode="normal" /><feGaussianBlur
         result="effect1_foregroundBlur_28327_6798"
         stdDeviation=".1"
         id="feGaussianBlur157" /></filter><filter
       id="f1376id1k"
       width="0.89999998"
       height="9.4630003"
       x="13.186"
       y="20.018999"
       color-interpolation-filters="sRGB"
       filterUnits="userSpaceOnUse"><feFlood
         flood-opacity="0"
         result="BackgroundImageFix"
         id="feFlood157" /><feBlend
         in="SourceGraphic"
         in2="BackgroundImageFix"
         result="shape"
         id="feBlend158"
         mode="normal" /><feGaussianBlur
         result="effect1_foregroundBlur_28327_6798"
         stdDeviation=".15"
         id="feGaussianBlur158" /></filter></defs><sodipodi:namedview
     id="base"
     pagecolor="#ffffff"
     bordercolor="#000000"
     borderopacity="0.3"
     inkscape:pageopacity="0.0"
     inkscape:pageshadow="2"
     inkscape:zoom="0.35"
     inkscape:cx="400"
     inkscape:cy="560"
     inkscape:document-units="px"
     inkscape:showpageshadow="2"
     inkscape:pagecheckerboard="0"
     inkscape:deskcolor="#d1d1d1" /><metadata
     id="metadata1"><rdf:RDF><cc:Work
         rdf:about=""><dc:format>image/svg+xml</dc:format><dc:type
           rdf:resource="http://purl.org/dc/dcmitype/StillImage" /></cc:Work></rdf:RDF></metadata><g
     inkscape:label="Calque 1"
     id="layer1"
     transform="matrix(0.25995782,0,0,0.25995782,0.66938918,0.46491527)"><g
       fill="none"
       id="g158"
       transform="matrix(5.3220519,0,0,5.3220519,-9.7692534,-9.5504696)"><path
         fill="#6d4a39"
         d="m 16.051,18.469 a 0.5,0.5 0 1 0 -1,0 v 5 c 0,2.378 1.092,3.978 2.452,4.988 1.34,0.997 2.935,1.42 4.007,1.51 a 0.5,0.5 0 1 0 0.083,-0.996 C 20.665,28.893 19.26,28.517 18.1,27.655 16.96,26.808 16.051,25.491 16.051,23.469 Z"
         id="path1" /><path
         fill="url(#f1376id0)"
         d="m 16.051,18.469 a 0.5,0.5 0 1 0 -1,0 v 5 c 0,2.378 1.092,3.978 2.452,4.988 1.34,0.997 2.935,1.42 4.007,1.51 a 0.5,0.5 0 1 0 0.083,-0.996 C 20.665,28.893 19.26,28.517 18.1,27.655 16.96,26.808 16.051,25.491 16.051,23.469 Z"
         id="path2"
         style="fill:url(#f1376id0)" /><path
         fill="url(#f1376id1)"
         d="m 16.051,18.469 a 0.5,0.5 0 1 0 -1,0 v 5 c 0,2.378 1.092,3.978 2.452,4.988 1.34,0.997 2.935,1.42 4.007,1.51 a 0.5,0.5 0 1 0 0.083,-0.996 C 20.665,28.893 19.26,28.517 18.1,27.655 16.96,26.808 16.051,25.491 16.051,23.469 Z"
         id="path3"
         style="fill:url(#f1376id1)" /><path
         fill="url(#f1376id2)"
         d="m 16.051,18.469 a 0.5,0.5 0 1 0 -1,0 v 5 c 0,2.378 1.092,3.978 2.452,4.988 1.34,0.997 2.935,1.42 4.007,1.51 a 0.5,0.5 0 1 0 0.083,-0.996 C 20.665,28.893 19.26,28.517 18.1,27.655 16.96,26.808 16.051,25.491 16.051,23.469 Z"
         id="path4"
         style="fill:url(#f1376id2)" /><g
         filter="url(#f1376id1b)"
         id="g5"><path
           stroke="url(#f1376idt)"
           stroke-linecap="round"
           stroke-width="0.2"
           d="m 21.651,29.328 c -1.187,0 -3.258,-0.677 -4.484,-1.984 -1.172,-1.25 -1.531,-3.048 -1.531,-4.642 v -3.811"
           id="path5"
           style="stroke:url(#f1376idt)" /></g><path
         fill="url(#f1376id3)"
         d="m 14.01,19.469 a 0.5,0.5 0 1 0 -1,0 v 10 a 0.5,0.5 0 0 0 1,0 z"
         id="path6"
         style="fill:url(#f1376id3)" /><path
         fill="url(#f1376id4)"
         d="m 14.01,19.469 a 0.5,0.5 0 1 0 -1,0 v 10 a 0.5,0.5 0 0 0 1,0 z"
         id="path7"
         style="fill:url(#f1376id4)" /><path
         fill="url(#f1376idu)"
         d="m 14.01,19.469 a 0.5,0.5 0 1 0 -1,0 v 10 a 0.5,0.5 0 0 0 1,0 z"
         id="path8"
         style="fill:url(#f1376idu)" /><path
         fill="#6d4a39"
         d="m 11.51,17.969 a 0.5,0.5 0 0 1 0.5,0.5 v 5 c 0,2.563 -1.078,4.213 -2.457,5.205 C 8.2,29.65 6.59,29.97 5.51,29.97 a 0.5,0.5 0 0 1 0,-1 c 0.92,0 2.31,-0.28 3.458,-1.106 1.12,-0.807 2.042,-2.157 2.042,-4.394 v -5 a 0.5,0.5 0 0 1 0.5,-0.5"
         id="path9" /><path
         fill="url(#f1376id5)"
         d="m 11.51,17.969 a 0.5,0.5 0 0 1 0.5,0.5 v 5 c 0,2.563 -1.078,4.213 -2.457,5.205 C 8.2,29.65 6.59,29.97 5.51,29.97 a 0.5,0.5 0 0 1 0,-1 c 0.92,0 2.31,-0.28 3.458,-1.106 1.12,-0.807 2.042,-2.157 2.042,-4.394 v -5 a 0.5,0.5 0 0 1 0.5,-0.5"
         id="path10"
         style="fill:url(#f1376id5)" /><path
         fill="url(#f1376id6)"
         d="m 11.51,17.969 a 0.5,0.5 0 0 1 0.5,0.5 v 5 c 0,2.563 -1.078,4.213 -2.457,5.205 C 8.2,29.65 6.59,29.97 5.51,29.97 a 0.5,0.5 0 0 1 0,-1 c 0.92,0 2.31,-0.28 3.458,-1.106 1.12,-0.807 2.042,-2.157 2.042,-4.394 v -5 a 0.5,0.5 0 0 1 0.5,-0.5"
         id="path11"
         style="fill:url(#f1376id6)" /><path
         fill="#714f3f"
         d="M 2.66,29.787 8.267,19.804 7.026,19.044 2.043,29.467 a 0.348,0.348 0 0 0 0.617,0.32"
         id="path12" /><path
         fill="url(#f1376idv)"
         d="M 2.66,29.787 8.267,19.804 7.026,19.044 2.043,29.467 a 0.348,0.348 0 0 0 0.617,0.32"
         id="path13"
         style="fill:url(#f1376idv)" /><path
         fill="url(#f1376id7)"
         d="M 2.66,29.787 8.267,19.804 7.026,19.044 2.043,29.467 a 0.348,0.348 0 0 0 0.617,0.32"
         id="path14"
         style="fill:url(#f1376id7)" /><path
         fill="url(#f1376idw)"
         d="M 2.66,29.787 8.267,19.804 7.026,19.044 2.043,29.467 a 0.348,0.348 0 0 0 0.617,0.32"
         id="path15"
         style="fill:url(#f1376idw)" /><path
         fill="#9a6167"
         d="m 16.142,19.078 10.004,9.556 a 1.11,1.11 0 0 0 1.76,-1.299 l -6.175,-12.38 a 3.525,3.525 0 1 0 -5.59,4.123"
         id="path16" /><path
         fill="url(#f1376id8)"
         d="m 16.142,19.078 10.004,9.556 a 1.11,1.11 0 0 0 1.76,-1.299 l -6.175,-12.38 a 3.525,3.525 0 1 0 -5.59,4.123"
         id="path17"
         style="fill:url(#f1376id8)" /><path
         fill="url(#f1376idx)"
         d="m 16.142,19.078 10.004,9.556 a 1.11,1.11 0 0 0 1.76,-1.299 l -6.175,-12.38 a 3.525,3.525 0 1 0 -5.59,4.123"
         id="path18"
         style="fill:url(#f1376idx)" /><path
         fill="url(#f1376idy)"
         d="m 16.142,19.078 10.004,9.556 a 1.11,1.11 0 0 0 1.76,-1.299 l -6.175,-12.38 a 3.525,3.525 0 1 0 -5.59,4.123"
         id="path19"
         style="fill:url(#f1376idy)" /><path
         fill="url(#f1376idz)"
         d="m 16.142,19.078 10.004,9.556 a 1.11,1.11 0 0 0 1.76,-1.299 l -6.175,-12.38 a 3.525,3.525 0 1 0 -5.59,4.123"
         id="path20"
         style="fill:url(#f1376idz)" /><path
         fill="url(#f1376id10)"
         d="m 16.142,19.078 10.004,9.556 a 1.11,1.11 0 0 0 1.76,-1.299 l -6.175,-12.38 a 3.525,3.525 0 1 0 -5.59,4.123"
         id="path21"
         style="fill:url(#f1376id10)" /><path
         fill="#8c5b56"
         d="m 8.01,20.914 c 1.105,0 2,-0.883 2,-1.973 0,-1.09 -0.895,-1.972 -2,-1.972 -1.104,0 -2,0.883 -2,1.972 0,1.09 0.896,1.973 2,1.973"
         id="path22" /><path
         fill="url(#f1376id9)"
         d="m 8.01,20.914 c 1.105,0 2,-0.883 2,-1.973 0,-1.09 -0.895,-1.972 -2,-1.972 -1.104,0 -2,0.883 -2,1.972 0,1.09 0.896,1.973 2,1.973"
         id="path23"
         style="fill:url(#f1376id9)" /><path
         fill="url(#f1376ida)"
         d="m 8.01,20.914 c 1.105,0 2,-0.883 2,-1.973 0,-1.09 -0.895,-1.972 -2,-1.972 -1.104,0 -2,0.883 -2,1.972 0,1.09 0.896,1.973 2,1.973"
         id="path24"
         style="fill:url(#f1376ida)" /><path
         fill="url(#f1376idb)"
         d="m 8.01,20.914 c 1.105,0 2,-0.883 2,-1.973 0,-1.09 -0.895,-1.972 -2,-1.972 -1.104,0 -2,0.883 -2,1.972 0,1.09 0.896,1.973 2,1.973"
         id="path25"
         style="fill:url(#f1376idb)" /><path
         fill="url(#f1376idc)"
         d="m 8.01,20.914 c 1.105,0 2,-0.883 2,-1.973 0,-1.09 -0.895,-1.972 -2,-1.972 -1.104,0 -2,0.883 -2,1.972 0,1.09 0.896,1.973 2,1.973"
         id="path26"
         style="fill:url(#f1376idc)" /><path
         fill="url(#f1376idd)"
         d="m 8.01,20.914 c 1.105,0 2,-0.883 2,-1.973 0,-1.09 -0.895,-1.972 -2,-1.972 -1.104,0 -2,0.883 -2,1.972 0,1.09 0.896,1.973 2,1.973"
         id="path27"
         style="fill:url(#f1376idd)" /><path
         fill="url(#f1376ide)"
         d="m 8.01,20.914 c 1.105,0 2,-0.883 2,-1.973 0,-1.09 -0.895,-1.972 -2,-1.972 -1.104,0 -2,0.883 -2,1.972 0,1.09 0.896,1.973 2,1.973"
         id="path28"
         style="fill:url(#f1376ide)" /><path
         fill="url(#f1376idf)"
         d="m 13.51,19.969 a 4.5,4.5 0 0 0 2.498,-8.244 l -0.354,-0.756 -0.895,0.175 a 4.504,4.504 0 0 0 -5.748,4.325 4.5,4.5 0 0 0 4.5,4.5"
         id="path29"
         style="fill:url(#f1376idf)" /><path
         fill="url(#f1376idg)"
         d="m 13.51,19.969 a 4.5,4.5 0 0 0 2.498,-8.244 l -0.354,-0.756 -0.895,0.175 a 4.504,4.504 0 0 0 -5.748,4.325 4.5,4.5 0 0 0 4.5,4.5"
         id="path30"
         style="fill:url(#f1376idg)" /><path
         fill="url(#f1376idh)"
         d="m 13.51,19.969 a 4.5,4.5 0 0 0 2.498,-8.244 l -0.354,-0.756 -0.895,0.175 a 4.504,4.504 0 0 0 -5.748,4.325 4.5,4.5 0 0 0 4.5,4.5"
         id="path31"
         style="fill:url(#f1376idh)" /><path
         fill="url(#f1376idi)"
         d="m 13.51,19.969 a 4.5,4.5 0 0 0 2.498,-8.244 l -0.354,-0.756 -0.895,0.175 a 4.504,4.504 0 0 0 -5.748,4.325 4.5,4.5 0 0 0 4.5,4.5"
         id="path32"
         style="fill:url(#f1376idi)" /><path
         fill="url(#f1376idj)"
         d="m 13.51,19.969 a 4.5,4.5 0 0 0 2.498,-8.244 l -0.354,-0.756 -0.895,0.175 a 4.504,4.504 0 0 0 -5.748,4.325 4.5,4.5 0 0 0 4.5,4.5"
         id="path33"
         style="fill:url(#f1376idj)" /><path
         fill="url(#f1376idk)"
         d="m 13.51,19.969 a 4.5,4.5 0 0 0 2.498,-8.244 l -0.354,-0.756 -0.895,0.175 a 4.504,4.504 0 0 0 -5.748,4.325 4.5,4.5 0 0 0 4.5,4.5"
         id="path34"
         style="fill:url(#f1376idk)" /><g
         filter="url(#f1376id1c)"
         id="g34"><circle
           cx="15.261"
           cy="14.063"
           r="1.938"
           fill="#b68782"
           id="circle34" /></g><g
         filter="url(#f1376id1d)"
         id="g35"><path
           fill="#9f6e66"
           d="m 16.137,12 -1.03,1.022 a 0.492,0.492 0 0 0 -0.055,0.628 0.462,0.462 0 0 0 0.622,0.134 l 1.362,-0.831 A 3.815,3.815 0 0 0 16.136,12"
           id="path35" /></g><path
         fill="url(#f1376idl)"
         d="m 8.02,19.458 a 0.5,0.5 0 1 1 -1,0 0.5,0.5 0 0 1 1,0"
         id="path36"
         style="fill:url(#f1376idl)" /><path
         fill="url(#f1376idm)"
         d="m 8.02,19.458 a 0.5,0.5 0 1 1 -1,0 0.5,0.5 0 0 1 1,0"
         id="path37"
         style="fill:url(#f1376idm)" /><path
         fill="url(#f1376id11)"
         d="m 8.02,19.458 a 0.5,0.5 0 1 1 -1,0 0.5,0.5 0 0 1 1,0"
         id="path38"
         style="fill:url(#f1376id11)" /><g
         filter="url(#f1376id1e)"
         id="g42"><path
           fill="url(#f1376id12)"
           d="m 15.247,13.025 5.89,-5.696 5.284,-4.786 a 2.156,2.156 0 1 1 2.59,3.427 l -5.79,3.616 -7.292,4.332 a 0.566,0.566 0 0 1 -0.682,-0.893"
           id="path39"
           style="fill:url(#f1376id12)" /><path
           fill="url(#f1376id13)"
           d="m 15.247,13.025 5.89,-5.696 5.284,-4.786 a 2.156,2.156 0 1 1 2.59,3.427 l -5.79,3.616 -7.292,4.332 a 0.566,0.566 0 0 1 -0.682,-0.893"
           id="path40"
           style="fill:url(#f1376id13)" /><path
           fill="url(#f1376idn)"
           d="m 15.247,13.025 5.89,-5.696 5.284,-4.786 a 2.156,2.156 0 1 1 2.59,3.427 l -5.79,3.616 -7.292,4.332 a 0.566,0.566 0 0 1 -0.682,-0.893"
           id="path41"
           style="fill:url(#f1376idn)" /><path
           fill="url(#f1376ido)"
           d="m 15.247,13.025 5.89,-5.696 5.284,-4.786 a 2.156,2.156 0 1 1 2.59,3.427 l -5.79,3.616 -7.292,4.332 a 0.566,0.566 0 0 1 -0.682,-0.893"
           id="path42"
           style="fill:url(#f1376ido)" /></g><g
         filter="url(#f1376id1f)"
         id="g47"><path
           fill="url(#f1376id14)"
           d="m 17.916,3.004 -3.175,8.135 a 4.48,4.48 0 0 1 1.282,0.596 L 20.749,4.457 A 1.6,1.6 0 1 0 17.916,3.004"
           id="path43"
           style="fill:url(#f1376id14)" /><path
           fill="url(#f1376id15)"
           d="m 17.916,3.004 -3.175,8.135 a 4.48,4.48 0 0 1 1.282,0.596 L 20.749,4.457 A 1.6,1.6 0 1 0 17.916,3.004"
           id="path44"
           style="fill:url(#f1376id15)" /><path
           fill="url(#f1376idp)"
           d="m 17.916,3.004 -3.175,8.135 a 4.48,4.48 0 0 1 1.282,0.596 L 20.749,4.457 A 1.6,1.6 0 1 0 17.916,3.004"
           id="path45"
           style="fill:url(#f1376idp)" /><path
           fill="url(#f1376idq)"
           d="m 17.916,3.004 -3.175,8.135 a 4.48,4.48 0 0 1 1.282,0.596 L 20.749,4.457 A 1.6,1.6 0 1 0 17.916,3.004"
           id="path46"
           style="fill:url(#f1376idq)" /><path
           fill="url(#f1376id16)"
           d="m 17.916,3.004 -3.175,8.135 a 4.48,4.48 0 0 1 1.282,0.596 L 20.749,4.457 A 1.6,1.6 0 1 0 17.916,3.004"
           id="path47"
           style="fill:url(#f1376id16)" /></g><g
         filter="url(#f1376id1g)"
         id="g48"><path
           fill="url(#f1376id17)"
           d="m 21.286,15.266 6.1,12.453 -8.21,-11.175 a 1.238,1.238 0 1 1 2.11,-1.278"
           id="path48"
           style="fill:url(#f1376id17)" /></g><g
         filter="url(#f1376id1h)"
         id="g49"><circle
           cx="8.5830002"
           cy="18.754999"
           r="0.70300001"
           fill="#a17170"
           id="circle48" /></g><g
         filter="url(#f1376id1i)"
         id="g50"><path
           stroke="url(#f1376id18)"
           stroke-width="0.2"
           d="M 6.964,20.813 2.51,29.406"
           id="path49"
           style="stroke:url(#f1376id18)" /></g><g
         filter="url(#f1376id1j)"
         id="g51"><path
           stroke="url(#f1376id19)"
           stroke-linecap="round"
           stroke-width="0.2"
           d="m 5.667,29.5 c 1.187,0 3.243,-0.677 4.469,-1.984 1.172,-1.25 1.531,-2.891 1.531,-4.485 v -2.468"
           id="path50"
           style="stroke:url(#f1376id19)" /></g><g
         filter="url(#f1376id1k)"
         id="g52"><path
           stroke="url(#f1376id1a)"
           stroke-linecap="round"
           stroke-width="0.3"
           d="m 13.636,20.469 v 8.562"
           id="path51"
           style="stroke:url(#f1376id1a)" /></g><circle
         cx="13.511"
         cy="29.469"
         r="0.5"
         fill="#724c3c"
         id="circle52" /><circle
         cx="13.511"
         cy="29.469"
         r="0.5"
         fill="url(#f1376idr)"
         id="circle53"
         style="fill:url(#f1376idr)" /><circle
         cx="13.511"
         cy="29.469"
         r="0.5"
         fill="url(#f1376ids)"
         id="circle54"
         style="fill:url(#f1376ids)" /><defs
         id="defs158" /></g><ellipse
       style="fill:#ffffff;stroke-width:0.264583"
       id="path199"
       cx="29.121193"
       cy="94.169075"
       rx="1.0852618"
       ry="1.1530907" /></g></svg>
