<?xml version="1.0" encoding="UTF-8" standalone="no"?>
<!-- Created with Inkscape (http://www.inkscape.org/) -->

<svg
   width="0"
   height="0"
   viewBox="0 0 40 40"
   version="1.1"
   id="svg1"
   xml:space="preserve"
   inkscape:export-filename="singe.svg"
   inkscape:export-xdpi="96"
   inkscape:export-ydpi="96"
   xmlns:inkscape="http://www.inkscape.org/namespaces/inkscape"
   xmlns:sodipodi="http://sodipodi.sourceforge.net/DTD/sodipodi-0.dtd"
   xmlns="http://www.w3.org/2000/svg"
   xmlns:svg="http://www.w3.org/2000/svg"
   xmlns:rdf="http://www.w3.org/1999/02/22-rdf-syntax-ns#"
   xmlns:cc="http://creativecommons.org/ns#"
   xmlns:dc="http://purl.org/dc/elements/1.1/"><defs
     id="defs1" /><sodipodi:namedview
     id="base"
     pagecolor="#ffffff"
     bordercolor="#000000"
     borderopacity="0.3"
     inkscape:pageopacity="0.0"
     inkscape:pageshadow="2"
     inkscape:zoom="0.35"
     inkscape:cx="400"
     inkscape:cy="560"
     inkscape:document-units="px"
     inkscape:showpageshadow="2"
     inkscape:pagecheckerboard="0"
     inkscape:deskcolor="#d1d1d1" /><metadata
     id="metadata1"><rdf:RDF><cc:Work
         rdf:about=""><dc:format>image/svg+xml</dc:format><dc:type
           rdf:resource="http://purl.org/dc/dcmitype/StillImage" /></cc:Work></rdf:RDF></metadata><g
     id="g4"
     transform="matrix(0.26326512,0,0,0.26326512,0.26429639,0.27427315)"><g
       style="fill:none"
       id="g205"
       transform="matrix(1.1775815,0,0,1.1775815,-9.9027926,-9.1792841)"><path
         d="m 46.44,47.88 c 5.1558,0 10.1005,-2.0481 13.7462,-5.6938 C 63.8319,38.5405 65.88,33.5958 65.88,28.44 65.88,23.2842 63.8319,18.3396 60.1862,14.6938 56.5405,11.0481 51.5958,9 46.44,9 41.2842,9 36.3396,11.0481 32.6938,14.6938 29.0481,18.3396 27,23.2842 27,28.44 c 0,5.1558 2.0481,10.1005 5.6938,13.7462 3.6458,3.6457 8.5904,5.6938 13.7462,5.6938 z"
         fill="#b4acbc"
         id="path1" /><path
         d="m 60.03,9 c 2.6751,7.7e-4 5.3215,0.55214 7.7744,1.6198 2.4528,1.0676 4.6597,2.6287 6.4832,4.586 1.8236,1.9574 3.2247,4.2691 4.1163,6.7913 0.8915,2.5222 1.2544,5.2009 1.0661,7.8694 l 7.47,-1.9215 c 25.038,-5.418 47.848,14.3955 48.06,39.96 v 21.6 c 0,7.785 -1.8,14.085 -9.585,14.085 H 99.99 c -6.696,0 -10.521,-3.636 -12.3165,-9.045 H 73.845 c -6.3,0 -12.285,-2.34 -17.685,-4.95 L 54.8865,94.5 47.25,96.75 40.275,94.5 43.875,80.415 C 40.4228,76.649 37.7087,72.268 35.874,67.5 H 18.63 C 13.32,67.5 9,63.18 9,57.87 9,54.72 10.53,51.795 13.095,49.995 L 40.635,30.69 C 40.545,29.97 40.5,29.25 40.5,28.485 40.5119,23.3131 42.5748,18.3571 46.2361,14.7043 49.8974,11.0514 54.8581,8.99999 60.03,9 Z"
         fill="#cdc4d6"
         id="path2" /><path
         d="m 59.985,43.11 c 3.8788,0 7.5987,-1.5409 10.3414,-4.2836 C 73.0691,36.0837 74.61,32.3638 74.61,28.485 74.61,24.6062 73.0691,20.8863 70.3264,18.1435 67.5837,15.4008 63.8638,13.86 59.985,13.86 c -3.8788,0 -7.5987,1.5408 -10.3414,4.2835 -2.7428,2.7428 -4.2836,6.4627 -4.2836,10.3415 0,3.8788 1.5408,7.5987 4.2836,10.3414 2.7427,2.7427 6.4626,4.2836 10.3414,4.2836 z m 61.645,60.462 c -1.408,1.433 -3.089,2.57 -4.942,3.346 -1.854,0.776 -3.844,1.174 -5.853,1.172 l -25.38,-0.045 c -3.5685,-0.006 -6.9932,1.406 -9.5207,3.925 -2.5275,2.519 -3.9508,5.939 -3.9568,9.508 -0.006,3.568 1.4059,6.993 3.925,9.52 2.519,2.528 5.939,3.951 9.5075,3.957 L 103.5,135 c 2.475,0 4.5,-1.98 4.545,-4.5 0,-2.475 -2.025,-4.5 -4.5,-4.5 l -18.09,-0.045 c -2.475,0 -4.455,-1.98 -4.455,-4.455 0,-2.475 1.98,-4.455 4.455,-4.455 l 25.38,0.045 C 124.155,117.09 135,106.245 135,92.925 V 89.55 c -0.008,3.6054 -1.399,7.0702 -3.887,9.68 -2.488,2.61 -5.882,4.161 -9.483,4.342 z"
         fill="#ff8687"
         id="path3" /><path
         d="m 102.676,103.5 c -2.8624,-0.288 -5.6152,-1.255 -8.0296,-2.82 C 92.232,99.1143 90.2257,96.9958 88.794,94.5 H 77.004 C 74.223,94.5 72,96.498 72,99 c 0,2.502 2.223,4.5 4.9995,4.5 z M 38.43,101.745 40.275,94.5 h 14.58 l -1.44,5.67 c -0.63,2.43 -2.025,3.33 -3.915,3.33 h -9.72 c -0.9,0 -1.575,-0.9 -1.35,-1.755 z M 9,57.78 c 0,-1.71 0.45,-3.375 1.305,-4.815 2.07,0.585 3.555,2.43 3.555,4.68 0,2.295 -1.575,4.185 -3.69,4.725 C 9.405,61.02 9,59.445 9,57.78 Z"
         fill="#ff8687"
         id="path4" /><path
         d="m 30.645,56.79 c 0.4787,0 0.9526,-0.0943 1.3949,-0.2775 0.4422,-0.1831 0.844,-0.4516 1.1825,-0.7901 0.3385,-0.3385 0.607,-0.7403 0.7901,-1.1825 0.1832,-0.4423 0.2775,-0.9162 0.2775,-1.3949 0,-0.4787 -0.0943,-0.9526 -0.2775,-1.3949 -0.1831,-0.4422 -0.4516,-0.844 -0.7901,-1.1825 -0.3385,-0.3385 -0.7403,-0.607 -1.1825,-0.7901 C 31.5976,49.5943 31.1237,49.5 30.645,49.5 c -0.9667,0 -1.8938,0.384 -2.5774,1.0676 C 27.384,51.2512 27,52.1783 27,53.145 c 0,0.9667 0.384,1.8938 1.0676,2.5774 0.6836,0.6836 1.6107,1.0676 2.5774,1.0676 z"
         fill="#1c1c1c"
         id="path5" /><circle
         cx="30"
         cy="52"
         r="2"
         fill="#d9d9d9"
         id="circle5" /></g></g></svg>
