<?xml version="1.0" encoding="UTF-8" standalone="no"?>
<!-- Created with Inkscape (http://www.inkscape.org/) -->

<svg
   width="0"
   height="0"
   viewBox="0 0 40 40"
   version="1.1"
   id="svg1"
   xml:space="preserve"
   inkscape:export-filename="lezard.svg"
   inkscape:export-xdpi="96"
   inkscape:export-ydpi="96"
   xmlns:inkscape="http://www.inkscape.org/namespaces/inkscape"
   xmlns:sodipodi="http://sodipodi.sourceforge.net/DTD/sodipodi-0.dtd"
   xmlns="http://www.w3.org/2000/svg"
   xmlns:svg="http://www.w3.org/2000/svg"
   xmlns:rdf="http://www.w3.org/1999/02/22-rdf-syntax-ns#"
   xmlns:cc="http://creativecommons.org/ns#"
   xmlns:dc="http://purl.org/dc/elements/1.1/"><defs
     id="defs1" /><sodipodi:namedview
     id="base"
     pagecolor="#ffffff"
     bordercolor="#000000"
     borderopacity="0.3"
     inkscape:pageopacity="0.0"
     inkscape:pageshadow="2"
     inkscape:zoom="0.35"
     inkscape:cx="400"
     inkscape:cy="560"
     inkscape:document-units="px"
     inkscape:showpageshadow="2"
     inkscape:pagecheckerboard="0"
     inkscape:deskcolor="#d1d1d1" /><metadata
     id="metadata1"><rdf:RDF><cc:Work
         rdf:about=""><dc:format>image/svg+xml</dc:format><dc:type
           rdf:resource="http://purl.org/dc/dcmitype/StillImage" /></cc:Work></rdf:RDF></metadata><g
     inkscape:label="Calque 1"
     id="layer1"
     transform="matrix(0.26636915,0,0,0.26636915,0.15238797,0.09519321)"><g
       id="g3"
       transform="matrix(0.98829766,0,0,0.98829766,0.54529731,-0.65839924)"><g
         id="g216"
         transform="matrix(1.242033,0,0,1.242033,-5.17034,-14.183223)"><path
           fill="#6e4d44"
           d="m 80.07,76.12 c 0,0 3.94,-3.19 4.13,-4.11 0.19,-0.92 -1.69,-3.94 -0.7,-10 0.99,-6.06 7.18,-12.25 10,-10.28 2.82,1.97 2.53,3.24 2.53,3.24 l 2.82,-0.28 2.11,1.55 0.56,3.1 3.38,1.55 3.38,4.08 -2.39,8.66 -10.7,4.43 -15.06,5.42 z"
           id="path1" /><path
           fill="#50362d"
           d="m 89.4,52.52 c 0,0 3.03,-1.14 4.5,0.63 1.06,1.27 0.28,2.96 -0.56,4.15 -0.84,1.2 -1.96,2.72 -2.75,4.08 -0.77,1.34 -1.62,3.24 -1.2,3.66 0.68,0.68 2.25,-1.27 3.17,-2.6 1.6,-2.34 2.99,-4.09 3.59,-4.79 0.84,-0.99 2.12,-1.7 3.59,-0.49 1.55,1.27 -0.14,3.66 -0.63,4.22 -0.49,0.56 -2.53,3.03 -3.24,4.01 -0.7,0.99 -1.55,2.46 -1.06,2.96 0.42,0.42 1.83,-0.84 2.6,-1.62 0.77,-0.77 2.66,-2.85 3.19,-3.38 1.13,-1.13 2.29,-2.36 4.06,-0.92 1.55,1.27 -4.29,10 -4.29,10 l 4.01,-2.46 c 0,0 5,-7.46 1.67,-10.23 -1.95,-1.62 -4.13,-0.05 -4.13,-0.05 0,0 1.55,-2.67 -0.77,-4.72 -2.1,-1.84 -4.43,-0.63 -4.43,-0.63 0,0 0.07,-1.97 -1.9,-3.03 -1.97,-1.04 -4.85,0.65 -5.42,1.21"
           id="path2" /><path
           fill="url(#notoOtter0)"
           d="M 46.82,49.07 16.55,64.42 c 0,0 1.12,11.29 4.36,19.15 4.65,11.26 14.06,23.46 30.41,29.56 12.81,4.79 26.14,6.29 38.22,1.97 9.02,-3.22 12.74,-7.32 18.3,-12.6 5.45,-5.18 11.33,-16.12 11.33,-16.12 0,0 6.34,-10.63 4.79,-25.06 -1.53,-14.24 -11.47,-26.68 -22.31,-29.21 -9.44,-2.21 -9.52,0.28 -5.56,5.42 3.8,4.93 7.88,9.15 9.57,14.36 1.69,5.21 3.38,15.77 -6.34,20.13 C 89.6,76.38 78.48,75.82 70.6,70.61 62.72,65.4 57.23,59.21 54.69,55.41 52.15,51.61 50.75,47.1 50.75,47.1 Z"
           id="path4"
           style="fill:#875b4e;fill-opacity:1" /><path
           fill="#52322a"
           d="m 53.15,104.99 c -0.42,0 -0.83,-0.22 -1.05,-0.61 l -2.06,-3.66 c -0.33,-0.58 -0.12,-1.31 0.46,-1.63 0.58,-0.33 1.31,-0.12 1.63,0.46 l 2.06,3.66 c 0.33,0.58 0.12,1.31 -0.46,1.63 -0.17,0.1 -0.38,0.15 -0.58,0.15 m 9.58,3.99 c -0.47,0 -0.91,-0.27 -1.1,-0.73 l -1.6,-3.75 a 1.201,1.201 0 0 1 2.21,-0.94 l 1.6,3.75 c 0.26,0.61 -0.03,1.31 -0.64,1.57 -0.16,0.07 -0.32,0.1 -0.47,0.1 m 5.96,-6.57 c -0.37,0 -0.73,-0.17 -0.96,-0.48 l -2.07,-2.77 c -0.4,-0.53 -0.29,-1.28 0.24,-1.68 0.53,-0.4 1.28,-0.29 1.68,0.24 l 2.07,2.77 a 1.198,1.198 0 0 1 -0.96,1.92 m 9.71,7.88 c -0.42,0 -0.83,-0.22 -1.05,-0.61 l -1.69,-3 c -0.33,-0.58 -0.12,-1.31 0.46,-1.63 0.58,-0.33 1.31,-0.12 1.63,0.46 l 1.69,3 a 1.194,1.194 0 0 1 -1.04,1.78"
           id="path5" /><path
           fill="url(#notoOtter1)"
           d="m 11.69,63.29 c 2.87,3.56 10.1,9.39 28.06,-1.27 16.49,-9.78 12.32,-20.14 10.61,-23.46 -1.6,-3.1 -3.54,-4.31 -3.54,-4.31 0,0 1.71,-3.72 -1.48,-5.6 -3.62,-2.13 -5.53,1.3 -5.53,1.3 0,0 -7.69,-3.37 -17.7,1.09 C 9.25,36.78 8.69,46.72 8.69,46.72 c 0,0 -3.85,-0.07 -4.32,4.32 -0.56,5.24 4.69,6.01 4.69,6.01 0,0 0.28,3.32 2.63,6.24"
           id="path9"
           style="fill:#875b4e;fill-opacity:1" /><path
           fill="#e0dfe2"
           d="m 44.43,68.5 c 2.32,-1.48 2.46,-5.33 2.53,-7.81 0.07,-2.46 -0.92,-4.25 -2.75,-4.01 -2.18,0.28 -2.11,2.67 -2.11,2.67 0,0 -1.41,-2.89 -3.8,-1.83 -2.51,1.11 -1.06,4.43 -1.06,4.43 0,0 -2.98,-2.18 -4.08,0.92 -0.56,1.58 1.27,4.29 4.01,5.84 2.75,1.55 7.26,-0.21 7.26,-0.21"
           id="path10" /><path
           fill="#fefcfe"
           d="m 39.11,59.21 c -0.54,0.24 -0.63,1.41 0.28,3.17 0.81,1.55 1.79,1.9 2.32,1.55 0.53,-0.35 0.04,-1.72 -0.49,-2.75 -0.35,-0.68 -1.16,-2.4 -2.11,-1.97 m 4.12,1.44 c 0.03,0.81 0.11,2.39 1.09,2.43 0.99,0.04 0.88,-1.97 0.88,-2.46 0,-0.49 -0.04,-1.94 -0.92,-2.01 -0.88,-0.07 -1.09,1.05 -1.05,2.04 m -7.89,3.84 c 0.87,0.97 1.72,2.04 2.5,1.48 0.78,-0.56 -0.53,-1.97 -0.92,-2.5 -0.39,-0.53 -1.34,-1.48 -1.94,-1.06 -0.59,0.42 -0.23,1.41 0.36,2.08"
           id="path11" /><path
           fill="#875b4e"
           d="m 52.03,59.91 c 0,0 3.76,-7.01 12.11,-1.2 8.87,6.17 1.97,13.3 -2.67,13.23 -4.64,-0.07 -7.95,0.42 -10.56,-0.42 -2.61,-0.84 -5,-3.38 -5,-3.38 l -2.46,1.69 c 0,0 0.49,4.79 -1.2,6.83 -1.7,2.05 1.75,11.55 -0.85,14.08 -2.6,2.53 -6.97,4.29 -9.71,3.03 -2.75,-1.27 -5.7,-5.84 -6.26,-9.92 -0.56,-4.08 1.41,-13.59 5.28,-13.87 3.87,-0.28 4.36,0.07 4.36,0.07 0,0 1.27,-4.5 4.65,-4.08 3.38,0.42 4.79,1.97 4.79,1.97 l 0.92,-0.77 c 0,0 -1.2,-1.9 1.27,-4.15 2.46,-2.25 5.28,-0.35 5.28,-0.35 0,0 0.05,-2.13 0.05,-2.76"
           id="path12" /><path
           fill="#6a493b"
           d="m 26.45,81.97 c 0.43,0.9 1.36,-0.05 1.27,-2.82 -0.09,-2.77 0.52,-5.58 2.53,-7.23 2.02,-1.64 4.13,-0.28 4.13,-0.28 0,0 -0.42,1.27 0.05,2.86 0.47,1.59 1.41,2.16 1.17,0.42 -0.23,-1.74 0,-8.73 4.46,-8.02 4.46,0.7 3.53,6.44 1.69,8.96 -1.27,1.74 -3.38,1.45 -3.38,1.74 0,0.28 1.69,5.58 1.88,8.31 0.19,2.72 -0.05,6.34 -3.05,6.76 -3,0.42 -7.04,-0.94 -6.8,0 0.23,0.94 5.82,4.41 10.51,1.88 4.98,-2.69 3.57,-9.39 3.38,-10.65 -0.19,-1.27 -1.17,-4.55 -1.22,-5.21 -0.01,-0.09 1.97,-1.81 2.44,-4.04 0.66,-3.1 0.09,-4.6 0.09,-4.6 0,0 1.83,2.3 4.46,3.05 2.63,0.75 5.77,-0.05 5.77,-0.05 0,0 5.4,1.74 9.24,-0.84 3.85,-2.58 3.93,-5.77 3.71,-6.52 -0.61,-2.06 -0.98,0.24 -1.55,1.22 -0.84,1.45 -2.86,3.38 -6.19,3.89 -3.33,0.52 -4.74,-0.7 -5.26,-0.66 -0.52,0.04 -3.28,1.55 -6.19,-0.47 -3.68,-2.55 -2.7,-5.88 -0.84,-6.38 1.55,-0.42 4.3,0.47 5.4,2.06 1.03,1.5 1.88,3.85 2.21,3.33 0.33,-0.52 0.05,-2.82 -1.08,-4.32 -1.13,-1.5 -2.39,-1.97 -2.44,-2.58 -0.09,-1.17 0.38,-2.21 1.17,-3.1 0.79,-0.89 2.77,-1.41 2.02,-1.97 -0.75,-0.56 -3.28,-0.19 -4.41,1.55 -1.13,1.74 -0.56,3.14 -0.56,3.14 0,0 -3.43,-1.45 -5.73,1.22 -1.82,2.12 -1.08,4.5 -1.08,4.5 0,0 -1.83,-2.86 -5.02,-2.25 -3.19,0.61 -4.32,3.99 -4.32,3.99 0,0 -3,-1.27 -5.73,0.56 -2.73,1.83 -3.61,5.77 -3.52,7.88 0.09,2.13 0.37,3.77 0.79,4.67"
           id="path13" /><path
           fill="#27282d"
           d="m 19.01,47.06 c -2.46,0.43 -2.39,2.67 -2.36,3.45 0.04,0.77 0.81,2.15 2.71,2.01 2.05,-0.15 2.71,-2.08 2.57,-3.31 -0.14,-1.23 -1.51,-2.39 -2.92,-2.15 M 36.4,38.9 c -1.21,1.01 -1.09,2.89 0.14,3.98 1.17,1.03 3.31,1.05 4.19,-0.53 0.85,-1.52 0.28,-2.78 -0.67,-3.55 -0.95,-0.77 -2.78,-0.64 -3.66,0.1 m -8.09,2.96 c -2.33,1.12 -1.6,3.43 -1.79,5.21 -0.22,1.97 -1.52,2.39 -1.52,4.08 0,1.37 2.11,0.97 4.08,1.06 1.65,0.07 3.21,1.83 2.22,3.1 -0.63,0.81 -1.74,0.55 -2.36,-0.04 -0.63,-0.6 -1.16,-0.6 -1.44,-0.14 -0.28,0.46 0.46,2.91 3.34,2.67 2.57,-0.21 3.2,-3.1 3.2,-3.1 0,0 2.33,0.97 4.05,-0.18 1.9,-1.27 1.44,-3.77 0.67,-4.5 -0.77,-0.73 -1.38,-0.25 -1.41,0.04 -0.07,0.63 0.35,0.81 0.42,1.34 0.07,0.53 -0.14,1.3 -0.77,1.65 -0.55,0.3 -1.34,-0.11 -1.65,-0.6 C 35.03,51.96 35,51 35.07,50.48 c 0.21,-1.55 3.83,-3.7 2.96,-5.17 -0.81,-1.37 -1.72,0.25 -4.33,-1.48 -1.07,-0.71 -2.47,-3.38 -5.39,-1.97"
           id="path14" /><path
           fill="#e2e2e4"
           d="m 20.42,67.59 c -0.04,0 -0.09,0 -0.14,-0.01 a 0.736,0.736 0 0 1 -0.6,-0.87 c 0,-0.03 0.46,-2.52 0.88,-5.19 0.42,-2.72 0.98,-4.81 1,-4.9 a 0.75076628,0.75076628 0 1 1 1.45,0.39 c -0.01,0.02 -0.56,2.11 -0.97,4.74 -0.42,2.69 -0.88,5.2 -0.88,5.23 a 0.75,0.75 0 0 1 -0.74,0.61 m 4.55,0.68 c 0,0 -0.03,1.07 -0.84,1 -0.86,-0.07 -0.66,-1.11 -0.66,-1.11 0,0 0.25,-3.51 0.35,-5.44 0.11,-1.94 0.35,-5.09 0.35,-5.09 0,0 0.06,-0.84 0.82,-0.79 0.76,0.05 0.68,0.9 0.68,0.9 0,0 -0.25,3.12 -0.35,5.05 -0.1,1.95 -0.35,5.48 -0.35,5.48 m 2.63,-1.2 c -0.4,0 -0.73,-0.32 -0.75,-0.72 0,0 -0.1,-2.51 -0.17,-3.39 -0.07,-0.9 -0.07,-4.62 -0.07,-4.78 0,-0.41 0.34,-0.75 0.75,-0.75 0.41,0 0.75,0.34 0.75,0.75 0,1.32 0.01,3.98 0.07,4.66 0.07,0.88 0.17,3.34 0.18,3.44 0.02,0.41 -0.3,0.76 -0.72,0.78 -0.02,0.01 -0.03,0.01 -0.04,0.01 M 48.61,54.22 c -0.12,0 -0.25,-0.03 -0.37,-0.1 -0.02,-0.01 -2.4,-1.34 -3.98,-2.13 -1.56,-0.78 -3.9,-1.61 -3.93,-1.62 a 0.754,0.754 0 0 1 -0.46,-0.96 c 0.14,-0.39 0.57,-0.59 0.96,-0.46 0.1,0.04 2.46,0.87 4.1,1.69 1.62,0.81 3.94,2.11 4.04,2.16 0.36,0.2 0.49,0.66 0.29,1.02 -0.13,0.26 -0.38,0.4 -0.65,0.4 m 1.48,-3.06 c -0.12,0 -0.25,-0.03 -0.36,-0.09 -0.02,-0.01 -2.34,-1.29 -4.17,-2 -1.8,-0.7 -4.5,-1.12 -4.52,-1.12 A 0.747,0.747 0 0 1 40.41,47.1 c 0.06,-0.41 0.44,-0.69 0.85,-0.63 0.12,0.02 2.89,0.44 4.84,1.2 1.92,0.75 4.25,2.03 4.35,2.08 0.36,0.2 0.49,0.66 0.29,1.02 -0.13,0.25 -0.39,0.39 -0.65,0.39 m -0.38,-4.79 c -0.04,0 -0.07,0 -0.11,-0.01 -0.03,0 -2.57,-0.39 -4.12,-0.56 -1.51,-0.17 -4.19,-0.07 -4.22,-0.07 -0.41,0.03 -0.76,-0.31 -0.78,-0.72 -0.02,-0.41 0.31,-0.76 0.72,-0.78 0.11,0 2.82,-0.11 4.44,0.07 1.58,0.18 4.08,0.55 4.18,0.57 0.41,0.06 0.69,0.44 0.63,0.85 a 0.76,0.76 0 0 1 -0.74,0.65"
           id="path15" /><path
           fill="url(#notoOtter2)"
           d="m 82.93,106.72 c -0.14,-3.17 0.42,-6.26 0.84,-7.81 1.12,-4.12 2.11,-6.62 4.36,-7.95 5.96,-3.54 9.95,-3.11 12.11,-4.65 2.46,-1.76 7.34,-9.46 10.91,-8.05 2.5,0.99 2.39,5.3 2.39,5.3 0,0 3.87,0.07 4.5,2.39 0.63,2.32 -0.84,4.72 -0.84,4.72 0,0 2.96,1.46 3.19,3.45 0.23,2.06 -0.66,4.27 -5.44,5.82 -4.78,1.55 -10.98,1.64 -10.98,1.64 0,0 -1.4,8.34 -11.05,10.84 -6.26,1.62 -9.78,-0.91 -9.99,-5.7"
           id="path17"
           style="fill:#6e4d44;fill-opacity:1" /><path
           fill="#50362d"
           d="m 83.23,103.27 c -0.42,0.19 -2.34,-9.08 3.61,-13.19 4.83,-3.33 9.71,-2.58 12.44,-4.74 2.72,-2.16 9.24,-11.47 13.89,-7.51 2.53,2.16 1.22,4.79 1.22,4.79 0,0 2.97,-0.64 4.69,2.3 1.74,2.96 -0.75,5.63 -0.75,5.63 0,0 2.96,0.99 3,3.28 0.05,2.3 -0.89,4.65 -3.47,5.82 -2.99,1.36 -7.46,2.53 -10,2.67 -2.53,0.14 -5.44,-0.61 -3.28,-0.94 2.16,-0.33 10.14,-2.86 11.87,-3.38 2.96,-0.89 2.91,-3.1 2.11,-3.94 -1.16,-1.23 -2.25,-0.94 -5.73,0.09 -2.92,0.87 -6.57,2.58 -6.71,1.5 -0.14,-1.08 3.33,-2.25 5.68,-3.57 2.35,-1.31 6.24,-2.72 5.21,-5.11 -1.03,-2.39 -3.28,-1.92 -5.82,-0.38 -2.53,1.55 -6.83,4.79 -7.04,3.52 -0.09,-0.56 4.13,-3.99 5.35,-4.83 1.22,-0.84 3.75,-2.67 2.02,-4.69 -1.73,-2.02 -4.08,0.28 -5.82,1.88 -1.74,1.6 -3.85,4.65 -6.19,5.63 -3.53,1.48 -8.56,1.95 -10.93,3.75 -5.06,3.87 -4.52,11.05 -5.35,11.42"
           id="path18" /></g><circle
         style="fill:#ffffff;fill-opacity:1;stroke-width:0.341753"
         id="path216"
         cx="19.890999"
         cy="48.333706"
         r="1.4646577" /><circle
         style="fill:#ffffff;fill-opacity:1;stroke-width:0.330729"
         id="path216-1"
         cx="43.845238"
         cy="37.249554"
         r="1.4174107" /></g></g></svg>
