<?xml version="1.0" encoding="UTF-8" standalone="no"?>
<!-- Created with Inkscape (http://www.inkscape.org/) -->

<svg
   width="0"
   height="0"
   viewBox="0 0 40 40"
   version="1.1"
   id="svg1"
   xml:space="preserve"
   inkscape:export-filename="herisson.svg"
   inkscape:export-xdpi="96"
   inkscape:export-ydpi="96"
   xmlns:inkscape="http://www.inkscape.org/namespaces/inkscape"
   xmlns:sodipodi="http://sodipodi.sourceforge.net/DTD/sodipodi-0.dtd"
   xmlns="http://www.w3.org/2000/svg"
   xmlns:svg="http://www.w3.org/2000/svg"
   xmlns:rdf="http://www.w3.org/1999/02/22-rdf-syntax-ns#"
   xmlns:cc="http://creativecommons.org/ns#"
   xmlns:dc="http://purl.org/dc/elements/1.1/"><defs
     id="defs1" /><sodipodi:namedview
     id="base"
     pagecolor="#ffffff"
     bordercolor="#000000"
     borderopacity="0.3"
     inkscape:pageopacity="0.0"
     inkscape:pageshadow="2"
     inkscape:zoom="0.35"
     inkscape:cx="400"
     inkscape:cy="560"
     inkscape:document-units="px"
     inkscape:showpageshadow="2"
     inkscape:pagecheckerboard="0"
     inkscape:deskcolor="#d1d1d1" /><metadata
     id="metadata1"><rdf:RDF><cc:Work
         rdf:about=""><dc:format>image/svg+xml</dc:format><dc:type
           rdf:resource="http://purl.org/dc/dcmitype/StillImage" /></cc:Work></rdf:RDF></metadata><g
     inkscape:label="Calque 1"
     id="layer1"
     transform="matrix(0.26636915,0,0,0.26636915,0.15238797,0.09519321)"><g
       id="g3"
       transform="matrix(0.98739032,0,0,0.98739032,-0.51558625,-0.1028653)"><g
         id="g16"
         transform="matrix(1.2673909,0,0,1.2673909,-4.5972514,-6.9320858)"><path
           fill="#6e4f44"
           d="m 97.36,62.59 c 0,0 4.5,-9.71 4.01,-18.37 -0.32,-5.56 0.92,-29.63 -35.69,-30.34 -36.6,-0.7 -38.86,20.74 -38.86,31.25 0,7.88 3.52,15.35 3.52,15.35 0,0 -2.96,-0.7 -6.34,3.24 -3.38,3.94 -3.54,12.47 -1.13,17.18 3.03,5.91 8.02,9.29 8.02,9.29 l 10.42,15.35 c 0,0 -1.55,4.29 -4.22,7.46 -1.8,2.14 -5.58,5.46 -5.49,6.76 0.14,1.97 4.22,0.99 10.14,1.27 5.91,0.28 22.67,-2.53 22.67,-2.53 l 25.06,1.55 c 2.25,0.14 7.11,0.49 7.74,-0.99 0.39,-0.91 -3.42,-4.2 -5,-7.04 -2.04,-3.66 -3.31,-9.43 -3.31,-9.43 0,0 4.65,-9.71 6.62,-11.26 1.97,-1.55 7.46,-8.45 9.01,-12.11 1.55,-3.66 2.11,-10.56 -1.13,-13.8 -2.4,-2.43 -6.04,-2.83 -6.04,-2.83"
           id="path1" /><path
           fill="#6e4f44"
           d="m 86.17,19.51 c 0,0 2.11,-4.5 6.34,-7.25 3.9,-2.53 8.52,-2.25 8.87,-1.9 0.35,0.35 -0.54,3.68 -2.11,5.91 -1.34,1.9 -2.75,3.38 -2.53,3.59 0.39,0.39 1.72,-1.33 3.45,-2.75 2.32,-1.9 5.35,-2.6 5.7,-2.32 0.35,0.28 0.84,5.35 -1.41,9.64 -2.11,4.01 -5.98,6.55 -5.98,6.55 l -5.42,-7.32 z m -41.89,-0.5 c 0,0 -2.53,-5.21 -5.56,-8.31 -3.03,-3.1 -7.74,-4.86 -8.31,-4.29 -0.57,0.57 -0.49,4.01 0.21,6.26 0.7,2.25 2.82,4.5 2.18,4.93 -0.63,0.42 -1.73,-2.13 -2.82,-3.31 -1.76,-1.9 -4.93,-3.45 -5.49,-3.1 -0.56,0.35 -1.9,5.7 0.77,10.63 2.37,4.37 5.84,8.45 5.84,8.45 l 8.17,-7.81 z"
           id="path2" /><path
           fill="#878787"
           d="m 46.96,111.06 c 0,0 -0.5,2.08 -3.1,4.41 -2.96,2.65 -7.98,6.1 -4.79,7.23 3.19,1.13 7.7,1.13 12.39,0.19 4.69,-0.94 9.29,-2.35 12.58,-2.35 3.28,0 9.95,1.22 13.23,1.69 3.28,0.47 7.47,0.88 9.85,0.38 2.21,-0.47 3.26,-1.45 -0.54,-5.4 -1.63,-1.69 -4.43,-6.43 -4.43,-6.43 l -18.96,3.1 z"
           id="path3" /><path
           fill="#875d54"
           d="m 36.45,61.41 c 0,0 -3.85,0.38 -5.44,2.53 -1.59,2.15 -3.75,8.26 -3.38,16.89 0.38,8.63 4.13,15.96 9.01,22.43 4.88,6.48 11.54,13.05 26.65,12.58 15.11,-0.47 22.99,-4.32 26.94,-11.26 3.94,-6.95 8.82,-16.14 9.29,-24.78 0.47,-8.63 -3.85,-16.52 -5.26,-17.55 -1.41,-1.03 -30.5,-2.44 -30.5,-2.44 z"
           id="path4" /><path
           fill="url(#notoOwl0)"
           d="m 42.17,61.41 c 0,0 -9.29,8.35 -7.6,22.99 1.49,12.92 10.7,26.19 28.81,26.28 20.56,0.11 28.14,-14.57 29.19,-26.47 1.22,-13.89 -6.66,-22.34 -7.7,-23.18 -1.03,-0.84 -42.7,0.38 -42.7,0.38"
           id="path7" /><path
           fill="#f2a35b"
           d="m 64.23,73.43 c 0,0 8.07,-8.54 14.45,-10.23 6.38,-1.69 15.58,-0.94 15.58,-0.94 0,0 4.29,-6.43 4.6,-18.77 0.33,-13.25 -6.66,-18.96 -6.66,-18.96 0,0 -11.64,-2.25 -19.71,6.19 -6.76,7.07 -5.91,15.58 -5.91,15.58 l -3.64,-0.61 c 0,0 0.05,-9.46 -6.62,-15.27 -6.67,-5.81 -15.84,-7.3 -15.84,-7.3 0,0 -11.14,5.95 -11.4,19.69 -0.28,14.73 5.28,18.93 5.28,18.93 0,0 9.03,0.23 17.01,3.05 7.98,2.82 12.86,8.64 12.86,8.64"
           id="path8" /><path
           fill="#d0805f"
           d="m 93.23,42.83 c 0,7.3 -3.93,12.97 -12.11,13.89 -8.86,1 -13.24,-5.75 -13.24,-13.05 0,-7.3 5.67,-13.22 12.67,-13.22 7,0 12.68,5.08 12.68,12.38 M 59.65,36.6 c 3.63,6.6 2.18,16.37 -3.87,18.99 -7.13,3.1 -14.67,0.03 -18.3,-6.57 -3.63,-6.6 -1.23,-14.14 4.9,-17.51 6.13,-3.37 13.64,-1.51 17.27,5.09 m 18.7,36.54 c 1.67,0.37 2.53,-2.82 4.46,-1.27 1.92,1.55 -0.8,4.5 -3.8,4.6 -3,0.09 -6.24,-1.97 -5.12,-3.94 1.13,-1.97 2.54,0.19 4.46,0.61 m 7.14,8.12 c 2.39,-0.23 3.57,-2.91 5.16,-1.27 1.59,1.64 -0.99,4.46 -5.02,4.69 -4.04,0.23 -6.19,-1.83 -5.3,-3.43 0.89,-1.58 2.29,0.29 5.16,0.01 M 64.6,82.34 c 2.95,0.17 3.14,-2.82 5.3,-1.78 2.16,1.03 -0.37,5.53 -5.02,5.49 -5.26,-0.05 -7.17,-3.88 -5.73,-5.07 2.07,-1.69 2.26,1.17 5.45,1.36 m -14.36,-8.4 c 2.02,-0.12 1.69,-2.63 4.41,-1.69 2.3,0.8 -0.33,5.21 -4.74,5.16 -3.94,-0.04 -6.1,-3.33 -5.02,-4.32 2.14,-1.94 3.01,0.99 5.35,0.85 m -8.82,7.23 c 1.74,-0.05 2.11,-2.35 4.04,-1.22 1.92,1.13 0.28,4.74 -4.18,4.79 -3.99,0.04 -5.46,-2.73 -4.36,-3.94 1.69,-1.88 2.77,0.42 4.5,0.37"
           id="path9" /><path
           fill="#fffeff"
           d="m 70.52,45.13 c 1.45,4.58 6.87,7.03 11.73,5.49 4.86,-1.54 7.38,-6.41 5.82,-11.4 -1.77,-5.66 -6.91,-6.84 -11.78,-5.3 -4.87,1.53 -7.23,6.62 -5.77,11.21 M 41.75,35.88 c -2.87,3.86 -2.5,9.25 1.6,12.29 4.1,3.04 9.63,3.25 12.76,-0.94 3.56,-4.75 2.07,-9.95 -2.02,-13 -4.09,-3.05 -9.47,-2.2 -12.34,1.65"
           id="path10" /><path
           fill="#303232"
           d="m 84.78,39.76 c 1.2,3.06 0.12,6.56 -3.04,7.81 -3.17,1.25 -7.21,-0.23 -8.42,-3.29 -1.2,-3.06 0.09,-6.62 3.26,-7.88 3.42,-1.36 6.99,0.3 8.2,3.36 m -29.8,4.76 c -1.63,2.85 -6.01,3.71 -9.39,1.55 -2.87,-1.83 -3.09,-5.59 -1.45,-8.45 1.63,-2.85 5.36,-3.33 8.49,-2.02 3.81,1.6 3.99,6.07 2.35,8.92"
           id="path11" /><path
           fill="#2f2f2f"
           d="m 59.39,46.11 c 0,0 -0.16,6.1 0,8.17 0.23,2.96 0.86,5.09 1.74,6.85 0.94,1.88 2.35,3.94 3.05,3.94 0.7,0 2.16,-1.99 3,-3.89 0.7,-1.6 1.45,-3.75 1.78,-7.46 0.28,-3.15 0.28,-6.95 0.28,-6.95 z"
           id="path12" /><path
           fill="#feb903"
           d="m 64.23,40.58 c 3.24,-0.07 4.18,1.92 4.88,3.61 0.42,1.01 0.7,3.1 0.42,3.47 -0.28,0.38 -2.72,0.99 -4.93,0.99 -2.21,0 -5.91,-0.8 -5.96,-1.41 -0.05,-0.61 0.56,-2.89 1.17,-3.8 1.13,-1.69 2.21,-2.82 4.42,-2.86"
           id="path13" /></g><circle
         style="fill:#ffffff;fill-opacity:1;stroke-width:0.264583"
         id="path16"
         cx="60.402912"
         cy="48.108513"
         r="2.6726952" /><circle
         style="fill:#ffffff;fill-opacity:1;stroke-width:0.264583"
         id="path16-4"
         cx="97.848831"
         cy="49.19101"
         r="2.6726952" /></g></g></svg>
