<?xml version="1.0" encoding="UTF-8" standalone="no"?>
<!-- Created with Inkscape (http://www.inkscape.org/) -->

<svg
   width="0"
   height="0"
   viewBox="0 0 40 40"
   version="1.1"
   id="svg1"
   xml:space="preserve"
   inkscape:export-filename="mammouth.svg"
   inkscape:export-xdpi="96"
   inkscape:export-ydpi="96"
   xmlns:inkscape="http://www.inkscape.org/namespaces/inkscape"
   xmlns:sodipodi="http://sodipodi.sourceforge.net/DTD/sodipodi-0.dtd"
   xmlns="http://www.w3.org/2000/svg"
   xmlns:svg="http://www.w3.org/2000/svg"
   xmlns:rdf="http://www.w3.org/1999/02/22-rdf-syntax-ns#"
   xmlns:cc="http://creativecommons.org/ns#"
   xmlns:dc="http://purl.org/dc/elements/1.1/"><defs
     id="defs1"><linearGradient
       id="paint0_linear_337_296"
       x1="65.111702"
       y1="123.923"
       x2="81.397202"
       y2="40.140202"
       gradientUnits="userSpaceOnUse"><stop
         offset="0.362"
         stop-color="white"
         id="stop6" /><stop
         offset="0.412"
         stop-color="#FFFAEF"
         id="stop7" /><stop
         offset="0.51"
         stop-color="#FFEDC7"
         id="stop8" /><stop
         offset="0.646"
         stop-color="#FFD985"
         id="stop9" /><stop
         offset="0.788"
         stop-color="#FFC139"
         id="stop10-0" /><stop
         offset="0.817"
         stop-color="#FFB92E"
         id="stop11-2" /><stop
         offset="0.944"
         stop-color="#FF9700"
         id="stop12-2" /></linearGradient></defs><sodipodi:namedview
     id="base"
     pagecolor="#ffffff"
     bordercolor="#000000"
     borderopacity="0.3"
     inkscape:pageopacity="0.0"
     inkscape:pageshadow="2"
     inkscape:zoom="0.35"
     inkscape:cx="400"
     inkscape:cy="560"
     inkscape:document-units="px"
     inkscape:showpageshadow="2"
     inkscape:pagecheckerboard="0"
     inkscape:deskcolor="#d1d1d1" /><metadata
     id="metadata1"><rdf:RDF><cc:Work
         rdf:about=""><dc:format>image/svg+xml</dc:format><dc:type
           rdf:resource="http://purl.org/dc/dcmitype/StillImage" /></cc:Work></rdf:RDF></metadata><g
     id="g3"
     transform="matrix(0.26695781,0,0,0.26695781,-0.64005486,-0.36759647)"><g
       style="fill:none"
       id="g205"
       transform="matrix(1.0778515,0,0,1.0778515,-3.9287615,-5.7760713)"><path
         d="m 81.7617,132.129 c 0,0 -7.8398,5.426 -8.5781,6.375 -0.7383,0.937 -1.0547,2.039 0.375,2.473 1.4297,0.433 3.7031,-0.164 3.7031,-0.164 0,0 -1.1367,1.687 1.5351,2.308 1.793,0.41 5.2735,-1.406 5.2735,-1.406 0,0 -0.5742,1.605 1.8164,1.933 3.4453,0.481 9.3984,-6.914 10.6172,-9.222 1.2187,-2.309 0.6562,-4.289 0.6562,-4.289 z m -20.625,-4.875 c 0,0 -9.6211,5.766 -10.3945,6.094 -0.7735,0.328 -3.7735,2.004 -2.6368,3.843 0.879,1.43 4.2891,0.329 4.2891,0.329 0,0 -0.7383,1.605 1.207,2.531 1.9571,0.926 6.0469,-1.324 6.0469,-1.324 0,0 -0.457,2.003 2.2031,2.308 3.4102,0.399 11.0039,-10.008 11.0039,-10.008 z"
         fill="#adadb7"
         id="path1" /><path
         d="m 99.5742,44.9648 c 0,0 1.3238,-20.625 -8.7422,-30.1875 C 80.7656,5.21479 68.3906,6.30463 64.5937,7.30072 60.7969,8.2851 54.1875,10.6757 49.5234,17.414 c -6.164,8.9063 -3.6328,17.2617 -6.4922,22.6523 -2.25,4.254 -8.4726,16.4415 -9.457,25.1836 -0.9844,8.7422 -1.6523,25.3008 -1.1601,31.1836 0.4804,5.7535 0.7148,10.8285 3.7968,15.5035 1.8399,2.801 5.5078,2.86 6.7617,1.325 0.7383,-0.903 0.4922,-2.227 0.4922,-2.227 0,0 5.0157,7.477 7.043,9.984 3.3047,4.067 10.1602,10.618 21.3399,12.54 14.7421,2.531 38.9293,-5.274 38.9293,-5.274 0,0 2.075,1.406 5.368,1.57 1.675,0.082 3.632,-1.57 3.386,-3.222 -0.246,-1.653 -2.144,-3.961 -2.554,-4.864 -0.411,-0.902 0.855,-26.1441 -3.106,-43.3003 C 109.91,61.3124 102.539,47.2734 99.5742,44.9648 Z"
         fill="#4d4d4d"
         id="path2" /><path
         d="m 46.6172,44.9648 c 0,0 -7.1485,7.4297 -7.8047,17.6485 -0.5508,8.5898 -0.6094,24.2461 4.3476,38.2737 4.9571,14.027 14.3555,25.629 28.043,28.371 14.8125,2.976 31.2309,-2.25 31.7339,-2.414 0.493,-0.164 -2.9644,-3.844 -5.3901,-7.477 -1.8399,-2.765 -4.2305,-8.906 -4.2305,-8.906 0,0 0.164,4.734 -2.8828,5.109 -2.3203,0.293 -5.6133,-1.98 -8.086,-7.429 -2.4726,-5.45 -5.8359,-20.2387 -6.7617,-32.4145 -0.8203,-10.8867 0.293,-17.8945 1.4063,-20.9531 0.6679,-1.8398 2.0156,-3.0937 2.0156,-3.0937 0,0 3.75,4.5586 9.6914,3.0117 5.7187,-1.4883 7.1484,-7.7578 6.1641,-12.8672 C 93.6797,35.7187 91.2304,29.1211 82.9336,30.9375 73.5117,33 76.7929,45.164 76.7929,45.164 c 0,0 -6.7265,5.4844 -16.125,4.5 -9.4335,-0.9843 -14.0507,-4.6992 -14.0507,-4.6992 z"
         fill="url(#paint0_linear_337_296)"
         id="path3"
         style="fill:url(#paint0_linear_337_296)" /><path
         d="m 55.1953,21.2695 c 0,0 -1.1367,-4.2422 -4.0195,-4.7812 C 45.6211,15.4453 37.9219,19.0781 34.793,21 c -2.5313,1.5586 -6,4.9453 -4.9453,6.5976 1.0546,1.6524 6.7617,0.0586 11.6601,0.8789 3.3867,0.5743 8.086,1.9805 10.0664,1.9219 1.582,-0.0469 3.6328,-2.7539 3.9024,-4.0195 0.2695,-1.2656 0.2695,-3.5156 -0.2813,-5.1094 z"
         fill="#adadb7"
         id="path4" /><path
         d="m 55.4649,21.7031 c 0,0 -4.6758,2.0391 -14.5196,2.6953 -4.1719,0.2813 -11.2148,2.3086 -11.2148,2.3086 0,0 -0.7149,0.7149 0.4453,1.3242 1.1601,0.6094 7.043,-1.0664 10.6641,-1.2656 5.8828,-0.3281 16.664,-1.1015 16.664,-1.1015 z"
         fill="#4d4d4d"
         id="path5" /><path
         d="m 74.7188,25.7812 c 0.1054,2.5196 -2.3438,4.6758 -4.5469,4.3125 -2.7774,-0.4687 -4.1367,-3.1172 -3.8438,-5.7422 0.293,-2.625 2.6836,-4.0078 4.8985,-3.7617 2.2265,0.2344 3.3867,2.5547 3.4922,5.1914 z"
         fill="#000409"
         id="path6" /><circle
         cx="69.5"
         cy="24.5"
         r="2.5"
         fill="#d9d9d9"
         id="circle6" /></g></g></svg>
