<?xml version="1.0" encoding="UTF-8" standalone="no"?>
<!-- Created with Inkscape (http://www.inkscape.org/) -->

<svg
   width="0"
   height="0"
   viewBox="0 0 40 40"
   version="1.1"
   id="svg1"
   xml:space="preserve"
   inkscape:export-filename="perroquet.svg"
   inkscape:export-xdpi="96"
   inkscape:export-ydpi="96"
   xmlns:inkscape="http://www.inkscape.org/namespaces/inkscape"
   xmlns:sodipodi="http://sodipodi.sourceforge.net/DTD/sodipodi-0.dtd"
   xmlns="http://www.w3.org/2000/svg"
   xmlns:svg="http://www.w3.org/2000/svg"
   xmlns:rdf="http://www.w3.org/1999/02/22-rdf-syntax-ns#"
   xmlns:cc="http://creativecommons.org/ns#"
   xmlns:dc="http://purl.org/dc/elements/1.1/"><defs
     id="defs1" /><sodipodi:namedview
     id="base"
     pagecolor="#ffffff"
     bordercolor="#000000"
     borderopacity="0.3"
     inkscape:pageopacity="0.0"
     inkscape:pageshadow="2"
     inkscape:zoom="0.35"
     inkscape:cx="400"
     inkscape:cy="560"
     inkscape:document-units="px"
     inkscape:showpageshadow="2"
     inkscape:pagecheckerboard="0"
     inkscape:deskcolor="#d1d1d1" /><metadata
     id="metadata1"><rdf:RDF><cc:Work
         rdf:about=""><dc:format>image/svg+xml</dc:format><dc:type
           rdf:resource="http://purl.org/dc/dcmitype/StillImage" /></cc:Work></rdf:RDF></metadata><g
     id="g4"
     transform="matrix(0.26409881,0,0,0.26409881,-0.00901674,0.18259967)"><g
       id="g199"
       transform="matrix(1.2366279,0,0,1.2366279,-3.6752353,-5.1231932)"><path
         fill="#cad8dd"
         d="m 103.24,43.26 c 0.09,-1.8 -1.64,-10.16 -8.63,-13.52 -1.86,-0.9 -6.69,-1.38 -5.59,3.66 1.03,4.69 1.58,11.9 1.04,16.51 -0.54,4.55 -2.62,9.92 -8.01,12.19 C 77.37,64.07 72.03,63.31 68.12,59.97 62.92,55.52 61.31,48.5 61.25,41.92 61.08,24.17 57.54,14.97 43.26,11.8 39.06,10.87 33.89,11 29.6,12.32 c -5.26,1.55 -12.49,4.49 -19.14,16.02 -6.68,11.57 -7.84,27.11 -5.72,40 7.16,43.53 42.02,54.32 67.34,46.64 28.11,-8.52 35.96,-32.27 38.37,-46.49 1.32,-7.76 2.4,-15.1 7.17,-21.71 2.94,-4.07 8.98,-8.93 5.01,-11.53 -7.8,-5.1 -17.39,3.59 -19.39,8.01"
         id="path1" /><g
         fill="#212121"
         id="g2"><circle
           cx="28.799999"
           cy="22.66"
           r="3.29"
           id="circle1" /><circle
           cx="50.080002"
           cy="27.459999"
           r="3.29"
           id="circle2" /></g><g
         fill="#212121"
         id="g3"><path
           d="m 42,31.69 c -0.26,1.15 -3,2.11 -4.45,1.78 -1.45,-0.33 -3.52,-2.37 -3.26,-3.52 0.26,-1.15 2.15,-1.48 4.27,-1 2.13,0.48 3.7,1.58 3.44,2.74"
           id="path2" /><path
           d="m 45.28,39 c -0.31,0.14 -1.94,1.02 -4.03,0.27 -2.2,-0.79 -2.51,-2.01 -2.84,-2.88 -0.46,-1.21 0.38,-4.41 0.38,-4.41 l -0.85,-0.23 -0.87,-0.16 c 0,0 -0.62,3.25 -1.55,4.15 -0.67,0.64 -1.47,1.61 -3.8,1.39 -2.21,-0.22 -3.31,-1.71 -3.53,-1.97 -0.22,-0.26 -0.97,-0.37 -0.71,0.52 0.27,0.94 1.21,2.56 4.07,3.21 2.47,0.56 4.51,-0.7 5.02,-1.06 0.31,0.54 1.61,2.55 4.08,3.11 2.86,0.65 4.41,-0.42 5.05,-1.15 0.61,-0.71 -0.11,-0.94 -0.42,-0.79"
           id="path3" /></g><path
         fill="#212121"
         d="m 15.15,29.71 c 0.68,-0.93 1.72,-1.59 2.83,-1.97 1.11,-0.39 2.3,-0.52 3.46,-0.49 1.16,0.04 2.31,0.24 3.41,0.59 1.09,0.35 2.18,0.83 3.03,1.61 -1.06,-0.42 -2.14,-0.65 -3.22,-0.85 -1.08,-0.19 -2.17,-0.33 -3.26,-0.35 -2.16,-0.07 -4.32,0.22 -6.25,1.46 m -1.77,6.35 c 1.21,-2.33 3.4,-4.21 5.98,-5.07 1.29,-0.42 2.67,-0.59 4.01,-0.44 1.34,0.13 2.63,0.58 3.76,1.25 -2.55,-0.63 -5.1,-0.67 -7.46,0.13 -2.36,0.78 -4.44,2.28 -6.29,4.13 m 3.49,3.04 c 0.21,-0.96 0.68,-1.86 1.27,-2.67 0.6,-0.81 1.36,-1.49 2.23,-2.03 0.43,-0.27 0.91,-0.46 1.37,-0.66 0.49,-0.13 0.97,-0.3 1.48,-0.33 1,-0.15 2.01,-0.01 2.95,0.26 -0.98,0.14 -1.91,0.23 -2.79,0.5 -0.89,0.24 -1.72,0.6 -2.49,1.08 -1.57,0.94 -2.85,2.29 -4.02,3.85 m 42.52,0.58 c -1.21,-1.95 -3.04,-3.13 -5.02,-4.01 -0.99,-0.45 -2.03,-0.78 -3.09,-1.08 -1.07,-0.28 -2.14,-0.53 -3.27,-0.61 1.1,-0.34 2.29,-0.31 3.43,-0.16 1.14,0.15 2.27,0.47 3.34,0.93 1.06,0.48 2.08,1.1 2.91,1.93 0.82,0.82 1.48,1.87 1.7,3 m -1.31,6.72 c -0.73,-2.51 -1.83,-4.82 -3.54,-6.64 -1.68,-1.84 -3.94,-3.03 -6.48,-3.7 1.31,-0.05 2.66,0.18 3.9,0.71 1.25,0.51 2.38,1.32 3.31,2.31 1.85,2 2.87,4.69 2.81,7.32 m -4.76,0.81 C 52.93,45.3 52.35,43.53 51.33,42.02 a 9.422,9.422 0 0 0 -1.79,-2.05 c -0.68,-0.63 -1.48,-1.11 -2.31,-1.65 0.96,0.15 1.94,0.46 2.77,1.03 0.45,0.24 0.81,0.61 1.2,0.94 0.34,0.38 0.69,0.75 0.96,1.19 0.55,0.85 0.95,1.8 1.14,2.79 0.2,0.96 0.24,1.97 0.02,2.94"
         id="path4" /><path
         fill="#a8bac1"
         d="m 32.25,17.35 c -0.16,0.49 -0.13,1.06 0.16,1.48 0.36,0.53 1.07,0.75 1.7,0.66 1.44,-0.2 3.65,-2.1 2.19,-3.53 -1.34,-1.3 -3.54,-0.17 -4.05,1.39 m 16.99,3.83 c -0.07,0.51 -0.34,1.01 -0.78,1.27 -0.55,0.32 -1.28,0.22 -1.82,-0.13 -1.22,-0.79 -2.4,-3.47 -0.46,-4.13 1.77,-0.6 3.27,1.36 3.06,2.99"
         id="path5" /><path
         fill="url(#notoSeal0)"
         d="M 98.67,74.14 C 94.1,77.6 78.61,86.42 60.98,68.05 54.17,60.95 48.04,56.51 36.67,59.08 22.94,62.19 20,70.34 17.64,76.91 c -2.73,7.63 -2.73,12.15 -1.57,17.52 11.42,21.72 37.4,26.2 56.01,20.56 28.11,-8.52 35.96,-32.27 38.37,-46.49 0.81,-4.78 1.54,-9.41 3.09,-13.8 0.13,-0.61 0.31,-1.2 0.54,-1.77 -0.47,0.51 -6.49,14.45 -15.41,21.21"
         id="path6" /><path
         fill="#78909c"
         d="m 111.15,35.53 c -3.21,1.69 -5.85,4.37 -7.23,6.51 C 99.17,26.88 91.56,28.99 90.7,29.29 c -0.97,0.35 -1.55,1 -1.76,1.93 1,-0.94 4.31,-2.02 8.15,2.16 2,2.42 3.28,6.63 3.5,9.66 0.61,8.07 -1.99,13.33 -3.45,15.6 -0.28,0.43 0.38,1.05 0.89,0.67 1.53,-1.14 3.25,-3.79 4.58,-7.8 1.44,-4.33 3.35,-11.04 10.81,-14.49 3.68,-1.7 6.75,-1.75 8.59,-1.14 1.4,0.47 1.93,1.51 1.93,1.51 0,-1.08 -0.61,-2.2 -1.65,-2.8 -0.65,-0.38 -4.57,-2.54 -11.14,0.94"
         id="path7" /><path
         fill="#cad8dd"
         d="m 58.08,56.22 c 2.91,11.84 -1.18,15.31 -1.26,26.46 -0.07,8.86 2.78,17.83 9.51,15.79 5.03,-1.52 12.49,-21.04 8.83,-30.88"
         id="path8" /><path
         fill="#728e9c"
         d="m 59.6,58.07 c 1.93,9.91 -2.12,18.1 -1.21,28.44 0.71,8.7 4.35,10.72 5.96,10.8 1.74,0.23 3.1,-1.2 4.14,-2.76 1.19,-1.78 2.65,-4.25 3.91,-7.3 2.93,-7.35 3.35,-16 2.89,-19.07 -0.22,-0.95 0.56,-1.04 0.84,-0.17 0.29,0.9 0.84,3.45 0.48,9.79 -0.25,3.47 -0.95,6.91 -2.03,10.23 -0.53,1.66 -2.14,6.13 -4.79,9.53 -0.61,0.73 -1.95,2.92 -5.54,2.65 -1.08,-0.03 -7.58,-0.97 -8.66,-13.42 -0.13,-1.77 -0.39,-5.97 0.58,-10.51 0.6,-3.46 1.69,-6.68 2.12,-9.97 0.42,-2.68 0.12,-5.41 0.03,-8.19 -0.04,-1.04 1.03,-1.32 1.28,-0.05"
         id="path9" /><path
         fill="#cad8dd"
         d="m 18.31,65.27 c 2.89,10.91 23.71,14.25 28.76,32.13 1.54,5.46 -2.37,7.48 -5.89,7.48 -19.2,0 -28.96,-15.8 -28.96,-15.8"
         id="path10" /><path
         fill="#728e9c"
         d="m 19.17,67.08 c 1.78,2.45 3.99,4.53 6.45,6.25 3.03,2.12 6.27,4.01 9.35,6.23 3.11,2.18 6.05,4.73 8.51,7.79 5.21,7.59 5.62,12.33 5.2,14.01 a 5.934,5.934 0 0 1 -1.91,3.1 c -1.66,1.32 -4.26,1.94 -6.25,1.81 -3.89,-0.13 -7.78,-0.91 -11.36,-2.38 -3.6,-1.44 -6.89,-3.55 -9.76,-6.06 -2,-1.79 -3.51,-3.4 -4.94,-5.65 -0.77,-1.22 -1.21,-2.65 -0.13,-1.43 6.66,7.58 12.22,9.8 15.64,10.96 3.43,1.12 7,1.79 10.6,1.74 0.47,0 3.12,-0.15 4.3,-1.19 0.99,-0.85 1.26,-2.2 0.94,-3.77 C 44.83,94.35 41.92,87.44 32.82,80.85 29.08,78.15 20,72 18.31,67.34 c -0.39,-1.08 0.38,-0.93 0.86,-0.26"
         id="path11" /></g><ellipse
       style="fill:#ffffff;fill-opacity:1;stroke-width:0.301821"
       id="path199"
       cx="57.333954"
       cy="27.740398"
       rx="2.0452626"
       ry="1.9758791" /><ellipse
       style="fill:#ffffff;fill-opacity:1;stroke-width:0.316689"
       id="path201"
       cx="17.688038"
       cy="63.659626"
       rx="1.7309897"
       ry="0.67694688"
       transform="matrix(0.73294046,-0.68029279,0.74179721,0.67062426,0,0)" /><ellipse
       style="fill:#ffffff;fill-opacity:1;stroke-width:0.264583"
       id="path202"
       cx="57.586708"
       cy="31.879566"
       rx="0.47480208"
       ry="0.45219243" /><ellipse
       style="fill:#ffffff;fill-opacity:1;stroke-width:0.301821"
       id="path199-6"
       cx="31.37961"
       cy="21.518864"
       rx="2.0452626"
       ry="1.9758791" /><ellipse
       style="fill:#ffffff;fill-opacity:1;stroke-width:0.316689"
       id="path201-8"
       cx="4.8483305"
       cy="41.357574"
       rx="1.7309897"
       ry="0.67694688"
       transform="matrix(0.73294046,-0.68029279,0.74179721,0.67062426,0,0)" /><ellipse
       style="fill:#ffffff;fill-opacity:1;stroke-width:0.264583"
       id="path202-8"
       cx="31.632364"
       cy="25.658031"
       rx="0.47480208"
       ry="0.45219243" /></g></svg>
