<?xml version="1.0" encoding="UTF-8" standalone="no"?>
<!-- Created with Inkscape (http://www.inkscape.org/) -->

<svg
   width="0"
   height="0"
   viewBox="0 0 40 40"
   version="1.1"
   id="svg1"
   xml:space="preserve"
   inkscape:export-filename="aigle.svg"
   inkscape:export-xdpi="96"
   inkscape:export-ydpi="96"
   xmlns:inkscape="http://www.inkscape.org/namespaces/inkscape"
   xmlns:sodipodi="http://sodipodi.sourceforge.net/DTD/sodipodi-0.dtd"
   xmlns="http://www.w3.org/2000/svg"
   xmlns:svg="http://www.w3.org/2000/svg"
   xmlns:rdf="http://www.w3.org/1999/02/22-rdf-syntax-ns#"
   xmlns:cc="http://creativecommons.org/ns#"
   xmlns:dc="http://purl.org/dc/elements/1.1/"><defs
     id="defs1" /><sodipodi:namedview
     id="base"
     pagecolor="#ffffff"
     bordercolor="#000000"
     borderopacity="0.3"
     inkscape:pageopacity="0.0"
     inkscape:pageshadow="2"
     inkscape:zoom="0.35"
     inkscape:cx="400"
     inkscape:cy="560"
     inkscape:document-units="px"
     inkscape:showpageshadow="2"
     inkscape:pagecheckerboard="0"
     inkscape:deskcolor="#d1d1d1" /><metadata
     id="metadata1"><rdf:RDF><cc:Work
         rdf:about=""><dc:format>image/svg+xml</dc:format><dc:type
           rdf:resource="http://purl.org/dc/dcmitype/StillImage" /></cc:Work></rdf:RDF></metadata><g
     id="g2"
     transform="matrix(0.26496087,0,0,0.26496087,-0.26981617,-0.05643393)"><g
       style="fill:none"
       id="g205"
       transform="matrix(0.99724654,0,0,0.99724654,0.33219603,-3.6632703)"><path
         d="m 65.1305,74.863 24.0657,0.2595 c 0,0 2.2885,2.3712 4.3884,0.0826 2.1116,-2.2886 14.0504,-14.227 15.6304,-15.8078 1.581,-1.5808 3.87,-4.1289 5.97,-4.1289 2.1,0 10.888,6.9366 14.935,10.0981 2.878,2.2532 10.192,8.6118 12.115,9.1308 1.935,0.5309 6.677,1.4038 6.677,3.5155 0,2.1116 -6.677,1.4038 -8.612,1.2269 -1.934,-0.177 -13.177,-7.727 -14.935,-8.7887 -1.757,-1.0499 -7.208,-5.1788 -8.257,-5.1788 -1.05,0 -16.162,14.8404 -16.162,14.8404 0,0 9.485,-3.3385 12.115,-4.3884 2.631,-1.0499 5.45,-2.2886 6.854,-2.1117 1.404,0.177 11.243,11.0655 12.823,12.4693 1.581,1.4039 6.677,6.3232 8.081,7.2079 1.404,0.873 10.193,4.5654 9.131,6.8543 -1.062,2.288 -11.856,-1.1564 -13.649,-2.0529 -2.112,-1.05 -7.727,-4.9193 -11.124,-8.6707 -0.921,-1.0146 -5.627,-5.9693 -7.208,-6.3232 -1.581,-0.3539 -18.4506,6.2406 -18.4506,6.2406 0,0 11.9506,-0.7904 13.8736,0.2595 1.934,1.0499 7.55,13.3897 8.611,15.9027 1.404,3.338 5.793,13.967 7.208,15.725 1.404,1.757 6.677,6.323 5.096,8.435 -1.58,2.111 -8.34,-3.079 -9.579,-4.837 -1.227,-1.758 -5.473,-6.76 -11.277,-17.825 -1.876,-3.587 -4.271,-8.4351 -5.333,-9.1311 -1.05,-0.7078 -11.419,1.0499 -11.419,1.0499 0,0 -1.05,8.2582 -0.7079,10.8882 0.354,2.631 5.0959,24.243 5.9689,28.631 0.873,4.389 0.873,6.5 -0.707,7.031 -1.5812,0.531 -3.5159,-1.227 -5.6276,-6.146 -1.0499,-2.454 -7.314,-20.208 -8.1634,-22.567 -1.5808,-4.389 -1.1443,-11.856 -1.1443,-11.856 L 51.4462,99.1056 c 0,0 -4.4829,0.1769 -5.1789,1.4034 -0.7078,1.227 -3.9519,15.985 -4.8367,18.97 -0.873,2.984 -7.2905,14.758 -7.9983,15.631 -0.7078,0.873 -2.4065,3.468 -4.3884,1.227 -1.4038,-1.581 1.4038,-5.628 2.2886,-8.954 0,0 2.2886,-5.273 2.6307,-8.612 0.3539,-3.339 2.7369,-22.9331 3.6924,-24.2426 1.4038,-1.9347 6.3231,-3.8694 6.3231,-3.8694 0,0 -3.598,-1.4038 -5.7922,-2.1942 -1.569,-0.5662 -4.5654,-1.5808 -4.9193,-1.4982 -0.9202,0.2242 -6.5001,9.3077 -8.7887,12.4693 -2.2886,3.1611 -10.3695,12.1151 -11.4194,12.8231 -1.0499,0.708 -3.6924,1.935 -4.74233,-0.177 -1.04992,-2.111 1.75773,-3.692 3.33853,-5.792 1.5808,-2.112 7.7269,-11.4195 9.6616,-14.758 1.9347,-3.3385 7.3731,-14.227 9.1308,-14.9348 1.7577,-0.7079 13.0002,4.5654 13.0002,4.5654 0,0 -6.3232,-5.2143 -8.9539,-7.3141 -2.6307,-2.1117 -4.7187,-5.2968 -6.0871,-4.8013 -1.3685,0.4954 -7.786,6.7596 -10.5936,9.0482 C 15.0056,80.3839 8.17521,84.855 6.03998,85.7397 3.49185,86.7897 1.29763,86.0936 0.943727,84.6898 0.589821,83.286 5.50912,79.9475 9.20154,76.7859 12.894,73.6243 17.5773,67.9029 20.0901,65.4609 c 3.1615,-3.079 6.1461,-6.2523 7.7269,-7.4084 3.0436,-2.2296 20.7271,15.2297 20.7271,15.2297 0,0 -9.3077,-13.0001 -11.2424,-15.6308 -1.9347,-2.6307 -3.5155,-5.7923 -4.0345,-7.031 -0.5309,-1.2268 -1.05,-3.6924 0.8729,-5.0962 1.9347,-1.4038 4.5654,-1.4038 7.3731,2.4537 2.2768,3.1262 19.6772,26.6964 19.6772,26.6964 z"
         fill="#865b52"
         id="path1" /><path
         d="m 90.498,76.8674 c 0,0 17.683,-14.64 17.448,-33.6093 C 107.71,24.2887 93.6124,15.6534 82.889,15.0399 70.7146,14.3321 52.6772,23.0028 51.8514,43.2581 c -0.814,20.2552 7.9629,31.0376 7.9629,31.0376 0,0 -9.6026,1.9936 -11.5963,13.8141 -1.1797,7.0191 2.0762,21.1872 18.5093,23.7702 20.8451,3.28 29.2444,-12.2683 28.572,-23.0742 C 94.8274,81.3148 90.498,76.8674 90.498,76.8674 Z"
         fill="#b3875d"
         id="path2" /><path
         d="m 72.9401,67.832 c 4.3766,0.1062 7.8331,0.7432 10.5346,2.0173 6.4647,3.0436 8.5409,8.2696 7.8803,7.9983 -1.4628,-0.6135 -7.0899,-6.2996 -19.7362,-6.4175 -6.8068,-0.059 -11.2424,3.1615 -12.1154,3.0789 -0.7432,-0.0707 5.7097,-6.8539 13.4367,-6.677 z"
         fill="#865b52"
         id="path3" /><path
         d="m 78.0127,57.9226 c -0.0708,0 -0.1297,0 -0.2005,-0.0118 -0.8848,-0.1062 -1.5218,-0.9201 -1.4039,-1.8049 l 0.5899,-4.6834 c 0.1062,-0.8847 0.9201,-1.51 1.8049,-1.4038 0.8848,0.1062 1.5218,0.9202 1.4038,1.8049 l -0.5898,4.6834 c -0.1062,0.814 -0.8022,1.4156 -1.6044,1.4156 z m 12.2098,3.4211 c -0.2041,-0.0161 -0.4038,-0.068 -0.5899,-0.1534 -0.3874,-0.1883 -0.6844,-0.5224 -0.8259,-0.9293 -0.1415,-0.4068 -0.116,-0.8532 0.0709,-1.2413 l 2.3712,-4.8721 c 0.3893,-0.8022 1.3685,-1.1443 2.1706,-0.755 0.8022,0.3893 1.1443,1.3567 0.755,2.1706 l -2.3711,4.8722 c -0.295,0.6252 -0.932,0.9673 -1.5808,0.9083 z M 65.3547,58.1586 c -0.7786,0 -1.4628,-0.5545 -1.5926,-1.3449 l -0.814,-4.8013 c -0.072,-0.4238 0.0265,-0.8588 0.2741,-1.2102 0.2475,-0.3514 0.6239,-0.5906 1.0472,-0.6655 0.8847,-0.1534 1.7223,0.4365 1.8757,1.3212 l 0.8139,4.8014 c 0.0395,0.2333 0.0276,0.4725 -0.0349,0.7008 -0.0624,0.2283 -0.1739,0.4402 -0.3266,0.621 -0.1527,0.1808 -0.3431,0.3262 -0.5577,0.4259 -0.2146,0.0997 -0.4484,0.1514 -0.6851,0.1516 z M 72.2676,41.289 c -0.8729,0 -1.5925,-0.696 -1.6161,-1.5808 l -0.118,-4.5653 c -0.0236,-0.8966 0.6842,-1.6398 1.5808,-1.6634 0.9201,0.0118 1.6397,0.6842 1.6633,1.5808 l 0.118,4.5654 c 0.0236,0.8965 -0.6842,1.6397 -1.5808,1.6633 z m 15.5837,1.8757 c -0.2467,5e-4 -0.4902,-0.0554 -0.7119,-0.1636 -0.2217,-0.1081 -0.4157,-0.2656 -0.5672,-0.4603 -0.1514,-0.1947 -0.2563,-0.4215 -0.3065,-0.663 -0.0503,-0.2416 -0.0446,-0.4914 0.0166,-0.7303 l 1.2859,-5.0373 c 0.2241,-0.873 1.0971,-1.392 1.9701,-1.1679 0.8729,0.2241 1.392,1.1089 1.1679,1.9701 l -1.2859,5.0372 c -0.1887,0.7315 -0.8494,1.2151 -1.569,1.2151 z"
         fill="#865b52"
         id="path4" /><path
         d="m 67.4894,89.6813 c 0.3096,-2.8958 -1.3983,-5.4528 -3.8147,-5.7111 -2.4165,-0.2583 -4.6263,1.8798 -4.9359,4.7756 -0.3096,2.8958 1.3984,5.4528 3.8148,5.7111 2.4164,0.2583 4.6262,-1.8798 4.9358,-4.7756 z"
         fill="#050402"
         id="path5" /><path
         d="m 78.2251,96.3568 c 2.4301,0 4.4002,-2.3609 4.4002,-5.2732 0,-2.9123 -1.9701,-5.2732 -4.4002,-5.2732 -2.4302,0 -4.4003,2.3609 -4.4003,5.2732 0,2.9123 1.9701,5.2732 4.4003,5.2732 z"
         fill="#050402"
         id="path6" /><path
         d="m 87.3032,92.7955 c 1.6204,-0.1655 2.752,-2.0809 2.5276,-4.2781 -0.2243,-2.1973 -1.7198,-3.8443 -3.3402,-3.6788 -1.6204,0.1654 -2.7521,2.0808 -2.5277,4.278 0.2244,2.1973 1.7199,3.8443 3.3403,3.6789 z"
         fill="#050402"
         id="path7" /><path
         d="m 58.0734,85.398 c 0.4406,-2.1642 -0.496,-4.1821 -2.0921,-4.5071 -1.5961,-0.3249 -3.2471,1.1661 -3.6878,3.3304 -0.4406,2.1642 0.496,4.1821 2.0921,4.5071 1.5961,0.325 3.2471,-1.1661 3.6878,-3.3304 z"
         fill="#050402"
         id="path8" /><circle
         cx="63.5"
         cy="87.5"
         r="2.5"
         fill="#d9d9d9"
         id="circle8" /><circle
         cx="78.5"
         cy="89.5"
         r="2.5"
         fill="#d9d9d9"
         id="circle9" /><circle
         cx="86.5"
         cy="87.5"
         r="1.5"
         fill="#d9d9d9"
         id="circle10" /><circle
         cx="55.5"
         cy="83.5"
         r="1.5"
         fill="#d9d9d9"
         id="circle11" /><circle
         cx="63.5"
         cy="87.5"
         r="2.5"
         fill="#d9d9d9"
         id="circle12" /></g></g></svg>
