<?xml version="1.0" encoding="UTF-8" standalone="no"?>
<!-- Created with Inkscape (http://www.inkscape.org/) -->

<svg
   width="0"
   height="0"
   viewBox="0 0 40 40"
   version="1.1"
   id="svg1"
   xml:space="preserve"
   inkscape:export-filename="tigre.svg"
   inkscape:export-xdpi="96"
   inkscape:export-ydpi="96"
   xmlns:inkscape="http://www.inkscape.org/namespaces/inkscape"
   xmlns:sodipodi="http://sodipodi.sourceforge.net/DTD/sodipodi-0.dtd"
   xmlns="http://www.w3.org/2000/svg"
   xmlns:svg="http://www.w3.org/2000/svg"
   xmlns:rdf="http://www.w3.org/1999/02/22-rdf-syntax-ns#"
   xmlns:cc="http://creativecommons.org/ns#"
   xmlns:dc="http://purl.org/dc/elements/1.1/"><defs
     id="defs1"><clipPath
       id="clip0_337_242"><rect
         width="151"
         height="151"
         fill="#ffffff"
         id="rect708"
         x="0"
         y="0" /></clipPath></defs><sodipodi:namedview
     id="base"
     pagecolor="#ffffff"
     bordercolor="#000000"
     borderopacity="0.3"
     inkscape:pageopacity="0.0"
     inkscape:pageshadow="2"
     inkscape:zoom="0.35"
     inkscape:cx="400"
     inkscape:cy="560"
     inkscape:document-units="px"
     inkscape:showpageshadow="2"
     inkscape:pagecheckerboard="0"
     inkscape:deskcolor="#d1d1d1" /><metadata
     id="metadata1"><rdf:RDF><cc:Work
         rdf:about=""><dc:format>image/svg+xml</dc:format><dc:type
           rdf:resource="http://purl.org/dc/dcmitype/StillImage" /></cc:Work></rdf:RDF></metadata><g
     id="g4"
     transform="matrix(0.26126407,0,0,0.26126407,-0.00821371,1.2173431)"><g
       style="fill:none"
       id="g205"
       transform="matrix(0.99288269,0,0,0.99288269,1.0056883,-4.5343258)"><g
         clip-path="url(#clip0_337_242)"
         id="g706"
         transform="translate(0,-26)"><path
           d="m 41.2817,83.5617 c 0,41.2813 27.5785,40.5733 21.635,42.2713 C 33.5556,134.222 25.993,93.88 23.2204,93.88 13.2461,93.88 0,92.1058 0,83.5617 0,75.0092 10.3183,62.9166 25.8,62.9166 c 9.9786,0 15.4817,12.0926 15.4817,20.6451 z M 151,120.12 c 0,4.631 -14.756,-3.108 -20.972,0 -8.389,4.195 -8.389,-3.758 -8.389,-8.388 0,-4.631 5.633,-4.195 12.583,-4.195 6.95,0 16.778,7.949 16.778,12.583 z"
           fill="#77b255"
           id="path694" /><path
           d="m 70.1102,139.016 c 0,11.581 -5.3647,11.984 -11.9836,11.984 -6.6188,0 -11.9877,-0.407 -11.9877,-11.984 0,-2.051 0.3565,-4.316 0.9815,-6.656 2.8942,-10.864 11.5515,-23.304 16.9959,-23.304 6.6188,0 5.9939,18.38 5.9939,29.96 z m 35.9508,0 c 0,11.581 5.36,11.984 11.979,11.984 6.623,0 11.988,-0.407 11.988,-11.984 -0.041,-2.251 -0.37,-4.489 -0.982,-6.656 -2.898,-10.864 -11.551,-23.304 -16.996,-23.304 -6.618,0 -5.989,18.38 -5.989,29.96 z"
           fill="#77b255"
           id="path696" /><path
           d="m 134.222,113.25 c 0,16.778 -21.597,16.778 -48.2359,16.778 -26.6389,0 -48.2361,0 -48.2361,-16.778 0,-27.7966 21.5972,-50.3334 48.2361,-50.3334 26.6389,0 48.2359,22.5368 48.2359,50.3334 z"
           fill="#3e721d"
           id="path698" /><path
           d="m 20.9723,79.6944 c 2.3165,0 4.1944,-1.8779 4.1944,-4.1944 0,-2.3165 -1.8779,-4.1945 -4.1944,-4.1945 -2.3166,0 -4.1945,1.878 -4.1945,4.1945 0,2.3165 1.8779,4.1944 4.1945,4.1944 z"
           fill="#292f33"
           id="path700" /><path
           d="m 99.2699,105.281 c 0,15.062 -5.9478,16.358 -13.2838,16.358 -7.3361,0 -13.2838,-1.3 -13.2838,-16.358 0,-15.0585 5.9435,-33.9755 13.2838,-33.9755 7.3402,0 13.2838,18.917 13.2838,33.9755 z m 26.5631,-4.614 c 3.654,14.605 -3.288,16.777 -10.624,16.777 -7.336,0 -10.625,2.895 -10.625,-12.163 0,-15.0585 -4.6808,-27.2643 2.655,-27.2643 7.332,0 14.4,5.8722 18.594,22.6503 z m -58.4409,4.614 c 0,15.062 -3.2927,12.163 -10.6287,12.163 -7.3361,0 -14.2779,-2.172 -10.6246,-16.777 4.1945,-16.7781 13.6362,-22.6503 20.9723,-22.6503 7.3402,0 0.281,12.2058 0.281,27.2643 z"
           fill="#5c913b"
           id="path702" /><circle
           cx="20.5"
           cy="74.5"
           r="2.5"
           fill="#d9d9d9"
           id="circle704" /></g></g></g></svg>
