<svg width="32" height="25" viewBox="0 0 32 25" fill="none" xmlns="http://www.w3.org/2000/svg">
<g clip-path="url(#clip0_339_214)">
<path d="M17.7047 2.64175L16.5664 0.307764C16.3782 -0.0975098 15.7898 -0.112158 15.5823 0.307764L14.444 2.64175L11.9212 3.00796C11.4726 3.07632 11.2796 3.63784 11.6125 3.97476L13.4455 5.7814L13.0113 8.32534C12.9438 8.77944 13.4069 9.13101 13.8217 8.92104L16.084 7.71011L18.3318 8.90151C18.7467 9.11147 19.2146 8.75991 19.1422 8.30581L18.7081 5.76187L20.5411 3.97476C20.8691 3.64272 20.6809 3.0812 20.2323 3.00796L17.7096 2.64175H17.7047ZM12.9872 12.5001C12.1334 12.5001 11.4437 13.1984 11.4437 14.0626V23.4376C11.4437 24.3019 12.1334 25.0001 12.9872 25.0001H19.1615C20.0153 25.0001 20.7051 24.3019 20.7051 23.4376V14.0626C20.7051 13.1984 20.0153 12.5001 19.1615 12.5001H12.9872ZM2.18224 15.6251C1.32845 15.6251 0.638672 16.3234 0.638672 17.1876V23.4376C0.638672 24.3019 1.32845 25.0001 2.18224 25.0001H8.35651C9.2103 25.0001 9.90008 24.3019 9.90008 23.4376V17.1876C9.90008 16.3234 9.2103 15.6251 8.35651 15.6251H2.18224ZM22.2486 20.3126V23.4376C22.2486 24.3019 22.9384 25.0001 23.7922 25.0001H29.9665C30.8203 25.0001 31.51 24.3019 31.51 23.4376V20.3126C31.51 19.4484 30.8203 18.7501 29.9665 18.7501H23.7922C22.9384 18.7501 22.2486 19.4484 22.2486 20.3126Z" fill="#263F99"/>
</g>
<defs>
<clipPath id="clip0_339_214">
<rect width="30.8714" height="25" fill="white" transform="translate(0.638672)"/>
</clipPath>
</defs>
</svg>
