<svg width="128" height="186" viewBox="0 0 128 186" fill="none" xmlns="http://www.w3.org/2000/svg">
<path d="M106.741 0.405823L72.4883 52.6126H89.4633L127.657 0.405823H106.741Z" fill="#428BC1"/>
<path d="M89.4617 0.405823L55.5117 52.6126H72.4867L106.74 0.405823H89.4617Z" fill="#E8E8E8"/>
<path d="M72.4871 0.405823L38.5371 52.6126H55.5121L89.4621 0.405823H72.4871Z" fill="#ED4C5C"/>
<path d="M64.0004 185.756C98.4871 185.756 126.444 157.265 126.444 122.119C126.444 86.9736 98.4871 58.4825 64.0004 58.4825C29.5137 58.4825 1.55664 86.9736 1.55664 122.119C1.55664 157.265 29.5137 185.756 64.0004 185.756Z" fill="#B2C1C0"/>
<path d="M32.7789 40.8741C31.2633 40.8741 30.0508 42.1097 30.0508 43.6543V69.6032C30.0508 71.1478 31.2633 72.3835 32.7789 72.3835H95.2227C96.7383 72.3835 97.9508 71.1478 97.9508 69.6032V43.6543C97.9508 42.1097 96.7383 40.8741 95.2227 40.8741H32.7789ZM92.4945 61.2625C92.4945 62.8071 91.282 64.0428 89.7664 64.0428H38.5383C37.0227 64.0428 35.8102 62.8071 35.8102 61.2625V49.5237C35.8102 47.9791 37.0227 46.7435 38.5383 46.7435H89.7664C91.282 46.7435 92.4945 47.9791 92.4945 49.5237V61.2625Z" fill="#B2C1C0"/>
<path opacity="0.5" d="M10.3477 129.533C10.3477 94.9343 36.4164 66.823 69.7602 64.3516C68.2445 64.3516 66.4258 64.0427 64.9102 64.0427C33.082 64.0427 7.31641 90.3006 7.31641 123.046C7.31641 132.622 9.7414 141.889 13.682 149.921C11.5602 143.434 10.3477 136.638 10.3477 129.533Z" fill="#3E4347"/>
<path opacity="0.33" d="M87.9477 171.237C116.138 152.084 124.626 114.705 108.257 85.6669C109.166 86.9025 110.076 88.1382 110.985 89.6828C128.566 116.25 121.291 152.393 94.9195 170.619C87.0383 176.179 78.2477 179.268 69.457 180.195C76.1258 178.033 82.1883 175.252 87.9477 171.237Z" fill="white"/>
<path d="M38.5375 52.6126H55.5125L21.2594 0.405823H0.34375L38.5375 52.6126Z" fill="#ED4C5C"/>
<path d="M55.5129 52.6126H72.4879L38.5379 0.405823H21.2598L55.5129 52.6126Z" fill="#E8E8E8"/>
<path opacity="0.5" d="M66.7277 9.05548L58.2402 22.0299L78.2465 52.6126H89.4621L92.4934 48.2878L66.7277 9.05548Z" fill="#3E4347"/>
<path d="M72.4871 52.6126H89.4621L55.5121 0.405823H38.5371L72.4871 52.6126Z" fill="#428BC1"/>
<path opacity="0.5" d="M62.4848 91.5361C56.1191 91.5361 50.966 96.7877 50.966 102.966H42.7816C42.7816 103.893 42.4785 104.819 42.4785 105.746H53.9973C53.9973 99.259 59.1504 94.0074 65.516 94.0074C67.941 94.0074 70.0629 94.9342 71.8816 96.1699C69.7598 93.6985 66.4254 91.5361 62.4848 91.5361ZM85.2191 161.042H42.7816V164.131H88.2504V152.393H85.2191V161.042ZM62.4848 126.444C56.1191 126.444 50.966 131.695 50.966 138.182V149.921H53.6941V141.272C53.6941 134.784 58.8473 129.533 65.2129 129.533C77.641 129.533 87.9473 119.03 87.9473 106.364C87.9473 99.259 84.916 92.7718 79.7629 88.447C83.0973 92.4629 85.2191 97.7144 85.2191 103.275C85.2191 115.94 75.216 126.444 62.4848 126.444Z" fill="#3E4347"/>
<path opacity="0.33" d="M53.9969 149.612H85.2188V152.392H53.9969V149.612ZM65.5156 117.794C71.8812 117.794 77.0344 112.542 77.0344 106.055C77.0344 102.039 75.2156 98.641 72.1844 96.4786C73.3969 98.3321 74.3063 100.495 74.3063 102.966C74.3063 109.453 69.1531 114.705 62.7875 114.705C50.3594 114.705 40.0531 125.208 40.0531 137.873V161.042H42.7812V140.654C42.7812 127.988 52.7844 117.794 65.5156 117.794ZM65.5156 82.8863C70.9719 82.8863 76.125 85.0487 80.0656 88.4468C75.8219 83.5042 69.7594 80.1061 62.4844 80.1061C50.0563 80.1061 39.75 90.6092 39.75 103.275H42.7812C44.2969 91.8449 53.6937 82.8863 65.5156 82.8863Z" fill="white"/>
</svg>
