<svg width="176" height="255" viewBox="0 0 176 255" fill="none" xmlns="http://www.w3.org/2000/svg">
<path d="M146.602 0.457092L99.6367 72.0395H122.912L175.28 0.457092H146.602Z" fill="#428BC1"/>
<path d="M122.913 0.457092L76.3633 72.0395H99.6383L146.604 0.457092H122.913Z" fill="#E8E8E8"/>
<path d="M99.6379 0.457092L53.0879 72.0395H76.3629L122.913 0.457092H99.6379Z" fill="#ED4C5C"/>
<path d="M87.9996 254.596C135.286 254.596 173.618 215.531 173.618 167.341C173.618 119.152 135.286 80.0869 87.9996 80.0869C40.7137 80.0869 2.38086 119.152 2.38086 167.341C2.38086 215.531 40.7137 254.596 87.9996 254.596Z" fill="#FFCE31"/>
<path d="M45.1899 55.9442C43.1117 55.9442 41.4492 57.6384 41.4492 59.7562V95.3357C41.4492 97.4535 43.1117 99.1478 45.1899 99.1478H130.809C132.887 99.1478 134.549 97.4535 134.549 95.3357V59.7562C134.549 57.6384 132.887 55.9442 130.809 55.9442H45.1899ZM127.068 83.8994C127.068 86.0173 125.405 87.7115 123.327 87.7115H53.0867C51.0086 87.7115 49.3461 86.0173 49.3461 83.8994V67.804C49.3461 65.6861 51.0086 63.9919 53.0867 63.9919H123.327C125.405 63.9919 127.068 65.6861 127.068 67.804V83.8994Z" fill="#FFCE31"/>
<path opacity="0.5" d="M14.4336 177.507C14.4336 130.068 50.1774 91.5236 95.8961 88.1351C93.818 88.1351 91.3242 87.7115 89.2461 87.7115C45.6055 87.7115 10.2773 123.715 10.2773 168.612C10.2773 181.743 13.6023 194.45 19.0055 205.463C16.0961 196.568 14.4336 187.249 14.4336 177.507Z" fill="#89664C"/>
<path opacity="0.33" d="M120.834 234.689C159.487 208.428 171.124 157.176 148.68 117.361L152.421 122.444C176.527 158.87 166.552 208.428 130.393 233.418C119.587 241.042 107.534 245.278 95.4805 246.548C104.624 244.007 112.937 240.195 120.834 234.689Z" fill="white"/>
<path d="M53.0875 72.0395H76.3625L29.3969 0.457092H0.71875L53.0875 72.0395Z" fill="#ED4C5C"/>
<path d="M76.3621 72.0395H99.6371L53.0871 0.457092H29.3965L76.3621 72.0395Z" fill="#E8E8E8"/>
<path opacity="0.5" d="M91.741 12.3173L80.1035 30.107L107.535 72.04H122.913L127.069 66.11L91.741 12.3173Z" fill="#3E4347"/>
<path d="M99.6379 72.0395H122.913L76.3629 0.457092H53.0879L99.6379 72.0395Z" fill="#428BC1"/>
<path opacity="0.5" d="M66.3867 141.081V145.316C70.543 145.316 74.2836 144.469 78.0242 142.775V136.845C74.6992 139.386 70.9586 140.657 66.3867 141.081ZM93.818 113.549H97.5586V205.039H93.818V113.549ZM109.612 208.851V220.711H66.3867V224.946H113.352V208.851H109.612Z" fill="#89664C"/>
<path opacity="0.33" d="M97.5586 205.039H109.196V208.851H97.5586V205.039ZM82.1805 113.549H93.818V109.737H78.0242C78.0242 118.632 70.9586 125.833 62.2305 125.833V141.505C63.4773 141.505 64.7242 141.505 65.9711 141.081V129.221C75.1149 129.645 82.1805 122.444 82.1805 113.549ZM82.1805 208.851V141.081C80.9336 141.928 79.6867 142.352 78.4398 143.199V205.039H62.6461V220.711H66.3867V208.851H82.1805Z" fill="white"/>
</svg>
