<svg width="98" height="142" viewBox="0 0 98 142" fill="none" xmlns="http://www.w3.org/2000/svg">
<path d="M81.6059 0.239868L55.4746 40.0677H68.4246L97.5621 0.239868H81.6059Z" fill="#428BC1"/>
<path d="M68.4254 0.239868L42.5254 40.0677H55.4754L81.6066 0.239868H68.4254Z" fill="#E8E8E8"/>
<path d="M55.4742 0.239868L29.5742 40.0677H42.5242L68.4242 0.239868H55.4742Z" fill="#ED4C5C"/>
<path d="M49.0008 141.64C75.3102 141.64 96.6383 119.905 96.6383 93.0927C96.6383 66.2806 75.3102 44.5452 49.0008 44.5452C22.6913 44.5452 1.36328 66.2806 1.36328 93.0927C1.36328 119.905 22.6913 141.64 49.0008 141.64Z" fill="#D3976E"/>
<path d="M25.1828 31.1123C24.0266 31.1123 23.1016 32.055 23.1016 33.2333V53.0294C23.1016 54.2077 24.0266 55.1504 25.1828 55.1504H72.8203C73.9766 55.1504 74.9016 54.2077 74.9016 53.0294V33.2333C74.9016 32.055 73.9766 31.1123 72.8203 31.1123H25.1828ZM70.7391 46.6664C70.7391 47.8447 69.8141 48.7874 68.6578 48.7874H29.5766C28.4203 48.7874 27.4953 47.8447 27.4953 46.6664V37.711C27.4953 36.5327 28.4203 35.59 29.5766 35.59H68.6578C69.8141 35.59 70.7391 36.5327 70.7391 37.711V46.6664Z" fill="#D3976E"/>
<path opacity="0.5" d="M8.06836 98.7489C8.06836 72.3541 27.9559 50.9084 53.3934 49.023C52.2371 49.023 50.8496 48.7874 49.6934 48.7874C25.4121 48.7874 5.75586 68.8191 5.75586 93.7999C5.75586 101.106 7.60586 108.176 10.6121 114.303C8.99336 109.354 8.06836 104.169 8.06836 98.7489Z" fill="#3E4347"/>
<path opacity="0.33" d="M67.2684 130.564C88.7746 115.953 95.2496 87.4369 82.7621 65.2841L84.8434 68.1121C98.2559 88.3795 92.7059 115.953 72.5871 129.857C66.5746 134.099 59.8684 136.456 53.1621 137.163C58.2496 135.749 62.8746 133.628 67.2684 130.564Z" fill="white"/>
<path d="M29.575 40.0677H42.525L16.3937 0.239868H0.4375L29.575 40.0677Z" fill="#ED4C5C"/>
<path d="M42.5258 40.0677H55.4758L29.5758 0.239868H16.3945L42.5258 40.0677Z" fill="#E8E8E8"/>
<path opacity="0.5" d="M51.0805 6.83844L44.6055 16.7365L59.868 40.0676H68.4242L70.7367 36.7682L51.0805 6.83844Z" fill="#3E4347"/>
<path d="M55.4742 40.0677H68.4242L42.5242 0.239868H29.5742L55.4742 40.0677Z" fill="#428BC1"/>
<path opacity="0.5" d="M47.8445 69.7614C42.9883 69.7614 39.057 73.7678 39.057 78.4811H32.8133C32.8133 79.1881 32.582 79.8951 32.582 80.6021H41.3695C41.3695 75.6531 45.3008 71.6468 50.157 71.6468C52.007 71.6468 53.6258 72.3538 55.0133 73.2964C53.3945 71.4111 50.8508 69.7614 47.8445 69.7614ZM61.4883 94.0352C65.1883 90.7358 67.5008 86.0225 67.5008 80.8378C67.5008 75.4174 65.1883 70.4684 61.257 67.1691C63.8008 70.2327 65.4195 74.2391 65.4195 78.4811C65.4195 83.6658 63.107 88.6148 59.407 91.6785C63.107 94.9778 65.4195 99.6912 65.4195 104.876C65.4195 114.538 57.557 122.551 48.0758 122.551C43.9133 122.551 39.982 120.901 36.9758 118.309C40.2133 122.08 44.8383 124.672 50.3883 124.672C59.8695 124.672 67.732 116.659 67.732 106.997C67.5008 102.048 65.1883 97.3345 61.4883 94.0352Z" fill="#3E4347"/>
<path opacity="0.33" d="M50.1562 63.163C54.3188 63.163 58.25 64.8127 61.2562 67.405C58.0187 63.6343 53.3938 61.042 47.8438 61.042C38.3625 61.042 30.5 69.0547 30.5 78.7171H32.8125C33.9688 69.9974 41.1375 63.163 50.1562 63.163ZM58.7125 80.8381C58.7125 77.7744 57.325 75.182 55.0125 73.5324C55.9375 74.9464 56.6312 76.5961 56.6312 78.4814C56.6312 83.4304 52.7 87.4368 47.8438 87.4368V96.3921C48.5375 96.3921 49.2313 96.6278 49.925 96.6278V89.7934C54.7813 89.7934 58.7125 85.7871 58.7125 80.8381ZM50.1562 116.188C55.0125 116.188 58.9437 112.182 58.9437 107.233C58.9437 104.169 57.5563 101.577 55.2438 99.9271C56.1688 101.341 56.8625 102.991 56.8625 104.876C56.8625 109.825 52.9313 113.832 48.075 113.832C46.225 113.832 44.6062 113.125 43.2188 112.182C44.6062 114.774 47.15 116.188 50.1562 116.188ZM39.5187 107.469C39.2875 106.762 39.2875 106.055 39.2875 105.347H30.5C30.5 110.768 32.8125 115.717 36.7438 119.016C34.2 115.953 32.5812 111.946 32.5812 107.704L39.5187 107.469Z" fill="white"/>
</svg>
