<?xml version="1.0" encoding="UTF-8" standalone="no"?>
<svg
   width="26"
   height="25"
   viewBox="0 0 26 25"
   fill="none"
   version="1.1"
   id="svg11"
   sodipodi:docname="organiser.svg"
   inkscape:version="1.2.2 (732a01da63, 2022-12-09)"
   xmlns:inkscape="http://www.inkscape.org/namespaces/inkscape"
   xmlns:sodipodi="http://sodipodi.sourceforge.net/DTD/sodipodi-0.dtd"
   xmlns="http://www.w3.org/2000/svg"
   xmlns:svg="http://www.w3.org/2000/svg">
  <sodipodi:namedview
     id="namedview13"
     pagecolor="#ffffff"
     bordercolor="#000000"
     borderopacity="0.25"
     inkscape:showpageshadow="2"
     inkscape:pageopacity="0.0"
     inkscape:pagecheckerboard="0"
     inkscape:deskcolor="#d1d1d1"
     showgrid="false"
     inkscape:zoom="16.28"
     inkscape:cx="11.087224"
     inkscape:cy="18.089681"
     inkscape:window-width="1920"
     inkscape:window-height="1001"
     inkscape:window-x="-9"
     inkscape:window-y="-9"
     inkscape:window-maximized="1"
     inkscape:current-layer="svg11" />
  <g
     clip-path="url(#clip0_383_179)"
     id="g4"
     transform="matrix(1.1727074,0,0,1.1250009,-1.9094445,-1.5625362)">
    <path
       d="m 20.5215,3.47225 h -4.924 C 15.3927,2.87486 15.0104,2.35489 14.5022,1.98239 13.9939,1.60989 13.3842,1.40276 12.7552,1.38892 12.1324,1.41069 11.5308,1.6214 11.0295,1.9933 10.5283,2.36519 10.1511,2.88081 9.94746,3.47225 H 5.10651 C 4.93715,3.44765 4.76452,3.4594 4.60001,3.50672 4.43551,3.55404 4.28286,3.63585 4.15216,3.74676 4.02145,3.85767 3.91565,3.99515 3.84174,4.15013 3.76783,4.30511 3.72749,4.47407 3.72339,4.64586 V 22.4375 c 9e-4,0.1551 0.03221,0.3084 0.09213,0.4513 0.05992,0.1429 0.14728,0.2725 0.25709,0.3815 0.10982,0.109 0.23993,0.1952 0.38292,0.2536 0.14298,0.0585 0.29604,0.0882 0.45043,0.0872 H 20.5215 c 0.1543,0.001 0.3074,-0.0287 0.4504,-0.0872 0.143,-0.0584 0.2731,-0.1446 0.3829,-0.2536 0.1098,-0.109 0.1972,-0.2386 0.2571,-0.3815 0.0599,-0.1429 0.0912,-0.2962 0.0921,-0.4513 V 4.64586 C 21.7031,4.49083 21.6718,4.33749 21.6119,4.19461 21.552,4.05172 21.4646,3.92209 21.3548,3.81311 21.245,3.70413 21.1149,3.61794 20.9719,3.55945 20.8289,3.50097 20.6758,3.47133 20.5215,3.47225 Z M 8.07332,5.55558 c 0,-0.18418 0.07286,-0.36081 0.20255,-0.49104 0.1297,-0.13024 0.3056,-0.2034 0.48901,-0.2034 H 11.1439 V 4.38197 c 0,-0.21112 0.0414,-0.42017 0.1218,-0.61521 0.0805,-0.19505 0.1984,-0.37228 0.3471,-0.52156 0.1486,-0.14928 0.3251,-0.2677 0.5194,-0.34849 0.1942,-0.08079 0.4024,-0.12238 0.6126,-0.12238 0.2103,0 0.4185,0.04159 0.6127,0.12238 0.1942,0.08079 0.3707,0.19921 0.5194,0.34849 0.1486,0.14928 0.2666,0.32651 0.347,0.52156 0.0805,0.19504 0.1219,0.40409 0.1219,0.61521 v 0.47917 h 2.379 c 0.1834,0 0.3593,0.07316 0.489,0.2034 0.1297,0.13023 0.2025,0.30686 0.2025,0.49104 V 6.94447 H 8.08715 Z M 17.5546,19.4445 H 7.87277 v -1.3889 h 9.68183 z m 0,-2.7778 H 7.87277 v -1.3889 h 9.68183 z m 0,-2.7778 H 7.87277 V 12.5 h 9.68183 z m 0,-2.7778 H 7.87277 V 9.72225 h 9.68183 z"
       fill="#263f99"
       id="path2" />
  </g>
  <defs
     id="defs9">
    <clipPath
       id="clip0_383_179">
      <rect
         width="24.8963"
         height="25"
         fill="white"
         transform="translate(0.265625)"
         id="rect6" />
    </clipPath>
  </defs>
</svg>
