<?xml version="1.0" encoding="UTF-8" standalone="no"?>
<!-- Created with Inkscape (http://www.inkscape.org/) -->

<svg
   width="0"
   height="0"
   viewBox="0 0 40 40"
   version="1.1"
   id="svg1"
   xml:space="preserve"
   inkscape:export-filename="chat.svg"
   inkscape:export-xdpi="96"
   inkscape:export-ydpi="96"
   xmlns:inkscape="http://www.inkscape.org/namespaces/inkscape"
   xmlns:sodipodi="http://sodipodi.sourceforge.net/DTD/sodipodi-0.dtd"
   xmlns="http://www.w3.org/2000/svg"
   xmlns:svg="http://www.w3.org/2000/svg"
   xmlns:rdf="http://www.w3.org/1999/02/22-rdf-syntax-ns#"
   xmlns:cc="http://creativecommons.org/ns#"
   xmlns:dc="http://purl.org/dc/elements/1.1/"><defs
     id="defs1" /><sodipodi:namedview
     id="base"
     pagecolor="#ffffff"
     bordercolor="#000000"
     borderopacity="0.3"
     inkscape:pageopacity="0.0"
     inkscape:pageshadow="2"
     inkscape:zoom="0.35"
     inkscape:cx="400"
     inkscape:cy="560"
     inkscape:document-units="px"
     inkscape:showpageshadow="2"
     inkscape:pagecheckerboard="0"
     inkscape:deskcolor="#d1d1d1" /><metadata
     id="metadata1"><rdf:RDF><cc:Work
         rdf:about=""><dc:format>image/svg+xml</dc:format><dc:type
           rdf:resource="http://purl.org/dc/dcmitype/StillImage" /></cc:Work></rdf:RDF></metadata><g
     inkscape:label="Calque 1"
     id="layer1"
     transform="matrix(0.26458333,0,0,0.26458333,0.09932845,0.65696971)"><g
       id="g2"
       transform="matrix(1.1798086,0,0,1.1798086,-0.71753262,-8.7465112)"><path
         fill="url(#notoBat0)"
         d="m 1.63,84.97 c 0.26,0.38 6.19,-3.1 11.68,-1.16 2.85,1.01 5.06,5.46 5.56,5.56 0.5,0.1 5.05,-7.29 12.41,-5.96 8.74,1.59 9.26,10.44 9.93,10.62 0.41,0.11 1.49,-4.86 7.74,-4.37 3.49,0.28 6.35,4.27 8.84,8.44 2.49,4.17 6.7,10.97 7.35,11.02 0.89,0.07 6.35,-8.54 8.04,-11.72 1.69,-3.18 5.76,-9.33 9.63,-9.43 3.87,-0.1 5.68,5.94 6.55,5.76 0.72,-0.15 1.06,-7.88 7.45,-8.84 6.65,-0.99 8.43,6.46 9.33,6.35 0.82,-0.1 1.44,-6.85 9.53,-6.95 8.04,-0.1 9.58,5.81 10.62,5.66 1.31,-0.19 1.24,-23.18 -6.95,-35.4 -5.66,-8.44 -13.75,-12.89 -17.53,-14.48 -3.13,-1.32 -5.76,-1.49 -5.66,-3.18 0.1,-1.69 3.67,-0.3 4.47,-2.58 0.79,-2.28 -4.47,-3.97 -7.15,-1.79 -2.68,2.18 -1.09,6.16 -1.09,6.16 0,0 -0.58,11.62 -4.41,17.36 -3,4.5 -6.22,5.5 -9.95,6.66 -4.28,1.33 -8.67,1.48 -14.18,0.98 -4.67,-0.42 -9.09,-0.42 -12.85,-1.83 -4.26,-1.6 -7.98,-6.57 -9.01,-9.29 -1.57,-4.15 -1.5,-7.13 -1.5,-10.79 v -6.85 c 0,0 2.58,-3.38 0.1,-6.06 -2.48,-2.68 -6.16,-1.19 -5.86,1.09 0.3,2.28 2.98,0.99 2.68,2.88 -0.3,1.89 -5.2,2.39 -9.59,4.81 C 20.96,41.41 16.25,44.47 10.92,52.66 3.04,64.79 0.6,83.46 1.63,84.97"
         id="path3"
         style="fill:#502d16;fill-opacity:1" /><path
         fill="#885b50"
         d="m 54.61,57.45 c 0,0 1.56,2.38 0.89,3.72 -0.67,1.34 -2.38,9.16 -2.83,16.23 -0.5,7.97 3.43,11.69 3.43,11.69 l -0.67,5.36 3.62,5.78 c 0,0 4.19,-7.87 5.46,-7.79 1.27,0.07 6.75,8.29 6.75,8.29 l 3.03,-5.21 -1.07,-6.95 c 0,0 3.13,-4.1 3.13,-11.32 0,-7.22 -2.31,-15.27 -2.38,-16.38 -0.07,-1.12 1.49,-3.18 1.49,-3.18 0,0 3.42,1.32 5.96,-1.64 3.23,-3.77 3.44,-13.26 0.65,-18.72 -2.13,-4.17 -4.17,-6.21 -4.91,-6.35 -0.74,-0.15 -3.77,4.37 -5.16,8.14 -1.4,3.79 -2,7.16 -2,7.16 0,0 -1.54,-1.06 -4.42,-1.39 -2.18,-0.25 -3.92,0.25 -3.92,0.25 0,0 0.15,-4.22 -0.4,-7.25 -0.55,-3.03 -1.59,-7.4 -2.98,-7.79 -1.39,-0.4 -6.27,5.43 -7.74,7.55 -1.94,2.78 -6.83,10.15 -1.37,16.75 2.65,3.2 5.44,3.05 5.44,3.05"
         id="path4" /><path
         fill="#b68e74"
         d="m 64.07,91.33 c 1.86,-0.3 7.97,-3.57 8.44,-10.47 0.53,-7.68 -3.97,-16.38 -8.19,-16.53 -4.37,-0.15 -8.71,9.93 -8.19,16.03 0.69,8.14 7.94,10.97 7.94,10.97"
         id="path5" /><path
         fill="#ffd2ad"
         d="m 72.33,47.67 c 0,0 0.6,-3.92 2.38,-7.6 0.92,-1.9 1.99,-3.82 3.47,-3.72 1.49,0.1 3.57,4.86 3.57,10.08 0,5.22 -0.69,7.4 -2.88,8.59 -1.99,1.08 -3.08,0.4 -3.08,0.4 0,0 -0.3,-3.23 -1.09,-4.67 -0.78,-1.44 -2.37,-3.08 -2.37,-3.08 M 57.44,34.47 c -1.02,-0.2 -5.24,4.15 -6.8,7.15 -1.79,3.43 -2.8,7.27 -0.35,10.55 1.54,2.05 3.97,1.37 3.97,1.37 0,0 0.35,-2.53 1.89,-4.62 1.5,-2.03 3.13,-2.78 3.13,-2.78 0,0 0.44,-11.23 -1.84,-11.67"
         id="path6" /><path
         fill="#fefefe"
         d="m 62.24,58.61 c 0,0 -2.57,-0.89 -2.35,0.41 0.22,1.3 0.78,3.31 1.68,3.2 0.9,-0.11 0.67,-3.61 0.67,-3.61 m 3.39,-0.19 c 0,0 -0.11,3.43 0.78,3.91 0.89,0.48 1.97,-3.61 1.75,-4.28 -0.22,-0.67 -2.53,0.37 -2.53,0.37"
         id="path7" /><path
         fill="#020308"
         d="m 63.92,56.52 c -0.89,0.02 -1.19,1.95 -2.57,1.19 -1.05,-0.58 0.16,-1.77 -1.03,-1.92 -1.05,-0.13 -1.2,0.84 -0.94,1.81 0.26,0.97 0.52,1.9 2.27,2.05 1.75,0.15 2.35,-0.89 2.35,-0.89 0,0 0.84,1 2.06,0.98 1.86,-0.02 2.29,-1.66 2.63,-2.17 0.52,-0.78 -0.62,-2 -1.34,-0.82 -0.72,1.18 -1.69,1.15 -2.23,0.67 -0.35,-0.31 -0.53,-0.91 -1.2,-0.9"
         id="path8" /><path
         fill="#b68e74"
         d="m 63.29,53.17 c -0.63,-0.18 -1.27,0.48 -1.53,1.27 -0.26,0.78 -0.26,1.5 0.26,1.86 0.71,0.48 1.49,-0.56 1.68,-1.08 0.19,-0.52 0.48,-1.79 -0.41,-2.05 m 2.68,-0.07 c -0.71,0 -1.04,0.56 -1.04,1.68 0,1.12 0.22,1.41 0.93,1.56 0.71,0.15 1.01,-1.15 1.01,-1.79 0,-0.64 -0.12,-1.45 -0.9,-1.45"
         id="path9" /><ellipse
         cx="71.239998"
         cy="54.150002"
         fill="#020204"
         rx="2"
         ry="2.1199999"
         id="ellipse9" /><ellipse
         cx="58.09"
         cy="53.48"
         fill="#020204"
         rx="2"
         ry="2.1199999"
         id="ellipse10" /></g><ellipse
       style="fill:#ffffff;fill-opacity:1"
       id="path15"
       cx="83.378761"
       cy="55.194679"
       rx="0.98819274"
       ry="1.00878" /><ellipse
       style="fill:#ffffff;fill-opacity:1"
       id="path15-7"
       cx="67.930061"
       cy="54.402966"
       rx="0.98819274"
       ry="1.00878" /></g></svg>
