<?xml version="1.0" encoding="UTF-8" standalone="no"?>
<!-- Created with Inkscape (http://www.inkscape.org/) -->

<svg
   width="0"
   height="0"
   viewBox="0 0 40 40"
   version="1.1"
   id="svg1"
   xml:space="preserve"
   inkscape:export-filename="canard.svg"
   inkscape:export-xdpi="96"
   inkscape:export-ydpi="96"
   xmlns:inkscape="http://www.inkscape.org/namespaces/inkscape"
   xmlns:sodipodi="http://sodipodi.sourceforge.net/DTD/sodipodi-0.dtd"
   xmlns="http://www.w3.org/2000/svg"
   xmlns:svg="http://www.w3.org/2000/svg"
   xmlns:rdf="http://www.w3.org/1999/02/22-rdf-syntax-ns#"
   xmlns:cc="http://creativecommons.org/ns#"
   xmlns:dc="http://purl.org/dc/elements/1.1/"><defs
     id="defs1" /><sodipodi:namedview
     id="base"
     pagecolor="#ffffff"
     bordercolor="#000000"
     borderopacity="0.3"
     inkscape:pageopacity="0.0"
     inkscape:pageshadow="2"
     inkscape:zoom="0.35"
     inkscape:cx="400"
     inkscape:cy="560"
     inkscape:document-units="px"
     inkscape:showpageshadow="2"
     inkscape:pagecheckerboard="0"
     inkscape:deskcolor="#d1d1d1" /><metadata
     id="metadata1"><rdf:RDF><cc:Work
         rdf:about=""><dc:format>image/svg+xml</dc:format><dc:type
           rdf:resource="http://purl.org/dc/dcmitype/StillImage" /></cc:Work></rdf:RDF></metadata><g
     id="g2"
     transform="matrix(0.26436058,0,0,0.26436058,-0.11679507,0.13815861)"><g
       id="g8"
       transform="matrix(1.2230428,0,0,1.2230428,-3.3324861,-3.5276966)"><path
         fill="#694d42"
         d="m 77.52,83.78 c 4.93,2.51 14.08,4.86 18.94,4.15 12.6,-1.85 21.69,-9.13 27.2,-19.22 2.33,-4.27 2.53,-12.92 -1.21,-13.86 -4.74,-1.19 -10.37,-0.26 -19.11,3.87 -8.89,4.2 -11.03,10.84 -21.5,5.73"
         id="path1" /><path
         fill="#b3937c"
         d="m 79.88,75.09 c 1.83,1.22 2.09,1.88 3.6,3.48 2.97,3.16 9.99,3.33 11.35,3.35 8.09,0.11 12,-1.85 17.22,-5.3 5.22,-3.45 10.13,-10.99 11.01,-14.73 0.61,-2.58 0.92,-4.54 0.8,-6.13 -0.39,-0.44 -0.85,-0.77 -1.4,-0.91 -4.74,-1.19 -10.37,-0.26 -19.11,3.87 -8.89,4.2 -11.03,10.84 -21.5,5.73 l -2.28,10.17 z"
         opacity="0.44"
         id="path2" /><path
         fill="#694d42"
         d="m 123.47,59.99 c 0.18,-0.95 0.31,-1.8 0.37,-2.57 l -5.37,-2.35 0.31,-0.7 c -1.85,-0.03 -3.89,0.24 -6.19,0.83 l 2.58,1.14 -2.66,6.03 -6.03,-2.66 1.29,-2.91 c -1.07,0.42 -5.12,2.14 -6.83,3.2 l 2.25,0.99 -2.66,6.03 -6,-2.72 c -1.13,0.71 -2.25,1.29 -3.46,1.64 l -6.05,13.68 c 0.73,0.37 1.53,0.66 2.34,0.89 l 2.46,-5.56 6.03,2.66 c 0,0 -1.25,2.79 -1.91,4.28 0.39,0.02 2.11,0.03 2.69,0.01 l 1.51,-3.28 5.33,2.31 c 1.6,-0.46 3.05,-1.08 4.49,-1.83 l 2.18,-5.12 3.42,1.53 c 0.69,-0.56 1.37,-1.18 2.02,-1.84 l -4.43,-1.97 2.66,-6.03 6.08,2.69 c 0.49,-0.73 0.93,-1.45 1.32,-2.15 l -6.39,-2.83 2.66,-6.03 z m -26.63,15.34 -6.03,-2.66 2.66,-6.03 6.03,2.66 z m 8.32,3.68 -6.03,-2.66 2.66,-6.03 6.03,2.66 z m 3.67,-8.32 -6.03,-2.66 2.66,-6.03 6.03,2.66 z"
         id="path3" /><path
         fill="#825b4e"
         d="M 17.36,8.23 C 16.33,8.07 15.3,7.95 14.26,7.89 13.83,7.86 13.36,7.85 12.99,8.07 12.68,8.25 12.48,8.57 12.32,8.89 a 6.975,6.975 0 0 0 -0.29,5.69 c 0.18,0.45 0.53,0.95 1,0.87 0.19,-0.03 0.34,-0.15 0.49,-0.27 a 29.82,29.82 0 0 0 4.08,-3.86 c 0.21,-0.24 0.41,-0.63 0.16,-0.84"
         id="path4" /><path
         fill="#694d42"
         d="m 57.41,102.05 c -8.65,4.19 -14.38,9.08 -20.38,15.08 -0.45,0.45 -2.33,2.5 -1.17,3.12 1.16,0.62 4.03,-1.48 4.85,-0.93 0.98,0.65 0.26,1.8 1.29,2.54 1.03,0.74 3.8,-1.42 5.2,-0.79 1.4,0.63 0.78,1.71 1.6,2.67 1.07,1.26 3.45,0.09 4.09,-0.42 3.77,-2.98 13.16,-11.93 14.82,-13.86 2.2,-2.56 3.6,-6 1.64,-8.28 M 28.26,99.21 a 76.12,76.12 0 0 0 -14.73,6.46 c -0.97,0.55 -1.93,1.14 -2.73,1.91 -0.35,0.33 -0.73,0.92 -0.38,1.25 0.8,0.73 2.33,-0.46 3.49,0.45 0.4,0.32 0.17,1.7 0.47,2.12 0.32,0.44 0.93,0.6 1.48,0.56 0.55,-0.04 1.07,-0.25 1.6,-0.41 1.17,-0.35 2.37,-0.57 3.14,0.35 0.48,0.58 0.45,1.12 0.76,1.74 0.21,0.43 0.56,0.77 1.43,0.76 1.32,-0.01 2.53,-0.61 3.62,-1.34 4.92,-3.3 9.55,-6.98 14.18,-10.65"
         id="path5" /><path
         fill="#825b4e"
         d="m 47.3,12.38 c 3.46,0.97 4.32,-0.02 6.92,0.18 3.33,0.25 2.93,3.4 2.44,5.14 -0.63,2.23 -1.87,4.04 -3.64,5.53 -0.3,0.25 -0.64,0.51 -1.04,0.54 -0.47,0.04 -0.9,-0.25 -1.26,-0.55 -2.36,-1.93 -3.86,-4.88 -4.03,-7.92"
         id="path6" /><path
         fill="#b38a6d"
         d="m 12.16,41.12 c 0,0 -6.13,0.71 -8.28,7.29 -3.15,9.62 5.22,15.2 5.22,15.2 0,0 -2.3,19.71 9.71,30.51 12.01,10.8 15.93,11.2 29.97,13.77 14.04,2.57 27.13,-6.48 30.51,-10.12 C 82.67,94.13 87.93,86.54 88.87,77.1 89.81,67.67 81.45,51.16 73.89,42.54 66.33,33.92 50.8,20.56 50.8,20.56 L 28.4,41.44 Z"
         id="path7" /><path
         fill="#b38a6d"
         d="M 48.27,13.23 C 42.68,5.39 36.47,3.84 29.64,3.84 c -7.37,0 -14.36,5.41 -17.58,9.69 -2.6,3.47 -5.84,9.11 -6.3,15.6 -0.36,5.1 1.26,9.87 6.3,13.4 5.04,3.53 25.07,7.74 33.29,2.09 7.2,-4.95 9.64,-11.6 8.92,-17.18 -0.51,-4.01 -1.67,-8.14 -6,-14.21"
         id="path8" /><ellipse
         cx="36.34"
         cy="17.700001"
         fill="#212121"
         rx="2.4300001"
         ry="3.1500001"
         transform="rotate(-17.768,36.335,17.7)"
         id="ellipse8" /><path
         fill="#ffecb3"
         d="m 15.62,32.75 c -0.52,3.64 1.09,9.12 2.44,9.04 1.12,-0.07 1.38,-2.29 1.38,-2.29 0,0 0.96,2.84 2.72,2.66 1.68,-0.18 1.6,-6.19 2.03,-9.13 l -5.7,-2.33 z"
         id="path9" /><path
         fill="#212121"
         d="m 11.84,15.91 c 0.33,-1.02 1.26,-2.35 2.77,-2.31 1.61,0.05 1.33,2.36 0.78,3.58 -0.56,1.22 -1.85,2.4 -3.06,1.64 -0.83,-0.52 -0.72,-2.19 -0.49,-2.91"
         id="path10" /><path
         fill="#825b4e"
         d="M 41.53,67.39 C 28.73,63.07 28.19,50.32 24.25,47.32 c -1.34,-1.03 -2.63,-1.28 -3.99,-1.99 -1.25,-0.65 -2.69,-1.31 -4,-0.79 0.9,0.61 1.71,1.37 2.36,2.25 -1.3,0.13 -3.23,0.29 -3.87,1.11 -0.11,0.14 0.04,0.36 0.2,0.44 0.16,0.08 2.3,0.47 3.15,1.33 -0.68,0.58 -1.46,1.06 -2.05,1.73 -0.34,0.38 -0.03,0.62 0.11,0.66 0.92,0.25 1.95,0.1 2.81,0.52 0.86,0.42 1.49,1.21 2.25,1.77 a 5.42,5.42 0 0 0 3.23,1.07 c 1.92,4.01 4.42,7.35 7.67,10.37 3,2.79 6.7,4.78 10.81,5.53 12.93,2.36 18.67,-10.8 18.67,-10.8 0,0 -9.19,10.54 -20.07,6.87"
         id="path11" /><path
         fill="#212121"
         d="m 21.8,18.45 c -0.5,-0.66 -1.45,-0.75 -2.06,-0.2 -1.53,1.39 -3.01,2.67 -3.65,3.69 -0.42,0.69 -0.79,2.08 0.02,3.07 0.81,0.99 3.36,3.06 3.36,3.06 0,0 3.23,-1.51 4.23,-2.22 1.21,-0.87 1.48,-2.72 0.45,-4.25 -0.41,-0.61 -1.55,-2.09 -2.35,-3.15"
         id="path12" /><path
         fill="#212121"
         d="m 28.47,32.39 c 0.84,-1.31 -0.1,-1.93 -0.65,-1.29 -0.62,0.71 -2.26,1.84 -4.51,1.05 -1.25,-0.44 -2.09,-0.84 -2.57,-2.27 -0.34,-1.02 -0.22,-2.39 -0.21,-3.45 0,-0.48 -2.14,-0.53 -2.28,-0.13 -0.29,0.82 -0.27,1.67 -0.3,2.53 -0.03,0.95 -0.16,2.08 -0.97,2.58 -2.64,1.67 -4.2,-0.83 -4.51,-1.12 -0.13,-0.12 -0.43,0.65 -0.17,1.48 1.24,4.01 5.67,3.28 6.94,1.36 0.23,1.6 5.88,4.49 9.23,-0.74"
         id="path13" /><path
         fill="#825b4e"
         d="m 7.91,62.65 c 0.17,0.15 0.39,0.38 0.55,0.51 0.42,0.35 1.04,0.32 1.43,-0.07 0.45,-0.47 0.99,-1.3 1.33,-2.41 0.66,-2.11 0.42,-5.06 -0.86,-7.18 l -1.2,1.22 c 0.92,2.92 0.56,5.41 -0.37,6.97 -0.37,0.61 -0.86,0.91 -0.88,0.96 m 31.18,-19.71 -0.73,3.37 c 3.13,-0.38 6.45,-6.44 6.45,-6.44 l 0.04,4.05 c 4,-2.17 6.07,-11.49 6.07,-11.49 0.36,4.52 0.76,14.58 -12.76,16.33 -4.9,0.64 -10.03,-1.38 -10.03,-1.38 0,0 7.62,-0.5 10.96,-4.44"
         id="path14" /><path
         fill="#825b4e"
         d="m 6.93,47.01 c 1.7,-2.66 4.7,-3.49 7.14,-3.11 0.11,0.02 0.41,0.13 0.49,0.2 0.16,0.15 0.09,0.44 -0.09,0.58 -0.17,0.14 -0.41,0.17 -0.62,0.23 -1.22,0.3 -2.32,1.23 -2.53,2.47 0.87,-0.36 1.91,-0.28 2.72,0.19 0.22,0.13 0.46,0.39 0.33,0.62 -0.07,0.13 -0.24,0.18 -0.39,0.23 -1.06,0.34 -1.78,1.45 -1.95,2.55 0.57,-0.12 1.16,-0.25 1.74,-0.15 0.58,0.1 1.35,0.59 1.29,1.04 -0.07,0.48 -1.37,0.16 -1.96,1.19 -0.41,0.72 -0.63,1.59 -1.27,2.11 -0.59,0.48 -1.44,0.58 -2.17,0.36 C 8.93,55.31 8.3,54.82 7.8,54.25 6.09,52.3 5.72,49.29 6.93,47.01"
         id="path15" /></g><ellipse
       style="fill:#ffffff;fill-opacity:1;stroke-width:0.264583"
       id="path16"
       cx="41.359959"
       cy="19.711126"
       rx="1.4699824"
       ry="1.5367998" /><ellipse
       style="fill:#ffffff;fill-opacity:1;stroke-width:0.216477"
       id="path16-2"
       cx="13.081424"
       cy="17.95479"
       rx="1.2027129"
       ry="1.2573817" /></g></svg>
