<?xml version="1.0" encoding="UTF-8" standalone="no"?>
<!-- Created with Inkscape (http://www.inkscape.org/) -->

<svg
   width="0"
   height="0"
   viewBox="0 0 40 40"
   version="1.1"
   id="svg1"
   xml:space="preserve"
   inkscape:export-filename="ours.svg"
   inkscape:export-xdpi="96"
   inkscape:export-ydpi="96"
   xmlns:inkscape="http://www.inkscape.org/namespaces/inkscape"
   xmlns:sodipodi="http://sodipodi.sourceforge.net/DTD/sodipodi-0.dtd"
   xmlns="http://www.w3.org/2000/svg"
   xmlns:svg="http://www.w3.org/2000/svg"
   xmlns:rdf="http://www.w3.org/1999/02/22-rdf-syntax-ns#"
   xmlns:cc="http://creativecommons.org/ns#"
   xmlns:dc="http://purl.org/dc/elements/1.1/"><defs
     id="defs1" /><sodipodi:namedview
     id="base"
     pagecolor="#ffffff"
     bordercolor="#000000"
     borderopacity="0.3"
     inkscape:pageopacity="0.0"
     inkscape:pageshadow="2"
     inkscape:zoom="0.35"
     inkscape:cx="400"
     inkscape:cy="560"
     inkscape:document-units="px"
     inkscape:showpageshadow="2"
     inkscape:pagecheckerboard="0"
     inkscape:deskcolor="#d1d1d1" /><metadata
     id="metadata1"><rdf:RDF><cc:Work
         rdf:about=""><dc:format>image/svg+xml</dc:format><dc:type
           rdf:resource="http://purl.org/dc/dcmitype/StillImage" /></cc:Work></rdf:RDF></metadata><g
     id="g3"
     transform="matrix(0.26365374,0,0,0.26365374,0.25018977,-0.17554777)"><g
       style="fill:none"
       id="g204"
       transform="matrix(0.99826656,0,0,0.99826656,-4.4403768,-7.5915429)"><path
         d="M 88.85,79.9375 94.7125,68.2 107.85,51.3125 l 16.9,-12.4375 16.888,-7.75 9.1,-0.225 2.287,3.5125 -3.875,17.775 -6.162,26.225 -3.863,6.325 -9.15,5.1125 -9.337,1.4 9.512,4.4 7.038,5.463 4.037,5.625 v 7.575 l -3.512,9.85 -10.563,8.45 -6.512,2.462 -10.2,-2.462 -2.288,-2.638 -4.875,-7.75 -3.4,-11.612 -6.8625,-3.525 -6.625,3.637 2.4,15.55 -0.525,4.925 -0.875,3.525 -2.4625,4.925 -6.3375,3.688 -8.975,0.187 L 58,140.35 l -6.8625,-5.275 -4.225,-7.037 1.05,-9.325 L 59.925,103.4 49.9,107.088 37.05,107.45 26.5,96 10.3,69.7875 6.26251,58.175 9.60001,54.65 H 19.275 L 40.05,58 62.75,66.975 79.1125,76.3 Z"
         fill="#41484a"
         id="path1" /><path
         d="m 83.775,57.825 c 0,0 1.5375,-14.5375 3.1625,-20.2375 2.2875,-8.0125 8.8,-14.3375 14.2495,-14.9625 5.45,-0.6125 4.75,3.6125 1.413,5.3625 -3.2125,1.6875 -6.6875,0.7 -6.6875,0.7 0,0 -4.4875,3.275 -5.9875,10.025 -1.7625,7.925 -3.1625,20.2375 -3.1625,20.2375 z m -4.8375,0.9625 c 0,0 -5.9625,-12.1125 -12.4,-19.8 -6.425,-7.65 -14.6,-7.925 -15.75,-8.0125 -1.15,-0.0875 -5.9875,0.7 -5.9875,2.9875 0,3.075 4.25,3.625 6.6875,3.1625 2.8125,-0.525 4.1375,-2.2 4.1375,-2.2 0,0 5.225,2.075 8.7125,6.25 4.05,4.8375 11.525,19.45 11.525,19.45 l 0.525,1.9375 z"
         fill="#676f72"
         id="path2" /><path
         d="m 68.55,117.125 c -2.1875,-1.088 -8.8,5.1 -8.8,8.1 0,1.963 1.4125,5.275 4.4,4.4 3,-0.888 7.225,-11.1 4.4,-12.5 z m -11.7875,0 c 2.8125,2.462 7.4625,-2.438 9.5,-5.625 2.4625,-3.875 3.7,-13.55 2.9875,-13.2 -0.7,0.35 -9.5,6.687 -9.5,6.687 0,0 -6.675,8.913 -2.9875,12.138 z m 13.375,11.962 c 0,3.075 3.3375,5.276 6.6875,4.751 1.75,-0.276 4.8875,-1.901 4.575,-4.751 -0.35,-3.162 -1.7625,-7.924 -5.1,-8.449 -3.35,-0.525 -6.1625,3.349 -6.1625,8.449 z m 18.625,-24.199 c 0,0 -4.6125,9.687 -5.6125,12.05 -1.4125,3.337 -1.4625,11.675 2.2875,13.025 2.675,0.962 3.3375,-3.7 3.3375,-3.7 0,0 0.4625,-9.551 0.4625,-12.713 0.0125,-3.163 -0.475,-8.662 -0.475,-8.662 z m 3.55,-10.988 c 0,0 8.8005,10.213 11.4375,12.138 2.638,1.937 7.213,7.387 13.2,3.337 5.988,-4.05 -10.212,-17.6 -11.612,-18.65 C 103.925,89.675 91.25,89.5 91.25,89.5 Z m 3.1625,9.85 c 0,0 6.15,5.612 7.388,6.862 2.637,2.638 5.625,5.088 6.862,8.801 0.7,2.112 1.763,5.275 -0.525,6.512 -1.887,1.013 -4.25,-1.737 -5.1,-2.638 -0.862,-0.9 -4.1625,-8.162 -6.0875,-12.299 -0.8,-1.7 -2.5375,-7.238 -2.5375,-7.238 z m 17.95,10.562 c -1.412,1.9 0.4,8.451 2.288,9.676 3.525,2.287 7.737,-1.763 7.737,-3.7 0.013,-1.938 -7.037,-10.026 -10.025,-5.976 z m -2.287,-24.287 c 0,0 7.737,12.137 11.962,14.6 4.225,2.462 7.55,2.187 8.8,0 2.813,-4.925 -9.325,-11.6125 -9.325,-11.6125 z m 9.675,19 c -1.05,2.288 3.337,8.975 6.337,8.975 3,0 4.075,-4.237 3.875,-5.625 -0.35,-2.462 -8.412,-7.25 -10.212,-3.35 z M 77,94.25 c 0,0 -8.1125,13.325 -5.625,19.887 1.9375,5.1 7.2125,4.226 11.7875,-4.399 4.575,-8.625 5.45,-14.0755 5.45,-14.0755 L 87.2,90.7375 Z"
         fill="#ff8b03"
         id="path3" /><path
         d="m 79.9875,75.4125 c 0,0 -7.2125,-6.5125 -21.825,-12.675 C 43.55,56.575 30.5375,52.7125 18.925,52.8875 7.31251,53.0625 5.55001,55.7 5.02501,57.8125 c -0.525,2.1125 1.55,8.775 3.875,12.85 2.81249,4.925 13.37499,22 17.07499,27.275 3.1875,4.5625 5.3875,9.6245 12.3125,11.2625 7.6875,1.812 17.075,-2.113 17.075,-2.113 0,0 -8.975,8.1 -9.5,16.713 -0.525,8.625 4.05,14.787 13.55,18.125 9.5,3.337 23.375,5.9 27.8,-4.575 1.2875,-3.05 1.05,-6.163 1.05,-6.163 0,0 -3.2,9.138 -8.1,10.025 -3.875,0.7 -3.3375,-1.587 -6.8625,-1.937 -3.525,-0.35 -2.9875,2.287 -6.6875,2.287 -2.8375,0 -1.9375,-2.287 -4.925,-3.875 C 58.7,136.1 57,138.662 55.175,137.162 52.1875,134.7 55,133.462 53.7625,131.537 c -1.2375,-1.937 -4.075,-2.525 -4.75,-4.925 -1.2375,-4.4 1.2375,-7.737 3.875,-11.612 2.6375,-3.875 7.3875,-9.5 11.0875,-12.138 3.7,-2.637 21.9125,-11.3245 21.9125,-11.3245 0,0 0.9625,-3.275 -0.4375,-3.1 -1.4125,0.175 -17.95,8.975 -20.95,10.9125 -2.9875,1.937 -15.925,8.637 -25.3375,6.512 C 33.7125,104.625 23.875,87.275 19.9,81.875 15.925,76.475 9.05001,63.225 9.60001,59.4 10.1125,55.875 16.1125,55.175 25.2625,56.2375 c 9.15,1.05 17.25,3.875 28.6875,8.625 11.4375,4.75 24.4625,13.55 26.05,13.55 1.575,0 -0.0125,-3 -0.0125,-3 z M 90.725,77.525 c 0,0 -1.4125,-3.4 1.05,-7.625 2.4625,-4.225 10.388,-16.125 18.475,-23.35 8.1,-7.2125 35.375,-22.175 41.525,-17.775 6.163,4.4 -0.525,21.7 -1.937,27.625 -1.225,5.1625 -2.813,21.7625 -8.8,28.6875 -4.65,5.3875 -14.6,7.2125 -14.6,7.2125 0,0 16.175,7.762 16.887,17.95 0.875,12.5 -13.725,26.775 -24.637,26.4 -8.388,-0.288 -10.563,-6.688 -10.563,-6.688 0,0 7.738,4.4 10.913,3.525 3.162,-0.875 0.875,-3.875 3.875,-5.625 3,-1.75 5.45,2.813 7.737,0.7 2.288,-2.112 0.525,-4.05 2.113,-6.162 1.587,-2.113 3.875,0 5.275,-1.938 1.412,-1.937 0,-4.575 0.7,-6.337 0.7,-1.763 2.112,-2.113 1.937,-4.75 -0.175,-2.638 -5.1,-8.8 -11.262,-11.7875 -6.163,-2.9875 -12.85,-4.4 -18.3,-5.45 -5.45,-1.05 -19.538,-2 -19.538,-2 0,0 -1.2375,-2.875 -0.525,-2.7625 1.4125,0.2375 4.925,0.525 10.213,0.7 10.675,0.35 27.8,2.8125 35.375,-3.1625 7.575,-5.975 8.8,-22.875 9.5,-27.275 0.7,-4.4 7.387,-23.7625 3.525,-25.6875 -3.875,-1.9375 -22.925,5.7625 -33.375,13.8375 -10.45,8.075 -18.0005,19.25 -20.288,23.825 -2.2875,4.575 -5.275,7.9125 -5.275,7.9125 z"
         fill="#676f72"
         id="path4" /><path
         d="m 90.5125,73.35 c 0.9625,-1.325 2.4375,-2.3625 1.8,-8.8375 -0.7,-7.125 -6.825,-8.925 -11.6625,-7.875 -3.925,0.85 -9.4625,4.5375 -6.4625,13.4125 2.65,7.8875 11.6125,5.45 11.6125,5.45 0,0 3.7375,-0.8375 4.7125,-2.15 z"
         fill="#41484a"
         id="path5" /><path
         d="m 120.397,50.0534 c 1.579,-1.0541 2.182,-2.9233 1.346,-4.175 -0.835,-1.2517 -2.793,-1.4119 -4.372,-0.3578 -1.579,1.0541 -2.181,2.9233 -1.346,4.175 0.836,1.2517 2.793,1.4119 4.372,0.3578 z"
         fill="#fcfdfa"
         id="path6" /><path
         d="m 146.512,51.8375 c -0.787,-1.2875 -2.512,-1.575 -3.962,-0.35 -0.988,0.825 -1.8,2.8 -0.963,4.05 0.838,1.25 2.675,1.4 3.875,0.4375 1.475,-1.1875 1.763,-2.9625 1.05,-4.1375 z m -16.1,-7.925 c -0.837,-1.25 -3.087,-1.4 -4.662,-0.35 -1.575,1.05 -2.763,3.0125 -1.5,4.925 0.875,1.325 2.887,1.3 4.837,0.175 1.85,-1.05 2.163,-3.4875 1.325,-4.75 z m 21.113,-11.35 c 0,1.3625 -0.875,2.725 -2.725,2.4625 -1.688,-0.2375 -2.463,-0.875 -2.463,-2.725 0,-1.3625 1.3,-2.2 2.688,-2.2 1.387,0 2.5,1.1 2.5,2.4625 z M 149.412,43.3 c 0,1.3625 -1.35,2.55 -2.725,2.4625 -1.325,-0.0875 -2.462,-0.875 -2.462,-2.725 0,-1.3625 1.337,-2.375 2.725,-2.375 1.387,0 2.462,1.275 2.462,2.6375 z"
         fill="#fcfdfa"
         id="path7" /><path
         d="m 142.237,69.7875 c 1.485,0 2.688,-1.2033 2.688,-2.6875 0,-1.4843 -1.203,-2.6875 -2.688,-2.6875 -1.484,0 -2.687,1.2032 -2.687,2.6875 0,1.4842 1.203,2.6875 2.687,2.6875 z"
         fill="#fcfdfa"
         id="path8" /><path
         d="m 25.925,92.75 c 1.291,0 2.3375,-1.0633 2.3375,-2.375 0,-1.3117 -1.0465,-2.375 -2.3375,-2.375 -1.291,0 -2.3375,1.0633 -2.3375,2.375 0,1.3117 1.0465,2.375 2.3375,2.375 z"
         fill="#fcfdfa"
         id="path9" /><path
         d="m 12.5,57.4625 c 1.0375,1.3875 0.225,2.9375 -1.075,4 -1.2875,1.0625 -3.06251,1.0375 -3.95001,-0.05 -0.8875,-1.0875 -0.5625,-2.8375 0.7375,-3.9 1.3,-1.0625 3.27501,-1.425 4.28751,-0.05 z M 20.925,76.1 c 1.775,0.35 2.2625,1.9125 2.025,3.425 -0.2375,1.525 -1.6,2.575 -3.05,2.35 -1.45,-0.225 -2.4375,-1.6375 -2.2125,-3.1625 0.225,-1.525 1.4875,-2.95 3.2375,-2.6125 z m -5.35,-8.875 c 1.2875,1.275 0.825,2.8375 -0.2125,3.975 -1.0375,1.1375 -2.75,1.2625 -3.8375,0.2625 -1.0875,-0.9875 -1.125,-2.7125 -0.0875,-3.85 1.0375,-1.1375 2.875,-1.65 4.1375,-0.3875 z m 21.6375,-5.2125 c 1.3,1.025 0.925,2.675 -0.025,4 -0.95,1.325 -2.6,1.775 -3.7,1 -1.1,-0.775 -1.2125,-2.4875 -0.2625,-3.825 0.95,-1.325 2.7,-2.1875 3.9875,-1.175 z m -4.025,-0.8 c -0.05,1.7 -1.6375,2.4 -3.3,2.4125 -1.6625,0.025 -3.025,-1.0875 -3.0375,-2.4625 -0.0125,-1.3875 1.3125,-2.525 2.975,-2.5375 1.6625,-0.025 3.4125,0.9 3.3625,2.5875 z M 54.825,123.988 c 0,1.537 -0.975,2.775 -2.5125,2.775 -1.5375,0 -2.775,-1.25 -2.775,-2.8 0,-1.538 1.2375,-2.8 2.775,-2.8 1.5375,0 2.5125,1.275 2.5125,2.825 z m 4.6625,9.85 c -1,1.187 -3.05,1.012 -4.1,0.137 -1.0375,-0.875 -1.075,-2.55 -0.075,-3.737 1,-1.188 2.65,-1.45 3.7,-0.575 1.0375,0.875 1.475,2.987 0.475,4.175 z"
         fill="#fcfdfa"
         id="path10" /><path
         d="m 135.554,119.046 c 1.191,-0.803 1.606,-2.27 0.927,-3.278 -0.679,-1.007 -2.195,-1.174 -3.386,-0.371 -1.191,0.802 -1.606,2.269 -0.927,3.277 0.679,1.008 2.195,1.174 3.386,0.372 z"
         fill="#fcfdfa"
         id="path11" /><path
         d="m 138.619,111.007 c 1.19,-0.802 1.53,-2.381 0.759,-3.526 -0.772,-1.145 -2.363,-1.423 -3.553,-0.621 -1.191,0.803 -1.531,2.382 -0.76,3.527 0.772,1.145 2.363,1.422 3.554,0.62 z"
         fill="#fcfdfa"
         id="path12" /><path
         d="m 119,54.3625 c -4.362,-1.8125 -8.912,0.5874 -14.075,7.9749 -5.1625,7.3875 -7.975,12.55 -5.75,14.425 2.225,1.875 12.5,-7.6999 14.663,-9.3874 C 117,64.9125 123.813,56.35 119,54.3625 Z m -8.8,20.6374 c 2.9,-1.65 11.375,-0.9374 15.95,-1.1749 3.05,-0.1626 7.513,0.3125 7.625,1.8749 0.238,3.1625 -0.937,5.1625 -4.925,6.575 -3.987,1.4125 -13.375,1.6376 -19.362,1.7626 -3.525,0.0749 -6.763,0.4249 -7.163,-1.1751 -0.225,-0.9375 2.713,-4.925 7.875,-7.8625 z m 13.85,-13.8375 c 2.7,0.475 11.375,0.2375 13.838,-1.6375 1.5,-1.15 2.35,-5.9874 0,-7.0374 -2.35,-1.05 -9.038,-0.825 -11.613,1.175 -1.587,1.2125 -4.525,7.0999 -2.225,7.4999 z m 12.788,-22.0499 c -0.45,2.7625 3.987,2.7 5.987,2.1125 2,-0.5875 4.688,-3.75 3.4,-5.4 -1.3,-1.65 -8.812,-0.35 -9.387,3.2875 z m -3.175,6.8 c 0,2 1.637,2.7 3.987,2.7 2.35,0 3.875,-1.4875 3.875,-3.05 0,-2.1125 -2,-2.9375 -4.575,-2.4625 -1.962,0.35 -3.287,1.175 -3.287,2.8125 z M 117.95,70.1999 c 0,1.5 4.225,1.05 10.325,1.05 6.1,0 7.513,-0.9375 8.213,-3.2875 0.7,-2.35 0.475,-3.875 -3.163,-3.9875 -3.637,-0.1125 -10.787,0.2375 -12.9,1.7625 -0.962,0.6875 -2.475,3.2875 -2.475,4.4625 z m -81.5375,24.275 c -0.25,2.6875 2.1125,6.1001 9.15,5.5125 7.0375,-0.5875 15.375,-4.7375 17.6,-5.75 4.1,-1.875 7.8625,-3.4 7.8625,-5.275 0,-2.1125 -4.6875,-2.8125 -11.025,-3.4 -6.3375,-0.5875 -11.025,0.5875 -16.3125,3.525 -4.4125,2.45 -7.1625,4.1 -7.275,5.3875 z m -6.925,-9.2625 c -0.2125,1.625 2.4625,5.5125 4.225,5.625 1.7625,0.1125 11.025,-4.8125 11.2625,-6.4499 0.2375,-1.6375 -2.1125,-4.2251 -3.9875,-4.6876 -1.875,-0.475 -11.2625,3.75 -11.5,5.5125 z m 11.5,-17.9499 c -2.825,2.8249 0.475,8.0999 6.575,11.1499 6.1,3.05 15.8375,3.875 19.7125,4.4626 3.875,0.5875 6.6875,0.6999 7.275,-0.4751 1.2625,-2.5125 -8.1,-7.1625 -16.775,-11.2625 -5.4125,-2.5625 -14.5625,-6.0999 -16.7875,-3.8749 z m -27.575,-5.7501 c 0.35,3.525 9.7375,2.625 9.85,-0.825 0.125,-3.4 -10.2,-2.6875 -9.85,0.825 z m 6.1,8.2125 c 1.4625,2.4375 7.5125,0.2375 5.5125,-2.9375 -1.9,-3.0125 -7.625,-0.575 -5.5125,2.9375 z m 6.575,9.7375 c 0.9625,1.6375 4.1625,1.525 7.1625,0.1125 2,-0.9375 4.625,-2.8625 4.1,-5.1625 -0.5875,-2.575 -5.4,-2.9375 -8.5625,-1.4124 -2.2375,1.0874 -4.7,3.0624 -2.7,6.4624 z"
         fill="#ff8b03"
         id="path13" /><path
         d="m 92.575,89.05 -7.8375,2.2001 c 0,0 2.425,10.4999 3.3375,14.4249 0.9625,4.138 7.125,33.963 11.962,33.175 C 105.025,138.038 96.7,107.175 95.9,103.825 95.15,100.613 92.575,89.05 92.575,89.05 Z"
         fill="#676f72"
         id="path14" /><path
         d="m 91.7875,103.138 c 2.3125,-0.5 3.5875,-1.888 3.5875,-1.888 l 1.5375,6.625 c 0,0 -1.1625,1.075 -3.45,1.6 -2.525,0.588 -4.4875,0.138 -4.4875,0.138 l -1.5125,-6.575 c -0.0125,-0.013 1.85,0.625 4.325,0.1 z m -7.05,-11.8879 7.825,-2.2001 1.1625,5.2751 c 0,0 -2.0625,1.0375 -3.7375,1.3875 -1.675,0.35 -4.1375,0.375 -4.1375,0.375 z m 5.6375,24.3749 c 0,0 2.225,0.263 4.25,-0.175 2.025,-0.437 3.7125,-1.737 3.7125,-1.737 l 1.3,5.825 c 0,0 -1.925,1.362 -3.6875,1.687 -1.8125,0.338 -4.1,0.138 -4.075,0.138 z"
         fill="#41484a"
         id="path15" /><path
         d="M 84.0375,70.8375 C 81.3,71.6 79.25,73.3 79.1125,76.2875 c -0.175,3.875 0.7,6.1626 1.7625,9.8501 0.675,2.3624 1.4625,7.7749 8.625,5.9874 4.925,-1.2375 4.4,-5.8125 4.225,-9.15 -0.175,-3.3625 -0.875,-7.7375 -2.1125,-9.675 -1.15,-1.8 -4.4,-3.3375 -7.575,-2.4625 z M 90.675,59.275 c 1.0875,1.6125 1.125,3.8375 -0.3,4.7875 -1.4125,0.95 -3.75,0.275 -4.8375,-1.3375 -1.0875,-1.6125 -0.8125,-3.6875 0.6,-4.65 1.425,-0.95 3.45,-0.4125 4.5375,1.2 z m -11.55,5.2 C 78.6,66.35 76.8,67.7 75.1625,67.2375 c -1.65,-0.4625 -2.5125,-2.5375 -2,-4.4125 0.525,-1.875 2.275,-3.025 3.925,-2.5625 1.65,0.4625 2.55,2.3375 2.0375,4.2125 z"
         fill="#303031"
         id="path16" /></g><ellipse
       style="fill:#ffffff;fill-opacity:1;stroke-width:0.264583"
       id="path205"
       cx="71.751534"
       cy="55.060665"
       rx="1.6626914"
       ry="1.7266411" /><ellipse
       style="fill:#ffffff;fill-opacity:1;stroke-width:0.264583"
       id="path205-3"
       cx="83.638863"
       cy="52.234962"
       rx="1.6626914"
       ry="1.7266411" /></g></svg>
