<?xml version="1.0" encoding="UTF-8" standalone="no"?>
<!-- Created with Inkscape (http://www.inkscape.org/) -->

<svg
   width="0"
   height="0"
   viewBox="0 0 40 40"
   version="1.1"
   id="svg1"
   xml:space="preserve"
   inkscape:export-filename="castor.svg"
   inkscape:export-xdpi="96"
   inkscape:export-ydpi="96"
   xmlns:inkscape="http://www.inkscape.org/namespaces/inkscape"
   xmlns:sodipodi="http://sodipodi.sourceforge.net/DTD/sodipodi-0.dtd"
   xmlns="http://www.w3.org/2000/svg"
   xmlns:svg="http://www.w3.org/2000/svg"
   xmlns:rdf="http://www.w3.org/1999/02/22-rdf-syntax-ns#"
   xmlns:cc="http://creativecommons.org/ns#"
   xmlns:dc="http://purl.org/dc/elements/1.1/"><defs
     id="defs1" /><sodipodi:namedview
     id="base"
     pagecolor="#ffffff"
     bordercolor="#000000"
     borderopacity="0.3"
     inkscape:pageopacity="0.0"
     inkscape:pageshadow="2"
     inkscape:zoom="0.35"
     inkscape:cx="400"
     inkscape:cy="560"
     inkscape:document-units="px"
     inkscape:showpageshadow="2"
     inkscape:pagecheckerboard="0"
     inkscape:deskcolor="#d1d1d1" /><metadata
     id="metadata1"><rdf:RDF><cc:Work
         rdf:about=""><dc:format>image/svg+xml</dc:format><dc:type
           rdf:resource="http://purl.org/dc/dcmitype/StillImage" /></cc:Work></rdf:RDF></metadata><g
     inkscape:label="Calque 1"
     id="layer1"
     transform="matrix(0.26458333,0,0,0.26458333,0.43171163,-0.23348348)"><g
       id="g1"
       transform="matrix(1.2607308,0,0,1.2607308,-1.6193023,-5.8720497)"><path
         fill="#8a5b51"
         d="M 73.99,78.07 62.3,83.14 c 0,0 2.96,6.05 4.5,8.45 1.54,2.4 3.59,4.08 3.87,7.04 0.28,2.96 -1.15,12.06 -2.42,14.45 -1.09,2.06 -2.3,3.78 -1.31,5.19 0.99,1.41 6.57,1.5 7.41,0.07 0.64,-1.08 0.82,-4.5 0.96,-5.77 0.14,-1.27 0.84,-6.26 1.41,-10.21 0.36,-2.51 1.2,-4.15 1.34,-5.84 C 78.2,94.83 75.51,92.59 74.54,90.89 72.3,86.94 73.99,78.07 73.99,78.07"
         id="path1" /><path
         fill="#ffeac3"
         d="m 86.1,66.88 3.73,2.46 c 0,0 5.28,0.14 6.48,-4.86 0.93,-3.89 0,-7.93 -1.76,-6.76 -0.42,0.28 -2.04,5.56 -2.04,5.56 z M 34.15,40.62 31.19,40.9 c 0,0 -1.38,0.61 -2.44,0.89 -1.09,0.29 -2.77,0.48 -3.05,1.33 -0.28,0.84 -0.22,5.41 0.77,6.79 0.7,0.99 1.13,2.6 4.93,2.53 3.8,-0.07 9.08,-0.21 9.08,-0.21 L 38.86,42.1 Z"
         id="path2" /><path
         fill="#d17856"
         d="m 50.69,33.23 c 0,0 -2.32,-3.17 -6.73,-2.7 -3.08,0.33 -6.01,2.63 -6.01,2.63 0,0 -3.03,-5.56 -5.7,-7.67 -2.67,-2.11 -8.45,-4.5 -9.43,-3.17 -0.99,1.34 3.17,6.83 5.21,9.5 2.04,2.67 5.56,6.48 5.56,6.48 0,0 -1.06,1.83 -2.6,2.64 1.62,0.21 3.68,0.75 5.23,2.97 1.64,2.35 2.77,5.96 2.25,8.35 -0.46,2.11 -3.12,5.4 -2.77,12.22 0.35,6.83 1.83,10.98 3.1,13.09 1.27,2.11 4.36,5.98 4.36,5.98 0,0 0.28,7.74 0.21,11.83 -0.07,4.08 -0.84,11.47 -1.55,15.06 -0.7,3.59 -1.55,5.28 -2.39,6.34 -0.84,1.06 -2.37,3.33 0.25,3.94 1.97,0.46 4.87,0.16 5.55,-0.05 1.42,-0.44 1.03,-2.77 0.96,-4.04 -0.07,-1.27 1.62,-11.43 2.04,-15.72 0.41,-4.12 1.22,-9.25 1.5,-11.64 0.33,-2.77 0.71,-4.06 1.22,-3.99 0.7,0.09 0.82,1.06 0.75,3.38 -0.07,2.34 -0.66,9.33 -0.94,13.34 -0.28,4.01 -1.38,13.77 -1.6,14.55 -0.21,0.77 -2.28,2.87 -2.06,4.53 0.19,1.43 1.9,2.04 4.08,2.04 2.18,0 3.7,-0.59 3.85,-1.78 0.19,-1.55 -0.12,-2.65 -0.19,-4.34 -0.07,-1.69 1.41,-13.3 1.6,-15.6 0.16,-1.98 1.78,-10.72 2.06,-11.85 0.28,-1.13 0.41,-2.43 0.66,-3.03 0.19,-0.47 5.33,0.28 9.69,-1.83 4.36,-2.11 7.11,-4.93 7.11,-4.93 0,0 3.1,4.15 4.65,6.05 1.55,1.9 7.04,9.22 7.25,11.83 0.21,2.6 0.49,11.97 0.49,14.57 0,2.6 -0.07,4.58 -0.28,5.14 -0.21,0.56 -2.67,3.87 -1.97,5.07 0.7,1.2 2.65,1.5 4.88,1.27 2.31,-0.24 3.34,-1.22 3.71,-2.67 0.66,-2.58 -0.38,-13.21 -0.23,-18.63 0.14,-5.42 0.94,-7.27 0.38,-8.68 -0.56,-1.41 -3.31,-4.72 -4.15,-8.94 -0.84,-4.22 -0.07,-7.39 -0.07,-11.12 0,-3.73 -0.21,-5.98 -0.21,-5.98 0,0 2.82,-1.07 3.98,-3.17 1.16,-2.11 1.58,-6.83 0.53,-6.97 -1.06,-0.14 -2.56,2.71 -3.17,3.38 -1.03,1.13 -3.1,1.62 -3.1,1.62 0,0 -2.32,-6.26 -9.15,-7.53 -6.83,-1.27 -15.1,2.19 -19.43,3.03 -4.36,0.84 -7.04,1.41 -7.74,0.14 -0.7,-1.27 0.21,-3.8 1.69,-6.26 1.48,-2.46 2.23,-4.08 2.44,-5.77 0.21,-1.69 0.23,-3.45 0.23,-3.45 0,0 5.07,-0.92 8.17,-4.36 3.1,-3.45 5.84,-10.7 6.76,-12.53 0.92,-1.83 1.69,-2.18 1.27,-3.17 -0.42,-0.99 -6.12,-1.27 -9.64,-0.28 -3.2,0.9 -7.74,3.8 -9.57,6.12 -1.86,2.3 -2.99,4.76 -2.99,4.76"
         id="path3" /><path
         fill="#ffeac3"
         d="m 54.75,37.9 c -1.42,-1.36 -1.22,-3.71 1.08,-6.52 2.3,-2.81 5.1,-4.55 7.65,-5.54 2.06,-0.8 4.91,-1.58 5.54,-0.99 0.29,0.28 -1.47,3.84 -3.58,7.25 -1.94,3.14 -4.35,5.51 -6.23,6.22 -1.66,0.62 -3.38,0.61 -4.46,-0.42 M 25.88,25.07 c -0.33,0.61 1.59,2.88 4.26,6.34 2.03,2.63 3.39,4.57 4.41,4.74 0.63,0.11 1.28,-0.5 1.06,-1.48 -0.39,-1.69 -1.85,-3.73 -3.8,-5.73 -2.26,-2.3 -5.6,-4.48 -5.93,-3.87"
         id="path4" /><path
         fill="#0a070b"
         d="m 46.62,40.55 c -0.11,1.65 -0.75,2.7 -2.29,2.82 -1.24,0.1 -2.29,-1.39 -2.29,-2.89 0,-1.5 1.05,-2.56 2.29,-2.56 1.24,0 2.4,1.13 2.29,2.63"
         id="path5" /><path
         fill="#2c2a32"
         d="m 27.409621,49.568355 c 0,0 2.254091,-2.396889 1.895468,-3.791517 -0.28142,-1.094397 -1.556512,-1.716442 -2.786223,-2.081698 -0.680436,-0.19674 -1.611849,-0.205039 -1.888836,0.444406 -0.267302,0.646954 -0.479812,2.229749 0.503077,4.486057 0.982889,2.256309 2.317749,2.38802 2.317749,2.38802 0,0 -0.361659,1.404316 3.833572,0.21195 4.195231,-1.192367 3.991568,-2.265456 3.737821,-2.850702 -0.263432,-0.582755 -2.81278,0.103776 -4.11637,0.655821 -1.925085,0.825439 -3.496258,0.537663 -3.496258,0.537663"
         id="path6" /><path
         fill="#bd9178"
         d="m 47.8,32.25 c 0,0 2.25,-5.42 2.75,-7.5 0.38,-1.61 0.42,-4.5 0.46,-6.23 0.01,-0.65 -0.42,-1.2 -0.39,-2.25 0.04,-1.19 0.69,-2.38 2.25,-2.43 1.45,-0.04 2.29,0.99 2.36,2.15 0.07,1.2 -0.49,1.83 -0.53,2.53 -0.11,1.87 -0.32,5.56 -0.32,5.56 0,0 2.85,-2.67 3.17,-3.48 0.32,-0.81 0.35,-4.89 0.35,-5.7 v -1.94 c 0,0 -0.83,-1.18 -0.81,-2.22 0.01,-0.83 0.63,-2.08 2.01,-2.11 1.49,-0.04 2.12,0.94 2.22,1.97 0.09,1.03 -0.42,1.97 -0.42,1.97 l -0.14,4.33 c 0,0 1.58,-2.08 2.22,-2.96 0.63,-0.88 1.34,-2.29 1.34,-2.29 0,0 -0.36,-1.17 -0.21,-2.32 0.14,-1.04 0.84,-2.18 2.29,-2.22 1.41,-0.03 2.18,1.06 2.18,2.22 0,1.76 -1.06,2.96 -1.06,2.96 0,0 -2.6,5.1 -4.61,7.74 -1.46,1.92 -2.46,3.34 -3.1,3.73 -0.63,0.39 -4.65,2.64 -6.48,5.35 -1.17,1.73 -2.64,4.12 -2.64,4.12 0,0 -0.69,1.01 -1.97,0.53 C 47.7,33.37 47.8,32.25 47.8,32.25 M 23.52,10.78 c 0,0 2.01,5.1 3.41,7.88 1.4,2.78 3.48,5.63 3.48,5.63 0,0 2.87,2.15 3.8,3.27 1.69,2.04 3.63,5.81 3.63,5.81 l 2.31,-1.62 -2.06,-3.55 c 0,0 -0.04,-3.63 -0.04,-5.03 0,-1.16 0.04,-3.2 0.04,-3.2 0,0 0.69,-1.07 0.74,-2.15 0.06,-1.22 -0.59,-2.46 -2.04,-2.53 -1.37,-0.07 -2.15,1.12 -2.25,2.18 -0.11,1.06 0.46,2.01 0.46,2.01 l -0.14,5.74 c 0,0 -0.77,-1.44 -1.06,-1.83 -0.29,-0.39 -0.97,-2 -1.13,-2.29 -0.32,-0.6 0.32,-5.63 0.32,-6.44 0,-0.81 0.21,-3.17 0.21,-3.17 0,0 0.68,-1.03 0.67,-2.18 C 33.86,8.28 33.25,7.14 32,7.05 c -1.41,-0.11 -2.15,0.9 -2.32,1.83 -0.21,1.14 0.28,2.11 0.28,2.11 0,0 -0.22,5.13 -0.56,5.03 -0.39,-0.11 -2.75,-6.26 -2.75,-6.26 0,0 0.54,-1.28 0.14,-2.89 -0.37,-1.49 -1.58,-2.43 -3.31,-1.94 -1.74,0.5 -2.08,2.32 -1.51,3.73 0.51,1.28 1.55,2.12 1.55,2.12"
         id="path7" /></g><circle
       style="fill:#ffffff;fill-opacity:1;stroke-width:0.815374"
       id="path8"
       cx="53.16687"
       cy="45.274059"
       r="1.2058465" /></g></svg>
