<?xml version="1.0" encoding="UTF-8" standalone="no"?>
<!-- Created with Inkscape (http://www.inkscape.org/) -->

<svg
   width="0"
   height="0"
   viewBox="0 0 40 40"
   version="1.1"
   id="svg1"
   xml:space="preserve"
   inkscape:export-filename="baleine.svg"
   inkscape:export-xdpi="96"
   inkscape:export-ydpi="96"
   xmlns:inkscape="http://www.inkscape.org/namespaces/inkscape"
   xmlns:sodipodi="http://sodipodi.sourceforge.net/DTD/sodipodi-0.dtd"
   xmlns="http://www.w3.org/2000/svg"
   xmlns:svg="http://www.w3.org/2000/svg"
   xmlns:rdf="http://www.w3.org/1999/02/22-rdf-syntax-ns#"
   xmlns:cc="http://creativecommons.org/ns#"
   xmlns:dc="http://purl.org/dc/elements/1.1/"><defs
     id="defs1"><linearGradient
       id="paint0_linear_337_303"
       x1="46.005001"
       y1="11.1445"
       x2="49.425598"
       y2="43.6926"
       gradientUnits="userSpaceOnUse"><stop
         offset="0.171"
         stop-color="#01AB46"
         id="stop10" /><stop
         offset="0.345"
         stop-color="#089E42"
         id="stop11" /><stop
         offset="0.671"
         stop-color="#1A7A37"
         id="stop12" /><stop
         offset="1"
         stop-color="#2F502A"
         id="stop13" /></linearGradient></defs><sodipodi:namedview
     id="base"
     pagecolor="#ffffff"
     bordercolor="#000000"
     borderopacity="0.3"
     inkscape:pageopacity="0.0"
     inkscape:pageshadow="2"
     inkscape:zoom="0.35"
     inkscape:cx="400"
     inkscape:cy="560"
     inkscape:document-units="px"
     inkscape:showpageshadow="2"
     inkscape:pagecheckerboard="0"
     inkscape:deskcolor="#d1d1d1" /><metadata
     id="metadata1"><rdf:RDF><cc:Work
         rdf:about=""><dc:format>image/svg+xml</dc:format><dc:type
           rdf:resource="http://purl.org/dc/dcmitype/StillImage" /></cc:Work></rdf:RDF></metadata><g
     id="g2"
     transform="matrix(0.26402254,0,0,0.26402254,-0.53246178,0.01288734)"><g
       style="fill:none"
       id="g205"
       transform="matrix(1.2668911,0,0,1.2668911,0.7301853,-4.0303976)"><path
         d="m 34.72,47.1297 c 0,0 5.6575,-8.1181 5.2506,-11.2472 -0.4068,-3.1387 -1.5015,-3.8168 -4.6403,-4.9115 -3.1387,-1.0947 -4.9793,-2.7997 -4.9793,-2.7997 0,0 -2.2766,-10.6853 -2.0441,-12.0028 0.2712,-1.5694 5.9287,-12.13847 19.3653,-12.13847 12.9522,0 18.2706,10.86937 17.5925,19.22967 -0.6103,7.566 -3.41,9.6875 -5.3862,15.9553 -1.9763,6.2775 -2.9354,10.0266 -2.9354,10.0266 l -11.6637,2.3831 -9.7553,-2.1119 z"
         fill="url(#paint0_linear_337_303)"
         id="path1"
         style="fill:url(#paint0_linear_337_303)" /><path
         d="m 51.5859,93.4941 c 0,0 0.7266,7.4009 -0.0194,8.3019 -0.7556,0.901 -12.0512,3.517 -13.3299,4.476 -1.3854,1.036 -0.7944,3.361 2.1506,6.045 2.945,2.683 5.4153,3.148 7.1106,2.451 1.9956,-0.814 5.4541,-3.459 7.0041,-4.64 1.24,-0.95 3.1,-2.965 3.3518,-4.583 0.2616,-1.617 -0.5425,-11.1209 -0.5425,-11.1209 z m 14.725,2.5962 c 0,0 1.0656,8.6417 0.5425,9.6877 -1.3659,2.732 -9.174,8.874 -9.6875,10.908 -0.4069,1.637 3.6813,4.912 7.7694,4.999 5.4637,0.126 8.8834,-2.035 9.2709,-3.226 0.5425,-1.686 -1.5015,-11.596 -1.7728,-12.139 -0.2712,-0.542 0.1356,-14.589 0.1356,-14.589 z"
         fill="#ff5d10"
         id="path2" /><path
         d="m 95.5769,52.7872 c 0,0 4.6501,-0.9107 4.6691,-4.0688 0.01,-3.1581 -1.6854,-1.7825 -1.7048,-4.0784 -0.0193,-2.296 4.1078,-2.8385 6.8198,-0.9107 2.141,1.521 7.033,6.4713 6.762,16.7497 -0.368,13.9597 -7.672,24.1703 -19.1715,30.4866 -9.3775,5.1441 -23.2112,4.5337 -23.2112,4.5337 z"
         fill="#5e6367"
         id="path3" /><path
         d="m 82.9928,53.9497 c 2.2766,-0.2713 12.2644,-3.4294 15.8197,-2.5188 4.2915,1.0947 8.5735,4.1172 7.7015,13.7079 -1.124,12.4484 -9.9684,20.0337 -13.7755,22.1165 -6.8104,3.72 -13.3591,3.8072 -13.3591,3.8072 0,0 1.3466,-36.8416 3.6134,-37.1128 z"
         fill="#b0b0b1"
         id="path4" /><path
         d="m 6.89752,24.2866 c 0,1.1625 7.22688,4.5725 14.04688,5.3863 6.82,0.8137 11.0437,-0.2713 11.0437,-0.2713 0,0 -1.1625,-2.9353 -1.1625,-5.115 0,-2.1797 1.1238,-7.6531 -0.6103,-8.9319 -1.5693,-1.1625 -2.8675,1.2304 -3.8168,1.9085 -0.9591,0.6781 -3.6813,2.5865 -7.9147,2.7319 -4.2335,0.1453 -7.9147,-0.5425 -9.40659,0.2712 -1.49188,0.8138 -2.17969,2.79 -2.17969,4.0203 z"
         fill="#ffbf18"
         id="path5" /><path
         d="m 48.6313,20.121 c -0.4069,1.6953 -1.5597,3.0225 -3.8169,2.664 -2.1119,-0.339 -3.1388,-2.5187 -2.5188,-4.6403 0.4844,-1.6759 1.7341,-2.8094 3.846,-2.4509 2.4219,0.4069 2.8772,2.79 2.4897,4.4272 z"
         fill="#2d2b33"
         id="path6" /><circle
         cx="45"
         cy="19"
         r="2"
         fill="#d9d9d9"
         id="circle6" /><path
         d="m 49.3287,24.7709 c 2.3928,-0.7556 4.1656,-0.7653 3.9138,-2.3928 -0.2907,-1.8697 -3.4003,-1.3369 -5.3766,-0.2906 -2.1022,1.114 -4.8341,3.0128 -3.6231,4.5531 1.2884,1.6372 3.7103,-1.4337 5.0859,-1.8697 z"
         fill="#73df86"
         id="path7" /><path
         d="m 32.1238,49.9876 c 0,0 2.0925,9.1353 12.5453,7.595 7.4691,-1.1044 13.0006,-4.8147 13.0006,-4.8147 l 0.0872,-6.0935 c 0,0 -4.96,2.9063 -10.9081,2.8191 -6.1806,-0.0872 -11.5475,-3.2744 -11.5475,-3.2744 z"
         fill="#ffffff"
         id="path8" /><path
         d="M 25.2166,66.9504 C 24.49,86.7613 39.4281,96.1775 63.1335,96.5844 89.406,97.0397 99.5681,81.6269 101.138,71.9491 102.775,61.8257 96.226,59.675 96.226,59.675 c 0,0 6.549,-2.7318 3.6134,-9.2031 -1.3659,-0.2712 -8.0891,1.521 -20.8669,0.2035 -12.6906,-1.3079 -21.39,0.9106 -21.39,0.9106 0,0 -3.1775,3.4584 -12.274,3.0031 C 34.41,54.0466 32.3078,49.7744 32.3078,49.7744 c 0,0 -6.6359,4.8535 -7.0912,17.176 z"
         fill="#84574e"
         id="path9" /><path
         d="m 50.404,70.8543 c 2.2088,7.6531 10.0944,12.2741 21.8163,11.7316 10.6369,-0.4941 18.3675,-7.9147 19.6366,-14.4538 1.3853,-7.1106 -1.5016,-9.8231 -1.5016,-9.8231 0,0 6.1419,-2.2281 6.1419,-6.5487 -3.4585,-2.0925 -14.4538,-3.5457 -26.6407,-4.001 -7.905,-0.2906 -12.3612,2.635 -12.3612,2.635 0,0 -11.1891,6.2775 -7.0913,20.46 z"
         fill="#b79277"
         id="path10" /></g></g></svg>
