<?xml version="1.0" encoding="UTF-8" standalone="no"?>
<!-- Created with Inkscape (http://www.inkscape.org/) -->

<svg
   width="0"
   height="0"
   viewBox="0 0 40 40"
   version="1.1"
   id="svg1"
   xml:space="preserve"
   inkscape:export-filename="etoile.svg"
   inkscape:export-xdpi="96"
   inkscape:export-ydpi="96"
   xmlns:inkscape="http://www.inkscape.org/namespaces/inkscape"
   xmlns:sodipodi="http://sodipodi.sourceforge.net/DTD/sodipodi-0.dtd"
   xmlns="http://www.w3.org/2000/svg"
   xmlns:svg="http://www.w3.org/2000/svg"
   xmlns:rdf="http://www.w3.org/1999/02/22-rdf-syntax-ns#"
   xmlns:cc="http://creativecommons.org/ns#"
   xmlns:dc="http://purl.org/dc/elements/1.1/"><defs
     id="defs1" /><sodipodi:namedview
     id="base"
     pagecolor="#ffffff"
     bordercolor="#000000"
     borderopacity="0.3"
     inkscape:pageopacity="0.0"
     inkscape:pageshadow="2"
     inkscape:zoom="0.35"
     inkscape:cx="400"
     inkscape:cy="560"
     inkscape:document-units="px"
     inkscape:showpageshadow="2"
     inkscape:pagecheckerboard="0"
     inkscape:deskcolor="#d1d1d1" /><metadata
     id="metadata1"><rdf:RDF><cc:Work
         rdf:about=""><dc:format>image/svg+xml</dc:format><dc:type
           rdf:resource="http://purl.org/dc/dcmitype/StillImage" /></cc:Work></rdf:RDF></metadata><g
     inkscape:label="Calque 1"
     id="layer1"
     transform="matrix(0.26636915,0,0,0.26636915,0.15238797,0.09519321)"><g
       id="g3"
       transform="matrix(0.992957,0,0,0.992957,2.3463856,-0.13628299)"><g
         id="g2"
         transform="matrix(1.2608704,0,0,1.2608704,-7.2816969,-5.4399283)"><path
           fill="#f77eae"
           d="m 66.57,64.7 4.5,-0.38 c 0,0 0.75,50.49 0,52.37 -0.75,1.88 -8.26,9.76 -12.95,4.32 -4.69,-5.44 0,-6.19 3.75,-6.57 3.75,-0.38 4.88,0.38 5.07,-0.94 0.2,-1.31 -0.37,-48.8 -0.37,-48.8 M 38.7,9 c 0,0 5.73,-6.05 13.8,-3.8 8.07,2.25 8.63,12.53 3.85,20.46 C 52.26,32.44 43.9,44.42 44.06,51 c 0.14,6.03 5.63,5.44 8.07,0.94 2.44,-4.5 3.21,-6.52 3.21,-6.52 l 9.71,23.65 c 0,0 -14.62,9.07 -27.38,-2.58 -11.92,-10.89 2.11,-32.01 4.97,-37.26 1.69,-3.1 2.86,-5.68 2.53,-8.54 -0.19,-1.68 -2.42,-3.12 -3.94,-3.73 -1.46,-0.58 -9.5,-3.19 -9.5,-3.19 z"
           id="path1" /><path
           fill="#f2478d"
           d="m 66.29,70.7 c 0,0 19.23,10.88 18.21,11.36 -1.41,0.66 -9.1,2.25 -13.14,3.1 -3.21,0.67 -7.79,1.22 -9.57,2.25 -1.78,1.03 -4.6,5.07 -5.16,6.38 -0.56,1.31 -1.03,3.85 2.72,5.63 3.75,1.78 5.91,-0.66 5.91,-2.82 0,-2.16 -0.66,-5.16 0,-5.54 0.87,-0.49 7.13,-2.06 10.89,-2.91 3.76,-0.85 11.36,-2.91 12.48,-3.19 1.13,-0.28 3.19,-0.38 3.57,-2.16 0.38,-1.78 -2.44,-2.44 -3.85,-3.28 -1.41,-0.84 -5.73,-3.75 -7.6,-4.88 -1.88,-1.13 -7.88,-5.73 -7.88,-5.73 l -6.19,-0.56 z"
           id="path2" /><path
           fill="#ffd4ac"
           d="m 38.7,7.54 c 0,0 0.56,-0.56 2.91,-0.56 2.35,0 6.48,1.88 8.54,2.82 2.06,0.94 4.13,1.88 4.13,2.53 0,0.66 -4.97,1.6 -7.41,2.16 -2.44,0.56 -6.85,1.97 -6.85,1.97 l -6.01,-5.35 z"
           id="path3" /><path
           fill="#1a191e"
           d="m 50.43,11.62 c 0,1.37 -1.16,2.49 -2.58,2.49 -1.43,0 -2.67,-1.16 -2.67,-2.53 0,-1.37 1.11,-2.53 2.53,-2.53 1.42,0 2.72,1.2 2.72,2.57"
           id="path4" /><path
           fill="#f2478d"
           d="m 41.28,6.95 -5.16,0.21 -7.09,7.88 -0.19,3.1 c 0,0 2.67,-1.03 5.4,-1.45 2.72,-0.42 3.65,-0.43 4.27,-0.38 1.03,0.09 1.69,0.19 1.69,0.19 0,0 1.8,-2.68 1.88,-4.5 0.14,-3.15 -0.8,-5.05 -0.8,-5.05"
           id="path5" /><path
           fill="#5f6369"
           d="m 28,7.87 c -1.59,1.02 -3.24,4.04 -4.27,5.91 -1.03,1.87 -2.61,6.25 -0.56,7.23 1.38,0.66 4.22,-2.11 6.1,-2.91 1.83,-0.78 3.12,-1.03 3.12,-1.03 0,0 0.19,-0.75 0.49,-0.94 0.3,-0.19 5.63,-1.17 5.63,-1.17 v -1.31 c 0,0 -6.24,1.17 -6.34,0.75 -0.09,-0.42 1.48,-3.05 2.7,-4.32 1.22,-1.27 4.08,-3 4.08,-3 0,0 -2.6,-0.23 -5.47,-0.42 C 30.87,6.48 29.69,6.79 28,7.87"
           id="path6" /><path
           fill="#1a191e"
           d="m 36.31,14.44 1.92,-1.08 c 0,0 1.27,-1.13 2.11,-0.28 0.87,0.87 -0.33,2.53 -1.55,1.97 -0.9,-0.42 -2.48,-0.61 -2.48,-0.61"
           id="path7" /><path
           fill="url(#notoFlamingo0)"
           d="m 54.49,58.86 c 1.27,3.8 3.45,13.02 18.65,13.02 10.98,0 14.27,-0.17 17.53,0.56 2.18,0.49 4.58,2.04 6.62,2.6 0.63,0.17 -0.21,-2.53 -0.63,-4.01 -0.24,-0.85 -0.99,-2.46 -0.99,-2.46 0,0 1.9,0.49 3.52,1.2 1.33,0.58 3.03,1.34 4.08,1.97 0.69,0.41 -0.19,-2.86 -1.06,-5 -0.61,-1.49 -2.67,-4.08 -2.67,-4.08 0,0 1.97,0.77 2.82,1.13 0.51,0.21 1.57,0.73 2.42,0.96 0.72,0.2 -3.61,-7.65 -5.44,-9.83 -1.83,-2.18 -5.7,-5.77 -7.53,-6.9 C 89.98,46.89 75.83,47.18 75.83,47.18 L 54.85,48.24 C 54.84,48.23 52.87,54 54.49,58.86"
           id="path11"
           style="fill:#f2478d;fill-opacity:1" /><path
           fill="url(#notoFlamingo1)"
           d="m 66.11,37.88 c 8.55,-1.06 16.26,3.38 20.98,6.12 4.72,2.75 10.49,8.94 10.49,8.94 0,0 -3.26,0.5 -5.75,0.45 -2.3,-0.05 -5.44,-0.52 -5.44,-0.52 0,0 2.82,2.3 4.36,4.79 0.59,0.94 2.11,3.87 2.11,3.87 0,0 -5.49,0.07 -10.77,-2.18 C 78.87,57.98 74,54.92 74,54.92 c 0,0 1.69,4.43 2.11,5.49 0.42,1.06 1.13,3.38 1.13,3.38 0,0 -5.35,-0.21 -9.71,-3.87 -4.36,-3.66 -4.22,-4.55 -4.22,-4.55 0,0 1.27,4.62 1.62,5.82 0.35,1.2 0.84,4.36 0.84,4.36 0,0 -5.8,-0.56 -8.87,-3.8 C 54.88,59.62 53.52,56.4 53.45,53.8 53.36,51.18 54.14,39.36 66.11,37.88"
           id="path14"
           style="fill:#f77eae;fill-opacity:1" /></g><ellipse
         style="fill:#ffffff;fill-opacity:1;stroke-width:0.264583"
         id="path8"
         cx="51.570129"
         cy="9.4021578"
         rx="1.3937871"
         ry="1.3701636" /></g></g></svg>
