<?xml version="1.0" encoding="UTF-8" standalone="no"?>
<!-- Created with Inkscape (http://www.inkscape.org/) -->

<svg
   width="0"
   height="0"
   viewBox="0 0 40 40"
   version="1.1"
   id="svg1"
   xml:space="preserve"
   inkscape:export-filename="girafe.svg"
   inkscape:export-xdpi="96"
   inkscape:export-ydpi="96"
   xmlns:inkscape="http://www.inkscape.org/namespaces/inkscape"
   xmlns:sodipodi="http://sodipodi.sourceforge.net/DTD/sodipodi-0.dtd"
   xmlns="http://www.w3.org/2000/svg"
   xmlns:svg="http://www.w3.org/2000/svg"
   xmlns:rdf="http://www.w3.org/1999/02/22-rdf-syntax-ns#"
   xmlns:cc="http://creativecommons.org/ns#"
   xmlns:dc="http://purl.org/dc/elements/1.1/"><defs
     id="defs1" /><sodipodi:namedview
     id="base"
     pagecolor="#ffffff"
     bordercolor="#000000"
     borderopacity="0.3"
     inkscape:pageopacity="0.0"
     inkscape:pageshadow="2"
     inkscape:zoom="0.35"
     inkscape:cx="400"
     inkscape:cy="560"
     inkscape:document-units="px"
     inkscape:showpageshadow="2"
     inkscape:pagecheckerboard="0"
     inkscape:deskcolor="#d1d1d1" /><metadata
     id="metadata1"><rdf:RDF><cc:Work
         rdf:about=""><dc:format>image/svg+xml</dc:format><dc:type
           rdf:resource="http://purl.org/dc/dcmitype/StillImage" /></cc:Work></rdf:RDF></metadata><g
     inkscape:label="Calque 1"
     id="layer1"
     transform="matrix(0.26636915,0,0,0.26636915,0.15238797,0.09519321)"><g
       id="g3"
       transform="matrix(0.97926887,0,0,0.97926887,0.00417086,0.02237482)"><g
         style="fill:none"
         id="g205"
         transform="matrix(1.1649423,0,0,1.1649423,-5.547945,-15.50753)"><path
           d="m 49.6165,98.234 17.4293,10.392 c 0,0 29.5049,10.697 33.3272,10.393 3.823,-0.304 20.557,-1.759 20.872,-3.139 0.347,-1.552 -4.355,-7.264 -4.355,-7.264 0,0 12.684,-6.874 12.532,-8.558 -0.228,-2.5951 -4.887,-4.8864 -4.887,-4.8864 0,0 8.927,-12.3037 8.481,-13.4547 -1.075,-2.7475 -7.264,-2.6715 -7.264,-2.6715 0,0 8.709,-9.3607 8.405,-10.9353 -0.608,-3.1384 -12.532,-4.2786 -12.532,-4.2786 0,0 6.19,-5.9618 5.126,-8.1771 -1.13,-2.3457 -15.822,-3.4425 -15.822,-3.4425 0,0 5.983,-8.7418 5.201,-9.7843 -2.139,-2.8234 -20.4806,-1.3791 -20.4806,-1.3791 0,0 2.5193,-7.8731 1.1511,-8.5572 -0.9991,-0.4995 -15.6701,5.9618 -15.6701,5.9618 0,0 -0.152,-7.3409 -2.4434,-6.8848 -2.2913,0.4561 -14.2149,13.5307 -14.2149,13.5307 0,0 -5.7337,-8.4811 -6.798,-8.4811 -1.0642,0 -7.873,8.5572 -7.873,8.5572 0,0 -3.9745,-9.1762 -5.9618,-9.1762 -1.9873,0 -8.4052,14.3669 -8.4052,14.3669 0,0 -6.9608,-7.797 -8.025,-7.1889 -1.0751,0.6082 -2.4434,6.3419 -2.7475,9.4042 -0.304,3.0624 -0.8361,7.569 -0.8361,7.569 0,0 -5.5818,-1.6072 -6.3419,-2.2153 -0.7602,-0.6081 -3.5945,-2.7474 -4.6587,-1.9112 -0.7276,0.5755 1.3792,6.2658 2.8995,9.1761 1.9655,3.7357 6.2658,9.0242 6.2658,9.0242 z"
           fill="#6d4a37"
           id="path1" /><path
           d="M 47.7378,84.4207 32.8822,104.348 c 0,0 -0.7384,5.527 -1.4552,6.961 -0.7167,1.422 -6.8305,7.362 -4.1808,9.295 2.6497,1.933 9.0241,1.325 11.1091,-1.422 2.3239,-3.063 5.0931,-8.873 5.0931,-8.873 0,0 6.9282,-2.443 8.8721,-5.397 1.9329,-2.953 2.5519,-5.7116 2.5519,-7.0365 0,-1.3248 0.4127,-4.8867 0.3041,-6.4179 -0.1086,-1.5311 -1.5312,-7.645 -1.5312,-7.645 z"
           fill="#f7bb86"
           id="path2" /><path
           d="m 19.5034,64.9064 c 0,0 9.0242,-3.6704 14.8339,-2.5954 5.8098,1.0751 15.7461,7.9491 20.6437,15.138 4.8976,7.1889 9.3282,14.9859 16.3542,20.4808 7.0369,5.5052 12.5318,10.8592 20.9478,14.2152 8.405,3.366 16.354,2.519 19.112,2.367 2.759,-0.152 9.177,0.076 9.177,-0.684 0,-0.76 -4.887,-8.872 -4.887,-8.872 0,0 12.532,-5.0498 12.999,-6.114 0.467,-1.0642 -5.658,-6.4179 -5.658,-6.4179 0,0 9.176,-11.1635 8.872,-11.9236 -0.304,-0.7602 -9.48,-3.6705 -9.48,-3.6705 0,0 10.392,-8.2531 10.392,-9.9363 0,-1.6832 -11.923,-3.3664 -12.846,-4.8867 -0.913,-1.5312 5.961,-5.9618 5.961,-7.0369 0,-1.0751 -18.037,-3.8225 -18.341,-4.7347 -0.304,-0.9122 7.493,-7.493 7.037,-8.5572 -0.456,-1.075 -13.303,-1.8352 -16.3545,-1.8352 -3.0624,0 -6.5699,0.7601 -7.3409,0 -0.7602,-0.7602 5.0496,-5.6577 5.8097,-7.0369 0.7602,-1.3791 -6.5699,1.2271 -10.5444,2.2913 -3.9746,1.0751 -7.645,3.6705 -8.5572,2.5954 -0.9122,-1.075 2.8994,-5.9618 1.0751,-6.1138 -1.8353,-0.152 -7.7971,4.4306 -9.6323,6.4179 -1.8352,1.9873 -5.3537,5.6577 -5.3537,5.6577 0,0 -3.9745,-5.712 -4.4306,-5.2016 -0.6081,0.6841 -4.2786,7.0369 -5.3537,7.3409 -1.0751,0.3041 -7.645,-8.4051 -8.4051,-8.4051 -0.7602,0 -7.9491,13.3027 -7.9491,13.3027 0,0 -7.0369,-5.8098 -8.1011,-6.2659 -0.9448,-0.4017 -2.8995,14.986 -2.8995,14.986 0,0 -4.8867,-0.4561 -7.0368,-1.2271 -2.1502,-0.771 -6.4179,-3.5185 -6.722,-2.1393 -0.304,1.3791 1.9873,4.5826 3.3664,6.1138 1.3792,1.5312 3.3121,2.7474 3.3121,2.7474 z"
           fill="#865b52"
           id="path3" /><path
           d="m 45.7985,78.3936 c 0,0 -4.5609,-9.1002 -14.1389,-10.3164 -9.5779,-1.2163 -14.595,8.7852 -17.2446,10.1101 -2.6497,1.3248 -8.4595,0.7167 -9.27395,5.5057 -0.81445,4.789 1.93297,10.1969 7.34095,14.1715 5.3971,3.9745 11.7173,6.8305 21.8056,6.9285 10.0884,0.097 15.5181,-8.3728 16.4085,-13.9654 0.4127,-2.552 0.4127,-5.6035 0.4127,-5.6035 0,0 7.2323,-1.9329 9.4802,-10.6964 2.237,-8.7636 -6.1247,-9.3391 -10.1969,-4.485 -3.6705,4.3764 -4.5936,8.3509 -4.5936,8.3509 z"
           fill="#fed3b4"
           id="path4" /><path
           d="m 60.932,111.613 c 0,0 -19.8727,11.923 -17.9614,12.922 1.9112,0.999 3.3664,1.988 8.025,0 4.6587,-1.987 12.9987,-7.797 12.9987,-7.797 0,0 5.7338,1.683 11.3155,1.911 5.5817,0.229 15.518,0.685 15.518,0.685 l 4.8107,-5.962 -29.7329,-6.798 z"
           fill="#f6ba84"
           id="path5" /><path
           d="m 64.6024,98.6139 c 6.3419,1.2271 13.4548,3.5181 18.8845,5.8101 5.4297,2.291 17.1471,7.699 17.3531,12.998 0.152,3.975 -2.7473,6.494 -4.9734,7.265 -2.5411,0.88 -11.0114,2.064 -14.2149,0.38 -3.2144,-1.683 -4.0506,-4.582 0,-6.722 4.0505,-2.139 9.6322,-1.987 9.2521,-3.974 -0.38,-1.987 -8.025,0.304 -14.595,-0.304 -5.788,-0.543 -13.5307,-1.151 -13.5307,-1.151 0,0 -5.0062,4.572 -8.1011,7.341 -3.5945,3.214 -6.6894,6.255 -11.2395,4.886 -3.8225,-1.151 -5.2016,-3.518 -3.5944,-5.049 1.6071,-1.531 3.7464,-3.139 4.3546,-3.899 0.6081,-0.76 1.5311,-2.823 1.5311,-2.823 0,0 -1.1511,-1.227 -2.0632,-2.368 -0.9122,-1.151 -1.3032,-2.063 -1.3032,-2.063 0,0 5.7338,-3.138 7.8731,-5.277 2.1393,-2.14 4.1265,-5.8862 4.1265,-6.1903 0,-0.3041 4.1375,-0.0326 10.2404,1.1402 z"
           fill="#ffd1b7"
           id="path6" /><path
           d="m 33.3383,81.8797 c 0.1303,2.2262 0.999,4.6587 3.9745,4.6587 2.9863,0 3.4424,-2.7474 3.2144,-5.2017 -0.2281,-2.4542 -1.4552,-4.5826 -3.7465,-4.5066 -2.3022,0.076 -3.5945,2.4434 -3.4424,5.0496 z"
           fill="#000304"
           id="path7" /><path
           d="m 49.0844,80.7286 c 1.3357,1.9656 4.1265,0.6081 5.8858,-1.3791 1.7592,-1.9873 2.6822,-4.2135 1.3031,-5.7338 -1.6072,-1.7592 -4.2786,0.1521 -5.5057,1.5312 -1.2271,1.3791 -2.8343,3.8985 -1.6832,5.5817 z"
           fill="#f27cb6"
           id="path8" /><path
           d="m 11.4023,89.2097 c 0,0 3.2144,-2.8994 3.3664,-4.4306 0.1521,-1.5312 -1.5311,-2.5954 -4.4306,-3.3664 -2.89943,-0.7602 -4.97357,-1.0751 -5.27764,2.1393 -0.30406,3.2144 1.91125,4.4306 1.91125,4.4306 0,0 -0.53211,0.9122 -0.91218,1.1511 -0.38008,0.2389 -0.54297,1.0316 -0.38008,1.3791 0.53211,1.1511 1.30312,0.6842 1.75922,0.5322 0.45609,-0.1521 1.07507,-0.8362 1.07507,-0.8362 0,0 1.45516,4.7347 4.88676,5.8858 3.5401,1.1836 6.4939,-1.3792 7.2649,-2.1393 0.7601,-0.7602 0.3801,-2.9864 -1.7592,-1.9873 -1.8244,0.847 -1.6072,1.8352 -4.2786,1.3791 -2.6714,-0.4561 -3.2253,-4.1374 -3.2253,-4.1374 z"
           fill="#4b4c4d"
           id="path9" /><path
           d="m 29.3855,116.174 c 0.8253,0.575 0.0543,2.497 -0.4127,2.899 -0.4561,0.413 -1.5746,1.933 -2.7474,1.119 -1.1728,-0.815 -0.3041,-2.704 0.4127,-3.367 0.7167,-0.662 1.7266,-1.368 2.7474,-0.651 z m 14.7253,3.366 c 1.0208,0.749 0.5104,2.346 -0.4561,3.106 -0.9665,0.76 -2.6605,2.107 -3.7248,0.966 -1.2271,-1.325 1.0208,-3.16 1.5312,-3.562 0.5104,-0.412 1.6832,-1.227 2.6497,-0.51 z m 4.1374,1.781 c 0.9339,0.804 0.3149,1.976 -0.5647,2.856 -0.9665,0.966 -2.5954,1.835 -3.5618,1.021 -0.9665,-0.815 0.7167,-2.65 1.3791,-3.16 0.6624,-0.511 1.6723,-1.64 2.7474,-0.717 z m 32.8605,-0.619 c -0.771,0.597 -2.2913,2.139 -1.0751,3.258 1.2271,1.118 3.0624,-0.456 3.6162,-1.075 0.5647,-0.608 1.5312,-1.738 0.6081,-2.748 -0.9013,-1.01 -2.2262,-0.141 -3.1492,0.565 z m 2.6497,4.843 c 0.7927,0.891 2.2913,0.055 3.2578,-0.912 0.4561,-0.456 1.3248,-1.781 0.3583,-2.65 -0.6407,-0.575 -2.0415,-0.152 -3.1057,0.913 -1.0643,1.064 -1.2706,1.791 -0.5104,2.649 z"
           fill="#f47dad"
           id="path10" /><path
           d="m 40.2123,54.6661 c -1.6072,3.8225 2.4433,5.5057 4.0505,2.2153 1.6072,-3.2904 3.1384,-6.8848 3.9745,-9.9363 0.6842,-2.476 -1.1511,-3.4425 -2.7474,-0.9122 -1.6072,2.5194 -4.1374,5.9183 -5.2776,8.6332 z"
           fill="#9d6c5b"
           id="path11" /><path
           d="m 61.6921,51.6038 c -2.0959,1.7375 -7.0694,7.4386 -8.5572,9.4802 -2.5194,3.4424 1.8353,6.3419 4.0506,3.2904 2.2153,-3.0624 5.7337,-9.0242 6.8848,-10.7725 1.1402,-1.7701 -0.543,-3.5293 -2.3782,-1.9981 z"
           fill="#c5886f"
           id="path12" /><path
           d="m 65.5146,46.098 c -1.4443,1.3792 0.152,4.4307 2.8235,2.4434 2.6714,-1.9873 4.1265,-3.2144 5.5057,-4.6587 1.3791,-1.4551 0.38,-3.0623 -1.7593,-2.0633 -2.1393,0.9991 -4.9627,2.7583 -6.5699,4.2786 z"
           fill="#6f4b3b"
           id="path13" /><path
           d="m 70.1081,52.2987 c -3.2144,2.5845 0.4561,6.4179 3.2904,4.1266 2.8234,-2.2914 8.1011,-7.417 10.0884,-9.4803 1.9872,-2.0632 0.771,-4.3546 -2.1393,-2.4433 -2.4542,1.5963 -8.112,5.2668 -11.2395,7.797 z"
           fill="#9d6c5b"
           id="path14" /><path
           d="m 67.5779,68.5009 c -3.2904,2.5954 -0.0977,6.6785 3.5945,3.5944 3.7464,-3.1383 9.0241,-7.645 11.4675,-10.1643 2.1501,-2.2154 0.076,-4.2786 -2.7475,-2.2914 -2.4759,1.7267 -8.2314,5.636 -12.3145,8.8613 z"
           fill="#c5886f"
           id="path15" /><path
           d="m 92.1201,59.9329 c -3.9746,2.2153 -1.3032,5.6577 1.7592,3.9745 2.3999,-1.314 9.8607,-6.1898 10.9357,-7.1889 1.075,-0.999 0.423,-2.78 -1.379,-2.1393 -2.14,0.771 -8.7965,3.9528 -11.3159,5.3537 z"
           fill="#9d6c5b"
           id="path16" /><path
           d="m 88.7537,49.8445 c -3.1384,2.3674 -0.2281,6.0378 2.5193,3.9745 2.0959,-1.5637 7.9491,-7.797 8.872,-8.8721 0.923,-1.075 0.076,-2.5954 -1.607,-1.4551 -1.4552,0.999 -7.0695,4.3111 -9.7843,6.3527 z"
           fill="#6f4b3b"
           id="path17" /><path
           d="m 101.524,64.6024 c -2.5625,1.4335 -22.8804,12.5752 -25.6821,14.443 -3.6705,2.4434 -0.6082,7.569 2.9863,5.2017 2.9429,-1.933 23.0328,-15.7027 24.6178,-16.7452 2.661,-1.7592 1.206,-4.6587 -1.922,-2.8995 z M 90.5129,85.8542 c -3.9745,1.6832 -1.9113,5.8858 1.5312,4.5827 3.4424,-1.3031 13.9869,-5.6577 16.4299,-7.1129 2.444,-1.4551 1.303,-4.0505 -0.912,-3.2904 -2.215,0.771 -12.8031,4.018 -17.0491,5.8206 z"
           fill="#c5886f"
           id="path18" /><path
           d="m 109.017,69.4892 c -2.747,1.6072 -0.684,4.3546 1.76,3.2904 1.824,-0.7928 4.886,-2.3674 5.961,-3.1384 1.075,-0.7601 0.684,-2.9863 -1.531,-2.2913 -1.531,0.4778 -4.094,0.923 -6.19,2.1393 z"
           fill="#6f4b3b"
           id="path19" /><path
           d="m 100.069,94.7915 c -3.0405,0.5864 -2.2695,5.2555 0.912,4.7347 4.279,-0.6842 12.13,-3.2361 13.607,-3.5945 1.911,-0.4561 2.367,-3.5944 -1.455,-3.0623 -3.432,0.4995 -9.469,1.2379 -13.064,1.9221 z m 6.418,9.1005 c -3.062,-0.152 -3.214,4.05 0.304,4.05 2.367,0 3.975,-0.152 5.582,-0.456 1.976,-0.38 2.063,-2.747 -0.38,-3.062 -1.597,-0.196 -3.584,-0.435 -5.506,-0.532 z"
           fill="#c5886f"
           id="path20" /><path
           d="m 114.512,83.5629 c -2.215,0.9121 -1.151,3.9745 1.227,3.2143 1.944,-0.6298 3.899,-1.5311 5.582,-2.4433 1.401,-0.7602 0.76,-2.8995 -0.999,-2.5194 -1.759,0.3692 -4.192,1.0751 -5.81,1.7484 z"
           fill="#9d6c5b"
           id="path21" /><circle
           cx="36"
           cy="80"
           r="2"
           fill="#d9d9d9"
           id="circle21" /></g></g></g></svg>
