<?xml version="1.0" encoding="UTF-8" standalone="no"?>
<!-- Created with Inkscape (http://www.inkscape.org/) -->

<svg
   width="0"
   height="0"
   viewBox="0 0 40 40"
   version="1.1"
   id="svg1"
   xml:space="preserve"
   inkscape:export-filename="chenille.svg"
   inkscape:export-xdpi="96"
   inkscape:export-ydpi="96"
   xmlns:inkscape="http://www.inkscape.org/namespaces/inkscape"
   xmlns:sodipodi="http://sodipodi.sourceforge.net/DTD/sodipodi-0.dtd"
   xmlns="http://www.w3.org/2000/svg"
   xmlns:svg="http://www.w3.org/2000/svg"
   xmlns:rdf="http://www.w3.org/1999/02/22-rdf-syntax-ns#"
   xmlns:cc="http://creativecommons.org/ns#"
   xmlns:dc="http://purl.org/dc/elements/1.1/"><defs
     id="defs1"><linearGradient
       id="paint0_linear_337_177"
       x1="25.9105"
       y1="76.864799"
       x2="21.627501"
       y2="111.128"
       gradientUnits="userSpaceOnUse"><stop
         offset="0.306"
         stop-color="#B3875D"
         id="stop13-4" /><stop
         offset="0.567"
         stop-color="#A87C5B"
         id="stop14" /><stop
         offset="0.926"
         stop-color="#916656"
         id="stop15" /></linearGradient><linearGradient
       id="paint1_linear_337_177"
       x1="82.9645"
       y1="63.621799"
       x2="78.473099"
       y2="113.035"
       gradientUnits="userSpaceOnUse"><stop
         offset="0.476"
         stop-color="#B3875D"
         id="stop16" /><stop
         offset="0.735"
         stop-color="#A4785A"
         id="stop17" /><stop
         offset="0.985"
         stop-color="#916656"
         id="stop18" /></linearGradient><linearGradient
       id="paint2_linear_337_177"
       x1="44.848099"
       y1="121.747"
       x2="49.951"
       y2="76.548798"
       gradientUnits="userSpaceOnUse"><stop
         stop-color="#865B52"
         id="stop19" /><stop
         offset="0.545"
         stop-color="#FEAF5F"
         id="stop20" /></linearGradient><linearGradient
       id="paint3_linear_337_177"
       x1="67.389999"
       y1="128.591"
       x2="104.996"
       y2="74.885201"
       gradientUnits="userSpaceOnUse"><stop
         stop-color="#865B52"
         id="stop21" /><stop
         offset="0.136"
         stop-color="#9F6C55"
         id="stop22" /><stop
         offset="0.421"
         stop-color="#DD985B"
         id="stop23" /><stop
         offset="0.56"
         stop-color="#FEAF5F"
         id="stop24" /></linearGradient><radialGradient
       id="paint4_radial_337_177"
       cx="0"
       cy="0"
       r="1"
       gradientUnits="userSpaceOnUse"
       gradientTransform="matrix(56.1006,0,0,56.1006,-0.127057,76.6411)"><stop
         offset="0.226"
         stop-color="#865B52"
         id="stop25" /><stop
         offset="0.285"
         stop-color="#895D52"
         id="stop26" /><stop
         offset="0.336"
         stop-color="#946554"
         id="stop27" /><stop
         offset="0.385"
         stop-color="#A67255"
         id="stop28" /><stop
         offset="0.432"
         stop-color="#C08358"
         id="stop29" /><stop
         offset="0.477"
         stop-color="#E09A5C"
         id="stop30" /><stop
         offset="0.512"
         stop-color="#FEAF5F"
         id="stop31" /></radialGradient></defs><sodipodi:namedview
     id="base"
     pagecolor="#ffffff"
     bordercolor="#000000"
     borderopacity="0.3"
     inkscape:pageopacity="0.0"
     inkscape:pageshadow="2"
     inkscape:zoom="0.35"
     inkscape:cx="400"
     inkscape:cy="560"
     inkscape:document-units="px"
     inkscape:showpageshadow="2"
     inkscape:pagecheckerboard="0"
     inkscape:deskcolor="#d1d1d1" /><metadata
     id="metadata1"><rdf:RDF><cc:Work
         rdf:about=""><dc:format>image/svg+xml</dc:format><dc:type
           rdf:resource="http://purl.org/dc/dcmitype/StillImage" /></cc:Work></rdf:RDF></metadata><g
     id="g2"
     transform="matrix(0.26509191,0,0,0.26509191,-0.25045375,-0.11539836)"><g
       style="fill:none"
       id="g205"
       transform="matrix(1.1143878,0,0,1.1143878,-2.7819415,-2.4882459)"><path
         d="m 19.2754,20.1441 c 0,0 -3.4533,-7.7644 -5.712,-7.1128 -2.2588,0.6515 -0.3258,10.8919 -0.3258,10.8919 z"
         fill="#feaf5f"
         id="path1" /><path
         d="m 110.386,61.1165 c 0,0 4.093,-1.4008 7.004,2.5846 2.91,3.9853 1.737,8.6114 5.636,13.976 2.454,3.3664 5.506,2.4542 8.676,1.542 3.247,-0.923 5.713,-1.0208 5.821,1.0751 0.033,0.6298 -0.793,4.5826 -4.311,8.1988 -3.877,3.9854 -9.111,6.7871 -16.919,3.7248 -7.145,-2.8017 -9.144,-12.1299 -9.144,-12.1299 z M 63.4839,48.4979 c 0,0 8.4703,-5.0496 6.7871,-10.0232 -1.7809,-5.2668 -8.2966,-0.7493 -9.7083,-2.4759 -1.5529,-1.9113 6.3636,-6.6894 1.8352,-11.6413 -4.5283,-4.9518 -9.3499,2.0633 -11.0005,0.1086 -1.618,-1.9221 3.7682,-6.0378 0.3258,-10.2404 -3.4424,-4.2025 -9.2739,-0.2171 -11.0006,1.0751 -1.2705,0.9556 -3.6704,2.6931 -6.6893,3.3447 -3.0189,0.6516 -7.8731,-1.1837 -12.0757,-1.1837 -4.2025,0 -10.4575,2.8018 -11.7498,8.2966 -1.29228,5.4948 -2.05244,8.0902 -3.01892,8.5137 -0.96648,0.4236 -3.67047,0 -3.7682,1.9439 -0.09774,1.9438 2.58453,2.4759 6.255,2.2587 3.67042,-0.2172 8.83952,-2.8017 11.00052,-5.4948 2.161,-2.6931 3.9854,-6.7871 3.9854,-6.7871 z"
         fill="#865b52"
         id="path2" /><path
         d="m 33.1863,76.4282 c 0,0 -5.7121,3.5619 -8.6224,4.4198 -2.9103,0.8579 -6.7871,-0.3258 -9.4911,2.3673 -2.6931,2.6932 -1.1836,5.18 -2.2587,7.8731 -1.0751,2.6931 -5.26682,6.7654 -4.85417,10.7836 0.54297,5.277 5.12567,7.818 5.12567,7.818 0,0 4.3654,-4.148 4.2568,-8.035 -0.1086,-3.8881 -0.1086,-5.7125 0.4344,-7.5477 0.543,-1.8352 2.6931,-5.0713 4.3112,-5.6034 1.618,-0.543 7.4386,-0.3258 10.0232,-0.4344 2.5845,-0.1086 7.4387,-0.543 7.4387,-0.543 z"
         fill="url(#paint0_linear_337_177)"
         id="path3"
         style="fill:url(#paint0_linear_337_177)" /><path
         d="m 94.5309,64.6785 -26.5186,23.0653 -1.3792,5.093 c 0,0 4.2895,-0.7276 5.6903,-1.1619 1.4009,-0.4344 3.399,-0.9122 3.399,-0.9122 0,0 0.6842,0.9013 1.1294,3.1275 0.543,2.6931 0.4344,4.4198 0.2172,4.7455 -0.5973,0.8905 -4.7456,2.5843 -6.3636,2.6933 -1.6181,0.108 -5.712,-0.576 -7.6559,2.476 -1.5094,2.367 -0.7167,3.421 -0.8579,3.985 -0.2172,0.858 -1.9981,1.347 -1.3465,2.965 0.6515,1.618 8.7852,0.706 8.7852,0.706 0,0 0.5104,-2.194 0.9665,-2.259 1.1294,-0.163 3.0189,-0.652 4.2026,-2.161 1.1836,-1.51 10.349,-2.161 11.3154,-4.094 1.4009,-2.802 -0.2172,-6.4723 -0.3257,-9.9147 -0.1086,-3.4424 -0.1086,-6.4179 0.1628,-7.0043 3.1275,-1.8352 7.2758,-5.712 7.2758,-5.712 l 7.4383,-13.0421 z"
         fill="url(#paint1_linear_337_177)"
         id="path4"
         style="fill:url(#paint1_linear_337_177)" /><path
         d="m 31.4596,52.0598 2.9972,5.7664 14.5841,-11.587 -13.3787,-11.5327 -5.8206,9.8061 z"
         fill="#b3875d"
         id="path5" /><path
         d="m 33.7292,56.371 c 0.3258,1.1293 0.7493,2.5845 0.9665,3.8768 0.2172,1.2922 0.3258,3.2361 0.3258,3.2361 0,0 -4.2569,2.4759 -4.8542,6.4721 -0.5538,3.7465 0.1303,9.8929 1.857,13.0204 1.7266,3.1275 4.4523,5.5818 7.2757,6.5482 3.0624,1.0534 6.7763,3.095 13.9109,3.7248 4.9627,0.4344 11.8584,1.4009 20.3722,-2.9103 8.5137,-4.3112 15.442,-14.7688 16.6257,-16.9298 1.1837,-2.161 3.5619,-5.6034 4.7456,-4.6369 1.1836,0.9665 -2.1611,3.2361 -3.019,7.6558 -0.8578,4.4198 0.2824,9.7409 6.5808,11.6413 6.6898,2.0198 15.3338,-1.2923 16.9518,-13.9109 1.618,-12.6186 -5.745,-21.4255 -12.532,-24.9005 -5.2777,-2.704 -11.12,-2.9321 -14.6385,-1.9438 -1.9112,0.5429 -3.5835,2.0524 -5.2559,2.5845 -1.3683,0.4452 -7.3301,0.6298 -10.5119,0.4344 -3.7247,-0.2281 -2.8886,-1.6289 -6.2224,-3.79 -3.3447,-2.161 -4.3655,-1.5311 -5.636,-2.7908 C 59.0315,42.1343 52.5485,32.6541 43.6329,26.714 35.8685,21.5341 31.503,21.1649 31.503,21.1649 c 0,0 0.7276,-2.1067 0.2172,-5.4406 -0.3258,-2.1067 -2.161,-5.6577 -3.3447,-5.76629 -1.1294,-0.1086 -3.1926,2.95379 -3.7247,5.82059 -0.6516,3.5076 0.3257,5.8207 0.3257,5.8207 0,0 -0.2389,7.1128 -4.2894,11.967 -4.0506,4.8541 12.9335,2.4216 15.2791,3.475 2.3456,1.0533 4.1917,6.0595 3.8768,10.4358 -0.3801,5.6578 -6.2007,8.6115 -6.1138,8.8939 z"
         fill="#feaf5f"
         id="path6" /><path
         d="m 45.2076,89.1229 c 0,0 -0.8036,2.1827 -1.2163,2.5085 -0.4018,0.3258 -3.0732,3.3121 -4.2894,4.5284 -1.2163,1.2162 -2.7474,2.8886 -3.399,3.4533 -0.6516,0.5649 -3.3773,2.0519 -3.2361,4.8759 0.2172,4.344 2.3674,4.767 2.8343,7.037 0.3801,1.878 0.7602,4.506 2.0199,6.548 1.4551,2.346 3.5075,3.584 6.7436,3.584 3.2361,0 5.1474,-6.494 5.1474,-6.494 0,0 -2.8343,-4.04 -4.1266,-3.801 -1.2923,0.239 -1.5094,1.509 -2.2587,1.053 -0.8797,-0.532 -1.162,-2.476 -1.4009,-3.529 -0.2389,-1.053 -0.8905,-2.313 -0.4887,-2.802 0.4018,-0.488 4.5175,-2.649 6.6568,-4.094 3.5836,-2.4214 12.9335,-9.708 12.9335,-9.708 0,0 6.4831,-16.7778 -6.3853,-14.7145 -11.0657,1.7701 -9.5345,11.5544 -9.5345,11.5544 z"
         fill="url(#paint2_linear_337_177)"
         id="path7"
         style="fill:url(#paint2_linear_337_177)" /><path
         d="m 104.131,64.4613 c -3.171,-0.5321 -11.9132,4.1265 -12.8254,16.1153 -0.4886,6.4179 -1.3791,11.6195 -1.7809,13.3136 -0.4018,1.694 -1.1294,3.9637 -1.5312,4.2894 -0.4018,0.3258 -2.7148,1.8674 -4.5501,4.5504 -1.8895,2.747 -1.3465,5.636 -1.9112,6.439 -0.5647,0.804 -2.7257,2.617 -4.5501,4.453 -1.238,1.238 -5.3862,1.053 -7.0043,2.91 -1.618,1.857 -1.3791,3.877 -1.3791,3.877 0,0 -3.1275,0.803 -4.018,2.91 -0.8905,2.107 1.1837,4.767 2.9646,5.017 1.781,0.25 5.6143,0.88 5.9835,0.489 1.1837,-1.292 0.3258,-4.04 0.3258,-4.04 0,0 1.781,0 3.399,-2.183 1.618,-2.182 3.8008,-3.562 5.6577,-5.093 1.857,-1.531 8.7853,-6.559 10.1101,-8.98 1.7484,-3.204 1.1294,-6.223 2.3456,-8.167 1.2163,-1.9435 3.5836,-4.0176 8.036,-7.6555 3.562,-2.9103 7.699,-5.4731 10.62,-12.6729 4.17,-10.349 -7.949,-15.2465 -9.892,-15.5723 z"
         fill="url(#paint3_linear_337_177)"
         id="path8"
         style="fill:url(#paint3_linear_337_177)" /><path
         d="m 36.8784,36.2377 c -1.2922,0.4887 -2.1827,0.4018 -2.1067,1.4552 0.076,1.0533 3.2361,3.6378 2.4217,8.568 -0.8145,4.9302 -3.9637,7.6016 -6.874,8.5681 -2.9103,0.9664 -6.0378,0.8361 -6.0378,0.8361 l -4.1483,4.7456 c 0,0 0.2715,3.9311 -2.3674,5.712 -1.9547,1.314 -3.1275,0.9122 -3.1275,0.9122 0,0 -1.7375,1.4877 -3.7247,0.8579 C 8.32914,67.0892 3.80078,63.8531 4.27859,56.8379 4.72382,50.3875 9.51281,46.4021 10.5879,43.9587 c 0.4995,-1.1511 0.2715,-5.6034 0.2715,-5.6034 0,0 6.255,-1.5095 9.3825,-5.1256 2.2261,-2.5737 4.1483,-6.3636 4.2568,-7.9274 0.1086,-1.5637 18.385,5.4949 18.385,5.4949 z"
         fill="url(#paint4_radial_337_177)"
         id="path9"
         style="fill:url(#paint4_radial_337_177)" /><path
         d="m 24.8571,38.2684 c 0.8036,1.4878 0.1738,3.2579 -1.1185,3.9637 -1.0642,0.5864 -3.3121,-0.0651 -3.8877,-1.5203 -0.6732,-1.7158 -0.2823,-3.1166 1.0208,-3.8225 1.3031,-0.695 3.1818,-0.1086 3.9854,1.3791 z"
         fill="#2f2927"
         id="path10" /><circle
         cx="21.5"
         cy="39.5"
         r="1.5"
         fill="#d9d9d9"
         id="circle10" /><path
         d="m 7.57985,58.152 c -0.89047,0.847 -0.80359,2.5302 0.16289,4.2025 0.96648,1.6724 2.10672,2.476 3.18176,1.781 1.0751,-0.695 0.5973,-2.7474 -0.1086,-4.3655 -0.7058,-1.618 -2.313,-2.4759 -3.23605,-1.618 z m 8.07935,1.9438 c 0,-0.3258 -1.618,-3.1166 0.2389,-4.1266 1.2271,-0.6624 2.5846,0.3258 2.4651,2.0199 -0.1194,1.6289 -0.847,2.2261 -0.847,2.2261 0,0 0.1629,0.8471 -0.4453,3.9203 -0.456,2.3348 -1.3357,2.628 -1.9003,3.0732 -0.4236,0.3366 -2.552,1.0533 -2.2262,0.5212 0.3258,-0.5212 1.9438,-2.5085 2.3022,-4.322 0.2715,-1.3466 0.4126,-3.3121 0.4126,-3.3121 z"
         fill="#523226"
         id="path11" /><path
         d="m 17.3099,101.894 c 0,0 -1.2706,2.389 -2.0199,3.692 -1.0533,1.824 -2.9103,3.507 -2.9103,3.507 0,0 2.0633,2.954 4.6044,4.007 2.5519,1.054 3.5184,-3.431 3.1926,-7.199 -0.1629,-1.901 -0.5647,-3.074 -1.3357,-3.682 -0.4669,-0.369 -1.5311,-0.325 -1.5311,-0.325 z m 27.5719,9.838 c 0.8036,1.401 1.6506,3.367 1.5312,5.278 -0.1629,2.791 -1.9764,4.648 -1.9764,4.648 0,0 2.1936,0.662 5.5165,0.521 2.2588,-0.098 3.6271,-0.608 3.9854,-1.249 0.3692,-0.652 -0.3692,-4.083 -2.1067,-6.831 -1.7375,-2.747 -3.1926,-3.008 -4.0397,-3.279 -1.2379,-0.38 -2.9103,0.912 -2.9103,0.912 z m 20.6654,-0.977 c -2.4216,-0.076 -4.8541,-0.804 -4.8541,-0.804 0,0 -0.5213,1.575 -0.6842,3.92 -0.1629,2.259 -0.2823,4.16 0.6516,4.485 0.9339,0.326 3.5184,-0.206 6.1464,-1.976 1.3683,-0.923 2.628,-2.91 2.8669,-3.432 0.2389,-0.521 0.2389,-2.258 0.2389,-2.258 0,0 -2.4217,0.13 -4.3655,0.065 z m -0.2498,11.554 c -0.6081,0.283 -1.618,2.139 -2.4216,3.399 -0.8036,1.249 -1.7701,3.052 -1.6941,3.638 0.1195,0.967 1.4552,1.575 5.2994,1.499 3.8442,-0.076 6.2224,-1.293 6.5048,-1.456 0.2823,-0.162 0.7275,-0.89 0.7275,-0.89 0,0 -1.4117,-1.9 -3.9636,-3.801 -2.552,-1.9 -4.4524,-2.389 -4.4524,-2.389 z"
         fill="#6b4733"
         id="path12" /><path
         d="m 43.2094,90.9798 c 0,0 -1.3465,-1.2705 -2.1284,-2.5085 -1.1294,-1.7809 -1.5312,-2.9972 -1.857,-5.7446 -0.228,-1.9113 1.0534,-5.484 -1.5746,-5.7663 -1.9764,-0.2172 -2.9971,0.9447 -2.7908,4.474 0.1629,2.8995 1.8569,6.3093 2.1827,6.7111 0.3258,0.4018 0.9882,1.0534 2.704,1.857 1.7158,0.8036 3.4641,0.9773 3.4641,0.9773 z"
         fill="#b3875d"
         id="path13" /></g></g></svg>
