<?xml version="1.0" encoding="UTF-8" standalone="no"?>
<!-- Created with Inkscape (http://www.inkscape.org/) -->

<svg
   width="0"
   height="0"
   viewBox="0 0 40 40"
   version="1.1"
   id="svg1"
   xml:space="preserve"
   inkscape:export-filename="hibou.svg"
   inkscape:export-xdpi="96"
   inkscape:export-ydpi="96"
   xmlns:inkscape="http://www.inkscape.org/namespaces/inkscape"
   xmlns:sodipodi="http://sodipodi.sourceforge.net/DTD/sodipodi-0.dtd"
   xmlns="http://www.w3.org/2000/svg"
   xmlns:svg="http://www.w3.org/2000/svg"
   xmlns:rdf="http://www.w3.org/1999/02/22-rdf-syntax-ns#"
   xmlns:cc="http://creativecommons.org/ns#"
   xmlns:dc="http://purl.org/dc/elements/1.1/"><defs
     id="defs1"><path
       id="notoV1Koala0-5"
       d="m 115.77,24.7 c -1.7,-3.29 -8.73,-12 -21.31,-6.04 -3.31,1.57 -6.24,1.35 -7.59,1.12 -0.21,-0.06 -0.4,-0.08 -0.62,-0.13 -0.12,-0.03 -0.19,-0.06 -0.19,-0.04 -1.65,-0.34 -3.31,-0.59 -4.98,-0.71 -1.9,-0.15 -3.82,-0.16 -5.73,-0.02 0.01,-0.03 0.02,-0.1 0.02,-0.1 0,0 -4,0.63 -8.16,-2.19 -11.54,-7.8 -19.8,-0.26 -21.98,2.73 -3.07,4.23 -3.48,10.29 -1.72,15.88 0.38,1.21 0.82,2.39 1.43,3.5 0.08,0.15 0.17,0.3 0.25,0.45 2.43,4.25 0.45,9.66 0.86,14.32 0.31,3.56 1.35,6.96 3.16,9.93 -0.26,-0.21 -0.54,-0.42 -0.79,-0.66 -2.44,-2.26 -5.97,-1.8 -8.31,0.45 -2.25,2.15 -1.4,5.74 0.24,8.05 1.71,2.43 4.25,4.51 6.81,5.96 1.88,1.07 4.07,1.7 6.12,2.35 1.04,0.33 2.09,0.65 3.13,0.96 1.43,0.41 1.86,1.3 1.68,2.74 -0.12,0.95 0.08,2.13 -0.67,2.8 -0.28,0.26 -0.55,0.65 -0.82,0.85 -0.42,0.34 -1.14,0.49 -1.63,0.74 -0.53,0.28 -1.06,0.58 -1.51,0.99 -1.23,1.13 -2.16,2.54 -2.88,4.04 -0.4,0.84 -0.79,2.11 -1.83,2.36 -2.69,0.65 -4.86,-2.96 -7.75,-0.88 -7.38,5.33 8.66,14.1 12.35,15.82 2.83,1.32 4.37,0.78 7.06,-0.31 1.94,-0.79 3.9,1.78 5.29,2.67 1.81,1.17 3.79,1.82 5.91,2.16 4.18,0.65 8.53,0.03 12.53,-1.26 9.83,-3.19 16.5,-11.91 16.5,-22.27 0,-6.07 -1.33,-11.85 -4.37,-16.67 2.06,-0.83 4.03,-1.84 5.81,-3.09 7.16,-5.02 9.25,-12.93 9.36,-20.92 0.02,-1.01 -0.03,-2.03 -0.13,-3.06 0.03,-0.02 0.04,-0.69 0.06,-0.78 0.21,-0.87 0.9,-1.47 1.43,-2.14 0.11,-0.12 0.22,-0.26 0.33,-0.4 0.76,-1.01 1.38,-2.12 1.93,-3.25 2.58,-5.25 3.1,-11.31 0.71,-15.95" /></defs><sodipodi:namedview
     id="base"
     pagecolor="#ffffff"
     bordercolor="#000000"
     borderopacity="0.3"
     inkscape:pageopacity="0.0"
     inkscape:pageshadow="2"
     inkscape:zoom="0.35"
     inkscape:cx="400"
     inkscape:cy="560"
     inkscape:document-units="px"
     inkscape:showpageshadow="2"
     inkscape:pagecheckerboard="0"
     inkscape:deskcolor="#d1d1d1" /><metadata
     id="metadata1"><rdf:RDF><cc:Work
         rdf:about=""><dc:format>image/svg+xml</dc:format><dc:type
           rdf:resource="http://purl.org/dc/dcmitype/StillImage" /></cc:Work></rdf:RDF></metadata><g
     inkscape:label="Calque 1"
     id="layer1"
     transform="matrix(0.26636915,0,0,0.26636915,0.15238797,0.09519321)"><g
       id="g3"
       transform="matrix(0.97547739,0,0,0.97547739,2.0425383,0.81787141)"><g
         id="g16"
         transform="matrix(1.1799535,0,0,1.1799535,-6.1768642,-0.32292409)"><path
           fill="#855c52"
           d="m 63.59,121.58 c -0.09,0.32 -0.25,0.6 -0.52,0.81 -5.28,3.97 -12.86,5.35 -19.35,5.21 -7.27,-0.17 -16.69,-1.35 -22.42,-6.26 -0.49,-0.42 -0.74,-0.73 -0.74,-1.42 0.02,-3.32 -0.02,-6.67 -0.06,-10.01 C 20.48,107.88 20.28,75.85 20.47,48.33 20.62,26.47 21.14,7.7 21.36,7.31 22.47,5.38 24.25,4.03 26.31,3.22 32.36,0.77 39.17,0.06 45.63,0.6 c 5.34,0.45 13.9,1.76 17.4,6.41 0.66,0.88 0.38,2.74 0.53,3.81 0.22,1.55 0.16,12.44 0.16,16.32 v 87.24 c -0.01,1.54 0.09,6.41 -0.13,7.2"
           id="path1" /><use
           fill="#78a3ad"
           href="#notoV1Koala0-5"
           id="use1" /><path
           fill="#2f2f2f"
           d="m 61.45,87.26 c 0.31,0.1 0.62,0.2 0.94,0.31 0.41,0.14 0.66,0.3 0.86,0.08 0.23,-0.24 -0.23,-0.69 -0.53,-0.98 -2.21,-2.15 -7.09,-1.35 -7.2,-0.58 -0.1,0.65 -0.44,1.31 0.47,1.1 2.4,-0.56 4.09,-0.37 5.46,0.07 M 96.46,74.27 c -4.18,1.51 -6.14,1.29 -6.33,1.96 -0.12,0.42 0.69,0.89 3.27,1.04 2.96,0.17 5.58,-0.29 6.31,-1 0.5,-0.48 0.45,-1.08 1.16,-1.37 0.61,-0.25 1.38,-0.15 1.73,-0.84 0.28,-0.56 -0.05,-1.5 -0.54,-1.86 -0.78,-0.59 -1.43,0.04 -2.17,0.43 -1.11,0.6 -2.24,1.21 -3.43,1.64 M 53.93,68.44 c 7.4,6.13 13.23,6.55 13.99,6.8 0.25,0.08 0.71,0.24 0.74,0.58 0.05,0.7 -2.09,0.57 -2.47,0.52 -5.58,-0.62 -11.94,-3.73 -18.13,-11.46 -3.27,-4.07 -6.73,-2.62 -6.73,-2.62 0,0 2.35,-1.8 4.26,-1.41 1.91,0.38 3.61,2.58 3.61,2.58 0,0 1.48,2.32 4.73,5.01"
           clip-path="url(#notoV1Koala1)"
           id="path2" /><path
           fill="#2f2f2f"
           d="m 71.72,49.89 c -0.28,0.56 -0.54,1.17 -0.76,1.84 -1.53,4.51 -1.08,9.48 1.7,11.65 1.31,1.02 2.99,1.5 4.52,1.6 2.47,0.17 4.94,-0.39 6.45,-2.68 1.51,-2.29 2.04,-7.12 1.34,-10.01 -1.09,-4.44 -4.52,-6.53 -7.26,-6.5 -2.36,0.01 -4.51,1.21 -5.99,4.1"
           id="path3" /><path
           fill="#ffffff"
           d="m 96.82,29.17 c 0.85,1.04 2.19,2.01 2.81,2.66 1.4,1.47 2.4,3.34 3.32,5.12 1.51,2.86 3.9,0.85 5,-1.27 0.47,-0.9 0.75,-1.89 0.83,-2.9 0.31,-4.1 -2.71,-7.66 -6.75,-7.97 -1.52,-0.12 -3.44,0.39 -4.75,1.13 -1.68,0.94 -1.35,2.13 -0.46,3.23 M 63.57,27.02 c -1,0.92 -2.48,1.68 -3.2,2.24 -1.62,1.25 -2.89,2.95 -4.08,4.57 -1.93,2.62 -4,0.27 -4.78,-2.01 -0.33,-0.96 -0.46,-2 -0.38,-3.03 0.32,-4.12 3.87,-7.22 7.93,-6.91 1.54,0.12 3.36,0.93 4.56,1.87 1.52,1.2 1,2.31 -0.05,3.27"
           id="path4" /><path
           fill="#2f2f2f"
           d="m 64.75,50.27 c -0.15,1.85 -1.76,3.24 -3.6,3.1 a 3.373,3.373 0 0 1 -3.09,-3.61 3.366,3.366 0 0 1 3.6,-3.11 c 1.84,0.14 3.22,1.76 3.09,3.62 m 27.47,2.09 c -0.14,1.85 1.24,3.47 3.08,3.61 1.84,0.13 3.45,-1.25 3.6,-3.1 0.13,-1.85 -1.24,-3.48 -3.08,-3.62 a 3.374,3.374 0 0 0 -3.6,3.11"
           id="path5" /></g><circle
         style="fill:#ffffff;fill-opacity:1;stroke-width:0.264583"
         id="path16"
         cx="107.67596"
         cy="63.263763"
         r="1.7481399" /><ellipse
         style="fill:#ffffff;fill-opacity:1;stroke-width:0.287632"
         id="path17"
         cx="67.043526"
         cy="60.098213"
         rx="1.842634"
         ry="1.7008928" /></g></g></svg>
