<?xml version="1.0" encoding="UTF-8" standalone="no"?>
<!-- Created with Inkscape (http://www.inkscape.org/) -->

<svg
   width="0"
   height="0"
   viewBox="0 0 40 40"
   version="1.1"
   id="svg1"
   xml:space="preserve"
   inkscape:export-filename="papillon.svg"
   inkscape:export-xdpi="96"
   inkscape:export-ydpi="96"
   xmlns:inkscape="http://www.inkscape.org/namespaces/inkscape"
   xmlns:sodipodi="http://sodipodi.sourceforge.net/DTD/sodipodi-0.dtd"
   xmlns="http://www.w3.org/2000/svg"
   xmlns:svg="http://www.w3.org/2000/svg"
   xmlns:rdf="http://www.w3.org/1999/02/22-rdf-syntax-ns#"
   xmlns:cc="http://creativecommons.org/ns#"
   xmlns:dc="http://purl.org/dc/elements/1.1/"><defs
     id="defs1" /><sodipodi:namedview
     id="base"
     pagecolor="#ffffff"
     bordercolor="#000000"
     borderopacity="0.3"
     inkscape:pageopacity="0.0"
     inkscape:pageshadow="2"
     inkscape:zoom="0.35"
     inkscape:cx="400"
     inkscape:cy="560"
     inkscape:document-units="px"
     inkscape:showpageshadow="2"
     inkscape:pagecheckerboard="0"
     inkscape:deskcolor="#d1d1d1" /><metadata
     id="metadata1"><rdf:RDF><cc:Work
         rdf:about=""><dc:format>image/svg+xml</dc:format><dc:type
           rdf:resource="http://purl.org/dc/dcmitype/StillImage" /></cc:Work></rdf:RDF></metadata><g
     inkscape:label="Calque 1"
     id="layer1"
     transform="matrix(0.26352328,0,0,0.26352328,0.00653336,0.00779352)"><g
       id="g199"
       transform="matrix(1.2447625,0,0,1.2447625,-4.704943,-4.1868589)"><path
         fill="#feba02"
         d="m 40.01,95.48 c 0,0 2.44,10.04 2.06,11.45 -0.38,1.41 -7.32,2.53 -11.36,4.6 -2.65,1.36 -6.92,4.39 -4.32,6.84 1.41,1.33 5.35,-2.03 17.18,-2.71 12.01,-0.69 14.13,0.29 13.51,-2.25 -0.61,-2.53 -3.8,-2.82 -6.48,-3.94 -0.89,-0.37 -1.92,-0.96 -2.35,-1.6 -0.41,-0.61 0.19,-10.98 0.19,-10.98 z"
         id="path1" /><path
         fill="#feba02"
         d="m 62.16,102.52 c 0,0 0.28,10.15 0.28,10.8 0,0.95 -2.32,2.09 -5.77,2.86 -3.45,0.77 -10.28,2.05 -10.37,6.42 -0.06,2.69 13.12,-0.95 20.65,-0.84 7.53,0.11 12.36,1.1 12.01,-2.06 -0.28,-2.53 -4.2,-3.68 -6.31,-4.14 -2.11,-0.46 -3.07,-1.49 -3.13,-2.75 -0.04,-0.82 0.14,-10.07 0.14,-10.07 z"
         id="path2" /><path
         fill="url(#notoParrot0)"
         d="M 41.89,8.01 50.95,7.4 c 0,0 5.04,1.63 9.83,8.57 6.36,9.23 5.52,26.11 5.52,26.11 l 17.46,46.55 2.11,15.39 c 0,0 -15.62,2.46 -30.92,0.47 C 36.93,102.14 18.35,85.81 18.63,61.41 18.91,37.01 38.25,13.45 38.25,13.45 Z"
         id="path5"
         style="fill:#01ab46;fill-opacity:1" /><path
         fill="#ffd51d"
         d="m 21.15,16.93 c 0,0 -6.95,2.16 -8.92,9.95 -1.97,7.79 1.32,15.04 2.77,15.53 0.56,0.19 2.3,-3.33 2.3,-3.33 0,0 2.44,2.82 3.66,3.47 1.22,0.66 1.83,1.15 2.91,1.08 2.11,-0.14 5.21,-6.29 5.12,-10.42 l 1.08,-20.23 z"
         id="path6" /><path
         fill="#ff2b23"
         d="m 29.85,28.09 c 0,0 8.47,-1.41 11.85,-4.32 3.38,-2.91 7.32,-5.54 8.63,-10.79 0.8,-3.2 0.84,-5.44 0.84,-5.44 0,0 -11.81,-6.85 -22.51,-1.22 -10.7,5.63 -8.17,13.28 -8.17,13.28 z"
         id="path7" /><path
         fill="#ff600d"
         d="m 29.5,29.22 c 0,0 -6.85,4.04 -7.6,4.6 -0.75,0.56 -3.2,1.78 -4.32,2.72 -1.78,1.5 -3.38,4.88 -2.72,5.73 0.66,0.84 1.6,-1.78 4.22,-3.38 2.62,-1.6 7.13,-4.13 8.35,-4.79 1.22,-0.66 1.6,-1.03 1.6,-1.03 z"
         id="path8" /><path
         fill="#a02a1b"
         d="m 31.83,27.46 c 0.47,-0.99 0.68,-3.26 -2.51,-7.25 -3.75,-4.69 -9.01,-4.88 -9.01,-4.88 l -0.56,1.88 5.82,5.82 3.23,6.97 c 0,0 2.06,-0.5 3.03,-2.54"
         id="path9" /><path
         fill="#ec80af"
         d="m 15.89,20.4 c 0,0 4.32,0.28 7.32,2.91 1.78,1.56 4.47,4.9 5.13,6.41 0.66,1.51 2.91,-2.67 1.13,-5.49 -1.78,-2.82 -3.91,-5.65 -7.85,-7.02 -2.84,-0.98 -5.54,1.41 -5.73,3.19"
         id="path10" /><path
         fill="#fbd3b3"
         d="m 49.49,25.94 c 0,0 -3.47,-8.82 -10.61,-8.45 -7.2,0.38 -8.31,5.73 -7.98,8.92 0.38,3.69 2.82,5.73 8.45,5.54 5.64,-0.2 10.14,-6.01 10.14,-6.01"
         id="path11" /><path
         fill="#312f2a"
         d="m 44.24,24.81 c 0,2.28 -2.48,4.32 -4.74,4.32 -2.25,0 -4.08,-1.85 -4.08,-4.13 0,-2.28 1.31,-4.79 4.5,-4.97 3.37,-0.21 4.32,2.5 4.32,4.78"
         id="path12" /><path
         fill="#01ab46"
         d="m 86.38,80.75 c 0,0 2.25,5.07 10.89,10.7 7.33,4.78 10.89,7.7 15.96,9.48 5.07,1.78 5.26,2.25 5.07,3.19 -0.19,0.94 -8.07,7.04 -16.71,6.29 -8.63,-0.75 -12.76,-4.13 -15.39,-5.91 -2.63,-1.78 -7.6,-14.36 -7.6,-14.36 z"
         id="path13" /><path
         fill="#b7d019"
         d="m 66.34,41.84 c 0,0 -11.97,3.52 -17.22,11.5 -4.4,6.68 -4.01,18.04 0.47,26.47 5.54,10.42 16.99,17.83 23.09,20.65 6.1,2.82 14.45,4.22 18.11,3.85 3.66,-0.37 -3.28,-25.62 -9.95,-39.14 -6.5,-13.19 -14.5,-23.33 -14.5,-23.33"
         id="path14" /></g><ellipse
       style="fill:#ffffff;stroke-width:0.264583"
       id="path199"
       cx="43.869473"
       cy="27.562309"
       rx="2.8137856"
       ry="2.8777351" /></g></svg>
