<?xml version="1.0" encoding="UTF-8" standalone="no"?>
<!-- Created with Inkscape (http://www.inkscape.org/) -->

<svg
   width="0"
   height="0"
   viewBox="0 0 40 40"
   version="1.1"
   id="svg1"
   xml:space="preserve"
   inkscape:export-filename="chien.svg"
   inkscape:export-xdpi="96"
   inkscape:export-ydpi="96"
   xmlns:inkscape="http://www.inkscape.org/namespaces/inkscape"
   xmlns:sodipodi="http://sodipodi.sourceforge.net/DTD/sodipodi-0.dtd"
   xmlns="http://www.w3.org/2000/svg"
   xmlns:svg="http://www.w3.org/2000/svg"
   xmlns:rdf="http://www.w3.org/1999/02/22-rdf-syntax-ns#"
   xmlns:cc="http://creativecommons.org/ns#"
   xmlns:dc="http://purl.org/dc/elements/1.1/"><defs
     id="defs1" /><sodipodi:namedview
     id="base"
     pagecolor="#ffffff"
     bordercolor="#000000"
     borderopacity="0.3"
     inkscape:pageopacity="0.0"
     inkscape:pageshadow="2"
     inkscape:zoom="0.35"
     inkscape:cx="400"
     inkscape:cy="560"
     inkscape:document-units="px"
     inkscape:showpageshadow="2"
     inkscape:pagecheckerboard="0"
     inkscape:deskcolor="#d1d1d1" /><metadata
     id="metadata1"><rdf:RDF><cc:Work
         rdf:about=""><dc:format>image/svg+xml</dc:format><dc:type
           rdf:resource="http://purl.org/dc/dcmitype/StillImage" /></cc:Work></rdf:RDF></metadata><g
     id="g2"
     transform="matrix(0.26364301,0,0,0.26364301,-0.001489,0.09857843)"><g
       style="fill:none"
       id="g205"
       transform="matrix(1.0998048,0,0,1.0998048,-5.0088622,-9.3037794)"><path
         d="m 79.886,106.462 c 0,1.699 0.4984,5.958 0.4984,7.658 0,1.699 1.0649,5.097 5.6867,5.584 7.1481,0.737 8.904,-2.99 9.7309,-7.34 1.1215,-5.902 0.4645,-12.9144 0.4645,-12.9144 z"
         fill="#ffa8a7"
         id="path1" /><path
         d="m 135.7,22.2598 c 2.016,-0.4305 4.678,0.2152 4.78,-1.8125 0.125,-2.4469 -2.979,-4.0441 -6.695,-2.9793 -3.704,1.0535 -4.894,4.248 -4.894,4.248 0,0 -4.202,-1.9597 -7.873,0.9516 -4.146,3.2965 -4.463,10.2067 -4.463,10.2067 l 5.845,5.63 c 0,0 0.148,-6.525 1.065,-8.9265 1.167,-3.0813 3.195,-2.5489 3.195,-2.5489 0,0 -2.232,6.1625 0.849,9.8895 3.693,4.4633 11.906,2.5488 10.739,-4.9957 -0.691,-4.4859 -4.995,-7.2274 -4.995,-7.2274 0,0 0.929,-2.1183 2.447,-2.4355 z m -3.082,12.6535 c -3.387,0.3852 -2.333,-5.5281 -1.699,-7.2273 2.764,1.1668 4.463,6.8988 1.699,7.2273 z"
         fill="#ffd2b1"
         id="path2" /><path
         d="m 52.0753,28.1617 c 20.6059,-8.3828 61.2287,-10.286 74.9587,11.6453 13.877,22.1691 4.304,36.3633 2.707,40.3508 -2.288,5.7207 -4.305,13.0726 -4.78,16.9015 -0.567,4.4977 -1.281,16.1087 -1.756,18.4987 -0.476,2.39 -4.622,5.902 -8.927,5.585 -4.305,-0.317 -7.816,-3.025 -8.134,-5.585 -0.317,-2.549 0.952,-8.926 -2.073,-11.158 -3.024,-2.232 -12.1207,-0.793 -17.5468,2.073 -5.4262,2.866 -31.0391,16.222 -59.6426,3.67 C -1.82388,97.5351 4.87104,70.257 11.8945,62.282 c 7.0234,-7.975 6.2191,-9.5723 6.2191,-9.5723 0,0 -7.0121,1.7559 -4.3047,-3.8289 2.7075,-5.5847 9.7309,-14.8285 10.9996,-15.6328 1.2801,-0.793 5.4262,-2.073 7.6579,-0.6344 2.2316,1.4387 2.2316,3.5117 2.2316,3.5117 0,0 3.6703,-2.3902 17.3773,-7.9636 z"
         fill="#ffd2b1"
         id="path3" /><path
         d="m 23.5286,106.303 c 0,0 0.3172,11.158 0.4757,13.877 0.1586,2.719 0.5325,7.125 0.9516,9.255 0.4758,2.39 2.4016,3.761 6.2191,3.988 5.2676,0.317 7.8165,-1.915 8.2922,-3.829 0.4758,-1.915 0.9516,-19.133 0.9516,-19.133 z m 29.8269,4.939 c 0,0 -0.0453,5.585 0.1586,11.158 0.1586,4.305 0.1586,9.255 0.6344,10.524 0.793,2.119 4.6219,3.353 7.975,3.512 3.6703,0.17 6.1398,-1.677 7.6578,-3.195 0.793,-0.793 0.793,-4.78 0.9516,-10.523 0.0906,-3.354 0.3172,-13.232 0.3172,-13.232 z"
         fill="#ffd2b1"
         id="path4" /><path
         d="m 71.1632,49.368 c -0.8496,-1.8465 -5.1882,-1e-4 -6.2757,2.764 -1.3821,3.5117 0,6.9102 2.0164,10.7391 1.382,2.6168 7.6578,10.739 14.8851,9.0398 8.4055,-1.9824 6.0606,-15.1004 5.7434,-16.5844 -0.3172,-1.4839 -1.3254,-3.4664 -3.0813,-3.1945 -2.0164,0.3172 -1.0535,3.6703 -0.9515,6.1625 0.1019,2.7641 0.2152,7.4426 -3.0813,8.1902 -3.523,0.793 -6.0152,-1.5179 -7.975,-4.6785 -1.9144,-3.0812 -4.1461,-5.4261 -3.5117,-8.2922 0.3965,-1.7671 2.866,-2.764 2.2316,-4.146 z M 28.1051,45.8562 c -1.6086,-0.623 -3.5118,1.8125 -5.3129,3.2965 -1.8012,1.484 -5.0977,3.3985 -6.3778,1.8125 -1.3254,-1.6652 2.8547,-6.0266 5.3129,-10.2066 2.1297,-3.6137 4.1235,-7.7598 6.9102,-7.975 4.1461,-0.3172 0.9175,-2.175 -2.1297,-1.5973 -2.2317,0.4305 -5.3129,2.4469 -7.0121,5.8453 -1.6992,3.3985 -9.78752,12.0192 -7.1254,15.95 3.0586,4.5313 9.7762,2.4469 12.7555,0 2.9793,-2.4469 4.8937,-6.3777 2.9793,-7.1254 z"
         fill="#e6508f"
         id="path5" /><path
         d="m 33.4179,78.3906 c -5.8453,-1.0648 -15.157,0.5664 -15.8367,7.1254 -0.5324,5.0977 2.7641,11.2715 13.5031,13.6051 10.7391,2.3339 16.052,-1.6992 16.5844,-7.4426 0.5324,-5.732 -5.5281,-11.6906 -14.2508,-13.2879 z"
         fill="#ff7d86"
         id="path6" /><path
         d="m 29.7024,87.5324 c 0.2265,2.5715 -0.4758,4.4293 -2.0164,4.5765 -1.5407,0.136 -3.7043,-1.6765 -3.9309,-4.248 -0.2266,-2.5715 0.4531,-4.6785 2.4469,-4.6785 1.5406,0 3.2625,1.7785 3.5004,4.35 z"
         fill="#2d2d2b"
         id="path7" /><path
         d="m 39.609,89.7233 c 0.2319,-2.4541 -0.903,-4.5685 -2.5349,-4.7227 -1.6319,-0.1543 -3.1428,1.7101 -3.3747,4.1642 -0.232,2.4541 0.9029,4.5685 2.5348,4.7227 1.6319,0.1543 3.1428,-1.7101 3.3748,-4.1642 z"
         fill="#2d2d2b"
         id="path8" /><path
         d="m 64.2617,75.4965 c 0.2977,-3.0071 -1.5303,-5.6497 -4.083,-5.9024 -2.5526,-0.2527 -4.8632,1.9803 -5.1609,4.9874 -0.2976,3.0071 1.5304,5.6497 4.083,5.9024 2.5527,0.2526 4.8633,-1.9803 5.1609,-4.9874 z"
         fill="#2d2d2b"
         id="path9" /><path
         d="m 30.6435,68.6668 c 0.2946,-2.976 -1.6016,-5.5998 -4.2351,-5.8605 -2.6336,-0.2607 -5.0073,1.9405 -5.3019,4.9165 -0.2946,2.976 1.6015,5.5999 4.2351,5.8605 2.6336,0.2607 5.0073,-1.9405 5.3019,-4.9165 z"
         fill="#2d2d2b"
         id="path10" /><circle
         cx="58.5"
         cy="76.5"
         r="2.5"
         fill="#d9d9d9"
         id="circle10" /><circle
         cx="24.5"
         cy="69.5"
         r="2.5"
         fill="#d9d9d9"
         id="circle11" /></g></g></svg>
