<?xml version="1.0" encoding="UTF-8" standalone="no"?>
<!-- Created with Inkscape (http://www.inkscape.org/) -->

<svg
   width="0"
   height="0"
   viewBox="0 0 40 40"
   version="1.1"
   id="svg1"
   xml:space="preserve"
   inkscape:export-filename="cochon.svg"
   inkscape:export-xdpi="96"
   inkscape:export-ydpi="96"
   xmlns:inkscape="http://www.inkscape.org/namespaces/inkscape"
   xmlns:sodipodi="http://sodipodi.sourceforge.net/DTD/sodipodi-0.dtd"
   xmlns="http://www.w3.org/2000/svg"
   xmlns:svg="http://www.w3.org/2000/svg"
   xmlns:rdf="http://www.w3.org/1999/02/22-rdf-syntax-ns#"
   xmlns:cc="http://creativecommons.org/ns#"
   xmlns:dc="http://purl.org/dc/elements/1.1/"><defs
     id="defs1"><radialGradient
       id="paint0_radial_337_214"
       cx="0"
       cy="0"
       r="1"
       gradientUnits="userSpaceOnUse"
       gradientTransform="matrix(91.4428,0,0,91.4428,19.1607,95.4784)"><stop
         offset="0.468"
         stop-color="#8D5E50"
         id="stop8-9" /><stop
         offset="0.675"
         stop-color="#5A7439"
         id="stop9-2" /><stop
         offset="0.821"
         stop-color="#34642E"
         id="stop10-6" /><stop
         offset="1"
         stop-color="#315427"
         id="stop11-25" /></radialGradient></defs><sodipodi:namedview
     id="base"
     pagecolor="#ffffff"
     bordercolor="#000000"
     borderopacity="0.3"
     inkscape:pageopacity="0.0"
     inkscape:pageshadow="2"
     inkscape:zoom="0.35"
     inkscape:cx="400"
     inkscape:cy="560"
     inkscape:document-units="px"
     inkscape:showpageshadow="2"
     inkscape:pagecheckerboard="0"
     inkscape:deskcolor="#d1d1d1" /><metadata
     id="metadata1"><rdf:RDF><cc:Work
         rdf:about=""><dc:format>image/svg+xml</dc:format><dc:type
           rdf:resource="http://purl.org/dc/dcmitype/StillImage" /></cc:Work></rdf:RDF></metadata><g
     id="g2"
     transform="matrix(0.26239389,0,0,0.26239389,0.53621534,0.03620525)"><g
       style="fill:none"
       id="g205"
       transform="matrix(1.3433205,0,0,1.3433205,-11.576337,-5.8762308)"><path
         d="m 50.3536,28.0314 c 0,0 6.6242,-3.536 9.5694,-8.8068 C 62.8681,13.9538 63.8594,8.34942 59.3416,6.02379 53.9373,3.24067 48.0661,10.046 48.0661,10.046 c 0,0 0.5338,-4.25096 -3.4027,-4.69893 -8.7782,-1.00078 -10.1126,9.25483 -10.1126,9.25483 0,0 -2.2303,-1.8681 -5.0134,-0.8959 -3.3074,1.1628 -3.8221,5.5376 -3.6696,7.6917 0.2192,3.0881 2.1064,7.0627 2.1064,7.0627 z"
         fill="#a42e1a"
         id="path1" /><path
         d="m 63.5448,90.6517 -22.875,-4.9658 c 0,0 0.8769,8.1874 0.2669,9.1214 -1.1819,1.8396 -7.7108,1.811 -11.4756,2.6878 -3.5361,0.8197 -8.3208,5.9189 -4.8991,10.1319 3.2216,3.955 6.6433,-3.288 8.4542,-3.155 1.811,0.133 2.1922,3.784 4.2224,3.689 2.9547,-0.134 1.2104,-4.223 2.6211,-5.7 1.4106,-1.477 6.71,-1.211 7.787,-2.9548 1.077,-1.7442 0.6672,-7.5773 0.6672,-7.5773 l 6.8434,2.4114 c 0,0 3.8888,4.6322 3.6219,8.4547 -0.2669,3.822 -2.278,6.262 -3.6219,6.576 -4.6989,1.077 -10.8656,2.411 -10.4653,5.233 0.4099,2.869 5.7569,1.477 13.6202,1.477 7.644,0 11.609,0.944 12.2095,-2.278 0.6005,-3.221 -5.1659,-3.288 -5.2326,-4.432 -0.0668,-1.144 1.8109,-6.31 1.4773,-8.654 -0.3336,-2.3545 -3.2216,-10.0653 -3.2216,-10.0653 z"
         fill="#ffb70c"
         id="path2" /><path
         d="m 52.6316,48.333 -24.381,2.3256 c 0,0 -5.6997,4.5655 -6.6623,13.3247 -0.5624,5.1278 1.4487,12.953 8.0539,19.3198 5.5281,5.3185 12.972,14.9355 27.7264,13.42 14.7544,-1.5154 24.6383,-13.9823 27.9075,-20.7114 3.1262,-6.4431 4.3844,-13.8203 5.185,-13.9061 0.8006,-0.0857 8.2826,10.7608 10.8279,10.1985 1.61,-0.3622 1.563,-5.3757 1.162,-8.3208 -0.629,-4.5655 -2.325,-7.4248 -2.325,-7.4248 0,0 7.425,5.4614 8.502,3.8887 0.81,-1.1723 0.181,-6.9292 -0.944,-11.2755 -1.229,-4.7656 -3.174,-7.7393 -3.174,-7.7393 0,0 7.873,7.8251 8.54,5.5948 0.315,-1.0484 0.582,-16.2317 -12.657,-20.2634 -13.2393,-4.0318 -22.7705,8.1873 -25.0485,13.9537 -2.4495,6.2049 -4.432,16.2317 -4.432,16.2317 z"
         fill="url(#paint0_radial_337_214)"
         id="path3"
         style="fill:url(#paint0_radial_337_214)" /><path
         d="m 39.9264,21.7694 c -6.5194,0.305 -11.8092,6.5289 -11.8092,6.5289 0,0 -5.7474,0.3622 -7.606,0.9817 -2.7259,0.915 -4.6512,3.05 -4.8323,4.1175 -0.448,2.6401 9.8362,3.7553 9.8362,3.7553 l 0.8007,15.2119 c 0,0 6.3478,5.5472 7.0626,5.6329 0.7149,0.0858 5.5472,-5.8998 6.1763,-5.9951 0.629,-0.0953 7.4248,6.9769 7.4248,6.9769 L 64.803,53.213 c 0,0 -2.4782,-4.5655 -4.2891,-7.7108 C 58.722,42.3759 57.6926,32.349 52.2598,26.6494 48.6951,22.8845 43.777,21.5883 39.9264,21.7694 Z"
         fill="#ffb903"
         id="path4" /><path
         d="m 30.357,34.3792 c 0,0 -4.3367,0.0286 -6.7958,-0.0858 -1.8776,-0.0858 -7.8728,-0.8959 -7.8728,-0.8959 0,0 -0.2192,0.629 0.3622,0.8959 0.5814,0.2669 5.8999,1.6108 7.7394,1.7442 1.83,0.1335 7.3391,0.3622 7.3391,0.3622 l 0.4479,-0.8959 z"
         fill="#ff732d"
         id="path5" /><path
         d="m 30.7097,37.1051 c 0,0 -4.5655,0.1811 -5.2803,0.3622 -0.7149,0.1811 -6.9292,3.6219 -9.2549,7.2914 -2.3256,3.6696 -2.7736,9.436 0.448,11.6281 2.7641,1.8777 8.4542,0.896 11.4089,-4.6035 2.4877,-4.6322 4.3367,-9.0833 4.3367,-9.0833 0,0 10.2843,-0.1811 10.6941,-8.8069 0.4003,-8.6353 -7.6059,-9.4836 -10.513,-8.8069 -2.3065,0.5338 -4.6512,3.1739 -4.6512,3.1739 0,0 2.1064,3.0405 2.3256,4.4702 0.2192,1.4297 0.4861,4.3748 0.4861,4.3748 z"
         fill="#ff6157"
         id="path6" /><path
         d="m 37.8391,33.9693 c -0.4861,2.0779 -2.1636,3.5361 -3.6791,3.1835 -1.5155,-0.3527 -2.3637,-2.6592 -1.8777,-4.737 0.4861,-2.0779 2.0016,-3.193 3.5361,-2.9071 1.8396,0.3431 2.5068,2.3828 2.0207,4.4606 z"
         fill="#29292a"
         id="path7" /><path
         d="m 56.8349,47.9803 c 0,0 -12.5432,5.633 -15.2977,13.6869 -2.7545,8.0539 -0.3812,16.918 6.5098,21.1975 7.444,4.6322 17.2611,3.6314 23.5518,1.0103 5.2993,-2.2112 6.9768,-5.1659 6.6432,-7.2437 -0.4003,-2.4591 -1.6107,-3.2883 -1.6107,-3.2883 0,0 3.9554,-2.6211 3.8887,-5.5662 -0.0667,-2.9547 -3.6219,-3.7554 -3.6219,-3.7554 0,0 3.1549,-1.9443 2.888,-4.8323 -0.2669,-2.888 -4.7275,-4.8609 -9.1881,-5.3661 -5.3756,-0.61 -13.7631,-5.8427 -13.7631,-5.8427 z"
         fill="#d27856"
         id="path8" /><circle
         cx="35"
         cy="33"
         r="2"
         fill="#d9d9d9"
         id="circle8" /></g></g></svg>
