<?xml version="1.0" encoding="UTF-8" standalone="no"?>
<!-- Created with Inkscape (http://www.inkscape.org/) -->

<svg
   width="0"
   height="0"
   viewBox="0 0 40 40"
   version="1.1"
   id="svg1"
   xml:space="preserve"
   inkscape:export-filename="elephant.svg"
   inkscape:export-xdpi="96"
   inkscape:export-ydpi="96"
   xmlns:inkscape="http://www.inkscape.org/namespaces/inkscape"
   xmlns:sodipodi="http://sodipodi.sourceforge.net/DTD/sodipodi-0.dtd"
   xmlns="http://www.w3.org/2000/svg"
   xmlns:svg="http://www.w3.org/2000/svg"
   xmlns:rdf="http://www.w3.org/1999/02/22-rdf-syntax-ns#"
   xmlns:cc="http://creativecommons.org/ns#"
   xmlns:dc="http://purl.org/dc/elements/1.1/"><defs
     id="defs1" /><sodipodi:namedview
     id="base"
     pagecolor="#ffffff"
     bordercolor="#000000"
     borderopacity="0.3"
     inkscape:pageopacity="0.0"
     inkscape:pageshadow="2"
     inkscape:zoom="0.35"
     inkscape:cx="400"
     inkscape:cy="560"
     inkscape:document-units="px"
     inkscape:showpageshadow="2"
     inkscape:pagecheckerboard="0"
     inkscape:deskcolor="#d1d1d1" /><metadata
     id="metadata1"><rdf:RDF><cc:Work
         rdf:about=""><dc:format>image/svg+xml</dc:format><dc:type
           rdf:resource="http://purl.org/dc/dcmitype/StillImage" /></cc:Work></rdf:RDF></metadata><g
     inkscape:label="Calque 1"
     id="layer1"
     transform="matrix(0.26636915,0,0,0.26636915,0.15238797,0.09519321)"><g
       inkscape:label="Calque 1"
       id="layer1-7"
       transform="matrix(0.98328069,0,0,0.98328069,-0.46100238,1.103249)"><g
         id="g17"
         transform="matrix(1.2432009,0,0,1.2432009,-4.7592792,-3.6380245)"><path
           fill="#a05d43"
           d="m 28.43,53.34 c 0,0 1.67,-18.16 23.03,-28.02 24.95,-11.52 50.69,4.77 57.49,24.57 5.81,16.91 -0.67,34.36 -7.2,40.12 C 95.22,95.77 86.59,110.55 59.52,109.4 32.46,108.24 23.05,67.93 28.43,53.34"
           id="path1" /><path
           fill="#d27856"
           d="m 49.93,102.48 c 3.95,4.1 15.93,7.1 26.68,3.65 10.75,-3.45 11.32,-6.72 11.32,-6.72 0,0 -16.12,5.18 -25.91,0.77 -9.79,-4.41 -15.36,-23.03 -15.36,-23.03 0,0 -6.91,14.77 3.27,25.33"
           id="path2" /><path
           fill="#e9bb91"
           d="m 22.67,50.61 c -2.17,1.63 -4.03,4.89 -5.18,7.05 -1.15,2.16 -1.44,4.46 -5.18,6.77 -3.74,2.3 -6.91,1.3 -7.92,2.3 -1.01,1 0.43,4.75 5.04,5.33 4.61,0.58 6.62,-0.72 6.62,-0.72 0,0 0.43,10.65 0.43,16.41 0,5.76 3.17,28.2 21.31,31.53 14.64,2.69 22.89,-0.91 26.92,-3.07 6.92,-3.71 8.78,-6.14 13.68,-7.73 4.89,-1.58 7.98,0.02 13.2,-2.06 5.76,-2.3 6.91,-8.06 10.36,-10.65 3.45,-2.59 6.29,-1.87 9.6,-4.61 3.31,-2.74 2.59,-5.57 8.01,-10.32 2.07,-1.81 4.46,-3.31 5.04,-4.89 0.58,-1.58 -7.77,-2.02 -9.79,-2.02 -2.02,0 -4.82,0.07 -4.82,0.07 0,0 -1.08,4.39 -2.38,7.13 -1.3,2.74 -10.51,15.12 -13.39,16.41 -2.88,1.3 -4.8,1.3 -6.29,1.87 -1.49,0.58 -9.41,4.61 -12.72,5.04 -3.31,0.43 -13.93,2.9 -20.01,-3.41 -5.09,-5.28 -6.33,-12.28 -6.62,-16.17 -0.29,-3.89 -0.29,-14.11 -0.29,-14.11 0,0 1.73,2.06 7.39,2.06 3.46,0 6.14,-3.62 5.47,-4.89 -0.86,-1.63 -4.77,-1.13 -6.62,-2.21 -2.3,-1.34 -4.61,-4.89 -5.18,-6.53 -0.54,-1.52 -1.87,-5.33 -4.22,-7.49 -2.42,-2.22 -5.85,-4.03 -11.52,-3.93 -5.18,0.09 -8.06,0.68 -10.94,2.84"
           id="path3" /><path
           fill="#e9bb91"
           d="m 44.41,54.21 c 0,0 2.3,-22.6 2.59,-26.2 0.29,-3.6 1.73,-12.09 1.73,-14.54 0,-2.45 -0.72,-6.62 -5.04,-7.05 -4.32,-0.43 -5.76,4.89 -5.9,8.49 -0.14,3.6 -1.73,34.55 -1.73,34.55 l -6.19,-0.14 c 0,0 0.14,-19.43 0.29,-23.46 0.14,-4.03 0.14,-10.94 0.14,-12.38 0,-1.44 0,-7.49 -5.47,-7.2 -5.47,0.29 -4.89,6.62 -5.04,8.64 -0.15,2.02 0.86,16.55 1.01,19.43 0.14,2.88 1.44,18.86 1.44,18.86 z"
           id="path4" /><path
           fill="#d27856"
           d="m 33.23,60.35 c 0,0 -1.82,3.93 -4.41,3.93 -2.59,0 -2.59,-2.21 -3.93,-1.34 -1.34,0.86 -0.58,4.8 2.88,5.47 3.45,0.67 5.47,-1.25 5.47,-1.25 0,0 2.07,1.44 4.03,1.44 2.5,0 5.28,-3.65 4.22,-5.28 -1.06,-1.63 -2.88,1.25 -4.61,1.15 -1.73,-0.09 -3.65,-4.12 -3.65,-4.12 M 59.2,26.07 c -4.65,1.4 -6.52,3.35 -7.92,4.67 -1.4,1.32 -1.92,4.34 -0.27,6.09 1.65,1.75 4.57,1.18 6.12,0.08 1.55,-1.1 3.01,-2.21 5.37,-2.87 2.35,-0.66 5.89,-0.83 6.97,-1.43 1.08,-0.59 1.86,-2.31 1.49,-4.12 -0.37,-1.82 -1.36,-2.86 -4,-3.32 -1.96,-0.34 -4.68,-0.03 -7.76,0.9 m 15.01,2.61 c 0,1.34 0.38,2.4 2.88,2.69 2.79,0.32 3.84,-1.06 3.74,-2.5 -0.1,-1.46 -0.77,-2.3 -2.78,-2.69 -2.02,-0.38 -3.84,0.48 -3.84,2.5"
           id="path5" /><path
           fill="#2e2c2f"
           d="m 46.66,16.39 c -0.49,4.1 -1.75,7.14 -3.84,6.91 -3.02,-0.34 -2.98,-3.74 -2.98,-7.87 0,-3.87 1.14,-6.9 4.13,-6.57 2.86,0.31 3.15,3.69 2.69,7.53 M 28.54,16.01 c -0.12,4.13 -1.36,6.85 -3.29,7.01 -2.29,0.19 -3.61,-3.55 -3.73,-7.58 -0.11,-3.87 0.71,-6.39 3.53,-6.57 3.31,-0.23 3.6,3.27 3.49,7.14"
           id="path6" /><path
           fill="#4f352e"
           d="M 88.99,92.59 C 83.05,92.26 74.21,86.64 73.92,70.04 73.63,53.44 80.07,46.18 87.16,47.39 c 6.72,1.15 7.87,10.17 7.1,16.41 -0.77,6.24 -2.59,13.34 -6.72,11.32 -4.13,-2.02 -1.92,-9.69 -1.06,-11.52 0.86,-1.82 2.11,-3.93 0.86,-5.18 -1.25,-1.25 -4.03,0.29 -5.18,2.59 -1.15,2.3 -3.55,7.77 -1.25,15.07 2.3,7.29 11.8,8.16 15.55,0.77 3.74,-7.39 4.61,-21.21 1.34,-27.64 C 94.54,42.78 83.88,35.58 73.62,47.39 63.7,58.8 67.38,78.96 69.78,84.91 c 2.4,5.95 7.49,13.15 17.56,14.4 10.07,1.25 18.62,-10.65 19.29,-11.71 0.67,-1.06 3.26,-4.51 0.96,-6.48 -2.3,-1.97 -4.89,2.54 -5.57,3.5 -0.65,0.97 -6.12,8.36 -13.03,7.97"
           id="path7" /></g><ellipse
         style="fill:#ffffff;fill-opacity:1"
         id="path17"
         cx="25.392839"
         cy="14.143283"
         rx="2.212733"
         ry="4.7748446" /><ellipse
         style="fill:#ffffff;fill-opacity:1"
         id="path17-9"
         cx="48.256004"
         cy="14.156731"
         rx="2.212733"
         ry="4.7748446" /></g></g></svg>
